<svg xmlns="http://www.w3.org/2000/svg" xmlns:xlink="http://www.w3.org/1999/xlink" width="1096" height="285" viewBox="0 0 1096 285">
  <defs>
    <linearGradient id="linear-gradient" x1="-0.636" y1="2.396" x2="0.152" y2="1.723" gradientUnits="objectBoundingBox">
      <stop offset="0" stop-color="#e8e3dc"/>
      <stop offset="0.371" stop-color="#e9e5e0"/>
      <stop offset="0.777" stop-color="#ecebed"/>
      <stop offset="0.855" stop-color="#ededf1"/>
    </linearGradient>
    <clipPath id="clip-visual_img_01">
      <rect width="1096" height="285"/>
    </clipPath>
  </defs>
  <g id="visual_img_01" clip-path="url(#clip-visual_img_01)">
    <g id="グループ_61" data-name="グループ 61" transform="translate(-795.394 -768.479)">
      <g id="グループ_9" data-name="グループ 9" transform="translate(805.394 727.031)">
        <g id="グループ_6" data-name="グループ 6" transform="translate(0 210.452)">
          <path id="パス_6" data-name="パス 6" d="M621.444,502.044c-12.053-3.444-23.821-6.891-27.243-8.163-7.728-2.871,5.34-27.107-31.72-34.795s-54.865-3.479-54.865-3.479,18.692-30.263-.445-51.587-40.219-21.039-40.219-21.039-9.064-28.4-57.372-24.032-37.668,39.448-46.165,53.206-30.507.161-51.182,12.1-6.918,20.433-23.142,31.318-26.7,6.312-37.831,8.942-10.6,4.855-20.673,11.935-16.225,10.884-40.7,16.67c-11.831,2.8-28.458,6.178-42.489,8.927Z" transform="translate(-147.394 -358.492)" fill="#f9f9f9"/>
          <path id="パス_7" data-name="パス 7" d="M543.456,493.3c-1.193-8.58-3.967-20.706-28.233-25.739-37.063-7.688-54.865-3.479-54.865-3.479s18.692-30.265-.445-51.587S419.7,391.455,419.7,391.455s-9.063-28.4-57.372-24.032a79.834,79.834,0,0,0-10.139,1.557c-8.1,12.352-6.344,28.207-11.427,36.435-4.333,7.015-12.183,6.917-21.574,6.72a27.486,27.486,0,0,1-3.026,8.492c-6.688,10.829-21.748,4.719-37.939,7.444-3.587,7.037-.736,13.345-11.787,20.759a42.7,42.7,0,0,1-16.865,7.033c-1.292,2.632-3.477,5.324-7.734,8.18-16.225,10.884-26.7,6.312-37.831,8.942-.5.12-.955.238-1.412.356a66.521,66.521,0,0,1-12.4,6.332c-1.727,1.4-3.8,3.1-6.861,5.249a81.989,81.989,0,0,1-13.981,8.379Z" transform="translate(-124.736 -349.747)" fill="#ececec"/>
          <path id="パス_8" data-name="パス 8" d="M292.863,417.327c4.566,6.172.25,18.586,3.656,19.852s18.639-4.406,22.921,4.942a37.809,37.809,0,0,1,2.788,11.825h17.015a12.475,12.475,0,0,1-2.483-8.669c.908-13.681-9.437-26.774-19.247-24.455s-11.38-8.7-20.852-13.715-25.685.892-25.685.892S288.3,411.156,292.863,417.327Z" transform="translate(-19.835 -310.395)" fill="#f9f9f9"/>
        </g>
        <g id="グループ_7" data-name="グループ 7" transform="translate(702.893 97.826)">
          <path id="パス_9" data-name="パス 9" d="M859.622,369.721c-9.313-2.662-18.407-5.326-21.051-6.308-5.973-2.221,4.127-20.95-24.514-26.892s-42.4-2.687-42.4-2.687,14.445-23.39-.346-39.867-31.08-16.259-31.08-16.259-7-21.95-44.338-18.572-29.109,30.487-35.675,41.117-23.575.126-39.554,9.35-5.347,15.79-17.885,24.2-20.637,4.877-29.235,6.911-8.192,3.751-15.977,9.222-12.538,8.411-31.456,12.884c-9.143,2.16-21.992,4.774-32.836,6.9Z" transform="translate(-493.277 -258.783)" fill="#f9f9f9"/>
          <path id="パス_10" data-name="パス 10" d="M799.355,362.962c-.923-6.631-3.067-16-21.819-19.893-28.641-5.94-42.4-2.689-42.4-2.689s14.445-23.388-.343-39.865-31.082-16.259-31.082-16.259-7-21.949-44.336-18.572a61.317,61.317,0,0,0-7.836,1.2c-6.259,9.545-4.9,21.8-8.83,28.156-3.349,5.422-9.415,5.347-16.672,5.194A21.286,21.286,0,0,1,623.7,306.8c-5.168,8.366-16.808,3.646-29.32,5.751-2.772,5.44-.567,10.313-9.108,16.042a32.962,32.962,0,0,1-13.034,5.436,16.259,16.259,0,0,1-5.977,6.322c-12.536,8.411-20.637,4.877-29.235,6.909-.388.091-.738.183-1.091.274a51.3,51.3,0,0,1-9.584,4.893c-1.335,1.085-2.939,2.4-5.3,4.056a63.455,63.455,0,0,1-10.805,6.476Z" transform="translate(-475.766 -252.024)" fill="#ececec"/>
          <path id="パス_11" data-name="パス 11" d="M605.7,304.252c3.53,4.77.193,14.363,2.827,15.341s14.4-3.4,17.712,3.818a29.268,29.268,0,0,1,2.154,9.141h13.15a9.654,9.654,0,0,1-1.92-6.7c.7-10.573-7.291-20.692-14.873-18.9s-8.793-6.727-16.113-10.6-19.85.689-19.85.689S602.168,299.483,605.7,304.252Z" transform="translate(-394.7 -221.614)" fill="#f9f9f9"/>
        </g>
        <g id="グループ_8" data-name="グループ 8" transform="translate(381.007 50)">
          <path id="パス_12" data-name="パス 12" d="M461.732,293.344c-3.225-.921-6.375-1.843-7.289-2.183-2.069-.77,1.429-7.255-8.488-9.311s-14.68-.931-14.68-.931,5-8.1-.12-13.8-10.762-5.629-10.762-5.629-2.424-7.6-15.353-6.432-10.08,10.557-12.352,14.237-8.163.043-13.7,3.237-1.851,5.466-6.192,8.381-7.145,1.689-10.122,2.392-2.837,1.3-5.534,3.195-4.341,2.912-10.89,4.461c-3.168.748-7.617,1.652-11.37,2.388Z" transform="translate(-334.882 -254.932)" fill="#f9f9f9"/>
          <path id="パス_13" data-name="パス 13" d="M440.863,291c-.319-2.3-1.061-5.54-7.554-6.887-9.919-2.056-14.682-.931-14.682-.931s5-8.1-.118-13.8-10.762-5.629-10.762-5.629-2.426-7.6-15.353-6.432a21.759,21.759,0,0,0-2.713.417c-2.166,3.306-1.7,7.548-3.056,9.75-1.16,1.878-3.26,1.851-5.773,1.8a7.321,7.321,0,0,1-.811,2.272c-1.788,2.9-5.818,1.262-10.151,1.991-.961,1.884-.2,3.573-3.154,5.556a11.438,11.438,0,0,1-4.513,1.882,5.629,5.629,0,0,1-2.069,2.189c-4.343,2.912-7.147,1.689-10.124,2.392-.134.033-.256.065-.378.1a17.7,17.7,0,0,1-3.319,1.695c-.461.376-1.016.829-1.835,1.4A22,22,0,0,1,340.756,291Z" transform="translate(-328.819 -252.592)" fill="#ececec"/>
          <path id="パス_14" data-name="パス 14" d="M373.808,270.677c1.221,1.65.067,4.973.979,5.312s4.987-1.181,6.133,1.321a10.214,10.214,0,0,1,.746,3.164h4.552a3.334,3.334,0,0,1-.664-2.319c.244-3.662-2.524-7.165-5.15-6.544s-3.046-2.329-5.58-3.67-6.873.238-6.873.238S372.586,269.024,373.808,270.677Z" transform="translate(-300.749 -242.061)" fill="#f9f9f9"/>
        </g>
      </g>
    </g>
    <g id="Title" transform="translate(-340 -83)">
      <g id="グループ_328" data-name="グループ 328">
        <g id="グループ_327" data-name="グループ 327" transform="translate(-604.969 -151.534)">
          <path id="パス_737" data-name="パス 737" d="M58.668,0h64.258a58.668,58.668,0,0,1,58.668,58.668v64.258a58.668,58.668,0,0,1-58.668,58.668H58.668A58.668,58.668,0,0,1,0,122.927V58.668A58.668,58.668,0,0,1,58.668,0Z" transform="translate(1259.969 370.616)" fill="url(#linear-gradient)"/>
          <rect id="長方形_255" data-name="長方形 255" width="84.075" height="4.154" transform="translate(1308.729 510.867)" fill="#24adbf"/>
          <rect id="長方形_256" data-name="長方形 256" width="60.259" height="4.153" transform="translate(1320.636 523.954)" fill="#24adbf"/>
          <path id="パス_739" data-name="パス 739" d="M69.114,0h110.3a69.114,69.114,0,0,1,69.114,69.114V222.607a69.114,69.114,0,0,1-69.114,69.114H69.114A69.114,69.114,0,0,1,0,222.607V69.114A69.114,69.114,0,0,1,69.114,0Z" transform="translate(1571.437 383.597)" fill="url(#linear-gradient)"/>
          <g id="グループ_280" data-name="グループ 280" transform="translate(1684.124 555.694)">
            <rect id="長方形_258" data-name="長方形 258" width="19.711" height="3.651" transform="translate(0 0)" fill="#4598e6"/>
          </g>
          <g id="グループ_281" data-name="グループ 281" transform="translate(1609.288 589.147)">
            <rect id="長方形_259" data-name="長方形 259" width="114.701" height="7.068" fill="#24adbf"/>
            <rect id="長方形_260" data-name="長方形 260" width="92.753" height="7.068" transform="translate(0 33.934)" fill="#24adbf"/>
            <rect id="長方形_261" data-name="長方形 261" width="54.376" height="7.068" transform="translate(0 16.967)" fill="#24adbf"/>
          </g>
          <g id="グループ_282" data-name="グループ 282" transform="translate(1611.262 412.689)">
            <path id="パス_695" data-name="パス 695" d="M2132.6,763.9v3.57h21.019V787.2h3.569V763.9Zm-142.733,23.3h3.57V767.473h21.019V763.9h-24.589Zm163.752,101.788v19.734H2132.6v3.57h24.588v-23.3Zm-160.183,0h-3.57v23.3h24.589v-3.57h-21.019Z" transform="translate(-1989.871 -763.903)" fill="#24adbf"/>
          </g>
          <g id="グループ_285" data-name="グループ 285" transform="translate(1746.435 588.628)">
            <g id="グループ_283" data-name="グループ 283">
              <path id="パス_696" data-name="パス 696" d="M2403.514,1316.973a21.02,21.02,0,1,1,21.02-21.02A21.045,21.045,0,0,1,2403.514,1316.973Zm0-37.972a16.952,16.952,0,1,0,16.952,16.952A16.971,16.971,0,0,0,2403.514,1279Z" transform="translate(-2382.493 -1274.932)" fill="#4598e6"/>
            </g>
            <g id="グループ_284" data-name="グループ 284" transform="translate(10.13 14.185)">
              <path id="パス_697" data-name="パス 697" d="M2421.468,1331.243l-9.55-9.55,2.876-2.876,6.674,6.673,9.353-9.354,2.877,2.877Z" transform="translate(-2411.917 -1316.135)" fill="#4598e6"/>
            </g>
          </g>
          <path id="パス_738" data-name="パス 738" d="M48.232,0H85.184a48.233,48.233,0,0,1,48.233,48.233V71.927a48.232,48.232,0,0,1-48.232,48.232H48.232A48.232,48.232,0,0,1,0,71.927V48.232A48.232,48.232,0,0,1,48.232,0Z" transform="translate(1449.401 263.368)" fill="url(#linear-gradient)"/>
          <g id="グループ_286" data-name="グループ 286" transform="translate(1471.198 285.114)">
            <path id="パス_698" data-name="パス 698" d="M1979.171,364.3v1.916h11.283v10.589h1.916V364.3Zm-76.622,12.506h1.916V366.221h11.284V364.3h-13.2Zm87.906,54.642v10.593h-11.283v1.917h13.2v-12.51Zm-85.99,0h-1.916v12.51h13.2v-1.917h-11.284Z" transform="translate(-1902.548 -364.305)" fill="#24adbf"/>
          </g>
          <g id="グループ_287" data-name="グループ 287" transform="translate(1290.778 389.48)">
            <path id="パス_699" data-name="パス 699" d="M1451.8,551.262v2.56h15.071v14.145h2.559v-16.7Zm-102.345,16.7h2.56V553.822h15.071v-2.56h-17.631Zm117.416,72.985V655.1H1451.8v2.56h17.63V640.952Zm-114.856,0h-2.56v16.709h17.631V655.1h-15.071Z" transform="translate(-1349.457 -551.262)" fill="#24adbf"/>
          </g>
          <g id="グループ_303" data-name="グループ 303" transform="translate(1297.962 337.774)">
            <g id="グループ_288" data-name="グループ 288" transform="translate(33.565 0.106)">
              <path id="パス_700" data-name="パス 700" d="M1490.119,402.986s-8.9-5.712-16.931,4.442-5.14,19.914-3.463,29.03c1.663,9.04,9.759,29.725,6.319,38.838s.956,13.858.956,13.858,27.608,7.069,24.389-34.456S1490.119,402.986,1490.119,402.986Z" transform="translate(-1467.813 -401.385)" fill="#163342"/>
            </g>
            <g id="グループ_289" data-name="グループ 289" transform="translate(71.406 79.768)">
              <path id="パス_701" data-name="パス 701" d="M1579,646.748s8.083,21.422,15.721,41.385h20.715c-3.166-9.774-6.378-20.193-6.731-22.106-.676-3.719-.984-14.737-5.225-22.467s-14.361-10.788-14.361-10.788C1572.432,633.524,1579,646.748,1579,646.748Z" transform="translate(-1577.726 -632.771)" fill="#115f73"/>
            </g>
            <g id="グループ_290" data-name="グループ 290" transform="translate(16.729 73.549)">
              <path id="パス_702" data-name="パス 702" d="M1422.931,655.818s3.227,10.5,6.347,20.469h67.594c.284-.876.638-1.8,1.06-2.773,4.949-11.457,7.354-21.215,4.949-27.723s-16.121-24.327-19.663-25.033-13.716-5.517-13.716-5.517c-6.654-.991-16.112-.5-19.37.637s-21.369,2.966-28.015,8.13C1414.463,629.955,1422.931,655.818,1422.931,655.818Z" transform="translate(-1418.914 -614.707)" fill="#eddad3"/>
            </g>
            <g id="グループ_291" data-name="グループ 291" transform="translate(70.272 70.46)">
              <path id="パス_703" data-name="パス 703" d="M1574.728,632.059l6.188-7.247-5.374-19.078A126,126,0,0,0,1574.728,632.059Z" transform="translate(-1574.432 -605.734)" fill="#d6c5be"/>
            </g>
            <g id="グループ_292" data-name="グループ 292" transform="translate(47.95 48.39)">
              <path id="パス_704" data-name="パス 704" d="M1533.822,555.572s-2.032,18.683-1.608,24.765c0,0-10.582,10.6-22.618-12.379,0,0,5.065-9.473,1.253-22.382S1533.822,555.572,1533.822,555.572Z" transform="translate(-1509.596 -541.632)" fill="#eea886"/>
            </g>
            <g id="グループ_293" data-name="グループ 293" transform="translate(58.389 87.095)">
              <path id="パス_705" data-name="パス 705" d="M1552.1,654.054v9.689l-12.179-9.1Z" transform="translate(-1539.918 -654.054)" fill="#eea886"/>
            </g>
            <g id="グループ_294" data-name="グループ 294" transform="translate(42.968 73.549)">
              <path id="パス_706" data-name="パス 706" d="M1522.726,637.944l-5.057-6.259-17.033-16.977-5.51,5.307Z" transform="translate(-1495.126 -614.708)" fill="#d6c5be"/>
            </g>
            <g id="グループ_295" data-name="グループ 295" transform="translate(13.646 75.174)">
              <path id="パス_707" data-name="パス 707" d="M1409.959,641.77s2.919,10.826,10.819,37.612h35.176c1.092-14.092,1.7-25.318,1.452-28.714-.684-9.551-14.983-31.242-14.983-31.242s-8.905,1.076-18.472,3.15C1413.04,624.943,1409.959,641.77,1409.959,641.77Z" transform="translate(-1409.959 -619.426)" fill="#115f73"/>
            </g>
            <g id="グループ_296" data-name="グループ 296" transform="translate(74.87 77.433)">
              <path id="パス_708" data-name="パス 708" d="M1587.789,625.987c8.714,10.427,11.81,33.34,12.3,57.7h7.822c9.074-18.986,6.646-27.6,6.646-27.6-4.74-16.228-18.84-27.762-18.84-27.762Z" transform="translate(-1587.789 -625.987)" fill="#115f73"/>
            </g>
            <g id="グループ_297" data-name="グループ 297" transform="translate(71.383 70.46)">
              <path id="パス_709" data-name="パス 709" d="M1583.034,624.813l7.8,2.155-13.171-21.233Z" transform="translate(-1577.66 -605.734)" fill="#fae6de"/>
            </g>
            <g id="グループ_298" data-name="グループ 298" transform="translate(43.838 73.549)">
              <path id="パス_710" data-name="パス 710" d="M1519.327,631.685l-7.123,9.336-14.55-24.387,4.64-1.925Z" transform="translate(-1497.654 -614.708)" fill="#fae6de"/>
            </g>
            <g id="グループ_299" data-name="グループ 299" transform="translate(51.99 58.338)">
              <path id="パス_711" data-name="パス 711" d="M1541.1,578.63l-.374,3.68s-8.387,1.641-19.393-11.784C1521.33,570.526,1529.131,580.042,1541.1,578.63Z" transform="translate(-1521.33 -570.526)" fill="#a77860"/>
            </g>
            <g id="グループ_300" data-name="グループ 300" transform="translate(42.577 1.433)">
              <path id="パス_712" data-name="パス 712" d="M1521.035,470.521c3.313-.122,12.563-1.2,17.126-22.512,5.575-26.033-6.744-39.534-17.291-42.036s-20.276,1.165-25.677,14.771c0,0-3.948,10.609,2.46,29.507S1517.487,470.651,1521.035,470.521Z" transform="translate(-1493.99 -405.24)" fill="#eea987"/>
            </g>
            <g id="グループ_301" data-name="グループ 301" transform="translate(39.622)">
              <path id="パス_713" data-name="パス 713" d="M1506.945,420.127s14.165.881,27.332,20.661c0,0,6.163-23.8-9.945-34.662s-27.39-1.523-31.32,3.213c0,0-5.638,1.295-5.815,11.99s-7.369,26.835,8.412,34.489c0,0-1.5-12.208-.114-15S1501.706,439.91,1506.945,420.127Z" transform="translate(-1485.409 -401.078)" fill="#163342"/>
            </g>
            <g id="グループ_302" data-name="グループ 302" transform="translate(46.375 33.209)">
              <path id="パス_714" data-name="パス 714" d="M1509.13,499.326c-.714-1.851-2.661-2.6-3.732-.612s.2,9.682,3.063,10.524S1510.578,503.077,1509.13,499.326Z" transform="translate(-1505.022 -497.537)" fill="#eea987"/>
            </g>
            <path id="パス_715" data-name="パス 715" d="M1370.322,681.182h23.028c2.42-5.932,4.672-11.187,6.178-14.968,4.987-12.548,24.834-36.144,12.186-44.013,0,0-16.574-1.014-24.88,8.652s-7.86,21.153-9.974,26.14C1375.293,660.69,1372.236,673.422,1370.322,681.182Z" transform="translate(-1370.322 -546.053)" fill="#115f73"/>
          </g>
          <g id="グループ_317" data-name="グループ 317" transform="translate(1617.121 363.659)">
            <g id="グループ_305" data-name="グループ 305" transform="translate(33.925)">
              <g id="グループ_304" data-name="グループ 304">
                <path id="パス_716" data-name="パス 716" d="M2146.392,621.556s19.461-2.04,26.472,16.754,13.614,24.946,14.441,34.819c3.343,39.933,21.991,30.9,16.746,53.919s-8.876,26.5-8.876,26.5l-44.583-8.741-45.164.146s17.669-8.824,13.736-27.618-13.736-49.6-8.2-70.576S2134.761,623.159,2146.392,621.556Z" transform="translate(-2105.428 -621.492)" fill="#0e2d3d"/>
              </g>
            </g>
            <g id="グループ_307" data-name="グループ 307" transform="translate(0 97.561)">
              <g id="グループ_306" data-name="グループ 306">
                <path id="パス_717" data-name="パス 717" d="M2159.638,970.788H2006.89c7.373-18.916,14.614-36.552,16.68-38.713,4.388-4.577,25.976-18.9,44.1-24.62s28.412-.19,28.412-.19,33.624,9.43,47.925,24.877C2147.991,936.453,2154.123,953.35,2159.638,970.788Z" transform="translate(-2006.89 -904.864)" fill="#fb6223"/>
              </g>
            </g>
            <g id="グループ_309" data-name="グループ 309" transform="translate(59.527 76.44)">
              <g id="グループ_308" data-name="グループ 308">
                <path id="パス_718" data-name="パス 718" d="M2208.6,845.212s-1.566,19.427,2.176,25.247-3.2,13.72-17.5,11.017-13.47-10.809-13.47-10.809,4-11.988,2.833-21.585S2208.6,845.212,2208.6,845.212Z" transform="translate(-2179.791 -843.517)" fill="#eea886"/>
              </g>
            </g>
            <g id="グループ_311" data-name="グループ 311" transform="translate(53.936 97.818)">
              <g id="グループ_310" data-name="グループ 310">
                <path id="パス_719" data-name="パス 719" d="M2207.248,910.49s-12.9,29.182-29.613,35.479c0,0-17.81-14.15-13.374-35.824C2164.26,910.145,2186.86,899.722,2207.248,910.49Z" transform="translate(-2163.551 -905.613)" fill="#eea886"/>
              </g>
            </g>
            <g id="グループ_313" data-name="グループ 313" transform="translate(46.75 10.846)">
              <g id="グループ_312" data-name="グループ 312">
                <path id="パス_720" data-name="パス 720" d="M2173.383,653.2s25.775,3.719,22,41.768-26.521,35.028-28.04,35-22.821.791-24.664-45.635C2142.681,684.333,2141.822,650,2173.383,653.2Z" transform="translate(-2142.679 -652.993)" fill="#eea886"/>
              </g>
            </g>
            <g id="グループ_315" data-name="グループ 315" transform="translate(44.188 4.83)">
              <g id="グループ_314" data-name="グループ 314">
                <path id="パス_721" data-name="パス 721" d="M2165.558,655.536s12.042,12.661,17.635,19.071,6.238,18.794,6.238,18.794,9.422-11.509,5.482-24.913-13.264-39.482-36.866-31.469-24.476,43.27-21.708,60.752C2136.339,697.772,2146.934,659.179,2165.558,655.536Z" transform="translate(-2135.239 -635.521)" fill="#0e2d3d"/>
              </g>
            </g>
            <g id="グループ_316" data-name="グループ 316" transform="translate(64.598 83.019)">
              <path id="パス_722" data-name="パス 722" d="M2194.521,865.824a21.608,21.608,0,0,0,22.192-3.2s-4.286,7.131-11.771,7.52S2194.521,865.824,2194.521,865.824Z" transform="translate(-2194.521 -862.628)" fill="#a77860"/>
            </g>
          </g>
          <g id="グループ_326" data-name="グループ 326" transform="translate(1473.767 243.534)">
            <g id="グループ_318" data-name="グループ 318" transform="translate(66.732 59.878)">
              <path id="パス_723" data-name="パス 723" d="M2121.79,458.555h-15.363c-.212-1.32-.4-2.652-.568-3.967v-.011c-1.014-8.01-1.27-15.324-1.27-15.324s-4.485-20.533,8.472-21.8c0,0,3.47,1.086,3.677,2.512.78,5.487,2.568,17.352,2.646,20.16C2119.423,441.576,2120.788,451.374,2121.79,458.555Z" transform="translate(-2103.839 -417.455)" fill="#383873"/>
            </g>
            <g id="グループ_319" data-name="グループ 319" transform="translate(1.543 47.307)">
              <path id="パス_724" data-name="パス 724" d="M1989.288,393.948q-.284,8.44-1,18.1s-.646,10.522-.869,22.561h-54.614c-1.27-5.927-2.69-11.18-2.869-11.837,0-.006-.005-.017-.005-.022s0-.017-.006-.017v-.028s-1.225,5.916-2.206,11.9h-13.23c1.638-13.152,5.643-42.314,7.76-43.829,1.8-1.292,13.119-5.827,18.99-8.055a42.164,42.164,0,0,1,5.2-1.783c1.342-.083,17.9,1.5,17.9,1.5s2.373.814,4.8,1.928c4.145,1.9,10.595,4.868,15.224,7.075C1985.862,392.165,1987.734,393.129,1989.288,393.948Z" transform="translate(-1914.492 -380.943)" fill="#d8d5e0"/>
            </g>
            <g id="グループ_320" data-name="グループ 320" transform="translate(33.581 30.822)">
              <path id="パス_725" data-name="パス 725" d="M2007.551,349.515c1.216,11.155,13.6,11.155,13.6,11.155s5.127-4.485,4.964-7.8c0-.071-.009-.147-.018-.216-.075-.611-.768-1.371-.839-2.595-.01-.167-.014-.338-.018-.507s0-.332,0-.5c0-.847.053-1.685.1-2.267.018-.2.035-.379.049-.515.02-.206.035-.324.035-.324s-2-2.1-4.533-4.611c-4.434-4.383-10.532-10-10.542-7.768a2.1,2.1,0,0,0,.053.423C2011.472,339.018,2007.551,349.515,2007.551,349.515Z" transform="translate(-2007.551 -333.06)" fill="#eea886"/>
            </g>
            <path id="パス_726" data-name="パス 726" d="M2028.452,399.926l5.156,4.588s-5.952-.4-7.064-1.387Z" transform="translate(-1986.424 -346.083)" fill="#b4b1ba"/>
            <g id="グループ_321" data-name="グループ 321" transform="translate(54.068 49.834)">
              <path id="パス_727" data-name="パス 727" d="M2084.4,396.265c-3.13-1.488-7.1-3.331-10.623-4.958-1.676-.78-3.259-1.5-4.6-2.117l-2.123-.908c.117.284,3.978,9.57,6.891,29.936.746,5.214,1.91,12.773,3.052,21.207h10.873c.6-11.977.891-22.349.891-22.349.485-6.562.763-12.7.947-18.416C2088.123,397.986,2086.067,397.056,2084.4,396.265Z" transform="translate(-2067.055 -388.282)" fill="#383873"/>
            </g>
            <g id="グループ_322" data-name="グループ 322" transform="translate(0 49.093)">
              <path id="パス_728" data-name="パス 728" d="M1952.67,438.014H1929a77.768,77.768,0,0,0-1.521-9.5s-1.031,4.217-1.972,9.5h-15.492c1.643-14.55,5-42.035,7.008-43.472,1.526-1.092,12.834-5.1,18.377-7.287,1.014-.4,2-.779,2.908-1.125,1.175,1.309,13.654,24.394,14.629,43.155A78.132,78.132,0,0,1,1952.67,438.014Z" transform="translate(-1910.011 -386.13)" fill="#383873"/>
            </g>
            <path id="パス_729" data-name="パス 729" d="M2035.756,400.736s.442,6.335-4.917,6.482-9.613-5-9.613-5l8.894,2.294,5.414-4.588Z" transform="translate(-1982.937 -346.083)" fill="#d8d5e0"/>
            <path id="パス_730" data-name="パス 730" d="M2001.8,374.794s5.079,6.517,7.731,8.653l-4.346,7.292-7.5-12.751Z" transform="translate(-1967.503 -329.603)" fill="#eae6f2"/>
            <path id="パス_731" data-name="パス 731" d="M2051.646,389.643l-4.585,3.392s4.028-7.345,4.107-10.616Z" transform="translate(-1999.877 -334.603)" fill="#b4b1ba"/>
            <path id="パス_732" data-name="パス 732" d="M2058.99,382.419l2.943,2.08,3.281,9.784-5.746-4.64Z" transform="translate(-2007.699 -334.603)" fill="#eae6f2"/>
            <g id="グループ_323" data-name="グループ 323" transform="translate(36.264 4.264)">
              <path id="パス_733" data-name="パス 733" d="M2044.956,266.817s3.234,7.869,1.121,8.817c-1.745.784,1.058,8.468,1.4,9.711s-3.2,1.748-4.01,2.44-3.978,9.919-6.846,9.906-15.193-5.807-18.3-9.794-4.24-20.647-1.19-27.3S2039.235,253.064,2044.956,266.817Z" transform="translate(-2015.344 -255.919)" fill="#eea886"/>
            </g>
            <g id="グループ_324" data-name="グループ 324" transform="translate(32.955)">
              <path id="パス_734" data-name="パス 734" d="M2039.285,260.395s4.946-7.611-1.874-14.36-21.654,2.278-23.244,2.515-10.907,2.228-7.808,16.4c2.759,12.624,3.023,12.954,3.023,12.954s3.7-6.675,5.434-7.674c2.707-1.561,8.174-.543,8.174-.543s-1.894-7.252,2.316-7.807S2035.293,258.416,2039.285,260.395Z" transform="translate(-2005.731 -243.534)" fill="#0e2d3d"/>
            </g>
            <g id="グループ_325" data-name="グループ 325" transform="translate(40.058 17.965)">
              <path id="パス_735" data-name="パス 735" d="M2032.564,299.453c-.261-.995-1-5.23-4.782-3.186s1.13,10.4,1.734,10.561S2034.766,307.824,2032.564,299.453Z" transform="translate(-2026.364 -295.716)" fill="#eea886"/>
            </g>
            <path id="パス_736" data-name="パス 736" d="M2025.428,350.448a20.968,20.968,0,0,0,11.536,10.5c0-.165,0-.332,0-.5,0-.847.052-1.685.1-2.267.018-.2.034-.379.048-.515C2037.11,357.67,2027.833,353.31,2025.428,350.448Z" transform="translate(-1985.692 -313.64)" fill="#a77860"/>
          </g>
        </g>
      </g>
    </g>
  </g>
</svg>
