<svg xmlns="http://www.w3.org/2000/svg" width="20" height="16" viewBox="0 0 20 16">
  <g id="share_ico_tw" transform="translate(-246 -636)">
    <rect id="長方形_347" data-name="長方形 347" width="20" height="16" transform="translate(246 636)" fill="none"/>
    <path id="パス_350" data-name="パス 350" d="M201.185,211.936a11.414,11.414,0,0,0,11.488-11.488c0-.173,0-.346-.008-.52a8.226,8.226,0,0,0,2.016-2.095,8.182,8.182,0,0,1-2.323.638,4.062,4.062,0,0,0,1.78-2.236,8.03,8.03,0,0,1-2.567.976,4.039,4.039,0,0,0-6.984,2.764,4.462,4.462,0,0,0,.1.921,11.466,11.466,0,0,1-8.323-4.22,4.054,4.054,0,0,0,1.252,5.394,4.085,4.085,0,0,1-1.827-.5v.055a4.046,4.046,0,0,0,3.236,3.961,4.06,4.06,0,0,1-1.819.071,4.038,4.038,0,0,0,3.772,2.8,8.1,8.1,0,0,1-5.016,1.732,7.771,7.771,0,0,1-.961-.055,11.485,11.485,0,0,0,6.181,1.8" transform="translate(50.996 440.064)" fill="#fff"/>
  </g>
</svg>
