<svg xmlns="http://www.w3.org/2000/svg" xmlns:xlink="http://www.w3.org/1999/xlink" width="1096" height="285" viewBox="0 0 1096 285">
  <defs>
    <clipPath id="clip-visual_img_01">
      <rect width="1096" height="285"/>
    </clipPath>
  </defs>
  <g id="visual_img_01" clip-path="url(#clip-visual_img_01)">
    <g id="グループ_61" data-name="グループ 61" transform="translate(-795.394 -768.479)">
      <g id="グループ_9" data-name="グループ 9" transform="translate(805.394 727.031)">
        <g id="グループ_6" data-name="グループ 6" transform="translate(0 210.452)">
          <path id="パス_6" data-name="パス 6" d="M621.444,502.044c-12.053-3.444-23.821-6.891-27.243-8.163-7.728-2.871,5.34-27.107-31.72-34.795s-54.865-3.479-54.865-3.479,18.692-30.263-.445-51.587-40.219-21.039-40.219-21.039-9.064-28.4-57.372-24.032-37.668,39.448-46.165,53.206-30.507.161-51.182,12.1-6.918,20.433-23.142,31.318-26.7,6.312-37.831,8.942-10.6,4.855-20.673,11.935-16.225,10.884-40.7,16.67c-11.831,2.8-28.458,6.178-42.489,8.927Z" transform="translate(-147.394 -358.492)" fill="#f9f9f9"/>
          <path id="パス_7" data-name="パス 7" d="M543.456,493.3c-1.193-8.58-3.967-20.706-28.233-25.739-37.063-7.688-54.865-3.479-54.865-3.479s18.692-30.265-.445-51.587S419.7,391.455,419.7,391.455s-9.063-28.4-57.372-24.032a79.834,79.834,0,0,0-10.139,1.557c-8.1,12.352-6.344,28.207-11.427,36.435-4.333,7.015-12.183,6.917-21.574,6.72a27.486,27.486,0,0,1-3.026,8.492c-6.688,10.829-21.748,4.719-37.939,7.444-3.587,7.037-.736,13.345-11.787,20.759a42.7,42.7,0,0,1-16.865,7.033c-1.292,2.632-3.477,5.324-7.734,8.18-16.225,10.884-26.7,6.312-37.831,8.942-.5.12-.955.238-1.412.356a66.521,66.521,0,0,1-12.4,6.332c-1.727,1.4-3.8,3.1-6.861,5.249a81.989,81.989,0,0,1-13.981,8.379Z" transform="translate(-124.736 -349.747)" fill="#ececec"/>
          <path id="パス_8" data-name="パス 8" d="M292.863,417.327c4.566,6.172.25,18.586,3.656,19.852s18.639-4.406,22.921,4.942a37.809,37.809,0,0,1,2.788,11.825h17.015a12.475,12.475,0,0,1-2.483-8.669c.908-13.681-9.437-26.774-19.247-24.455s-11.38-8.7-20.852-13.715-25.685.892-25.685.892S288.3,411.156,292.863,417.327Z" transform="translate(-19.835 -310.395)" fill="#f9f9f9"/>
        </g>
        <g id="グループ_7" data-name="グループ 7" transform="translate(702.893 97.826)">
          <path id="パス_9" data-name="パス 9" d="M859.622,369.721c-9.313-2.662-18.407-5.326-21.051-6.308-5.973-2.221,4.127-20.95-24.514-26.892s-42.4-2.687-42.4-2.687,14.445-23.39-.346-39.867-31.08-16.259-31.08-16.259-7-21.95-44.338-18.572-29.109,30.487-35.675,41.117-23.575.126-39.554,9.35-5.347,15.79-17.885,24.2-20.637,4.877-29.235,6.911-8.192,3.751-15.977,9.222-12.538,8.411-31.456,12.884c-9.143,2.16-21.992,4.774-32.836,6.9Z" transform="translate(-493.277 -258.783)" fill="#f9f9f9"/>
          <path id="パス_10" data-name="パス 10" d="M799.355,362.962c-.923-6.631-3.067-16-21.819-19.893-28.641-5.94-42.4-2.689-42.4-2.689s14.445-23.388-.343-39.865-31.082-16.259-31.082-16.259-7-21.949-44.336-18.572a61.317,61.317,0,0,0-7.836,1.2c-6.259,9.545-4.9,21.8-8.83,28.156-3.349,5.422-9.415,5.347-16.672,5.194A21.286,21.286,0,0,1,623.7,306.8c-5.168,8.366-16.808,3.646-29.32,5.751-2.772,5.44-.567,10.313-9.108,16.042a32.962,32.962,0,0,1-13.034,5.436,16.259,16.259,0,0,1-5.977,6.322c-12.536,8.411-20.637,4.877-29.235,6.909-.388.091-.738.183-1.091.274a51.3,51.3,0,0,1-9.584,4.893c-1.335,1.085-2.939,2.4-5.3,4.056a63.455,63.455,0,0,1-10.805,6.476Z" transform="translate(-475.766 -252.024)" fill="#ececec"/>
          <path id="パス_11" data-name="パス 11" d="M605.7,304.252c3.53,4.77.193,14.363,2.827,15.341s14.4-3.4,17.712,3.818a29.268,29.268,0,0,1,2.154,9.141h13.15a9.654,9.654,0,0,1-1.92-6.7c.7-10.573-7.291-20.692-14.873-18.9s-8.793-6.727-16.113-10.6-19.85.689-19.85.689S602.168,299.483,605.7,304.252Z" transform="translate(-394.7 -221.614)" fill="#f9f9f9"/>
        </g>
        <g id="グループ_8" data-name="グループ 8" transform="translate(381.007 50)">
          <path id="パス_12" data-name="パス 12" d="M461.732,293.344c-3.225-.921-6.375-1.843-7.289-2.183-2.069-.77,1.429-7.255-8.488-9.311s-14.68-.931-14.68-.931,5-8.1-.12-13.8-10.762-5.629-10.762-5.629-2.424-7.6-15.353-6.432-10.08,10.557-12.352,14.237-8.163.043-13.7,3.237-1.851,5.466-6.192,8.381-7.145,1.689-10.122,2.392-2.837,1.3-5.534,3.195-4.341,2.912-10.89,4.461c-3.168.748-7.617,1.652-11.37,2.388Z" transform="translate(-334.882 -254.932)" fill="#f9f9f9"/>
          <path id="パス_13" data-name="パス 13" d="M440.863,291c-.319-2.3-1.061-5.54-7.554-6.887-9.919-2.056-14.682-.931-14.682-.931s5-8.1-.118-13.8-10.762-5.629-10.762-5.629-2.426-7.6-15.353-6.432a21.759,21.759,0,0,0-2.713.417c-2.166,3.306-1.7,7.548-3.056,9.75-1.16,1.878-3.26,1.851-5.773,1.8a7.321,7.321,0,0,1-.811,2.272c-1.788,2.9-5.818,1.262-10.151,1.991-.961,1.884-.2,3.573-3.154,5.556a11.438,11.438,0,0,1-4.513,1.882,5.629,5.629,0,0,1-2.069,2.189c-4.343,2.912-7.147,1.689-10.124,2.392-.134.033-.256.065-.378.1a17.7,17.7,0,0,1-3.319,1.695c-.461.376-1.016.829-1.835,1.4A22,22,0,0,1,340.756,291Z" transform="translate(-328.819 -252.592)" fill="#ececec"/>
          <path id="パス_14" data-name="パス 14" d="M373.808,270.677c1.221,1.65.067,4.973.979,5.312s4.987-1.181,6.133,1.321a10.214,10.214,0,0,1,.746,3.164h4.552a3.334,3.334,0,0,1-.664-2.319c.244-3.662-2.524-7.165-5.15-6.544s-3.046-2.329-5.58-3.67-6.873.238-6.873.238S372.586,269.024,373.808,270.677Z" transform="translate(-300.749 -242.061)" fill="#f9f9f9"/>
        </g>
      </g>
    </g>
    <g id="Title" transform="translate(-340 -83)">
      <g id="グループ_108" data-name="グループ 108">
        <g id="グループ_104" data-name="グループ 104" transform="translate(543.255 15.638)">
          <g id="グループ_81" data-name="グループ 81" transform="translate(213.283 204.9)">
            <rect id="長方形_203" data-name="長方形 203" width="96.226" height="75.304" rx="3.988" transform="translate(0 0)" fill="#383873"/>
            <path id="パス_186" data-name="パス 186" d="M225.09,185.432h-3.021a18.057,18.057,0,0,0-2.039-4.648l2.331-2.331a2.276,2.276,0,0,0,0-3.217l-3.281-3.281a2.278,2.278,0,0,0-3.219,0l-2.478,2.478A18.029,18.029,0,0,0,209,172.665V168.95a2.275,2.275,0,0,0-2.277-2.275h-4.639a2.275,2.275,0,0,0-2.276,2.275v3.757a18.271,18.271,0,0,0-4.258,1.693l-2.719-2.719a2.275,2.275,0,0,0-3.219,0l-3.279,3.279a2.275,2.275,0,0,0,0,3.219l2.518,2.518a18.264,18.264,0,0,0-1.98,4.346h-3.543a2.275,2.275,0,0,0-2.276,2.275v4.639a2.277,2.277,0,0,0,2.276,2.277h3.1a17.926,17.926,0,0,0,1.744,4.859l-2.119,2.119a2.279,2.279,0,0,0,0,3.219l3.281,3.279a2.273,2.273,0,0,0,3.217,0l1.843-1.841a18.057,18.057,0,0,0,5.022,2.271v2.575a2.277,2.277,0,0,0,2.277,2.277h4.639a2.275,2.275,0,0,0,2.275-2.277v-2.4a18.209,18.209,0,0,0,5.206-2.1l1.773,1.773a2.273,2.273,0,0,0,3.217,0l3.281-3.281a2.276,2.276,0,0,0,0-3.217l-1.821-1.821a18.154,18.154,0,0,0,2-5.043h2.825a2.275,2.275,0,0,0,2.275-2.277v-4.639A2.273,2.273,0,0,0,225.09,185.432Zm-18.4,16.5a11.7,11.7,0,1,1,9.187-9.187A11.709,11.709,0,0,1,206.687,201.932Z" transform="translate(-155.665 -151.743)" fill="#fff"/>
          </g>
          <g id="グループ_87" data-name="グループ 87" transform="translate(336.511 163.131)">
            <rect id="長方形_204" data-name="長方形 204" width="96.226" height="75.304" rx="3.988" transform="translate(0 0)" fill="#fe9a57"/>
            <g id="グループ_86" data-name="グループ 86" transform="translate(19.476 22.013)">
              <g id="グループ_84" data-name="グループ 84" transform="translate(0 1.596)">
                <g id="グループ_82" data-name="グループ 82">
                  <path id="パス_110" data-name="パス 110" d="M257.6,175.624a2.172,2.172,0,0,1-1.588-.7L245.87,164.063a2.521,2.521,0,0,1,0-3.4l10.314-11.037a2.144,2.144,0,0,1,3.177,0,2.527,2.527,0,0,1,0,3.4l-8.725,9.335,8.553,9.155a2.523,2.523,0,0,1,0,3.4A2.172,2.172,0,0,1,257.6,175.624Z" transform="translate(-245.211 -148.924)" fill="#fff"/>
                </g>
                <g id="グループ_83" data-name="グループ 83" transform="translate(42.465)">
                  <path id="パス_111" data-name="パス 111" d="M270.834,175.624a2.172,2.172,0,0,1-1.589-.7,2.523,2.523,0,0,1,0-3.4l8.555-9.155-8.727-9.335a2.527,2.527,0,0,1,0-3.4,2.144,2.144,0,0,1,3.177,0l10.316,11.037a2.521,2.521,0,0,1,0,3.4l-10.144,10.856A2.173,2.173,0,0,1,270.834,175.624Z" transform="translate(-268.416 -148.924)" fill="#fff"/>
                </g>
              </g>
              <g id="グループ_85" data-name="グループ 85" transform="translate(21.355)">
                <path id="パス_112" data-name="パス 112" d="M259.127,179.329a2.113,2.113,0,0,1-.846-.178,2.466,2.466,0,0,1-1.235-3.133l10.069-26.467a2.2,2.2,0,0,1,2.928-1.319,2.466,2.466,0,0,1,1.235,3.133L261.209,177.83A2.252,2.252,0,0,1,259.127,179.329Z" transform="translate(-256.88 -148.052)" fill="#fff"/>
              </g>
            </g>
          </g>
          <g id="グループ_91" data-name="グループ 91" transform="translate(296.587 243.651)">
            <g id="グループ_90" data-name="グループ 90" transform="translate(0 0)">
              <path id="長方形_205" data-name="長方形 205" d="M1.66,0H200.88a1.66,1.66,0,0,1,1.66,1.66V9.254a0,0,0,0,1,0,0H0a0,0,0,0,1,0,0V1.66A1.66,1.66,0,0,1,1.66,0Z" fill="#fff"/>
              <path id="長方形_206" data-name="長方形 206" d="M0,0H202.539a0,0,0,0,1,0,0V104.89a3.09,3.09,0,0,1-3.09,3.09H3.09A3.09,3.09,0,0,1,0,104.89V0A0,0,0,0,1,0,0Z" transform="translate(0 9.254)" fill="#383873"/>
              <g id="グループ_89" data-name="グループ 89" transform="translate(170.394 3.203)">
                <g id="グループ_88" data-name="グループ 88">
                  <path id="パス_113" data-name="パス 113" d="M319.408,183.2a1.424,1.424,0,1,1-1.424-1.424A1.423,1.423,0,0,1,319.408,183.2Z" transform="translate(-296.984 -181.773)" fill="#ff6224"/>
                  <path id="パス_114" data-name="パス 114" d="M314.06,183.2a1.424,1.424,0,1,1-1.424-1.424A1.423,1.423,0,0,1,314.06,183.2Z" transform="translate(-301.423 -181.773)" fill="#ff6224"/>
                  <path id="パス_115" data-name="パス 115" d="M308.711,183.2a1.424,1.424,0,1,1-1.424-1.424A1.423,1.423,0,0,1,308.711,183.2Z" transform="translate(-305.863 -181.773)" fill="#ff6224"/>
                </g>
              </g>
              <path id="パス_116" data-name="パス 116" d="M331.847,194.828H219.377a1.956,1.956,0,0,1-1.958-1.956h0a1.958,1.958,0,0,1,1.958-1.958h112.47a1.958,1.958,0,0,1,1.956,1.958h0A1.956,1.956,0,0,1,331.847,194.828Z" transform="translate(-208.877 -170.983)" fill="#20c3c5"/>
              <path id="パス_117" data-name="パス 117" d="M331.847,201.637H219.377a1.958,1.958,0,0,1-1.958-1.958h0a1.958,1.958,0,0,1,1.958-1.958h112.47a1.958,1.958,0,0,1,1.956,1.958h0A1.958,1.958,0,0,1,331.847,201.637Z" transform="translate(-208.877 -165.333)" fill="#20c3c5"/>
              <path id="パス_118" data-name="パス 118" d="M278.191,208.444H219.377a1.958,1.958,0,0,1-1.958-1.958h0a1.958,1.958,0,0,1,1.958-1.958h58.814a1.958,1.958,0,0,1,1.958,1.958h0A1.958,1.958,0,0,1,278.191,208.444Z" transform="translate(-208.877 -159.683)" fill="#20c3c5"/>
              <path id="パス_119" data-name="パス 119" d="M331.847,222.057H219.377a1.958,1.958,0,0,1-1.958-1.958h0a1.958,1.958,0,0,1,1.958-1.956h112.47A1.957,1.957,0,0,1,333.8,220.1h0A1.958,1.958,0,0,1,331.847,222.057Z" transform="translate(-208.877 -148.383)" fill="#ff6224"/>
              <path id="パス_120" data-name="パス 120" d="M278.191,228.864H219.377a1.958,1.958,0,0,1-1.958-1.958h0a1.958,1.958,0,0,1,1.958-1.956h58.814a1.958,1.958,0,0,1,1.958,1.956h0A1.958,1.958,0,0,1,278.191,228.864Z" transform="translate(-208.877 -142.733)" fill="#ff6224"/>
              <path id="パス_121" data-name="パス 121" d="M278.191,235.671H219.377a1.958,1.958,0,0,1-1.958-1.956h0a1.958,1.958,0,0,1,1.958-1.958h58.814a1.958,1.958,0,0,1,1.958,1.958h0A1.958,1.958,0,0,1,278.191,235.671Z" transform="translate(-208.877 -137.083)" fill="#20c3c5"/>
              <path id="パス_122" data-name="パス 122" d="M300.006,208.444H257.74a1.958,1.958,0,0,1-1.958-1.958h0a1.958,1.958,0,0,1,1.958-1.958h42.266a1.958,1.958,0,0,1,1.956,1.958h0A1.958,1.958,0,0,1,300.006,208.444Z" transform="translate(-177.036 -159.683)" fill="#fff"/>
              <path id="パス_123" data-name="パス 123" d="M325.526,192.9,295.64,222.784a1.957,1.957,0,0,1-2.769,0h0a1.957,1.957,0,0,1,0-2.769l29.886-29.886a1.957,1.957,0,0,1,2.769,0h0A1.957,1.957,0,0,1,325.526,192.9Z" transform="translate(-146.728 -172.11)" fill="#ff6224"/>
              <circle id="楕円形_6" data-name="楕円形 6" cx="17.623" cy="17.623" r="17.623" transform="translate(141.257 90.405) rotate(-76.661)" fill="#ff6224"/>
              <path id="パス_124" data-name="パス 124" d="M309.323,233.512a9.976,9.976,0,1,1-9.975-9.977A9.976,9.976,0,0,1,309.323,233.512Z" transform="translate(-149.158 -143.907)" fill="#20c3c5"/>
            </g>
            <path id="パス_125" data-name="パス 125" d="M212.751,238.114v35.631L245.5,241" transform="translate(-212.751 -131.807)" fill="#383873"/>
          </g>
          <g id="グループ_97" data-name="グループ 97" transform="translate(253.599 116.801)">
            <rect id="長方形_211" data-name="長方形 211" width="96.226" height="75.304" rx="3.988" transform="translate(0 0)" fill="#115f73"/>
          </g>
          <g id="グループ_100" data-name="グループ 100" transform="translate(379.238 103.362)">
            <g id="グループ_99" data-name="グループ 99">
              <g id="グループ_98" data-name="グループ 98">
                <path id="パス_175" data-name="パス 175" d="M257.916,123.966c3.054,0,3.775-2.055,3.775-3.889a43.869,43.869,0,0,0-.333-4.72,47.152,47.152,0,0,1-.333-4.888c0-5,3.054-7.108,7-7.108h.666v2.888h-.833c-2.333,0-3.278,1.665-3.278,4.165a33.341,33.341,0,0,0,.335,4.22c.11,1.444.276,2.778.276,4.11.055,4.332-1.444,5.83-3.832,6.5v.11c2.388.723,3.887,2.222,3.832,6.608,0,1.389-.166,2.778-.276,4.165a35.15,35.15,0,0,0-.335,4.277c0,2.5.833,4.222,3.332,4.222h.778v2.888h-.723c-3.664,0-6.941-1.834-6.941-7.11a48.222,48.222,0,0,1,.333-4.943,47.078,47.078,0,0,0,.333-4.774c0-1.779-.721-3.944-3.775-3.944Z" transform="translate(-257.916 -103.362)" fill="#383873"/>
                <path id="パス_176" data-name="パス 176" d="M293.74,126.742c-3.054,0-3.777,2.165-3.777,3.944a47.113,47.113,0,0,0,.333,4.774,48.168,48.168,0,0,1,.335,4.943c0,5.276-3.277,7.11-6.943,7.11h-.723v-2.888h.778c2.5-.278,3.332-1.722,3.332-4.222,0-1.5-.167-2.888-.278-4.277a35.063,35.063,0,0,1-.333-4.165c-.055-4.387,1.444-5.885,3.832-6.608v-.11c-2.388-.668-3.887-2.167-3.832-6.5a36.126,36.126,0,0,1,.333-4.11c.112-1.332.278-2.721.278-4.22,0-2.5-.944-3.887-3.276-4.165h-.835v-2.888h.668c3.942,0,7,2.11,7,7.108a47.1,47.1,0,0,1-.335,4.888,43.9,43.9,0,0,0-.333,4.72c0,1.834.723,3.889,3.777,3.889Z" transform="translate(-237.125 -103.362)" fill="#383873"/>
              </g>
            </g>
            <path id="パス_177" data-name="パス 177" d="M286.832,125.612V114.929l-9.252-5.342-9.252,5.342v10.683l9.252,5.341Z" transform="translate(-249.274 -98.195)" fill="#fe9a57"/>
          </g>
          <g id="グループ_101" data-name="グループ 101" transform="translate(453.786 181.636)">
            <path id="パス_178" data-name="パス 178" d="M331.269,148.505A22.565,22.565,0,0,0,304.345,183.7l-3.391-.4a.749.749,0,0,0-.176,1.488l5.164.613a.746.746,0,0,0,.833-.655l.595-5a.749.749,0,0,0-1.488-.176l-.379,3.182a21.069,21.069,0,0,1,25.1-32.9.748.748,0,1,0,.668-1.34Z" transform="translate(-298.653 -146.135)" fill="#fe9a57"/>
            <path id="パス_179" data-name="パス 179" d="M306.039,186.813a22.565,22.565,0,0,0,26.925-35.191l3.389.4a.749.749,0,1,0,.178-1.488l-5.166-.613a.745.745,0,0,0-.831.655l-.595,5a.748.748,0,1,0,1.486.176l.379-3.182a21.069,21.069,0,0,1-25.1,32.9.748.748,0,1,0-.666,1.34Z" transform="translate(-292.866 -142.995)" fill="#fe9a57"/>
          </g>
          <g id="グループ_102" data-name="グループ 102" transform="translate(527.243 258.55)">
            <path id="パス_180" data-name="パス 180" d="M478.823,197.111H343.267a4.474,4.474,0,0,1-4.474-4.473h0a4.474,4.474,0,0,1,4.474-4.474H478.823a4.472,4.472,0,0,1,4.473,4.474h0A4.472,4.472,0,0,1,478.823,197.111Z" transform="translate(-338.793 -188.164)" fill="#fe9a57"/>
            <path id="パス_181" data-name="パス 181" d="M430.417,207.738h-87.15a4.474,4.474,0,0,1-4.474-4.473h0a4.474,4.474,0,0,1,4.474-4.474h87.15a4.474,4.474,0,0,1,4.474,4.474h0A4.474,4.474,0,0,1,430.417,207.738Z" transform="translate(-338.793 -179.344)" fill="#115f73"/>
            <path id="パス_182" data-name="パス 182" d="M430.417,219.149h-87.15a4.475,4.475,0,0,1-4.474-4.474h0a4.475,4.475,0,0,1,4.474-4.474h87.15a4.475,4.475,0,0,1,4.474,4.474h0A4.475,4.475,0,0,1,430.417,219.149Z" transform="translate(-338.793 -169.874)" fill="#115f73"/>
          </g>
          <g id="グループ_103" data-name="グループ 103" transform="translate(111.745 184.215)">
            <path id="パス_183" data-name="パス 183" d="M186.632,156.491H116.219a4.474,4.474,0,0,1-4.474-4.473h0a4.475,4.475,0,0,1,4.474-4.474h70.413a4.474,4.474,0,0,1,4.472,4.474h0A4.472,4.472,0,0,1,186.632,156.491Z" transform="translate(-111.745 -147.544)" fill="#115f73"/>
            <path id="パス_184" data-name="パス 184" d="M160.048,167.118H116.219a4.474,4.474,0,0,1-4.474-4.474h0a4.474,4.474,0,0,1,4.474-4.473h43.828a4.474,4.474,0,0,1,4.474,4.473h0A4.474,4.474,0,0,1,160.048,167.118Z" transform="translate(-111.745 -138.724)" fill="#fe9a57"/>
            <path id="パス_185" data-name="パス 185" d="M160.048,178.528H116.219a4.475,4.475,0,0,1-4.474-4.474h0a4.474,4.474,0,0,1,4.474-4.473h43.828a4.474,4.474,0,0,1,4.474,4.473h0A4.475,4.475,0,0,1,160.048,178.528Z" transform="translate(-111.745 -129.253)" fill="#fe9a57"/>
          </g>
          <g id="グループ_106" data-name="グループ 106" transform="translate(278.983 136.212)">
            <path id="パス_187" data-name="パス 187" d="M178.583,93.22v26.371H156.74Z" transform="translate(-156.74 -83.754)" fill="#fff"/>
            <path id="パス_188" data-name="パス 188" d="M178.583,52.71a10.921,10.921,0,1,1-21.843,0Z" transform="translate(-156.74 -52.71)" fill="#fff"/>
            <path id="パス_189" data-name="パス 189" d="M265.62,170.261a10.921,10.921,0,0,1,21.843,0Z" transform="translate(-240.179 -134.425)" fill="#fff"/>
            <path id="パス_190" data-name="パス 190" d="M265.62,79.081V52.71h21.845Z" transform="translate(-240.179 -52.71)" fill="#fff"/>
          </g>
        </g>
      </g>
    </g>
  </g>
</svg>
