<svg xmlns="http://www.w3.org/2000/svg" xmlns:xlink="http://www.w3.org/1999/xlink" width="1096" height="285" viewBox="0 0 1096 285">
  <defs>
    <linearGradient id="linear-gradient" x1="-0.636" y1="2.396" x2="0.152" y2="1.723" gradientUnits="objectBoundingBox">
      <stop offset="0" stop-color="#e8e3dc"/>
      <stop offset="0.371" stop-color="#e9e5e0"/>
      <stop offset="0.777" stop-color="#ecebed"/>
      <stop offset="0.855" stop-color="#ededf1"/>
    </linearGradient>
    <clipPath id="clip-path">
      <path id="パス_66" data-name="パス 66" d="M505.531,113.788c4.586,39-25.788,81.74-48.446,84.4s-61.856-29.632-66.7-70.863a57.972,57.972,0,1,1,115.151-13.541Z" fill="url(#linear-gradient)"/>
    </clipPath>
    <clipPath id="clip-path-2">
      <path id="パス_66-2" data-name="パス 66" d="M531.723,125.4c5.625,47.844-31.633,100.268-59.427,103.536s-75.877-36.349-81.825-86.925A71.113,71.113,0,1,1,531.723,125.4Z" transform="translate(-389.978 -62.581)" fill="url(#linear-gradient)"/>
    </clipPath>
    <clipPath id="clip-path-3">
      <path id="パス_66-3" data-name="パス 66" d="M480.86,102.855c3.607,30.676-20.282,64.288-38.1,66.384s-48.65-23.306-52.463-55.734a45.6,45.6,0,1,1,90.566-10.65Z" transform="translate(-389.978 -62.581)" fill="url(#linear-gradient)"/>
    </clipPath>
    <clipPath id="clip-path-4">
      <path id="パス_66-4" data-name="パス 66" d="M462.422,94.684c2.875,24.452-16.167,51.245-30.372,52.916s-38.78-18.577-41.82-44.426a36.345,36.345,0,0,1,72.192-8.489Z" transform="translate(-389.978 -62.581)" fill="url(#linear-gradient)"/>
    </clipPath>
    <clipPath id="clip-visual_img_01">
      <rect width="1096" height="285"/>
    </clipPath>
  </defs>
  <g id="visual_img_01" clip-path="url(#clip-visual_img_01)">
    <g id="グループ_61" data-name="グループ 61" transform="translate(-795.394 -768.479)">
      <g id="グループ_9" data-name="グループ 9" transform="translate(805.394 727.031)">
        <g id="グループ_6" data-name="グループ 6" transform="translate(0 210.452)">
          <path id="パス_6" data-name="パス 6" d="M621.444,502.044c-12.053-3.444-23.821-6.891-27.243-8.163-7.728-2.871,5.34-27.107-31.72-34.795s-54.865-3.479-54.865-3.479,18.692-30.263-.445-51.587-40.219-21.039-40.219-21.039-9.064-28.4-57.372-24.032-37.668,39.448-46.165,53.206-30.507.161-51.182,12.1-6.918,20.433-23.142,31.318-26.7,6.312-37.831,8.942-10.6,4.855-20.673,11.935-16.225,10.884-40.7,16.67c-11.831,2.8-28.458,6.178-42.489,8.927Z" transform="translate(-147.394 -358.492)" fill="#f9f9f9"/>
          <path id="パス_7" data-name="パス 7" d="M543.456,493.3c-1.193-8.58-3.967-20.706-28.233-25.739-37.063-7.688-54.865-3.479-54.865-3.479s18.692-30.265-.445-51.587S419.7,391.455,419.7,391.455s-9.063-28.4-57.372-24.032a79.834,79.834,0,0,0-10.139,1.557c-8.1,12.352-6.344,28.207-11.427,36.435-4.333,7.015-12.183,6.917-21.574,6.72a27.486,27.486,0,0,1-3.026,8.492c-6.688,10.829-21.748,4.719-37.939,7.444-3.587,7.037-.736,13.345-11.787,20.759a42.7,42.7,0,0,1-16.865,7.033c-1.292,2.632-3.477,5.324-7.734,8.18-16.225,10.884-26.7,6.312-37.831,8.942-.5.12-.955.238-1.412.356a66.521,66.521,0,0,1-12.4,6.332c-1.727,1.4-3.8,3.1-6.861,5.249a81.989,81.989,0,0,1-13.981,8.379Z" transform="translate(-124.736 -349.747)" fill="#ececec"/>
          <path id="パス_8" data-name="パス 8" d="M292.863,417.327c4.566,6.172.25,18.586,3.656,19.852s18.639-4.406,22.921,4.942a37.809,37.809,0,0,1,2.788,11.825h17.015a12.475,12.475,0,0,1-2.483-8.669c.908-13.681-9.437-26.774-19.247-24.455s-11.38-8.7-20.852-13.715-25.685.892-25.685.892S288.3,411.156,292.863,417.327Z" transform="translate(-19.835 -310.395)" fill="#f9f9f9"/>
        </g>
        <g id="グループ_7" data-name="グループ 7" transform="translate(702.893 97.826)">
          <path id="パス_9" data-name="パス 9" d="M859.622,369.721c-9.313-2.662-18.407-5.326-21.051-6.308-5.973-2.221,4.127-20.95-24.514-26.892s-42.4-2.687-42.4-2.687,14.445-23.39-.346-39.867-31.08-16.259-31.08-16.259-7-21.95-44.338-18.572-29.109,30.487-35.675,41.117-23.575.126-39.554,9.35-5.347,15.79-17.885,24.2-20.637,4.877-29.235,6.911-8.192,3.751-15.977,9.222-12.538,8.411-31.456,12.884c-9.143,2.16-21.992,4.774-32.836,6.9Z" transform="translate(-493.277 -258.783)" fill="#f9f9f9"/>
          <path id="パス_10" data-name="パス 10" d="M799.355,362.962c-.923-6.631-3.067-16-21.819-19.893-28.641-5.94-42.4-2.689-42.4-2.689s14.445-23.388-.343-39.865-31.082-16.259-31.082-16.259-7-21.949-44.336-18.572a61.317,61.317,0,0,0-7.836,1.2c-6.259,9.545-4.9,21.8-8.83,28.156-3.349,5.422-9.415,5.347-16.672,5.194A21.286,21.286,0,0,1,623.7,306.8c-5.168,8.366-16.808,3.646-29.32,5.751-2.772,5.44-.567,10.313-9.108,16.042a32.962,32.962,0,0,1-13.034,5.436,16.259,16.259,0,0,1-5.977,6.322c-12.536,8.411-20.637,4.877-29.235,6.909-.388.091-.738.183-1.091.274a51.3,51.3,0,0,1-9.584,4.893c-1.335,1.085-2.939,2.4-5.3,4.056a63.455,63.455,0,0,1-10.805,6.476Z" transform="translate(-475.766 -252.024)" fill="#ececec"/>
          <path id="パス_11" data-name="パス 11" d="M605.7,304.252c3.53,4.77.193,14.363,2.827,15.341s14.4-3.4,17.712,3.818a29.268,29.268,0,0,1,2.154,9.141h13.15a9.654,9.654,0,0,1-1.92-6.7c.7-10.573-7.291-20.692-14.873-18.9s-8.793-6.727-16.113-10.6-19.85.689-19.85.689S602.168,299.483,605.7,304.252Z" transform="translate(-394.7 -221.614)" fill="#f9f9f9"/>
        </g>
        <g id="グループ_8" data-name="グループ 8" transform="translate(381.007 50)">
          <path id="パス_12" data-name="パス 12" d="M461.732,293.344c-3.225-.921-6.375-1.843-7.289-2.183-2.069-.77,1.429-7.255-8.488-9.311s-14.68-.931-14.68-.931,5-8.1-.12-13.8-10.762-5.629-10.762-5.629-2.424-7.6-15.353-6.432-10.08,10.557-12.352,14.237-8.163.043-13.7,3.237-1.851,5.466-6.192,8.381-7.145,1.689-10.122,2.392-2.837,1.3-5.534,3.195-4.341,2.912-10.89,4.461c-3.168.748-7.617,1.652-11.37,2.388Z" transform="translate(-334.882 -254.932)" fill="#f9f9f9"/>
          <path id="パス_13" data-name="パス 13" d="M440.863,291c-.319-2.3-1.061-5.54-7.554-6.887-9.919-2.056-14.682-.931-14.682-.931s5-8.1-.118-13.8-10.762-5.629-10.762-5.629-2.426-7.6-15.353-6.432a21.759,21.759,0,0,0-2.713.417c-2.166,3.306-1.7,7.548-3.056,9.75-1.16,1.878-3.26,1.851-5.773,1.8a7.321,7.321,0,0,1-.811,2.272c-1.788,2.9-5.818,1.262-10.151,1.991-.961,1.884-.2,3.573-3.154,5.556a11.438,11.438,0,0,1-4.513,1.882,5.629,5.629,0,0,1-2.069,2.189c-4.343,2.912-7.147,1.689-10.124,2.392-.134.033-.256.065-.378.1a17.7,17.7,0,0,1-3.319,1.695c-.461.376-1.016.829-1.835,1.4A22,22,0,0,1,340.756,291Z" transform="translate(-328.819 -252.592)" fill="#ececec"/>
          <path id="パス_14" data-name="パス 14" d="M373.808,270.677c1.221,1.65.067,4.973.979,5.312s4.987-1.181,6.133,1.321a10.214,10.214,0,0,1,.746,3.164h4.552a3.334,3.334,0,0,1-.664-2.319c.244-3.662-2.524-7.165-5.15-6.544s-3.046-2.329-5.58-3.67-6.873.238-6.873.238S372.586,269.024,373.808,270.677Z" transform="translate(-300.749 -242.061)" fill="#f9f9f9"/>
        </g>
      </g>
    </g>
    <g id="Title" transform="translate(-339 -83)">
      <g id="グループ_59" data-name="グループ 59">
        <g id="グループ_51" data-name="グループ 51" transform="translate(373.022 134.419)" style="isolation: isolate">
          <path id="パス_63" data-name="パス 63" d="M458.224,205.012a144.838,144.838,0,0,0,44.038,92.832c14.744,14.047,32.825,25.369,42.9,43.063,15.8,27.734,6.654,64.741-14.908,88.274" fill="none" stroke="#c5d1da" stroke-miterlimit="10" stroke-width="1"/>
          <path id="パス_64" data-name="パス 64" d="M461.889,203.136l-4.806-8.99-2.589,9.859c-1.352.567-2.18,1.3-2.1,2,.143,1.214,2.944,1.881,6.257,1.492s5.883-1.689,5.74-2.9C464.31,203.891,463.335,203.373,461.889,203.136Z" fill="#c0c9da"/>
          <g id="グループ_50" data-name="グループ 50" style="isolation: isolate">
            <path id="パス_65" data-name="パス 65" d="M505.531,113.788c4.586,39-25.788,81.74-48.446,84.4s-61.856-29.632-66.7-70.863a57.972,57.972,0,1,1,115.151-13.541Z" fill="url(#linear-gradient)"/>
            <g id="グループ_49" data-name="グループ 49" clip-path="url(#clip-path)">
              <circle id="楕円形_5" data-name="楕円形 5" cx="49.697" cy="49.697" r="49.697" transform="translate(377.95 64.418) rotate(-2.194)" fill="#fff" opacity="0.4"/>
            </g>
          </g>
          <path id="パス_67" data-name="パス 67" d="M483.14,74.536c.07.132.147.258.216.391,7.63,14.612,11.269,29.518,10.046,46-1.166,15.721-7.108,29.9-16.492,42.472a48.651,48.651,0,0,1-18.573,14.76c-12.661,5.955-25.346,5.034-38.064-.26a29.21,29.21,0,0,1-9.422-6.306c-.212.034-.423.069-.637.1,14.565,17.5,33.878,28.1,47.306,26.436,22.742-3.464,52.745-45.737,47.912-84.709A57.785,57.785,0,0,0,483.14,74.536Z" fill="#e0e1ea"/>
          <path id="パス_68" data-name="パス 68" d="M423.466,101.344c-6.865-2.246-14.089-2.618-20.171.074a43.662,43.662,0,0,0-3.746,23.532c1.414,12.028,6.7,23.042,13.632,31.933a70.028,70.028,0,0,1-3.141-13.951A52.4,52.4,0,0,1,423.466,101.344Z" fill="#fff"/>
          <path id="パス_69" data-name="パス 69" d="M438,76.254A43.715,43.715,0,0,0,409.135,92.1,43,43,0,0,1,429.854,95.4a52.646,52.646,0,0,1,39.6-10.652A43.709,43.709,0,0,0,438,76.254Z" fill="#fff"/>
          <g id="グループ_57" data-name="グループ 57" transform="translate(177.518 85.321)">
            <path id="パス_72" data-name="パス 72" d="M261.729,27.73a.278.278,0,0,1,.11.051,27.3,27.3,0,0,1,0,38.562L242.46,46.965Z" transform="translate(0 -0.995)" fill="#f79a3e"/>
            <path id="パス_73" data-name="パス 73" d="M290.208,48.8a.322.322,0,0,0-.051-.093,19.413,19.413,0,0,1,0-27.452L303.95,35.053Z" transform="translate(-6.46)" fill="#00363d"/>
          </g>
        </g>
        <g id="グループ_52" data-name="グループ 52" transform="matrix(0.899, 0.438, -0.438, 0.899, 790.533, -42.411)" style="isolation: isolate">
          <path id="パス_63-2" data-name="パス 63" d="M458.224,205.012a177.668,177.668,0,0,0,54.02,113.874c18.086,17.231,40.265,31.119,52.63,52.824,19.38,34.02,8.162,79.416-18.287,108.283" transform="translate(15.469 32.285)" fill="none" stroke="#c5d1da" stroke-miterlimit="10" stroke-width="1"/>
          <path id="パス_64-2" data-name="パス 64" d="M464.042,205.174l-5.9-11.028-3.176,12.094c-1.658.7-2.674,1.59-2.574,2.451.175,1.489,3.611,2.307,7.675,1.83s7.216-2.072,7.041-3.56C467.012,206.1,465.816,205.464,464.042,205.174Z" transform="translate(14.147 29.822)" fill="#c0c9da"/>
          <g id="グループ_50-2" data-name="グループ 50" transform="translate(389.978 62.581)">
            <path id="パス_65-2" data-name="パス 65" d="M531.723,125.4c5.625,47.844-31.633,100.268-59.427,103.536s-75.877-36.349-81.825-86.925A71.113,71.113,0,1,1,531.723,125.4Z" transform="translate(-389.978 -62.581)" fill="url(#linear-gradient)"/>
            <g id="グループ_49-2" data-name="グループ 49" clip-path="url(#clip-path-2)">
              <circle id="楕円形_5-2" data-name="楕円形 5" cx="60.962" cy="60.962" r="60.962" transform="translate(-14.754 2.254) rotate(-2.194)" fill="#fff" opacity="0.4"/>
            </g>
          </g>
          <path id="パス_67-2" data-name="パス 67" d="M499.67,74.536c.086.162.18.316.265.48,9.359,17.924,13.823,36.209,12.323,56.433-1.43,19.284-8.719,36.681-20.23,52.1a59.679,59.679,0,0,1-22.783,18.106c-15.531,7.3-31.091,6.175-46.692-.319A35.831,35.831,0,0,1,411,193.6c-.26.042-.519.085-.781.119,17.866,21.462,41.557,34.471,58.029,32.428,27.774-3.444,64.7-56.1,58.772-103.91A70.883,70.883,0,0,0,499.67,74.536Z" transform="translate(4.587 2.71)" fill="#e0e1ea"/>
          <path id="パス_68-2" data-name="パス 68" d="M428.956,101.756c-8.421-2.755-17.283-3.211-24.743.091a53.558,53.558,0,0,0-4.6,28.866c1.734,14.754,8.216,28.265,16.722,39.171a85.9,85.9,0,0,1-3.853-17.113A64.28,64.28,0,0,1,428.956,101.756Z" transform="translate(2.101 8.375)" fill="#fff"/>
          <path id="パス_69-2" data-name="パス 69" d="M444.539,76.323a53.624,53.624,0,0,0-35.4,19.437,52.744,52.744,0,0,1,25.415,4.055,64.579,64.579,0,0,1,48.58-13.066A53.617,53.617,0,0,0,444.539,76.323Z" transform="translate(4.342 3.03)" fill="#fff"/>
          <g id="グループ_55" data-name="グループ 55" transform="matrix(0.899, -0.438, 0.438, 0.899, 188.375, 215.354)">
            <rect id="長方形_191" data-name="長方形 191" width="47.4" height="23.7" transform="matrix(0.272, -0.962, 0.962, 0.272, 242.562, 66.885)" fill="#78a300"/>
            <rect id="長方形_192" data-name="長方形 192" width="23.635" height="23.635" transform="matrix(0.963, -0.271, 0.271, 0.963, 279.041, 50.043)" fill="#00363d"/>
          </g>
        </g>
        <g id="グループ_53" data-name="グループ 53" transform="translate(602.029 162.156) rotate(-9)" style="isolation: isolate">
          <path id="パス_63-3" data-name="パス 63" d="M144.375,0C140.312,29.788,115.96,58.565,77.38,79.173,54.95,91.153,27.444,100.809,12.109,115.9c-24.035,23.653-10.123,55.215,22.68,75.286" transform="translate(267.03 232.509) rotate(-23)" fill="none" stroke="#c5d1da" stroke-miterlimit="10" stroke-width="1"/>
          <path id="パス_64-3" data-name="パス 64" d="M459.861,201.217l-3.78-7.071-2.036,7.754c-1.063.446-1.715,1.019-1.65,1.571.112.955,2.315,1.479,4.921,1.173s4.627-1.328,4.514-2.282C461.765,201.81,461,201.4,459.861,201.217Z" transform="translate(-57.443 -28.089)" fill="#c0c9da"/>
          <g id="グループ_50-3" data-name="グループ 50" transform="translate(345.86 62.581)">
            <path id="パス_65-3" data-name="パス 65" d="M480.86,102.855c3.607,30.676-20.282,64.288-38.1,66.384s-48.65-23.306-52.463-55.734a45.6,45.6,0,1,1,90.566-10.65Z" transform="translate(-389.978 -62.581)" fill="url(#linear-gradient)"/>
            <g id="グループ_49-3" data-name="グループ 49" clip-path="url(#clip-path-3)">
              <circle id="楕円形_5-3" data-name="楕円形 5" cx="39.087" cy="39.087" r="39.087" transform="translate(-9.46 1.445) rotate(-2.194)" fill="#fff" opacity="0.4"/>
            </g>
          </g>
          <path id="パス_67-3" data-name="パス 67" d="M467.57,74.536c.055.1.116.2.17.308,6,11.492,8.863,23.216,7.9,36.183-.917,12.365-5.59,23.519-12.971,33.4a38.264,38.264,0,0,1-14.608,11.609c-9.958,4.684-19.935,3.959-29.937-.2a22.973,22.973,0,0,1-7.41-4.96c-.167.027-.333.054-.5.076,11.455,13.761,26.645,22.1,37.206,20.792,17.808-2.208,41.484-35.972,37.683-66.623A45.448,45.448,0,0,0,467.57,74.536Z" transform="translate(-48.438 -2.552)" fill="#e0e1ea"/>
          <path id="パス_68-3" data-name="パス 68" d="M418.295,100.956c-5.4-1.766-11.081-2.059-15.864.058a34.34,34.34,0,0,0-2.946,18.508,51.019,51.019,0,0,0,10.722,25.115,55.076,55.076,0,0,1-2.47-10.972A41.214,41.214,0,0,1,418.295,100.956Z" transform="translate(-46.096 -7.888)" fill="#fff"/>
          <path id="パス_69-3" data-name="パス 69" d="M431.835,76.189a34.382,34.382,0,0,0-22.7,12.462,33.818,33.818,0,0,1,16.3,2.6,41.406,41.406,0,0,1,31.148-8.378A34.377,34.377,0,0,0,431.835,76.189Z" transform="translate(-48.208 -2.854)" fill="#fff"/>
          <g id="グループ_58" data-name="グループ 58" transform="translate(136.324 31.295) rotate(9)">
            <path id="パス_74" data-name="パス 74" d="M253.711,21.26c-6.236,0-11.274,5.744-11.281,11.267H265C265,27,259.94,21.26,253.711,21.26Z" fill="#00363d"/>
            <path id="パス_75" data-name="パス 75" d="M271.432,64.862c10.574,0,19.138-7.456,19.152-19.132h-38.3C252.294,57.406,260.865,64.862,271.432,64.862Z" transform="translate(-3.025 -7.514)" fill="#f0ca28"/>
          </g>
        </g>
        <g id="グループ_54" data-name="グループ 54" transform="translate(542.423 59.032) rotate(-3)" style="isolation: isolate">
          <path id="パス_63-4" data-name="パス 63" d="M115.084,0c-3.239,23.745-22.65,46.683-53.4,63.11C43.8,72.66,21.876,80.357,9.652,92.386-9.506,111.24,1.583,136.4,27.731,152.4" transform="translate(267.03 198.034) rotate(-23)" fill="none" stroke="#c5d1da" stroke-miterlimit="10" stroke-width="1"/>
          <path id="パス_64-4" data-name="パス 64" d="M458.345,199.782l-3.013-5.636-1.623,6.181c-.848.355-1.367.812-1.315,1.253.09.761,1.846,1.179,3.923.935s3.688-1.059,3.6-1.819C459.863,200.255,459.252,199.931,458.345,199.782Z" transform="translate(-83.395 -49.083)" fill="#c0c9da"/>
          <g id="グループ_50-4" data-name="グループ 50" transform="translate(329.867 62.581)">
            <path id="パス_65-4" data-name="パス 65" d="M462.422,94.684c2.875,24.452-16.167,51.245-30.372,52.916s-38.78-18.577-41.82-44.426a36.345,36.345,0,0,1,72.192-8.489Z" transform="translate(-389.978 -62.581)" fill="url(#linear-gradient)"/>
            <g id="グループ_49-4" data-name="グループ 49" clip-path="url(#clip-path-4)">
              <circle id="楕円形_5-4" data-name="楕円形 5" cx="31.157" cy="31.157" r="31.157" transform="translate(-7.541 1.152) rotate(-2.194)" fill="#fff" opacity="0.4"/>
            </g>
          </g>
          <path id="パス_67-4" data-name="パス 67" d="M455.934,74.536c.044.083.092.162.135.245,4.784,9.161,7.065,18.506,6.3,28.842a50.321,50.321,0,0,1-10.339,26.627,30.5,30.5,0,0,1-11.644,9.254c-7.938,3.733-15.89,3.156-23.864-.163a18.313,18.313,0,0,1-5.907-3.953c-.133.021-.265.043-.4.061,9.131,10.969,21.239,17.617,29.658,16.574,14.2-1.76,33.068-28.674,30.038-53.107A36.227,36.227,0,0,0,455.934,74.536Z" transform="translate(-67.661 -4.46)" fill="#e0e1ea"/>
          <path id="パス_68-4" data-name="パス 68" d="M414.43,100.666c-4.3-1.408-8.833-1.641-12.646.046a27.373,27.373,0,0,0-2.349,14.753,40.668,40.668,0,0,0,8.546,20.02,43.9,43.9,0,0,1-1.969-8.746A32.853,32.853,0,0,1,414.43,100.666Z" transform="translate(-63.568 -13.784)" fill="#fff"/>
          <path id="パス_69-4" data-name="パス 69" d="M427.229,76.141a27.407,27.407,0,0,0-18.095,9.934,26.957,26.957,0,0,1,12.989,2.073,33.006,33.006,0,0,1,24.828-6.678A27.4,27.4,0,0,0,427.229,76.141Z" transform="translate(-67.258 -4.988)" fill="#fff"/>
          <g id="グループ_56" data-name="グループ 56" transform="translate(119.056 33.325) rotate(3)">
            <path id="パス_70" data-name="パス 70" d="M230.94,78.192,250.522,58.61,270.11,78.192Z" transform="translate(0 -8.974)" fill="#eb4962"/>
            <path id="パス_71" data-name="パス 71" d="M250.05,46.714l8.789-8.794,8.789,8.794Z" transform="translate(-8.288)" fill="#00363d"/>
          </g>
        </g>
      </g>
    </g>
  </g>
</svg>
