<svg xmlns="http://www.w3.org/2000/svg" xmlns:xlink="http://www.w3.org/1999/xlink" width="375" height="723" viewBox="0 0 375 723" preserveAspectRatio="none">
  <defs>
    <clipPath id="clip-path">
      <rect id="長方形_346" data-name="長方形 346" width="375" height="723" transform="translate(0 6140)" fill="#fff"/>
    </clipPath>
    <clipPath id="clip-path-2">
      <rect id="長方形_345" data-name="長方形 345" width="375" height="718" transform="translate(0 6140)" fill="#fff"/>
    </clipPath>
    <clipPath id="clip-path-3">
      <rect id="長方形_343" data-name="長方形 343" width="375" height="255" transform="translate(171.5 4109)" fill="#fff"/>
    </clipPath>
  </defs>
  <g id="contact_bg_01_sp" data-name="contact_bg_01@sp" transform="translate(0 -6140)" clip-path="url(#clip-path)">
    <g id="マスクグループ_13" data-name="マスクグループ 13" clip-path="url(#clip-path-2)">
      <g id="contact_bg_01_sp-2" data-name="contact_bg_01@sp" transform="translate(-171.5 2488.958)">
        <g id="グループ_546" data-name="グループ 546" transform="translate(58 3801.521)">
          <path id="パス_1784" data-name="パス 1784" d="M-5,0H2L7,421.5H-10Z" transform="translate(301.5)" fill="#fff"/>
        </g>
        <g id="town" transform="translate(0 60)">
          <g id="マスクグループ_11" data-name="マスクグループ 11" clip-path="url(#clip-path-3)">
            <g id="グループ_559" data-name="グループ 559" transform="translate(145.569 4108.678)">
              <path id="パス_417" data-name="パス 417" d="M779.372,546.367H772.14v10.117h5.424v1.077H772.14v2.206h5.424v1.077H772.14v2.205h5.424v1.077H772.14v2.2h5.424v1.077H772.14v2.206h5.424v1.077H772.14v2.205h5.424v1.077H772.14v2.2h5.424v1.077H772.14v2.205h5.424v1.077H772.14v2.206h5.424v1.076H772.14v2.207h5.424V587.1H772.14V589.3h5.424v1.076H772.14v2.205h5.424v1.078H772.14v2.205h5.424v1.076H772.14v2.206h5.424v1.077H772.14v2.2h5.424v1.078H772.14v2.205h5.424v1.076H772.14V609h5.424v1.077H772.14v5.391h-3.374v-91.6H720.023V646.923h34.753v1.515h25.4v-1.515h1.019V545.7h-1.822Zm-51.859,49h-1.4v-1.4h1.4Zm0-3.61h-1.4v-1.4h1.4Zm0-3.611h-1.4v-1.4h1.4Zm0-3.611h-1.4v-1.4h1.4Zm0-3.611h-1.4v-1.4h1.4Zm0-3.611h-1.4v-1.4h1.4Zm0-3.61h-1.4v-1.4h1.4Zm0-3.611h-1.4v-1.4h1.4Zm0-3.61h-1.4v-1.4h1.4Zm0-3.611h-1.4v-1.4h1.4Zm0-3.611h-1.4v-1.4h1.4Zm0-3.61h-1.4v-1.4h1.4Zm0-3.609h-1.4V550.64h1.4Zm0-3.611h-1.4v-1.405h1.4Zm0-3.611h-1.4v-1.405h1.4Zm0-3.611h-1.4v-1.4h1.4Zm0-3.611h-1.4V536.2h1.4Zm4.374,107.666h-3.536V632.556h3.536Zm-1.177-105.46v1.4h-1.4v-1.4Zm-1.4-2.206V536.2h1.4V537.6Zm1.4,5.816v1.405h-1.4v-1.405Zm0,3.611v1.405h-1.4v-1.405Zm0,3.61v1.405h-1.4V550.64Zm0,3.61v1.4h-1.4v-1.4Zm0,3.611v1.4h-1.4v-1.4Zm0,3.61v1.4h-1.4v-1.4Zm0,3.611v1.4h-1.4v-1.4Zm0,3.61v1.4h-1.4v-1.4Zm0,3.611v1.4h-1.4v-1.4Zm0,3.611v1.4h-1.4v-1.4Zm0,3.61v1.4h-1.4v-1.4Zm0,3.61v1.4h-1.4v-1.4Zm0,3.611v1.4h-1.4v-1.4Zm0,3.611v1.4h-1.4v-1.4Zm0,3.611v1.4h-1.4v-1.4Zm.812,4.715v2.807h-2.809v-2.807Zm0,6.394v2.807h-2.809v-2.807Zm0,6.394v2.807h-2.809V611.47Zm0,6.393v2.807h-2.809v-2.807Zm2.384-22.493h-1.4v-1.4h1.4Zm0-3.61h-1.4v-1.4h1.4Zm0-3.611h-1.4v-1.4h1.4Zm0-3.611h-1.4v-1.4h1.4Zm0-3.611h-1.4v-1.4h1.4Zm0-3.611h-1.4v-1.4h1.4Zm0-3.61h-1.4v-1.4h1.4Zm0-3.611h-1.4v-1.4h1.4Zm0-3.61h-1.4v-1.4h1.4Zm0-3.611h-1.4v-1.4h1.4Zm0-3.611h-1.4v-1.4h1.4Zm0-3.61h-1.4v-1.4h1.4Zm0-3.609h-1.4V550.64h1.4Zm0-3.611h-1.4v-1.405h1.4Zm0-3.611h-1.4v-1.405h1.4Zm0-3.611h-1.4v-1.4h1.4Zm0-3.611h-1.4V536.2h1.4Zm3.2,2.206v1.4h-1.4v-1.4Zm-1.4-2.206V536.2h1.4V537.6Zm1.4,5.816v1.405h-1.4v-1.405Zm0,3.611v1.405h-1.4v-1.405Zm0,3.61v1.405h-1.4V550.64Zm0,3.61v1.4h-1.4v-1.4Zm0,3.611v1.4h-1.4v-1.4Zm0,3.61v1.4h-1.4v-1.4Zm0,3.611v1.4h-1.4v-1.4Zm0,3.61v1.4h-1.4v-1.4Zm0,3.611v1.4h-1.4v-1.4Zm0,3.611v1.4h-1.4v-1.4Zm0,3.61v1.4h-1.4v-1.4Zm0,3.61v1.4h-1.4v-1.4Zm0,3.611v1.4h-1.4v-1.4Zm0,3.611v1.4h-1.4v-1.4Zm0,3.611v1.4h-1.4v-1.4Zm.13,4.715v2.807h-2.809v-2.807Zm0,6.394v2.807h-2.809v-2.807Zm0,6.394v2.807h-2.809V611.47Zm0,6.393v2.807h-2.809v-2.807Zm1.369,27.4h-3.535V632.556H738.6Zm4.9-105.46v1.4h-1.4v-1.4Zm-1.4-2.206V536.2h1.4V537.6Zm1.4,5.816v1.405h-1.4v-1.405Zm0,3.611v1.405h-1.4v-1.405Zm0,3.61v1.405h-1.4V550.64Zm0,3.61v1.4h-1.4v-1.4Zm0,3.611v1.4h-1.4v-1.4Zm0,3.61v1.4h-1.4v-1.4Zm0,3.611v1.4h-1.4v-1.4Zm0,3.61v1.4h-1.4v-1.4Zm0,3.611v1.4h-1.4v-1.4Zm0,3.611v1.4h-1.4v-1.4Zm0,3.61v1.4h-1.4v-1.4Zm0,3.61v1.4h-1.4v-1.4Zm0,3.611v1.4h-1.4v-1.4Zm0,3.611v1.4h-1.4v-1.4Zm0,3.611v1.4h-1.4v-1.4Zm-.554,4.715v2.807h-2.808v-2.807Zm-2.808,9.2v-2.807h2.808v2.807Zm2.808,3.587v2.807h-2.808V611.47ZM740.3,537.6h-1.4V536.2h1.4Zm0,2.206v1.4h-1.4v-1.4Zm0,3.611v1.405h-1.4v-1.405Zm0,3.611v1.405h-1.4v-1.405Zm0,3.61v1.405h-1.4V550.64Zm0,3.61v1.4h-1.4v-1.4Zm0,3.611v1.4h-1.4v-1.4Zm0,3.61v1.4h-1.4v-1.4Zm0,3.611v1.4h-1.4v-1.4Zm0,3.61v1.4h-1.4v-1.4Zm0,3.611v1.4h-1.4v-1.4Zm0,3.611v1.4h-1.4v-1.4Zm0,3.61v1.4h-1.4v-1.4Zm0,3.61v1.4h-1.4v-1.4Zm0,3.611v1.4h-1.4v-1.4Zm0,3.611v1.4h-1.4v-1.4Zm0,3.611v1.4h-1.4v-1.4Zm-.166,23.9h2.808v2.807h-2.808Zm1.288,13.515s-.083-3.712,2.972-3.712a2.591,2.591,0,0,1,2.5,1.6h-4.046v16h-1.425Zm7.231-19.908v2.807h-2.807V611.47Zm-2.807-3.587v-2.807h2.807v2.807Zm2.807,9.98v2.807h-2.807v-2.807Zm1.238-80.261h-1.4V536.2h1.4Zm0,2.206v1.4h-1.4v-1.4Zm0,3.611v1.405h-1.4v-1.405Zm0,3.611v1.405h-1.4v-1.405Zm0,3.61v1.405h-1.4V550.64Zm0,3.61v1.4h-1.4v-1.4Zm0,3.611v1.4h-1.4v-1.4Zm0,3.61v1.4h-1.4v-1.4Zm0,3.611v1.4h-1.4v-1.4Zm0,3.61v1.4h-1.4v-1.4Zm0,3.611v1.4h-1.4v-1.4Zm0,3.611v1.4h-1.4v-1.4Zm0,3.61v1.4h-1.4v-1.4Zm0,3.61v1.4h-1.4v-1.4Zm0,3.611v1.4h-1.4v-1.4Zm0,3.611v1.4h-1.4v-1.4Zm0,3.611v1.4h-1.4v-1.4Zm-1.238,4.715v2.807h-2.807v-2.807Zm-1.959-61.08h-1.4V536.2h1.4Zm0,2.206v1.4h-1.4v-1.4Zm0,3.611v1.405h-1.4v-1.405Zm0,3.611v1.405h-1.4v-1.405Zm0,3.61v1.405h-1.4V550.64Zm0,3.61v1.4h-1.4v-1.4Zm0,3.611v1.4h-1.4v-1.4Zm0,3.61v1.4h-1.4v-1.4Zm0,3.611v1.4h-1.4v-1.4Zm0,3.61v1.4h-1.4v-1.4Zm0,3.611v1.4h-1.4v-1.4Zm0,3.611v1.4h-1.4v-1.4Zm0,3.61v1.4h-1.4v-1.4Zm0,3.61v1.4h-1.4v-1.4Zm0,3.611v1.4h-1.4v-1.4Zm0,3.611v1.4h-1.4v-1.4Zm0,3.611v1.4h-1.4v-1.4Zm7.027,51.3h-.043V632.556h.043Zm.643-24.6h-2.809v-2.807h2.809Zm0-6.393h-2.809V611.47h2.809Zm0-6.394h-2.809v-2.807h2.809Zm0-6.394h-2.809v-2.807h2.809Zm-1.276-61.681v1.4h-1.4v-1.4Zm-1.4-2.206V536.2h1.4V537.6Zm1.4,5.816v1.405h-1.4v-1.405Zm0,3.611v1.405h-1.4v-1.405Zm0,3.61v1.405h-1.4V550.64Zm0,3.61v1.4h-1.4v-1.4Zm0,3.611v1.4h-1.4v-1.4Zm0,3.61v1.4h-1.4v-1.4Zm0,3.611v1.4h-1.4v-1.4Zm0,3.61v1.4h-1.4v-1.4Zm0,3.611v1.4h-1.4v-1.4Zm0,3.611v1.4h-1.4v-1.4Zm0,3.61v1.4h-1.4v-1.4Zm0,3.61v1.4h-1.4v-1.4Zm0,3.611v1.4h-1.4v-1.4Zm0,3.611v1.4h-1.4v-1.4Zm0,3.611v1.4h-1.4v-1.4Zm3.2,1.4h-1.4v-1.4h1.4Zm0-3.61h-1.4v-1.4h1.4Zm0-3.611h-1.4v-1.4h1.4Zm0-3.611h-1.4v-1.4h1.4Zm0-3.611h-1.4v-1.4h1.4Zm0-3.611h-1.4v-1.4h1.4Zm0-3.61h-1.4v-1.4h1.4Zm0-3.611h-1.4v-1.4h1.4Zm0-3.61h-1.4v-1.4h1.4Zm0-3.611h-1.4v-1.4h1.4Zm0-3.611h-1.4v-1.4h1.4Zm0-3.61h-1.4v-1.4h1.4Zm0-3.609h-1.4V550.64h1.4Zm0-3.611h-1.4v-1.405h1.4Zm0-3.611h-1.4v-1.405h1.4Zm0-3.611h-1.4v-1.4h1.4Zm0-3.611h-1.4V536.2h1.4Zm3.789,76.675h-2.809V611.47h2.809Zm0-6.394h-2.809v-2.807h2.809Zm0-6.394h-2.809v-2.807h2.809Zm-.592-61.681v1.4h-1.4v-1.4Zm-1.4-2.206V536.2h1.4V537.6Zm1.4,5.816v1.405h-1.4v-1.405Zm0,3.611v1.405h-1.4v-1.405Zm0,3.61v1.405h-1.4V550.64Zm0,3.61v1.4h-1.4v-1.4Zm0,3.611v1.4h-1.4v-1.4Zm0,3.61v1.4h-1.4v-1.4Zm0,3.611v1.4h-1.4v-1.4Zm0,3.61v1.4h-1.4v-1.4Zm0,3.611v1.4h-1.4v-1.4Zm0,3.611v1.4h-1.4v-1.4Zm0,3.61v1.4h-1.4v-1.4Zm0,3.61v1.4h-1.4v-1.4Zm0,3.611v1.4h-1.4v-1.4Zm0,3.611v1.4h-1.4v-1.4Zm0,3.611v1.4h-1.4v-1.4Zm3.2,1.4h-1.4v-1.4h1.4Zm0-3.61h-1.4v-1.4h1.4Zm0-3.611h-1.4v-1.4h1.4Zm0-3.611h-1.4v-1.4h1.4Zm0-3.611h-1.4v-1.4h1.4Zm0-3.611h-1.4v-1.4h1.4Zm0-3.61h-1.4v-1.4h1.4Zm0-3.611h-1.4v-1.4h1.4Zm0-3.61h-1.4v-1.4h1.4Zm0-3.611h-1.4v-1.4h1.4Zm0-3.611h-1.4v-1.4h1.4Zm0-3.61h-1.4v-1.4h1.4Zm0-3.609h-1.4V550.64h1.4Zm0-3.611h-1.4v-1.405h1.4Zm0-3.611h-1.4v-1.405h1.4Zm0-3.611h-1.4v-1.4h1.4Zm0-3.611h-1.4V536.2h1.4Zm0-4.914h-36.57v-1.455h36.57Zm12.062,82.777h-.258v-2.219h.258Zm3.354,0h-.257v-2.219h.257Z" transform="translate(-421.719 -463.841)" fill="#6a90ac"/>
              <rect id="長方形_232" data-name="長方形 232" width="3.097" height="101.222" transform="translate(359.732 81.86)" fill="#6a90ac"/>
              <rect id="長方形_233" data-name="長方形 233" width="3.097" height="101.222" transform="translate(363.086 81.86)" fill="#6a90ac"/>
              <rect id="長方形_234" data-name="長方形 234" width="3.097" height="101.222" transform="translate(366.44 81.86)" fill="#6a90ac"/>
              <path id="パス_418" data-name="パス 418" d="M865.067,568.27V557.615h-31.1v-.665h-5.634V658.172h3.1v-58.6h.257v58.6h3.1v-58.6h.257v58.6h3.1v-58.6h.257v58.6h3.1v-50.1h.257v50.1h23.317V621.863h-11.18v-1.079h11.18v-2.2h-11.18V617.5h11.18v-2.2h-11.18V614.22h11.18v-2.2h-11.18v-1.078h11.18v-2.2h-11.18v-1.079h11.18v-2.2h-21.5v-1.079h21.5v-2.2h-21.5v-1.078h21.5v-2.2H835.206V597.81h29.861v-2.2H835.206v-1.08h29.861v-2.2H835.206v-1.079h29.861v-2.2H835.206v-1.078h29.861v-2.2H835.206v-1.08h29.861v-2.2H835.206V581.4h29.861v-2.2H835.206v-1.079h29.861v-2.2H835.206v-1.079h29.861v-2.2H835.206v-1.079h29.861v-2.2H835.206v-1.08Zm-31.4,30.078h-3.28v-1.076h3.28Zm0-3.282h-3.28v-1.076h3.28Zm0-3.282h-3.28v-1.077h3.28Zm0-3.282h-3.28v-1.077h3.28Zm0-3.282h-3.28v-1.077h3.28Zm0-3.282h-3.28v-1.077h3.28Zm0-3.282h-3.28v-1.077h3.28Zm0-3.281h-3.28V574.3h3.28Zm0-3.282h-3.28v-1.077h3.28Zm0-3.282h-3.28v-1.077h3.28Zm19.785,57.366H860.3v1.079h-6.846Zm0,4.218H860.3v1.079h-6.846Zm0,4.218H860.3v1.078h-6.846Zm-7.215-24.21h4.62v1.077h-4.62Zm0,3.281h4.62v1.078h-4.62Zm0,3.283h4.62v1.076h-4.62Zm0,3.282h4.62v1.077h-4.62Zm-6.761-19.693H842.1v1.077h-2.627Zm0,3.282H842.1v1.078h-2.627Z" transform="translate(-458.538 -475.089)" fill="#6a90ac"/>
              <path id="パス_419" data-name="パス 419" d="M518.821,488.353h-8.193v-2.622H500.356v-.862h-19.51v.862H470.574v2.622h-8.192v76.115h-.418V600.9h-4.289v-2.533h-9.814v-3.412h9.814v-3.2h-9.814v-1.221h9.814v-2.01h-9.814V587.3h9.814v-2.01h-9.814v-1.221h9.814v-2.011h-9.814v-1.22h9.814v-2.007h-9.814v-1.221h9.814V575.6h-9.814v-1.222h9.814v-2.01h-9.814v-1.221h9.814v-2.01h-9.814v-1.221h9.814v-2.007h-9.814v-1.221h9.814v-2.01h-9.814v-1.221h9.814v-2.01h-12.21v-1.221h12.21v-2.01h-12.21V555h12.21v-2.007h-12.21v-1.22h12.21v-2.011h-12.21v-1.221h12.21V546.53h-12.21V545.31h12.21V543.3h-12.21v-1.222h12.21v-2.007h-12.21v-1.221h12.21v-2.01h-12.21v-1.22h12.21v-2.01h-12.21v-1.221h12.21v-2.01h-12.21v-1.221h12.21v-2.006h-12.21v-1.224h12.21v-2.008h-12.21V522.7h12.21v-2.01h-12.21v-1.222h12.21v-2.009h-6.752v-1.221h6.752V514.23h-6.752v-1.224h6.752V511h-6.752v-1.222h6.752v-2.01h-6.752v-1.22h6.752v-2.011h-6.752v-1.22h6.752v-2.007h-6.752v-1.224h6.752v-2.007h-6.752v-1.222h6.752v-2.009h-6.752v-1.222h6.752v-2.009h-6.752v-1.221h6.752v-2.007h-6.752v-1.224h6.752v-2.006h-6.752v-1.222h6.752v-2.01h-6.752V480.7h6.752v-2.011h-6.752v-1.221h6.752v-2.006h-6.752v-1.224h6.752v-2.007h-6.752v-1.22h6.752V469h-6.752v-1.222h6.752v-2.009h-6.752v-1.22h6.752v-2.007h-6.752v-1.224h6.752v-2.006h-6.752v-1.221h6.752v-2.01h-6.752v-1.221h6.752v-2.01h-6.752v-1.221h6.752V449.02h-7.327v-2.94h-6.462v-4.535h-6.536V432.93h-8.379v8.614h-6.535v4.535h-6.463v2.94h-7.326v2.611h6.75v1.221h-6.75v2.01h6.75v1.221h-6.75v2.01h6.75v1.221h-6.75v2.006h6.75v1.224h-6.75v2.007h6.75v1.22h-6.75v2.009h6.75V469h-6.75v2.01h6.75v1.22h-6.75v2.007h6.75v1.224h-6.75v2.006h6.75v1.221h-6.75V480.7h6.75v1.221h-6.75v2.01h6.75v1.222h-6.75v2.006h6.75v1.224h-6.75v2.007h6.75v1.221h-6.75v2.009h6.75v1.222h-6.75v2.009h6.75v1.222h-6.75v2.007h6.75v1.224h-6.75v2.007h6.75v1.22h-6.75v2.011h6.75v1.22h-6.75v0h-8.092l-5.747-2.964H391.7v-3.939l-3.555-2.791H366.587l-3.556,2.791v3.939h-1.756l-.721-.732-.723.732h-1.465l-.723-.732-.723.732h-1.63l-1.115.449-.5,63.283c-1.113-.157-2.428-.371-3.766-.651V486.943h1.7s-.1-3.714,1.942-3.714v-16.6s-.05-.711-1.193-.711v-.828h-2.84V460.83s.8.082.8-.7v-.568c0-.132-.046-.621-.8-.621h-.12v-2.187h-.73v1.1h-.463v.365h-.824v-1.927a1.239,1.239,0,1,0-1.943,0v1.927h-.824v-.365h-.462v-1.1h-.731v2.187h-.12c-.754,0-.805.489-.8.621v.568c0,.777.8.7.8.7v4.258h-2.84v.828c-1.142,0-1.192.711-1.192.711v16.6c2.043,0,1.943,3.714,1.943,3.714h1.7v66.4c-2.366-.286-5.038-.952-6.583-2.459v-7.826s4.68-1.295,5.111-2.946c0,0-6.473.745-9.146-1.3v-3.038h-3.145v-5.454s3.406-.667,4.35-2.123c0,0-6.343.079-6.343-4.953v-3.432H327v-1.5a1.9,1.9,0,0,0,.236-.8c0-.393-.057-1.476-.551-1.85s.164.654.132,1.022.017,1.091-.4.724-.339-.737-.383-.249a1.251,1.251,0,0,0,.352.956l.135.192v1.506h-.16v.733H307.624v-.733h-.16v-1.506l.136-.192a1.25,1.25,0,0,0,.352-.956c-.044-.488.032-.119-.384.249s-.368-.352-.4-.724.622-1.4.131-1.022-.55,1.456-.55,1.85a1.9,1.9,0,0,0,.236.8v1.5h-.164v3.432c0,5.032-6.343,4.953-6.343,4.953.943,1.456,4.35,2.123,4.35,2.123v5.454h-3.146v3.038c-2.673,2.044-9.146,1.3-9.146,1.3.431,1.651,5.111,2.946,5.111,2.946v7.826c-3.224,3.145-11.36,2.632-11.36,2.632.587,1.692,4.912,2.387,4.912,2.387v9.25c-3.067,2.83-13.97,3.748-13.97,3.748a5.121,5.121,0,0,0,3.33,1.68c1.44,0,2.5,2.4,2.5,2.4v3.932c-.509,1.218-5.818,2.632-5.818,2.632,1.378,1.023,5.7,1.457,5.7,1.457v1.767l-5.346,6.762h1.966v9.985h-3.931l-7.548,15.568h74.831v.93h6.993v-.93h3.4l-.007.928H391.7v0H519.237V564.468h-.417ZM352.407,467.42h.548v6.671h-.548Zm0,7.786h.548v6.962h-.548Zm-11.982,6.962h-.548v-6.962h.548Zm0-8.077h-.548V467.42h.548Zm2.494,91.177c-.044-.039-.094-.075-.136-.114V555.9l.136-.024Zm5.754-100.18h-4.515v-4.273h4.515Zm4.869,120.844-2.5-3.166V581s1.205-.123,2.545-.387Zm.058-7.408c-1.25-.481-2.449-1.067-2.679-1.614v-3.932s1.061-2.4,2.5-2.4c.079,0,.159-.005.24-.013Zm60.04-68.09-1.171-.657H415.4V511h-1.745Zm.057,2.571h1.7v1.224h-1.673Zm.073,3.232H415.4v1.221h-1.6Zm4.692,82.13H415.6l-.076-3.412h2.937Zm0-6.611h-3.009l-.026-1.221h3.036Zm0-3.231h-3.081l-.026-1.221h3.108Zm0-3.231h-3.153l-.027-1.221h3.18Zm0-3.232h-3.225l-.027-1.22h3.252Zm0-3.227h-3.3l-.027-1.221h3.324Zm0-3.231h-3.369l-.027-1.222h3.4Zm0-3.232h-3.441l-.027-1.221h3.468Zm0-3.231h-3.513l-.027-1.221h3.54Zm0-3.228h-3.585l-.027-1.221h3.613Zm0-3.231h-3.657l-.028-1.221h3.684Zm2.393-3.232h-6.121l-.028-1.221h6.149Zm0-3.23h-6.193L414.634,555h6.221Zm0-3.228h-6.266l-.027-1.22h6.293Zm0-3.231h-6.338l-.027-1.221h6.365Zm0-3.232h-6.41l-.027-1.221h6.437Zm0-3.23h-6.482l-.027-1.222h6.509Zm0-3.228H414.3l-.028-1.221h6.582Zm0-3.232h-6.626l-.028-1.22h6.653Zm0-3.23h-6.7l-.027-1.221h6.725Zm0-3.232h-6.77l-.026-1.221h6.8Zm0-3.227h-6.842l-.027-1.224h6.869Zm0-3.232h-6.914l-.027-1.22h6.941Zm0-3.23h-6.986l-.027-1.222h7.013Zm1.545-3.231h-5.061v-1.221H422.4Zm0-3.228h-5.061v-1.224H422.4Zm0-3.23h-5.061v-1.222H422.4Zm0-3.232h-5.061v-1.22H422.4Zm0-3.232h-5.061v-1.22H422.4Zm0-3.227h-5.061v-1.224H422.4Zm0-3.231h-5.061v-1.222H422.4Zm0-3.231h-5.061v-1.222H422.4Zm0-3.231h-5.061v-1.221H422.4Zm0-3.228h-5.061v-1.224H422.4Zm0-3.23h-5.061v-1.222H422.4Zm0-3.232h-5.061V480.7H422.4Zm0-3.231h-5.061v-1.221H422.4Zm0-3.227h-5.061v-1.224H422.4Zm0-3.232h-5.061v-1.22H422.4Zm0-3.23h-5.061v-1.222H422.4Zm0-3.232h-5.061v-1.22H422.4Zm0-3.228h-5.061v-1.224H422.4Zm0-3.231h-5.061v-1.221H422.4Zm0-3.232h-5.061v-1.221H422.4Zm0-3.231h-5.061v-1.221H422.4Zm3.663,64.606h-1.9v-1.221h1.9Zm0-3.228h-1.9v-1.224h1.9Zm0-3.23h-1.9v-1.222h1.9Zm0-3.232h-1.9v-1.22h1.9Zm0-3.232h-1.9v-1.22h1.9Zm0-3.227h-1.9v-1.224h1.9Zm0-3.231h-1.9v-1.222h1.9Zm0-3.231h-1.9v-1.222h1.9Zm0-3.231h-1.9v-1.221h1.9Zm0-3.228h-1.9v-1.224h1.9Zm0-3.23h-1.9v-1.222h1.9Zm0-3.232h-1.9V480.7h1.9Zm0-3.231h-1.9v-1.221h1.9Zm0-3.227h-1.9v-1.224h1.9Zm0-3.232h-1.9v-1.22h1.9Zm0-3.23h-1.9v-1.222h1.9Zm0-3.232h-1.9v-1.22h1.9Zm0-3.228h-1.9v-1.224h1.9Zm0-3.231h-1.9v-1.221h1.9Zm0-3.232h-1.9v-1.221h1.9Zm0-3.231h-1.9v-1.221h1.9Zm9.611-12.7h-5.023v-5.417h5.023Zm6.488,77.3h-1.9v-1.221h1.9Zm0-3.228h-1.9v-1.224h1.9Zm0-3.23h-1.9v-1.222h1.9Zm0-3.232h-1.9v-1.22h1.9Zm0-3.232h-1.9v-1.22h1.9Zm0-3.227h-1.9v-1.224h1.9Zm0-3.231h-1.9v-1.222h1.9Zm0-3.231h-1.9v-1.222h1.9Zm0-3.231h-1.9v-1.221h1.9Zm0-3.228h-1.9v-1.224h1.9Zm0-3.23h-1.9v-1.222h1.9Zm0-3.232h-1.9V480.7h1.9Zm0-3.231h-1.9v-1.221h1.9Zm0-3.227h-1.9v-1.224h1.9Zm0-3.232h-1.9v-1.22h1.9Zm0-3.23h-1.9v-1.222h1.9Zm0-3.232h-1.9v-1.22h1.9Zm0-3.228h-1.9v-1.224h1.9Zm0-3.231h-1.9v-1.221h1.9Zm0-3.232h-1.9v-1.221h1.9Zm0-3.231h-1.9v-1.221h1.9Zm1.758-1.221h5.064v1.221h-5.064Zm0,3.231h5.064v1.221h-5.064Zm0,3.232h5.064v1.221h-5.064Zm0,3.228h5.064v1.224h-5.064Zm0,3.232h5.064v1.22h-5.064Zm0,3.23h5.064V469h-5.064Zm0,3.232h5.064v1.22h-5.064Zm0,3.228h5.064v1.224h-5.064Zm0,3.23h5.064v1.221h-5.064Zm0,3.232h5.064v1.221h-5.064Zm0,3.231h5.064v1.222h-5.064Zm0,3.228h5.064v1.224h-5.064Zm0,3.232h5.064v1.221h-5.064Zm0,3.23h5.064v1.222h-5.064Zm0,3.231h5.064v1.222h-5.064Zm0,3.229h5.064v1.224h-5.064Zm0,3.23h5.064v1.22h-5.064Zm0,3.232h5.064v1.22h-5.064Zm0,3.23h5.064V511h-5.064Zm0,3.228h5.064v1.224h-5.064Zm0,3.232h5.064v1.221h-5.064Z" transform="translate(-268.088 -432.93)" fill="#6a90ac"/>
              <path id="パス_420" data-name="パス 420" d="M692.52,594.186h.792v-7.764h-.951v-111.3h-3.406V472.9h-32.48v2.218h-3.407v111.3h-.95v7.764h.792v3.643h-3.248V629.6h46.106V597.829H692.52Zm-27.952,2.364H657.6v-1.226h6.972Zm0-13.772H657.6v-1.226h6.972Zm0-2.889H657.6v-1.23h6.972Zm0-5.784H657.6v-1.226h6.972Zm0-2.893H657.6v-1.226h6.972Zm0-5.779H657.6V564.2h6.972Zm0-2.893H657.6v-1.226h6.972Zm0-5.783H657.6v-1.23h6.972Zm0-2.89H657.6v-1.23h6.972Zm0-2.893H657.6v-1.226h6.972Zm0-5.783H657.6V543.96h6.972Zm0-2.89H657.6v-1.229h6.972Zm0-2.893H657.6V538.18h6.972Zm0-5.783H657.6v-1.23h6.972Zm0-5.784H657.6v-1.226h6.972Zm0-2.893H657.6v-1.226h6.972Zm0-5.78H657.6v-1.229h6.972Zm0-2.893H657.6v-1.227h6.972Zm0-2.893H657.6v-1.226h6.972Zm0-5.78H657.6v-1.23h6.972Zm0-5.786H657.6v-1.226h6.972Zm0-5.78H657.6v-1.229h6.972Zm0-2.893H657.6v-1.226h6.972Zm0-5.783H657.6v-1.23h6.972Zm0-5.783H657.6v-1.227h6.972Zm0-2.893H657.6v-1.226h6.972Zm7.763,117.867H665.36v-1.226h6.971Zm0-10.879H665.36v-1.226h6.971Zm0-2.893H665.36v-1.226h6.971Zm0-5.779H665.36v-1.23h6.971Zm0-2.894H665.36v-1.226h6.971Zm0-5.783H665.36v-1.229h6.971Zm0-2.89H665.36V564.2h6.971Zm0-2.893H665.36v-1.226h6.971Zm0-2.894H665.36v-1.226h6.971Zm0-5.779H665.36v-1.23h6.971Zm0-2.893H665.36v-1.226h6.971Zm0-2.893H665.36v-1.227h6.971Zm0-2.89H665.36V543.96h6.971Zm0-5.783H665.36V538.18h6.971Zm0-2.893H665.36v-1.227h6.971Zm0-2.89H665.36v-1.23h6.971Zm0-2.89H665.36V529.5h6.971Zm0-5.786H665.36v-1.226h6.971Zm0-2.89H665.36v-1.229h6.971Zm0-2.89H665.36v-1.229h6.971Zm0-5.786H665.36v-1.226h6.971Zm0-2.89H665.36v-1.23h6.971Zm0-5.783H665.36v-1.226h6.971Zm0-5.783H665.36V497.7h6.971Zm0-2.89H665.36v-1.229h6.971Zm0-5.786H665.36v-1.226h6.971Zm0-5.779H665.36v-1.23h6.971Zm0-2.893H665.36v-1.227h6.971ZM680.1,596.55h-6.972v-1.226H680.1Zm0-10.879h-6.972v-1.226H680.1Zm0-5.782h-6.972v-1.23H680.1Zm0-2.89h-6.972v-1.23H680.1Zm0-2.894h-6.972v-1.226H680.1Zm0-2.893h-6.972v-1.226H680.1Zm0-5.779h-6.972V564.2H680.1Zm0-5.787h-6.972v-1.226H680.1Zm0-2.889h-6.972v-1.23H680.1Zm0-5.784h-6.972v-1.226H680.1Zm0-2.893h-6.972v-1.227H680.1Zm0-5.78h-6.972v-1.229H680.1Zm0-2.893h-6.972V538.18H680.1Zm0-5.783h-6.972v-1.23H680.1Zm0-5.784h-6.972v-1.226H680.1Zm0-2.893h-6.972v-1.226H680.1Zm0-5.78h-6.972v-1.229H680.1Zm0-5.786h-6.972v-1.226H680.1Zm0-2.89h-6.972v-1.23H680.1Zm0-2.89h-6.972v-1.23H680.1Zm0-5.786h-6.972v-1.226H680.1Zm0-2.89h-6.972V497.7H680.1Zm0-5.783h-6.972v-1.226H680.1Zm0-2.893h-6.972v-1.226H680.1Zm0-2.89h-6.972v-1.23H680.1Zm0-2.89h-6.972v-1.23H680.1Zm0-5.786h-6.972v-1.226H680.1Zm7.763,117.867h-6.971v-1.226h6.971Zm0-10.879h-6.971v-1.226h6.971Zm0-2.893h-6.971v-1.226h6.971Zm0-5.779h-6.971v-1.23h6.971Zm0-5.787h-6.971v-1.226h6.971Zm0-2.89h-6.971v-1.229h6.971Zm0-2.89h-6.971V564.2h6.971Zm0-2.893h-6.971v-1.226h6.971Zm0-5.783h-6.971v-1.23h6.971Zm0-2.89h-6.971v-1.23h6.971Zm0-5.786h-6.971v-1.227h6.971Zm0-2.89h-6.971V543.96h6.971Zm0-2.89h-6.971v-1.229h6.971Zm0-5.786h-6.971v-1.227h6.971Zm0-2.89h-6.971v-1.23h6.971Zm0-2.89h-6.971V529.5h6.971Zm0-2.893h-6.971v-1.226h6.971Zm0-5.783h-6.971v-1.229h6.971Zm0-5.783h-6.971v-1.227h6.971Zm0-5.783h-6.971v-1.23h6.971Zm0-2.89h-6.971v-1.23h6.971Zm0-2.893h-6.971v-1.226h6.971Zm0-5.783h-6.971V497.7h6.971Zm0-2.89h-6.971v-1.229h6.971Zm0-2.893h-6.971v-1.226h6.971Zm0-5.783h-6.971v-1.23h6.971Zm0-5.783h-6.971v-1.227h6.971Zm0-2.893h-6.971v-1.226h6.971Z" transform="translate(-397.8 -446.518)" fill="#6a90ac"/>
            </g>
            <path id="パス_1788" data-name="パス 1788" d="M709.561,636.729a11.446,11.446,0,0,0-11.447-11.446H652.277v-5.326H647.96V606.694a22.874,22.874,0,0,0,7.257-4.235,17.67,17.67,0,0,0,8.118-3.084c3.419-.813,6.1-1.951,7.293-3.533,0,0-14.319,2.123-21.263-.452h-.1v-4.4h-5.036v-4.2c1.688-.315,7.441-1.551,10.346-4.251a17.057,17.057,0,0,0,7.775-2.979c3.309-.785,5.908-1.888,7.065-3.419,0,0-13.867,2.053-20.587-.44h-.055v-4.4H643.74v-4.3s6.559-1.111,9.958-4.349a16.538,16.538,0,0,0,7.677-2.9c3.2-.761,5.711-1.829,6.83-3.308,0,0-13.408,1.99-19.908-.42h-.091v-4.4h-5.04v-4.3s6.241-1.315,9.644-4.554a16.062,16.062,0,0,0,7.587-2.826c3.092-.734,5.519-1.766,6.6-3.195,0,0-12.952,1.919-19.234-.409v-2.937h-5.036v-4.992a15.221,15.221,0,0,0,7.458-3.846,15.685,15.685,0,0,0,9.342-2.945c2.994-.737,5.345-1.766,6.39-3.195,0,0-15.144,3.913-30.192-10.932l.384-.376v-.459H635.2V504.98h-1.449a1.076,1.076,0,0,0-.612-1.174v-.667s1.358-.6,1.358-1.633h-1.358V499.92h.8v-.428c0-.459-.8-.459-.8-.459v-1.519h.8v-.428c0-.459-.8-.459-.8-.459v-1.519h.8v-.428c0-.459-.8-.459-.8-.459V492.7h.8v-.428c0-.459-.8-.459-.8-.459V490.3h.8v-.428c0-.459-.8-.459-.8-.459V487.89h.8v-.428c0-.459-.8-.459-.8-.459v-1.519h.8v-.428c0-.459-.8-.459-.8-.459v-1.519h.8v-.428c0-.459-.8-.459-.8-.459v-1.519h.8v-.428c0-.459-.8-.459-.8-.459V478.32h1v-4.168a1,1,0,0,0-1-1.056v-1.3s.381,0,.381-.566h-.381v-.761s.381,0,.381-.566h-.381v-.867s.306,0,.306-.393h-.714v-3.434a.147.147,0,1,0-.294,0v3.434h-.718c0,.393.31.393.31.393v.867h-.381c0,.566.381.566.381.566v.761h-.381c0,.566.381.566.381.566v1.3a1,1,0,0,0-1.009,1.056v4.168h1.009v1.465s-.8,0-.8.459v.428h.8v1.519s-.8,0-.8.459v.428h.8V484.6s-.8,0-.8.459v.428h.8V487s-.8,0-.8.459v.428h.8v1.519s-.8,0-.8.459v.428h.8v1.519s-.8,0-.8.459v.428h.8v1.519s-.8,0-.8.459v.428h.8v1.519s-.8,0-.8.459v.428h.8v1.519s-.8,0-.8.459v.428h.8v1.585h-1.358c0,1.028,1.358,1.633,1.358,1.633v.663a1.079,1.079,0,0,0-.616,1.178h-1.445v1.691h-.91v.459l.384.376c-15.045,14.845-30.188,10.932-30.188,10.932,1.044,1.429,3.4,2.457,6.39,3.195a15.668,15.668,0,0,0,9.342,2.945,15.218,15.218,0,0,0,7.457,3.846v4.992h-5.036v2.937c-6.28,2.327-19.233.409-19.233.409,1.079,1.428,3.5,2.461,6.6,3.195a16.054,16.054,0,0,0,7.583,2.826c3.4,3.239,9.644,4.554,9.644,4.554v4.3h-5.036v4.4h-.091c-6.5,2.41-19.912.42-19.912.42,1.119,1.479,3.631,2.547,6.83,3.308a16.542,16.542,0,0,0,7.678,2.9c3.4,3.238,9.962,4.349,9.962,4.349v4.3h-5.04v4.4h-.052c-6.723,2.492-20.587.44-20.587.44,1.158,1.531,3.752,2.63,7.062,3.419a17.087,17.087,0,0,0,7.779,2.979c2.909,2.7,8.663,3.941,10.347,4.255v4.191H615.9v4.4h-.1a27.739,27.739,0,0,1-8.527,1.258c-3.718-7.4-9.156-13.243-17.069-13.243-11.723,0-18.02,12.822-21.328,24.55h-3.318v-3.93a.488.488,0,0,0-.174-.64v-6.75s-.028-17.87-15.413-24.218v-2.888l-2.418-3.057v-3.358a.534.534,0,0,1,.572-.522v-.806l.756-1.629v-1.224a1.848,1.848,0,0,0-1.949-1.395v-.531l-1.989-2.567v-1.915a3.408,3.408,0,0,0,.906-1.914v-.556l-3.083-11.713a1.344,1.344,0,0,0,.335-.869h1.5a.152.152,0,0,0,.15-.15v-.587a.578.578,0,0,0,.206-.471.188.188,0,0,0,.143-.206s.066-.747-.5-.747-.5.747-.5.747a.187.187,0,0,0,.142.206.578.578,0,0,0,.207.471v.435h-1.35a2.338,2.338,0,0,1,.052-.906l0,0c.041-.072.482-.906.061-1.267a.715.715,0,0,0-.446.169,3.04,3.04,0,0,0-1.36-1.384.672.672,0,0,0-.137-.633s.234-.546,0-.84c0,0,.168-.395,0-.562,0,0,.016-.554-.236-.554s-.236.554-.236.554c-.168.168,0,.563,0,.563-.234.294,0,.84,0,.84a.672.672,0,0,0-.137.633,3.043,3.043,0,0,0-1.36,1.384.713.713,0,0,0-.445-.169c-.421.361.02,1.2.06,1.267l0,0a2.355,2.355,0,0,1,.052.906h-1.349v-.435a.58.58,0,0,0,.2-.471.188.188,0,0,0,.144-.206s.066-.747-.5-.747-.5.747-.5.747a.188.188,0,0,0,.143.206.58.58,0,0,0,.205.471v.587a.152.152,0,0,0,.151.15h1.5a1.344,1.344,0,0,0,.335.869l-3.082,11.713v.556a3.408,3.408,0,0,0,.906,1.914v1.915l-1.989,2.567v.531a1.847,1.847,0,0,0-1.948,1.395v1.224l.755,1.629v.806a.536.536,0,0,1,.572.522v3.358l-2.418,3.057v2.888c-15.385,6.348-15.413,24.218-15.413,24.218v6.75a.489.489,0,0,0-.174.64v3.93h-3.861l-.538,3.659H508.4l-.671,6.046H504l-.411,7.622h-5.524v-.213a9.894,9.894,0,0,1-1.124-4.918v-7.594h-.069s-.409-27.077-.409-37.164h1.6V573.24l.11-.012c.413-.052,1.856-.284,2.208-.991l-4.158-.995s-.078-5.246-.135-12.356h20.365V553.7c.83-.038,1.25-.065,1.25-.065v-1.322s-6.316.358-18.325.655v-.978s.85.215.679-.577l-4.014-2.149v0q-.006-1.35,0-2.71H497.6v-2.727c13.42-.589,19.7-1.382,19.7-1.382l1.481-5.15s2.3-.16,3.764-.392l2.523-2.675s4-.539,5.11-2.046v-4.669c2.2-1.542,3.2-5.311,3.2-5.311s-9.536,7.18-67.376,7.18-67.377-7.18-67.377-7.18,1,3.769,3.2,5.311v4.669c1.108,1.508,5.109,2.046,5.109,2.046l2.523,2.675c1.463.232,3.764.392,3.764.392l1.48,5.15s6.279.793,19.7,1.382v2.727h1.558q0,1.357,0,2.71v0l-4.014,2.149c-.172.792.679.577.679.577v.978c-12.009-.3-18.324-.655-18.324-.655v1.322s.42.026,1.251.065v5.182H435.9c-.057,7.11-.135,12.356-.135,12.356l-4.157.995c.348.706,1.787.939,2.2.991l.115.012v2.153h1.6c0,6.6-.175,20.48-.3,29.284H406.4V585.4a.661.661,0,0,1-.36-.632v-13.94c0-1.888-.873-2.749-.927-3.437s.49-1.378-1.03-2.123-1.137-1.889-1.137-1.889a1.364,1.364,0,0,0-1.142-1.5V559.77H398c-.378-.688-3.476-.574-3.476-.574a4.985,4.985,0,0,1-3.205-1.03v-.751h-6.946v.8l-2.177-.006c-3.853,0-2.937,3.335-4.693,1.042S374,557.188,374,557.188V542.217h.759V539.81h-2.386v-5.622a.809.809,0,0,0-.006-.114,5.124,5.124,0,0,0-.054-.724l.005.081c-.005-.023-.005-.051-.01-.086a.154.154,0,0,0-.006-.052v-.028a.155.155,0,0,1-.006-.034,21.537,21.537,0,0,0-3.755-9.662c-.005-.016-.005-.04-.011-.057a.3.3,0,0,0-.135-.143,15.388,15.388,0,0,0-2.117-2.254.291.291,0,0,0-.08-.1c-.028-.023-.147-.114-.329-.239a13.6,13.6,0,0,0-1.945-1.3.243.243,0,0,0-.129-.07,17.421,17.421,0,0,0-15.389,0,.248.248,0,0,0-.129.07,13.676,13.676,0,0,0-1.945,1.3c-.183.125-.3.216-.329.239a.227.227,0,0,0-.075.1,15.507,15.507,0,0,0-2.123,2.254.316.316,0,0,0-.135.143c0,.017,0,.04-.009.057a21.552,21.552,0,0,0-3.756,9.662v.006l-.006.028c0,.028,0,.057,0,.08s-.005.063-.011.086l-.065.524-.032.279v5.576h-2.393v2.407h.766v16.638H327.068v-1.149a11.362,11.362,0,0,0-3.745,0c-2.009.341-1.417.911-2.069,1.149v.739h-3.8s-.323.4-.652.4a24.019,24.019,0,0,1-2.845,0c-1.061-.1-1.837.079-1.837.546,0,0-.944,1.422-1.509,1.547a4.312,4.312,0,0,0-2,3.414,3.284,3.284,0,0,1-1.088,3.045,2.763,2.763,0,0,0-1.143,2.008c0,.626.49,1.258-.49,1.548s-.867.745-.975,1.6-1.417,2.578-2.5,2.578-.873,1.434-.873,1.434h-.791v.763h-2.032a1.057,1.057,0,0,1-.576-.643H284.867v-.688s-1.3-.177-1.3.341l-.652.29H267.275V564.716a1.021,1.021,0,0,0-.738-.951c-.727-.211-1.3-.473-1.3-.859s-.076-.768-.809-.768-2.242.12-2.609.039-1.551.211-1.627.518-1.875.729-2.123.729-.809,0-.809.688v61.17h-22.72a11.437,11.437,0,0,0-11.409,10.711h-.189V698.9H709.408v-62.17h.152ZM312.622,617.513v-10.06h3.207v10.06Zm16.6.24v-9.81h3.033v9.81ZM345.033,526a13.1,13.1,0,0,1,.4,1.679,22.978,22.978,0,0,0-2.657,4.506c-.237.063-.468.131-.684.2A26.049,26.049,0,0,1,345.033,526Zm-2.682,4.125c.1-.4.22-.819.361-1.257.162-.234.327-.473.506-.712C342.878,528.844,342.592,529.511,342.35,530.126Zm1.067-3.113a16.373,16.373,0,0,1,1.137-2.167c.086.164.172.341.253.529l-.13.187C344.219,526.041,343.8,526.53,343.417,527.013Zm12.431-6.765v.267a15.008,15.008,0,0,0-5.754,1.212c-.1-.2-.2-.4-.314-.591a11.645,11.645,0,0,1,4.2-1.611A6.716,6.716,0,0,1,355.848,520.248Zm-.437-.882.437-.017v.234C355.7,519.5,355.556,519.433,355.411,519.365Zm5.55,16.286v2.122h-2.009v-2.122Zm-.566-5.571c-.549-2.288-1.579-5.132-3.437-6.6a7.2,7.2,0,0,1,3.858,2.4A28.6,28.6,0,0,0,360.395,530.08Zm9.7,2.321c-.216-.069-.447-.136-.684-.2a22.624,22.624,0,0,0-2.663-4.518,13.328,13.328,0,0,1,.4-1.679A26.238,26.238,0,0,1,370.1,532.4Zm-2.716-7.027a5.844,5.844,0,0,1,.275-.558c.248.4.49.826.717,1.269.166.335.323.671.462,1.007a19.835,19.835,0,0,0-1.33-1.53C367.47,525.5,367.426,525.437,367.383,525.375Zm1.589,2.782c.189.256.372.512.539.768.14.449.263.882.366,1.291C369.63,529.579,369.328,528.885,368.973,528.157ZM368.93,538.8v-1.917h1.2V538.8Zm1.2,1.013v3.636h-1.2v-3.636Zm-4.143-1.552V536.34h1.605v1.923Zm1.605,1.006v3.636h-1.605v-3.636Zm-1.244-7.681c.043-.917.124-2.049.286-3.17a22.09,22.09,0,0,1,2.143,3.62C368.024,531.861,367.2,531.713,366.344,531.588Zm0-4.422a16.81,16.81,0,0,0-1.277-1.4c.032-.517.086-1.024.162-1.508a18.479,18.479,0,0,1,1.535,1.338A14.354,14.354,0,0,0,366.344,527.167Zm-.129.7a30.4,30.4,0,0,0-.372,3.648c-.173-.028-.351-.052-.529-.074a35.184,35.184,0,0,1-.28-4.928A16.062,16.062,0,0,1,366.215,527.872Zm-.8,34.386V575.2H360.96V562.258Zm-4.451,22.72h4.451v12.933H360.96Zm-.976-30.5v-3.955h3.746v3.955Zm4.925-31.158a15.87,15.87,0,0,0-2.333-1.366c.086-.177.178-.352.275-.518a13.737,13.737,0,0,1,2.085,1.759A.837.837,0,0,0,364.91,523.315Zm-.129.607c-.081.451-.14.923-.183,1.4a13.732,13.732,0,0,0-2.63-1.894c.108-.325.232-.638.361-.945A15.3,15.3,0,0,1,364.781,523.922Zm-.226,2.118a32.8,32.8,0,0,0,.237,5.285,22.243,22.243,0,0,0-3.411-5.667c.113-.558.248-1.121.409-1.662A13.581,13.581,0,0,1,364.555,526.041Zm-.345,5.28c-1.137-.119-2.273-.211-3.319-.279a30.106,30.106,0,0,1,.356-4.661A22.376,22.376,0,0,1,364.21,531.32Zm-3.249,7.573v4.012h-2.009v-4.012Zm-.6,68.667a1.78,1.78,0,0,0,1.137,1.616v12.786H350.642V609.177a1.782,1.782,0,0,0,1.143-1.616Zm-13.633-9.65V584.977h4.456v12.933Zm.9-71.876a13.816,13.816,0,0,1,2.764-2.042c.162.546.3,1.1.409,1.667a22.273,22.273,0,0,0-3.41,5.667A32.927,32.927,0,0,0,347.635,526.035Zm3.3.346a30.038,30.038,0,0,1,.361,4.661c-1.046.063-2.182.154-3.319.273A22.634,22.634,0,0,1,350.939,526.38Zm2.252,9.271v2.122h-2v-2.122Zm-1.816-9.77a7.2,7.2,0,0,1,3.857-2.4c-1.858,1.469-2.888,4.313-3.437,6.6A27.893,27.893,0,0,0,351.375,525.881Zm1.816,13.012v4.012h-2v-4.012Zm-4.774,11.625h3.746v3.955h-3.746Zm5.426,47.392V584.977H358.3v12.933ZM358.3,575.2h-4.456V562.258H358.3Zm-.349-20.723h-3.756v-3.955h3.756Zm-.873-11.568h-2.011v-4.012h2.011ZM352.12,531c.505-2.413,1.583-5.86,3.728-7.255v7.125C355.314,530.871,353.9,530.9,352.12,531Zm-.879-5.809c-.1-.483-.226-.968-.372-1.44a11.519,11.519,0,0,1,4.979-1.218v.268A6.989,6.989,0,0,0,351.24,525.186Zm-.549-2c-.108-.314-.227-.614-.356-.911a14.521,14.521,0,0,1,5.513-1.148v.8A11.853,11.853,0,0,0,350.691,523.184Zm-.831-.7c.13.307.254.62.362.945a13.729,13.729,0,0,0-2.63,1.894c-.043-.478-.1-.951-.183-1.4A15.353,15.353,0,0,1,349.86,522.484Zm-2.58.831c-.005-.046-.022-.086-.027-.125a14,14,0,0,1,2.085-1.759c.1.166.189.341.275.518A15.941,15.941,0,0,0,347.28,523.315Zm3.906,38.942V575.2H346.73V562.258Zm-4.311-30.817c-.178.023-.356.045-.527.074a30.619,30.619,0,0,0-.372-3.647,15.729,15.729,0,0,1,1.18-1.354A35.274,35.274,0,0,1,346.875,531.44Zm-2.316,7.828h1.6v3.636h-1.6Zm-1.137-7.242a22,22,0,0,1,2.139-3.614c.161,1.121.242,2.259.285,3.17C344.99,531.707,344.172,531.855,343.422,532.027Zm1.137,6.236V536.34h1.6v1.923Zm1.287-11.1a14.333,14.333,0,0,0-.42-1.57,18.482,18.482,0,0,1,1.536-1.338c.075.484.129.991.161,1.508A16.943,16.943,0,0,0,345.846,527.167Zm-2.635,9.718V538.8h-1.191v-1.917Zm0,2.931v3.636h-1.191v-3.636ZM380.6,617.41v-9.121h3.039v9.121Zm59.415-67.07,2.821,1.4v.435h-2.816C440.015,551.568,440.015,550.956,440.01,550.34Zm1.441,67.07v-9.121h3.034v9.121Zm50.522-65.235h-2.812v-.435l2.815-1.395C491.976,550.96,491.976,551.568,491.973,552.175ZM635.6,610.961v7.826h-2.618v-7.826Zm-4.538-78.611a1.63,1.63,0,0,1,3.057,0v1.067h-3.057Zm-.2,18.083a1.839,1.839,0,0,1,3.45,0v1.2h-3.45Zm-.2,19.539a2.05,2.05,0,0,1,3.843,0v1.342h-3.843Zm-.2,19.543a2.26,2.26,0,0,1,4.236,0v1.479h-4.236Zm-.891,21.446h2.615v7.826h-2.615Zm-19.621-8.5h0a22.9,22.9,0,0,0,7.253,4.235v13.258h-3.082a95.547,95.547,0,0,0-4.37-17.524C609.829,602.443,609.891,602.454,609.957,602.463Zm-19.745-1.531c8.492,0,14.773,18.688,16.482,24.35H578.5l-.41-7.622h-1.7C579.358,610.192,584.243,600.932,590.212,600.932ZM498.868,551.74v.435h-2.82c0-.607,0-1.219,0-1.835Zm-28.4-7.3c7.626-.034,14.265-.168,19.959-.349v2.459h1.558q0,1.357,0,2.71v0l-4.015,2.149c-.172.792.683.577.683.577v1.189q-8.045.13-18.181.164Zm21.468,14.441c-.053,7.11-.131,12.356-.131,12.356l-4.165.995c.372.754,1.995.969,2.277,1a.287.287,0,0,0,.041,0v2.153h1.6c0,10.087-.409,37.164-.409,37.164h-.065v7.594a9.894,9.894,0,0,1-1.124,4.918v.213H451.742V608.2h.491v-2.925a.939.939,0,0,0-.733-.6.978.978,0,0,0-1.314,0h-9.453c-.121-8.8-.3-22.682-.3-29.284h1.6V573.24a.286.286,0,0,0,.041,0c.282-.03,1.9-.246,2.277-1l-4.166-.995s-.077-5.246-.131-12.356Zm-50.371-12.331V544.1c5.694.181,12.333.315,19.96.349v8.9q-10.13-.026-18.182-.164v-1.189s.855.215.682-.577l-4.015-2.149v0q-.006-1.35,0-2.71Zm-8.441,5.62v-.435l2.82-1.395c0,.615,0,1.223,0,1.83Zm-.419,56.114h2.479c-.037,2.624-.062,4.268-.062,4.268h-.07v4.853H432.7Zm-9.5,0h3.039v9.121H423.2Zm-4.375,0h3.034v9.121h-3.034Zm-4.375,0h3.034v9.121H414.45Zm-9.165,0h3.038v9.121h-3.038Zm-1.342,0v9.121h-3.034v-9.121Zm-6-41.781h3.207v9.69h-3.207Zm0,21.28h3.207v9.684h-3.207Zm1.622,20.5v9.121h-3.034v-9.121Zm-6.235-41.781h3.2v9.69h-3.2Zm0,21.28h3.2v9.684h-3.2ZM388,617.41h-3.033v-9.121H388Zm-5.889-50.9h3.2v9.69h-3.2Zm0,21.28h3.2v9.684h-3.2Zm-4.612-21.28h3.2v9.69h-3.2Zm0,21.28h3.2v9.684h-3.2Zm-1.277,20.5h3.034v9.121h-3.034Zm-5.394-75.609a22.612,22.612,0,0,0-.414-2.3,20.074,20.074,0,0,1,1.358,2.828A3.952,3.952,0,0,0,370.832,532.68Zm-2.57-8.632a17.741,17.741,0,0,1,1.164,1.826,21.031,21.031,0,0,1,1.978,5.234,24.809,24.809,0,0,0-1.492-2.548,18.867,18.867,0,0,0-1.945-4.2A2.311,2.311,0,0,1,368.262,524.049Zm-2.155-2.373a14.144,14.144,0,0,1,1.81,1.924,3.12,3.12,0,0,0-.263.284,14.325,14.325,0,0,0-1.666-2.014C366.026,521.8,366.069,521.738,366.107,521.676Zm1.234,2.647a5.375,5.375,0,0,0-.291.562,19.241,19.241,0,0,0-1.536-1.894,5.851,5.851,0,0,1,.226-.626A13.185,13.185,0,0,1,367.341,524.323Zm-1.665-2.971c-.027.046-.049.1-.075.142-.265-.239-.534-.472-.82-.694C365.174,521.021,365.482,521.22,365.675,521.352Zm-2.236-.819a12.154,12.154,0,0,1,1.908,1.451c-.08.194-.161.393-.231.6a13.856,13.856,0,0,0-1.962-1.645C363.246,520.794,363.343,520.662,363.439,520.532Zm-2.241-1.047a12.185,12.185,0,0,1,1.767.785c-.086.12-.172.239-.253.369a12.145,12.145,0,0,0-2.673-1.28A8.79,8.79,0,0,1,361.2,519.486Zm-4.855-.814a17.828,17.828,0,0,1,2.177.164c-.108.024-.222.04-.334.069a12.741,12.741,0,0,0-1.843-.166Zm0,.677.436.017c-.145.068-.291.137-.436.211Zm0,.9a6.628,6.628,0,0,1,1.869-.723,11.568,11.568,0,0,1,4.192,1.611c-.108.193-.21.393-.307.591a15.015,15.015,0,0,0-5.754-1.212Zm0,.877a14.514,14.514,0,0,1,5.512,1.148c-.129.3-.248.6-.356.911a11.861,11.861,0,0,0-5.156-1.263Zm0,1.4a11.538,11.538,0,0,1,4.978,1.218c-.145.479-.269.956-.371,1.44a6.991,6.991,0,0,0-4.607-2.389Zm0,1.212c2.145,1.395,3.222,4.842,3.729,7.255-1.756-.1-3.163-.125-3.729-.137Zm.733,11.91v2.122h-2.011v-2.122Zm-1.228-16.979v.067a12.126,12.126,0,0,0-1.843.166c-.113-.029-.226-.046-.34-.069A16.524,16.524,0,0,1,355.848,518.672Zm-4.737.791a8.646,8.646,0,0,1,1.04-.1,12.222,12.222,0,0,0-2.667,1.28c-.076-.119-.162-.234-.243-.341A12.734,12.734,0,0,1,351.111,519.462Zm-2.333,1.1c.086.12.172.245.253.37a14.826,14.826,0,0,0-1.956,1.645c-.065-.193-.139-.381-.215-.557A11.894,11.894,0,0,1,348.778,520.566Zm-1.363.234c-.292.222-.56.455-.825.694-.027-.046-.049-.1-.076-.142C346.708,521.22,347.016,521.021,347.415,520.8Zm-.949,1.6c.075.181.145.382.21.586a19.049,19.049,0,0,0-1.536,1.894,4.746,4.746,0,0,0-.275-.529A13.9,13.9,0,0,1,346.467,522.4Zm-.383-.729c.038.063.081.125.119.194a14.234,14.234,0,0,0-1.665,2.014,3.206,3.206,0,0,0-.264-.284A14.115,14.115,0,0,1,346.084,521.676Zm-3.319,4.2a17.742,17.742,0,0,1,1.163-1.826,2.313,2.313,0,0,1,.3.308,18.921,18.921,0,0,0-1.945,4.2,24.674,24.674,0,0,0-1.492,2.548A21.006,21.006,0,0,1,342.765,525.875Zm-.991,4.507a21.148,21.148,0,0,0-.416,2.276,4.55,4.55,0,0,0-.927.5A20.781,20.781,0,0,1,341.774,530.382Zm-8.024,35.7h3.206v10.55H333.75Zm0,21.281h3.206v10.549H333.75Zm-.156,20.581h3.039v9.81h-3.039Zm-4.457-41.862h3.2v10.55h-3.2Zm0,21.281h3.2v10.549h-3.2Zm-1.261,30.391h-3.034v-9.81h3.034Zm-3.362-51.672h3.206v10.55h-3.206Zm0,21.281h3.206v10.549h-3.206Zm-7.985-21.281h3.211v10.55h-3.211Zm-.7,21.281v10.549h-3.207V587.361Zm-3.911-21.281h3.206v10.55h-3.206Zm-3.912,21.281h3.206v10.549h-3.206Zm0,20.092h3.206v10.06h-3.206Zm-4.612-20.092h3.2v10.549h-3.2Zm0,20.092h3.2v10.06h-3.2Zm-6.509-20.092h2.867v10.549h-2.867Zm0,20.45h2.867v10.054h-2.867Zm-4.133-20.45h2.867v10.549h-2.867Zm0,20.45h2.867v10.054h-2.867Zm-4.133-20.45h2.867v10.549h-2.867Zm0,20.45h2.867v10.054h-2.867Zm-9.942-20.45h3.211v10.549h-3.211Zm0,20.45h3.211v10.054h-3.211Zm-4.611-20.45h3.2v10.549h-3.2Zm0,20.45h3.2v10.054h-3.2Zm-4.618-20.45h3.207v10.549h-3.207Zm0,20.45h3.207v10.054h-3.207Zm-7.824-41.731h1.67v10.55h-1.67Zm0,21.281h1.67v10.549h-1.67Zm0,21.241h1.67v9.748h-1.67Zm-2.4-42.522h1.665v10.55H259.22Zm0,21.281h1.665v10.549H259.22Zm0,21.241h1.665v9.748H259.22Z" transform="translate(-107.171 3664.826)" fill="#1f2b5d"/>
          </g>
        </g>
        <g id="rocket" transform="translate(267.612 3724.922) rotate(-38)">
          <g id="グループ_547" data-name="グループ 547" transform="translate(16.998 78.405)">
            <path id="パス_1759" data-name="パス 1759" d="M29.216,32.62C39.233,20.243,40.991,5.06,36.3,1.26S17.117,2.343,7.1,14.72A32.77,32.77,0,0,0,.947,27.769c.594.147,1.206.3,1.822.456A53.311,53.311,0,0,0,.02,46.08a53.321,53.321,0,0,0,16.108-5.953c.215.538.435,1.089.667,1.665A33.363,33.363,0,0,0,29.216,32.62Z" fill="#db520d"/>
            <path id="パス_1760" data-name="パス 1760" d="M16.959,19.213C10.706,26.939.013,28.648.013,28.648s-.557-10.816,5.7-18.541S19.725-1.7,22.656.673,23.212,11.488,16.959,19.213Z" transform="translate(6.824 9.01)" fill="#f1831b"/>
            <path id="パス_1761" data-name="パス 1761" d="M9.25,10.48C5.84,14.694.007,15.626.007,15.626s-.3-5.9,3.107-10.113S10.759-.927,12.358.367,12.661,6.266,9.25,10.48Z" transform="translate(11.976 15.673)" fill="#f7a928"/>
          </g>
          <path id="パス_1762" data-name="パス 1762" d="M69.821,69.323C51.663,91.759,32.43,104.629,19.157,107.461c-3.176.677-9.13-3.586-11.377-5.4C5.417,100.144.015,95.024,0,91.567-.057,77.949,8.922,56.722,26.864,34.554,49.267,6.875,80.692-4.828,88.906,1.821,96.946,8.328,92.224,41.644,69.821,69.323Z" transform="translate(27.333 0.073)" fill="#e8e7e7"/>
          <path id="パス_1763" data-name="パス 1763" d="M12.34,34.113C-.7,23.559-1.388,15.157,1.212,11.944,2.269,10.639,29.4-5.4,38.416,1.894s-.85,36.791-2.046,38.269C33.465,43.753,25.38,44.666,12.34,34.113Z" transform="translate(77.823 0)" fill="#2095a7"/>
          <path id="パス_1764" data-name="パス 1764" d="M36.3,26.416c-6.31,3.885-12.15,6.373-17.146,7.439-3.176.677-9.13-3.586-11.377-5.4C5.417,26.538.015,21.418,0,17.961-.021,12.841,1.136,6.917,3.665,0c0,0,.074,7.678,12.432,17.68S36.3,26.416,36.3,26.416Z" transform="translate(27.333 73.679)" fill="#1f2b5d"/>
          <path id="パス_1765" data-name="パス 1765" d="M81.126,0c8.04,6.507,3.319,39.823-19.084,67.5C43.883,89.938,24.651,102.808,11.377,105.64c-3.176.677-9.13-3.586-11.377-5.4,0,0,21.754-5.963,50.791-41.839S81.126,0,81.126,0Z" transform="translate(35.113 1.894)" fill="#1b1311" opacity="0.05"/>
          <g id="グループ_548" data-name="グループ 548" transform="translate(0 53.289)">
            <path id="パス_1766" data-name="パス 1766" d="M41,0,31.464,20.042S9.451,31.359,0,39.648C19.364,11.277,21.725,5.82,41,0Z" transform="translate(2.021 5.869)" fill="#15717f"/>
            <path id="パス_1767" data-name="パス 1767" d="M0,39.649C19.364,11.278,21.725,5.82,41,0l2.021,5.869c-19.277,5.82-21.638,11.277-41,39.648Z" fill="#2095a7"/>
          </g>
          <g id="グループ_549" data-name="グループ 549" transform="translate(45.232 85.415)">
            <path id="パス_1768" data-name="パス 1768" d="M30.234,0,12.619,13.505S6.138,37.393,0,48.364C23.713,23.513,28.559,20.066,30.234,0Z" fill="#15717f"/>
            <path id="パス_1769" data-name="パス 1769" d="M6.161,49.118C29.874,24.268,34.719,20.821,36.394.754L30.234,0C28.559,20.066,23.713,23.513,0,48.364Z" fill="#2095a7"/>
          </g>
          <g id="グループ_558" data-name="グループ 558" transform="matrix(0.788, 0.616, -0.616, 0.788, 73.051, 34.923)">
            <g id="グループ_556" data-name="グループ 556" transform="translate(0 31.069)">
              <path id="パス_1777" data-name="パス 1777" d="M3.421,1.884a.429.429,0,0,0,.05-.244A1.851,1.851,0,0,0,3.348.947,1.458,1.458,0,0,0,3,.43,1.492,1.492,0,0,0,2.483.11,1.875,1.875,0,0,0,1.833,0a2.02,2.02,0,0,0-.764.139A1.68,1.68,0,0,0,.49.521,1.664,1.664,0,0,0,.126,1.1,1.982,1.982,0,0,0,0,1.806a2.3,2.3,0,0,0,.138.825,1.707,1.707,0,0,0,.391.611,1.666,1.666,0,0,0,.6.376,2.123,2.123,0,0,0,.744.127,2.708,2.708,0,0,0,.423-.034,2.5,2.5,0,0,0,.414-.1,1.975,1.975,0,0,0,.381-.174A1.324,1.324,0,0,0,3.4,3.182l.054-.061L3.22,2.841c-.082-.107-.222-.136-.4-.029a2.229,2.229,0,0,1-.206.11,2.145,2.145,0,0,1-.293.109,1.412,1.412,0,0,1-.4.049,1.257,1.257,0,0,1-.445-.075.882.882,0,0,1-.332-.219,1.047,1.047,0,0,1-.223-.371A1.6,1.6,0,0,1,.84,1.972H3.219A.229.229,0,0,0,3.421,1.884ZM.876,1.4a1.02,1.02,0,0,1,.29-.541A.962.962,0,0,1,1.848.636.976.976,0,0,1,2.211.7a.733.733,0,0,1,.262.175.765.765,0,0,1,.164.27,1.046,1.046,0,0,1,.053.261Z" transform="translate(0 1.514)" fill="#666767"/>
              <path id="パス_1778" data-name="パス 1778" d="M2.8,2.745a.3.3,0,0,0-.191.074,1.816,1.816,0,0,1-.16.111,1.187,1.187,0,0,1-.238.108,1.149,1.149,0,0,1-.363.048,1.031,1.031,0,0,1-.413-.079.832.832,0,0,1-.306-.227,1.1,1.1,0,0,1-.2-.377,1.765,1.765,0,0,1-.072-.528,1.821,1.821,0,0,1,.068-.516,1.066,1.066,0,0,1,.2-.379A.836.836,0,0,1,1.441.745,1.115,1.115,0,0,1,1.885.663,1.14,1.14,0,0,1,2.2.7,1.333,1.333,0,0,1,2.43.789a1.59,1.59,0,0,1,.155.089A.278.278,0,0,0,2.894.9a.357.357,0,0,0,.08-.077L3.2.535,3.136.475A1.768,1.768,0,0,0,2.573.124,1.99,1.99,0,0,0,1.848,0a2.078,2.078,0,0,0-.786.14A1.631,1.631,0,0,0,.48.533a1.688,1.688,0,0,0-.359.6A2.227,2.227,0,0,0,0,1.875a2.191,2.191,0,0,0,.133.787,1.726,1.726,0,0,0,.368.59,1.587,1.587,0,0,0,.553.368,1.846,1.846,0,0,0,.684.126,2.4,2.4,0,0,0,.8-.133,1.519,1.519,0,0,0,.646-.431l.054-.061-.231-.277A.234.234,0,0,0,2.8,2.745Z" transform="translate(4.892 1.514)" fill="#666767"/>
              <rect id="長方形_247" data-name="長方形 247" width="0.843" height="5.213" transform="translate(10.079 0)" fill="#666767"/>
              <path id="パス_1779" data-name="パス 1779" d="M3.422,1.884a.429.429,0,0,0,.05-.244A1.851,1.851,0,0,0,3.349.947,1.458,1.458,0,0,0,3,.43,1.5,1.5,0,0,0,2.483.11,1.875,1.875,0,0,0,1.833,0a2.02,2.02,0,0,0-.764.139A1.68,1.68,0,0,0,.49.521,1.664,1.664,0,0,0,.125,1.1,1.982,1.982,0,0,0,0,1.806a2.3,2.3,0,0,0,.139.825,1.707,1.707,0,0,0,.391.611,1.666,1.666,0,0,0,.6.376,2.123,2.123,0,0,0,.744.127,2.708,2.708,0,0,0,.423-.034,2.5,2.5,0,0,0,.414-.1,1.975,1.975,0,0,0,.38-.174A1.324,1.324,0,0,0,3.4,3.182l.054-.061-.233-.281c-.082-.107-.222-.136-.4-.029a2.229,2.229,0,0,1-.206.11,2.145,2.145,0,0,1-.294.109,1.412,1.412,0,0,1-.4.049,1.257,1.257,0,0,1-.445-.075.882.882,0,0,1-.332-.219,1.047,1.047,0,0,1-.222-.371A1.58,1.58,0,0,1,.84,1.972H3.219A.229.229,0,0,0,3.422,1.884ZM.877,1.4A1.02,1.02,0,0,1,1.166.864.962.962,0,0,1,1.847.636.976.976,0,0,1,2.211.7a.733.733,0,0,1,.263.175.766.766,0,0,1,.163.27,1.046,1.046,0,0,1,.053.261Z" transform="translate(12.769 1.514)" fill="#666767"/>
              <path id="パス_1780" data-name="パス 1780" d="M2.8,2.745a.3.3,0,0,0-.191.074,1.76,1.76,0,0,1-.161.111,1.169,1.169,0,0,1-.237.108,1.149,1.149,0,0,1-.362.048,1.031,1.031,0,0,1-.413-.079.832.832,0,0,1-.306-.227,1.1,1.1,0,0,1-.2-.377,1.765,1.765,0,0,1-.073-.528,1.821,1.821,0,0,1,.068-.516,1.066,1.066,0,0,1,.2-.379A.837.837,0,0,1,1.441.745,1.115,1.115,0,0,1,1.885.663,1.14,1.14,0,0,1,2.2.7,1.333,1.333,0,0,1,2.43.789a1.59,1.59,0,0,1,.155.089A.278.278,0,0,0,2.894.9a.357.357,0,0,0,.08-.077L3.2.535,3.136.475A1.768,1.768,0,0,0,2.573.124,1.99,1.99,0,0,0,1.847,0a2.078,2.078,0,0,0-.785.14A1.631,1.631,0,0,0,.479.533a1.688,1.688,0,0,0-.358.6A2.227,2.227,0,0,0,0,1.875a2.191,2.191,0,0,0,.133.787,1.718,1.718,0,0,0,.368.59,1.586,1.586,0,0,0,.553.368,1.846,1.846,0,0,0,.684.126,2.4,2.4,0,0,0,.8-.133,1.519,1.519,0,0,0,.646-.431l.053-.061-.23-.277A.234.234,0,0,0,2.8,2.745Z" transform="translate(17.662 1.514)" fill="#666767"/>
              <path id="パス_1781" data-name="パス 1781" d="M2.384,4.069a.2.2,0,0,0-.169-.1.219.219,0,0,0-.12.041c-.024.016-.054.034-.088.053a.677.677,0,0,1-.115.049.472.472,0,0,1-.148.021.322.322,0,0,1-.23-.08A.338.338,0,0,1,1.431,3.8V1.819H2.5V1.19H1.431V0H1.006A.253.253,0,0,0,.844.053.222.222,0,0,0,.762.2l-.141,1L0,1.265v.326a.211.211,0,0,0,.076.174.246.246,0,0,0,.159.054H.588v2.02a.964.964,0,0,0,.266.725A1.032,1.032,0,0,0,1.6,4.82a1.582,1.582,0,0,0,.524-.089,1.336,1.336,0,0,0,.439-.248l.063-.055Z" transform="translate(22.54 0.447)" fill="#666767"/>
            </g>
            <g id="グループ_557" data-name="グループ 557">
              <path id="パス_1782" data-name="パス 1782" d="M20.96,4.84,16.768,2.42h0L12.576,0,8.384,2.42h0L4.192,4.84,0,7.261V21.782L4.192,24.2l4.192,2.42,4.192,2.42V24.2l-4.192-2.42-4.192-2.42V9.681L8.384,12.1l4.192,2.42,4.192-2.42-4.192-2.42L8.384,7.261l4.192-2.42h0l4.192,2.42,4.192,2.42,4.192-2.42Z" fill="#004e60"/>
              <path id="パス_1783" data-name="パス 1783" d="M8.4,7.261l4.192-2.42V0L8.4,2.42l-.012-.007v.014L4.2,4.84l-.012-.007v.014L.012,7.261,0,7.254V21.775l.012.007L4.2,19.362,8.4,16.941l4.192-2.42V9.681L8.4,12.1l-.012-.007v.014L4.2,14.521V9.681Z" transform="translate(12.576 7.261)" fill="#a9a9a8"/>
            </g>
          </g>
        </g>
      </g>
    </g>
  </g>
</svg>
