<svg xmlns="http://www.w3.org/2000/svg" xmlns:xlink="http://www.w3.org/1999/xlink" width="1360" height="1244" viewBox="0 0 1360 1244" preserveAspectRatio="none">
  <defs>
    <clipPath id="clip-path">
      <rect id="長方形_250" data-name="長方形 250" width="1360" height="1244" transform="translate(0 4278)" fill="none"/>
    </clipPath>
    <clipPath id="clip-path-2">
      <rect id="長方形_249" data-name="長方形 249" width="1360" height="1234" transform="translate(0 4278)" fill="#fff" stroke="#707070" stroke-width="1"/>
    </clipPath>
  </defs>
  <g id="contact_bg_01" transform="translate(0 -4278)" clip-path="url(#clip-path)">
    <g id="contact_bg_01-2" data-name="contact_bg_01" clip-path="url(#clip-path-2)">
      <g id="contact_bg_01-3" data-name="contact_bg_01" transform="translate(0 4126.958)">
        <g id="グループ_546" data-name="グループ 546" transform="translate(64.565 -267.929)">
          <path id="パス_1784" data-name="パス 1784" d="M0,0H14L24,843H-10Z" transform="translate(608.435 719.929)" fill="#fff"/>
          <g id="グループ_544" data-name="グループ 544" transform="translate(88.922 1190.929)">
            <path id="パス_1752" data-name="パス 1752" d="M866.376,579.361H848.543v24.948h13.375v2.655H848.543v5.44h13.375v2.655H848.543V620.5h13.375v2.656H848.543v5.437h13.375v2.655H848.543v5.44h13.375v2.655H848.543v5.438h13.375v2.656H848.543v5.436h13.375v2.656H848.543v5.438h13.375v2.655H848.543v5.44h13.375v2.653H848.543v5.441h13.375v2.653H848.543v5.438h13.375V687.9H848.543v5.438h13.375V696H848.543v5.438h13.375v2.653H848.543v5.44h13.375v2.655H848.543v5.437h13.375v2.658H848.543v5.438h13.375v2.653H848.543v5.44h13.375v2.655H848.543v13.293h-8.321V523.861h-120.2v303.47h85.7v3.735h62.632v-3.735h2.513V577.72h-4.492ZM738.492,700.2h-3.46v-3.46h3.46Zm0-8.9h-3.46v-3.462h3.46Zm0-8.905h-3.46v-3.462h3.46Zm0-8.9h-3.46V670.03h3.46Zm0-8.9h-3.46v-3.461h3.46Zm0-8.905h-3.46v-3.459h3.46Zm0-8.9h-3.46V643.32h3.46Zm0-8.905h-3.46v-3.461h3.46Zm0-8.9h-3.46v-3.462h3.46Zm0-8.905h-3.46v-3.461h3.46Zm0-8.905h-3.46v-3.459h3.46Zm0-8.9h-3.46V598.8h3.46Zm0-8.9h-3.46V589.9h3.46Zm0-8.9h-3.46v-3.465h3.46Zm0-8.9h-3.46V572.09h3.46Zm0-8.905h-3.46v-3.464h3.46Zm0-8.9h-3.46v-3.465h3.46Zm10.787,265.5h-8.72V791.9h8.72Zm-2.9-260.063v3.464h-3.46v-3.464Zm-3.46-5.44v-3.465h3.46v3.465Zm3.46,14.343v3.465h-3.46V572.09Zm0,8.9v3.465h-3.46v-3.465Zm0,8.9v3.465h-3.46V589.9Zm0,8.9v3.462h-3.46V598.8Zm0,8.905v3.459h-3.46v-3.459Zm0,8.9v3.461h-3.46v-3.461Zm0,8.9v3.462h-3.46v-3.462Zm0,8.9v3.461h-3.46v-3.461Zm0,8.9v3.462h-3.46V643.32Zm0,8.905v3.459h-3.46v-3.459Zm0,8.9v3.461h-3.46v-3.461Zm0,8.9v3.462h-3.46V670.03Zm0,8.9V682.4h-3.46v-3.462Zm0,8.905V691.3h-3.46v-3.462Zm0,8.9v3.46h-3.46v-3.46Zm2,11.627v6.923h-6.926v-6.923Zm0,15.768v6.923h-6.926v-6.923Zm0,15.768v6.923h-6.926V739.9Zm0,15.766v6.922h-6.926V755.67ZM754.26,700.2H750.8v-3.46h3.461Zm0-8.9H750.8v-3.462h3.461Zm0-8.905H750.8v-3.462h3.461Zm0-8.9H750.8V670.03h3.461Zm0-8.9H750.8v-3.461h3.461Zm0-8.905H750.8v-3.459h3.461Zm0-8.9H750.8V643.32h3.461Zm0-8.905H750.8v-3.461h3.461Zm0-8.9H750.8v-3.462h3.461Zm0-8.905H750.8v-3.461h3.461Zm0-8.905H750.8v-3.459h3.461Zm0-8.9H750.8V598.8h3.461Zm0-8.9H750.8V589.9h3.461Zm0-8.9H750.8v-3.465h3.461Zm0-8.9H750.8V572.09h3.461Zm0-8.905H750.8v-3.464h3.461Zm0-8.9H750.8v-3.465h3.461Zm7.883,5.44v3.464h-3.459v-3.464Zm-3.459-5.44v-3.465h3.459v3.465Zm3.459,14.343v3.465h-3.459V572.09Zm0,8.9v3.465h-3.459v-3.465Zm0,8.9v3.465h-3.459V589.9Zm0,8.9v3.462h-3.459V598.8Zm0,8.905v3.459h-3.459v-3.459Zm0,8.9v3.461h-3.459v-3.461Zm0,8.9v3.462h-3.459v-3.462Zm0,8.9v3.461h-3.459v-3.461Zm0,8.9v3.462h-3.459V643.32Zm0,8.905v3.459h-3.459v-3.459Zm0,8.9v3.461h-3.459v-3.461Zm0,8.9v3.462h-3.459V670.03Zm0,8.9V682.4h-3.459v-3.462Zm0,8.905V691.3h-3.459v-3.462Zm0,8.9v3.46h-3.459v-3.46Zm.321,11.627v6.923h-6.926v-6.923Zm0,15.768v6.923h-6.926v-6.923Zm0,15.768v6.923h-6.926V739.9Zm0,15.766v6.922h-6.926V755.67Zm3.376,67.579h-8.716V791.9h8.716ZM777.91,563.186v3.464H774.45v-3.464Zm-3.461-5.44v-3.465h3.461v3.465Zm3.461,14.343v3.465H774.45V572.09Zm0,8.9v3.465H774.45v-3.465Zm0,8.9v3.465H774.45V589.9Zm0,8.9v3.462H774.45V598.8Zm0,8.905v3.459H774.45v-3.459Zm0,8.9v3.461H774.45v-3.461Zm0,8.9v3.462H774.45v-3.462Zm0,8.9v3.461H774.45v-3.461Zm0,8.9v3.462H774.45V643.32Zm0,8.905v3.459H774.45v-3.459Zm0,8.9v3.461H774.45v-3.461Zm0,8.9v3.462H774.45V670.03Zm0,8.9V682.4H774.45v-3.462Zm0,8.905V691.3H774.45v-3.462Zm0,8.9v3.46H774.45v-3.46Zm-1.367,11.627v6.923h-6.924v-6.923Zm-6.924,22.69v-6.923h6.924v6.923Zm6.924,8.845v6.923h-6.924V739.9Zm-6.516-182.158h-3.46v-3.465h3.46Zm0,5.44v3.464h-3.46v-3.464Zm0,8.9v3.465h-3.46V572.09Zm0,8.9v3.465h-3.46v-3.465Zm0,8.9v3.465h-3.46V589.9Zm0,8.9v3.462h-3.46V598.8Zm0,8.905v3.459h-3.46v-3.459Zm0,8.9v3.461h-3.46v-3.461Zm0,8.9v3.462h-3.46v-3.462Zm0,8.9v3.461h-3.46v-3.461Zm0,8.9v3.462h-3.46V643.32Zm0,8.905v3.459h-3.46v-3.459Zm0,8.9v3.461h-3.46v-3.461Zm0,8.9v3.462h-3.46V670.03Zm0,8.9V682.4h-3.46v-3.462Zm0,8.905V691.3h-3.46v-3.462Zm0,8.9v3.46h-3.46v-3.46Zm-.409,58.928h6.924v6.922h-6.924ZM772.795,789s-.2-9.152,7.328-9.152a6.389,6.389,0,0,1,6.164,3.942h-9.978v39.462h-3.514ZM790.626,739.9v6.923H783.7V739.9Zm-6.923-8.845v-6.923h6.923v6.923Zm6.923,24.611v6.922H783.7V755.67Zm3.054-197.923h-3.462v-3.465h3.462Zm0,5.44v3.464h-3.462v-3.464Zm0,8.9v3.465h-3.462V572.09Zm0,8.9v3.465h-3.462v-3.465Zm0,8.9v3.465h-3.462V589.9Zm0,8.9v3.462h-3.462V598.8Zm0,8.905v3.459h-3.462v-3.459Zm0,8.9v3.461h-3.462v-3.461Zm0,8.9v3.462h-3.462v-3.462Zm0,8.9v3.461h-3.462v-3.461Zm0,8.9v3.462h-3.462V643.32Zm0,8.905v3.459h-3.462v-3.459Zm0,8.9v3.461h-3.462v-3.461Zm0,8.9v3.462h-3.462V670.03Zm0,8.9V682.4h-3.462v-3.462Zm0,8.905V691.3h-3.462v-3.462Zm0,8.9v3.46h-3.462v-3.46Zm-3.054,11.627v6.923H783.7v-6.923ZM785.8,557.746h-3.461v-3.465H785.8Zm0,5.44v3.464h-3.461v-3.464Zm0,8.9v3.465h-3.461V572.09Zm0,8.9v3.465h-3.461v-3.465Zm0,8.9v3.465h-3.461V589.9Zm0,8.9v3.462h-3.461V598.8Zm0,8.905v3.459h-3.461v-3.459Zm0,8.9v3.461h-3.461v-3.461Zm0,8.9v3.462h-3.461v-3.462Zm0,8.9v3.461h-3.461v-3.461Zm0,8.9v3.462h-3.461V643.32Zm0,8.905v3.459h-3.461v-3.459Zm0,8.9v3.461h-3.461v-3.461Zm0,8.9v3.462h-3.461V670.03Zm0,8.9V682.4h-3.461v-3.462Zm0,8.905V691.3h-3.461v-3.462Zm0,8.9v3.46h-3.461v-3.46Zm17.328,126.507h-.106V791.9h.106Zm1.586-60.656h-6.926V755.67h6.926Zm0-15.766h-6.926V739.9h6.926Zm0-15.768h-6.926v-6.923h6.926Zm0-15.768h-6.926v-6.923h6.926Zm-3.146-152.105v3.464H798.1v-3.464Zm-3.461-5.44v-3.465h3.461v3.465Zm3.461,14.343v3.465H798.1V572.09Zm0,8.9v3.465H798.1v-3.465Zm0,8.9v3.465H798.1V589.9Zm0,8.9v3.462H798.1V598.8Zm0,8.905v3.459H798.1v-3.459Zm0,8.9v3.461H798.1v-3.461Zm0,8.9v3.462H798.1v-3.462Zm0,8.9v3.461H798.1v-3.461Zm0,8.9v3.462H798.1V643.32Zm0,8.905v3.459H798.1v-3.459Zm0,8.9v3.461H798.1v-3.461Zm0,8.9v3.462H798.1V670.03Zm0,8.9V682.4H798.1v-3.462Zm0,8.905V691.3H798.1v-3.462Zm0,8.9v3.46H798.1v-3.46Zm7.883,3.46h-3.462v-3.46h3.462Zm0-8.9h-3.462v-3.462h3.462Zm0-8.905h-3.462v-3.462h3.462Zm0-8.9h-3.462V670.03h3.462Zm0-8.9h-3.462v-3.461h3.462Zm0-8.905h-3.462v-3.459h3.462Zm0-8.9h-3.462V643.32h3.462Zm0-8.905h-3.462v-3.461h3.462Zm0-8.9h-3.462v-3.462h3.462Zm0-8.905h-3.462v-3.461h3.462Zm0-8.905h-3.462v-3.459h3.462Zm0-8.9h-3.462V598.8h3.462Zm0-8.9h-3.462V589.9h3.462Zm0-8.9h-3.462v-3.465h3.462Zm0-8.9h-3.462V572.09h3.462Zm0-8.905h-3.462v-3.464h3.462Zm0-8.9h-3.462v-3.465h3.462Zm9.345,189.08h-6.926V739.9h6.926Zm0-15.768h-6.926v-6.923h6.926Zm0-15.768h-6.926v-6.923h6.926Zm-1.46-152.105v3.464h-3.462v-3.464Zm-3.462-5.44v-3.465h3.462v3.465Zm3.462,14.343v3.465h-3.462V572.09Zm0,8.9v3.465h-3.462v-3.465Zm0,8.9v3.465h-3.462V589.9Zm0,8.9v3.462h-3.462V598.8Zm0,8.905v3.459h-3.462v-3.459Zm0,8.9v3.461h-3.462v-3.461Zm0,8.9v3.462h-3.462v-3.462Zm0,8.9v3.461h-3.462v-3.461Zm0,8.9v3.462h-3.462V643.32Zm0,8.905v3.459h-3.462v-3.459Zm0,8.9v3.461h-3.462v-3.461Zm0,8.9v3.462h-3.462V670.03Zm0,8.9V682.4h-3.462v-3.462Zm0,8.905V691.3h-3.462v-3.462Zm0,8.9v3.46h-3.462v-3.46Zm7.883,3.46h-3.462v-3.46h3.462Zm0-8.9h-3.462v-3.462h3.462Zm0-8.905h-3.462v-3.462h3.462Zm0-8.9h-3.462V670.03h3.462Zm0-8.9h-3.462v-3.461h3.462Zm0-8.905h-3.462v-3.459h3.462Zm0-8.9h-3.462V643.32h3.462Zm0-8.905h-3.462v-3.461h3.462Zm0-8.9h-3.462v-3.462h3.462Zm0-8.905h-3.462v-3.461h3.462Zm0-8.905h-3.462v-3.459h3.462Zm0-8.9h-3.462V598.8h3.462Zm0-8.9h-3.462V589.9h3.462Zm0-8.9h-3.462v-3.465h3.462Zm0-8.9h-3.462V572.09h3.462Zm0-8.905h-3.462v-3.464h3.462Zm0-8.9h-3.462v-3.465h3.462Zm0-12.118H735.032v-3.589h90.181Zm29.745,204.127h-.635v-5.472h.635Zm8.272,0H862.6v-5.472h.633Z" transform="translate(15.59 -375.853)" fill="#6a90ac"/>
            <rect id="長方形_243" data-name="長方形 243" width="7.637" height="249.612" transform="translate(887.093 201.867)" fill="#6a90ac"/>
            <rect id="長方形_244" data-name="長方形 244" width="7.638" height="249.612" transform="translate(895.364 201.867)" fill="#6a90ac"/>
            <rect id="長方形_245" data-name="長方形 245" width="7.637" height="249.612" transform="translate(903.637 201.867)" fill="#6a90ac"/>
            <path id="パス_1753" data-name="パス 1753" d="M918.919,584.865V558.591H842.227V556.95H828.333V806.561h7.637V662.049h.635V806.561h7.637V662.049h.633V806.561h7.639V662.049h.633V806.561h7.639V683.009h.633V806.561h57.5V717.024h-27.57v-2.661h27.57v-5.432h-27.57V706.27h27.57v-5.433h-27.57v-2.66h27.57v-5.435h-27.57v-2.66h27.57v-5.432h-27.57V681.99h27.57v-5.433H865.909V673.9h53.011v-5.435H865.909V665.8h53.011v-5.433H845.282v-2.66h73.637v-5.433H845.282v-2.663h73.637v-5.432H845.282V641.52h73.637v-5.432H845.282v-2.66h73.637V628H845.282v-2.663h73.637V619.9H845.282v-2.66h73.637v-5.433H845.282v-2.66h73.637v-5.435H845.282v-2.661h73.637v-5.432H845.282V592.96h73.637v-5.432H845.282v-2.663Zm-77.436,74.171h-8.09v-2.653h8.09Zm0-8.094h-8.09v-2.653h8.09Zm0-8.093h-8.09v-2.655h8.09Zm0-8.093h-8.09V632.1h8.09Zm0-8.093h-8.09v-2.656h8.09Zm0-8.095h-8.09v-2.655h8.09Zm0-8.094h-8.09v-2.655h8.09Zm0-8.091h-8.09v-2.656h8.09Zm0-8.095h-8.09v-2.655h8.09Zm0-8.094h-8.09v-2.655h8.09Zm48.79,141.463h16.882v2.66H890.274Zm0,10.4h16.882v2.661H890.274Zm0,10.4h16.882v2.658H890.274Zm-17.793-59.7h11.394v2.655H872.481Zm0,8.091h11.394v2.658H872.481Zm0,8.1h11.394V707.6H872.481Zm0,8.093h11.394v2.655H872.481Zm-16.672-48.562h6.478v2.655h-6.478Zm0,8.093h6.478v2.658h-6.478Z" transform="translate(83.576 -355.083)" fill="#6a90ac"/>
            <path id="パス_1754" data-name="パス 1754" d="M886.392,569.6h-20.2v-6.467h-25.33V561.01H792.747v2.126h-25.33V569.6h-20.2V757.3h-1.03v89.839H735.608V840.9h-24.2V832.48h24.2v-7.886h-24.2v-3.011h24.2v-4.956h-24.2v-3.011h24.2v-4.956h-24.2v-3.011h24.2v-4.958h-24.2v-3.01h24.2v-4.948h-24.2V789.72h24.2v-4.956h-24.2v-3.013h24.2v-4.956h-24.2v-3.011h24.2v-4.956h-24.2v-3.011h24.2v-4.948h-24.2v-3.011h24.2V752.9h-24.2v-3.011h24.2v-4.958H705.5v-3.01h30.111v-4.956H705.5v-3.013h30.111V729H705.5v-3.01h30.111v-4.958H705.5v-3.011h30.111v-4.958H705.5v-3.01h30.111V705.1H705.5V702.09h30.111v-4.948H705.5V694.13h30.111v-4.958H705.5v-3.01h30.111v-4.956H705.5V678.2h30.111v-4.958H705.5v-3.01h30.111v-4.948H705.5V662.26h30.111v-4.951H705.5V654.3h30.111v-4.956H705.5V646.33h30.111v-4.955H718.957v-3.011h16.651v-4.95H718.957v-3.019h16.651v-4.947H718.957v-3.013h16.651v-4.956H718.957v-3.01h16.651v-4.96H718.957V606.5h16.651v-4.948H718.957v-3.018h16.651v-4.95H718.957v-3.013h16.651v-4.955H718.957V582.6h16.651v-4.955H718.957v-3.011h16.651v-4.95H718.957v-3.019h16.651v-4.947H718.957v-3.013h16.651v-4.958H718.957v-3.01h16.651v-4.958H718.957v-3.011h16.651v-4.947H718.957v-3.019h16.651v-4.95H718.957v-3.01h16.651V521.89H718.957v-3.015h16.651v-4.955H718.957v-3.01h16.651v-4.95H718.957v-3.019h16.651v-4.948H718.957v-3.011h16.651v-4.958H718.957v-3.011h16.651v-4.956H718.957v-3.011h16.651v-6.439H717.541v-7.251H701.606V454.173H685.488V432.93H664.826v21.243H648.71v11.182H632.772v7.251H614.706v6.439h16.645v3.011H614.706v4.956h16.645v3.011H614.706v4.958h16.645v3.011H614.706v4.948h16.645v3.019H614.706v4.95h16.645v3.01H614.706v4.955h16.645v3.015H614.706v4.956h16.645v3.01H614.706v4.95h16.645v3.019H614.706v4.947h16.645v3.011H614.706v4.958h16.645v3.01H614.706v4.958h16.645v3.013H614.706v4.947h16.645v3.019H614.706v4.95h16.645v3.011H614.706V582.6h16.645v3.013H614.706v4.955h16.645v3.013H614.706v4.95h16.645v3.018H614.706V606.5h16.645v3.01H614.706v4.96h16.645v3.01H614.706v.01H594.751L580.58,610.18h-7.675v-9.714l-8.767-6.882H510.986l-8.768,6.882v9.714h-4.33l-1.779-1.805-1.784,1.805h-3.612l-1.784-1.805-1.784,1.805h-4.02l-2.749,1.109-1.222,156.056c-2.744-.387-5.987-.915-9.288-1.605V566.125h4.2s-.251-9.159,4.789-9.159V516.027s-.124-1.753-2.941-1.753v-2.043h-7v-10.5s1.974.2,1.974-1.714v-1.4c.01-.326-.114-1.532-1.974-1.532h-.3v-5.394h-1.8v2.7h-1.141v.9h-2.031v-4.753a3.056,3.056,0,1,0-4.79,0v4.753h-2.031v-.9h-1.139v-2.7h-1.8v5.394h-.3c-1.859,0-1.986,1.206-1.974,1.532v1.4c0,1.916,1.974,1.714,1.974,1.714v10.5h-7v2.043c-2.816,0-2.94,1.753-2.94,1.753v40.938c5.038,0,4.79,9.159,4.79,9.159h4.195V729.87c-5.834-.7-12.424-2.347-16.235-6.065v-19.3s11.54-3.194,12.6-7.266c0,0-15.961,1.838-22.553-3.2v-7.492h-7.756V673.1s8.4-1.644,10.727-5.235c0,0-15.642.2-15.642-12.214v-8.463h-.4v-3.693a4.692,4.692,0,0,0,.581-1.983c0-.97-.14-3.64-1.357-4.561s.4,1.613.326,2.521.041,2.691-.978,1.784-.837-1.816-.944-.614a3.086,3.086,0,0,0,.869,2.357l.332.474v3.714h-.394v1.808h-46.21v-1.808h-.4v-3.714l.335-.474a3.085,3.085,0,0,0,.868-2.357c-.109-1.2.078-.295-.947.614s-.907-.869-.977-1.784,1.535-3.444.324-2.521-1.356,3.591-1.356,4.561a4.682,4.682,0,0,0,.583,1.983v3.693h-.4v8.463c0,12.409-15.642,12.214-15.642,12.214C350.3,671.453,358.7,673.1,358.7,673.1v13.45h-7.758v7.492c-6.592,5.039-22.553,3.2-22.553,3.2,1.063,4.073,12.6,7.266,12.6,7.266v19.3c-7.95,7.754-28.013,6.491-28.013,6.491,1.449,4.174,12.113,5.886,12.113,5.886v22.811c-7.562,6.98-34.45,9.244-34.45,9.244.2.776,4.654,4.142,8.212,4.142s6.167,5.909,6.167,5.909v9.7c-1.255,3-14.348,6.491-14.348,6.491,3.4,2.521,14.06,3.592,14.06,3.592v4.357L291.548,819.1H296.4v24.624H286.7l-18.614,38.391H452.62v2.293h17.245v-2.293h8.389l-.018,2.289h94.668v0H887.419V757.3h-1.027ZM476.017,517.981h1.351v16.451h-1.351Zm0,19.2h1.351V554.35h-1.351ZM446.469,554.35h-1.351V537.181h1.351Zm0-19.918h-1.351V517.981h1.351Zm6.151,224.842c-.109-.1-.231-.186-.335-.282V736.182s.135-.021.335-.059Zm14.19-247.043H455.677V501.694H466.81Zm12.008,298-6.174-7.808v-4.357s2.972-.3,6.276-.955Zm.143-18.269c-3.083-1.185-6.039-2.63-6.605-3.98v-9.7s2.616-5.909,6.167-5.909c.194,0,.392-.013.591-.032ZM627.018,624.055l-2.888-1.62h7.221v3.013h-4.3Zm.14,6.34h4.193v3.019h-4.125Zm.179,7.969h4.014v3.011H627.4ZM638.908,840.9h-7.056l-.187-8.415h7.243Zm0-16.3h-7.421l-.065-3.011h7.486Zm0-7.968h-7.6l-.065-3.011h7.663Zm0-7.968h-7.775l-.067-3.011h7.842Zm0-7.969h-7.953l-.067-3.01h8.02Zm0-7.958h-8.13l-.067-3.011h8.2Zm0-7.968H630.6l-.067-3.013h8.374Zm0-7.969h-8.485l-.067-3.011h8.552Zm0-7.967h-8.663l-.067-3.011h8.729Zm0-7.96h-8.842L630,757.856h8.908Zm0-7.968h-9.017l-.068-3.011h9.086Zm5.9-7.969h-15.1l-.068-3.01h15.164Zm0-7.966H629.536l-.068-3.013h15.341Zm0-7.961H629.357l-.067-3.01h15.518Zm0-7.968H629.18l-.067-3.011h15.7Zm0-7.969H629l-.067-3.01h15.873Zm0-7.964H628.825l-.067-3.013h16.051Zm0-7.961H628.647l-.068-3.011h16.23Zm0-7.969H628.47l-.068-3.01h16.407Zm0-7.966H628.291l-.067-3.011h16.585Zm0-7.969h-16.7l-.065-3.01h16.76Zm0-7.958H627.936l-.067-3.019h16.94Zm0-7.971h-17.05l-.067-3.01h17.117Zm0-7.966H627.581l-.067-3.013h17.294Zm3.809-7.968h-12.48v-3.011h12.48Zm0-7.961h-12.48v-3.019h12.48Zm0-7.966h-12.48v-3.013h12.48Zm0-7.969h-12.48v-3.01h12.48Zm0-7.969h-12.48V606.5h12.48Zm0-7.958h-12.48v-3.018h12.48Zm0-7.968h-12.48v-3.013h12.48Zm0-7.968h-12.48V582.6h12.48Zm0-7.968h-12.48v-3.011h12.48Zm0-7.961h-12.48v-3.019h12.48Zm0-7.966h-12.48v-3.013h12.48Zm0-7.971h-12.48v-3.01h12.48Zm0-7.968h-12.48v-3.011h12.48Zm0-7.958h-12.48v-3.019h12.48Zm0-7.969h-12.48v-3.01h12.48Zm0-7.966h-12.48v-3.015h12.48Zm0-7.969h-12.48v-3.01h12.48Zm0-7.959h-12.48v-3.019h12.48Zm0-7.967h-12.48v-3.011h12.48Zm0-7.969h-12.48v-3.011h12.48Zm0-7.968h-12.48v-3.011h12.48Zm9.034,159.318h-4.689v-3.011h4.689Zm0-7.961h-4.689v-3.019h4.689Zm0-7.966h-4.689v-3.013h4.689Zm0-7.969h-4.689v-3.01h4.689Zm0-7.969h-4.689V606.5h4.689Zm0-7.958h-4.689v-3.018h4.689Zm0-7.968h-4.689v-3.013h4.689Zm0-7.968h-4.689V582.6h4.689Zm0-7.968h-4.689v-3.011h4.689Zm0-7.961h-4.689v-3.019h4.689Zm0-7.966h-4.689v-3.013h4.689Zm0-7.971h-4.689v-3.01h4.689Zm0-7.968h-4.689v-3.011h4.689Zm0-7.958h-4.689v-3.019h4.689Zm0-7.969h-4.689v-3.01h4.689Zm0-7.966h-4.689v-3.015h4.689Zm0-7.969h-4.689v-3.01h4.689Zm0-7.959h-4.689v-3.019h4.689Zm0-7.967h-4.689v-3.011h4.689Zm0-7.969h-4.689v-3.011h4.689Zm0-7.968h-4.689v-3.011h4.689Zm23.7-31.314H668.965V437.385h12.387Zm16,190.631h-4.689v-3.011h4.689Zm0-7.961h-4.689v-3.019h4.689Zm0-7.966h-4.689v-3.013h4.689Zm0-7.969h-4.689v-3.01h4.689Zm0-7.969h-4.689V606.5h4.689Zm0-7.958h-4.689v-3.018h4.689Zm0-7.968h-4.689v-3.013h4.689Zm0-7.968h-4.689V582.6h4.689Zm0-7.968h-4.689v-3.011h4.689Zm0-7.961h-4.689v-3.019h4.689Zm0-7.966h-4.689v-3.013h4.689Zm0-7.971h-4.689v-3.01h4.689Zm0-7.968h-4.689v-3.011h4.689Zm0-7.958h-4.689v-3.019h4.689Zm0-7.969h-4.689v-3.01h4.689Zm0-7.966h-4.689v-3.015h4.689Zm0-7.969h-4.689v-3.01h4.689Zm0-7.959h-4.689v-3.019h4.689Zm0-7.967h-4.689v-3.011h4.689Zm0-7.969h-4.689v-3.011h4.689Zm0-7.968h-4.689v-3.011h4.689Zm4.336-3.011h12.488v3.011H701.689Zm0,7.968h12.488v3.011H701.689Zm0,7.969h12.488v3.011H701.689Zm0,7.959h12.488v3.019H701.689Zm0,7.969h12.488v3.01H701.689Zm0,7.964h12.488v3.015H701.689Zm0,7.971h12.488v3.01H701.689Zm0,7.96h12.488v3.019H701.689Zm0,7.966h12.488v3.011H701.689Zm0,7.969h12.488v3.01H701.689Zm0,7.968h12.488v3.013H701.689Zm0,7.959h12.488v3.019H701.689Zm0,7.969h12.488v3.011H701.689Zm0,7.966h12.488v3.013H701.689Zm0,7.968h12.488v3.013H701.689Zm0,7.963h12.488v3.018H701.689Zm0,7.966h12.488v3.01H701.689Zm0,7.969h12.488v3.01H701.689Zm0,7.966h12.488v3.013H701.689Zm0,7.96h12.488v3.019H701.689Zm0,7.969h12.488v3.011H701.689Z" transform="translate(-268.088 -432.93)" fill="#6a90ac"/>
            <path id="パス_1755" data-name="パス 1755" d="M755.35,771.986H757.3V752.84h-2.346V478.372h-8.4V472.9h-80.1v5.469h-8.4V752.84h-2.344v19.147h1.953v8.983h-8.01v78.348h113.7V780.97H755.35Zm-68.93,5.829H669.229v-3.024H686.42Zm0-33.962H669.229v-3.024H686.42Zm0-7.124H669.229v-3.034H686.42Zm0-14.264H669.229v-3.023H686.42Zm0-7.134H669.229v-3.023H686.42Zm0-14.252H669.229v-3.032H686.42Zm0-7.134H669.229V690.92H686.42Zm0-14.26H669.229V676.65H686.42Zm0-7.128H669.229v-3.032H686.42Zm0-7.134H669.229V662.4H686.42Zm0-14.262H669.229V648.13H686.42Zm0-7.126H669.229V641H686.42Zm0-7.134H669.229v-3.024H686.42Zm0-14.26H669.229v-3.032H686.42Zm0-14.262H669.229v-3.024H686.42Zm0-7.134H669.229v-3.023H686.42Zm0-14.254H669.229v-3.031H686.42Zm0-7.134H669.229v-3.024H686.42Zm0-7.134H669.229V569.7H686.42Zm0-14.254H669.229v-3.032H686.42Zm0-14.268H669.229v-3.023H686.42Zm0-14.254H669.229v-3.031H686.42Zm0-7.134H669.229v-3.024H686.42Zm0-14.26H669.229v-3.032H686.42Zm0-14.26H669.229v-3.026H686.42Zm0-7.134H669.229v-3.024H686.42Zm19.143,290.658h-17.19v-3.024h17.19Zm0-26.828h-17.19v-3.024h17.19Zm0-7.134h-17.19v-3.024h17.19Zm0-14.252h-17.19v-3.032h17.19Zm0-7.136h-17.19v-3.023h17.19Zm0-14.26h-17.19v-3.031h17.19Zm0-7.126h-17.19v-3.032h17.19Zm0-7.134h-17.19V690.92h17.19Zm0-7.136h-17.19v-3.024h17.19Zm0-14.252h-17.19v-3.032h17.19Zm0-7.134h-17.19V662.4h17.19Zm0-7.134h-17.19v-3.024h17.19Zm0-7.128h-17.19V648.13h17.19Zm0-14.26h-17.19v-3.024h17.19Zm0-7.134h-17.19V626.74h17.19Zm0-7.126h-17.19v-3.032h17.19Zm0-7.128h-17.19V612.48h17.19Zm0-14.269h-17.19v-3.023h17.19Zm0-7.128h-17.19v-3.029h17.19Zm0-7.126h-17.19v-3.031h17.19Zm0-14.268h-17.19V569.7h17.19Zm0-7.126h-17.19v-3.032h17.19Zm0-14.262h-17.19v-3.023h17.19Zm0-14.26h-17.19v-3.032h17.19Zm0-7.128h-17.19v-3.031h17.19Zm0-14.268h-17.19v-3.024h17.19Zm0-14.252h-17.19v-3.032h17.19Zm0-7.134h-17.19v-3.026h17.19ZM724.71,777.815H707.518v-3.024H724.71Zm0-26.828H707.518v-3.024H724.71Zm0-14.259H707.518v-3.034H724.71Zm0-7.128H707.518v-3.032H724.71Zm0-7.136H707.518v-3.023H724.71Zm0-7.134H707.518v-3.023H724.71Zm0-14.252H707.518v-3.032H724.71Zm0-14.27H707.518v-3.024H724.71Zm0-7.124H707.518V676.65H724.71Zm0-14.262H707.518V662.4H724.71Zm0-7.134H707.518v-3.024H724.71Zm0-14.254H707.518V641H724.71Zm0-7.134H707.518v-3.024H724.71Zm0-14.26H707.518v-3.032H724.71Zm0-14.262H707.518v-3.024H724.71Zm0-7.134H707.518v-3.023H724.71Zm0-14.254H707.518v-3.031H724.71Zm0-14.268H707.518V569.7H724.71Zm0-7.126H707.518v-3.032H724.71Zm0-7.128H707.518v-3.032H724.71Zm0-14.268H707.518v-3.023H724.71Zm0-7.126H707.518v-3.032H724.71Zm0-14.262H707.518v-3.024H724.71Zm0-7.134H707.518v-3.024H724.71Zm0-7.126H707.518v-3.032H724.71Zm0-7.126H707.518v-3.032H724.71Zm0-14.268H707.518v-3.024H724.71Zm19.143,290.658h-17.19v-3.024h17.19Zm0-26.828h-17.19v-3.024h17.19Zm0-7.134h-17.19v-3.024h17.19Zm0-14.252h-17.19v-3.032h17.19Zm0-14.27h-17.19v-3.023h17.19Zm0-7.126h-17.19v-3.031h17.19Zm0-7.126h-17.19v-3.032h17.19Zm0-7.134h-17.19V690.92h17.19Zm0-14.26h-17.19V676.65h17.19Zm0-7.128h-17.19v-3.032h17.19Zm0-14.268h-17.19v-3.024h17.19Zm0-7.128h-17.19V648.13h17.19Zm0-7.126h-17.19V641h17.19Zm0-14.268h-17.19V626.74h17.19Zm0-7.126h-17.19v-3.032h17.19Zm0-7.128h-17.19V612.48h17.19Zm0-7.134h-17.19v-3.024h17.19Zm0-14.262h-17.19v-3.029h17.19Zm0-14.26h-17.19v-3.024h17.19Zm0-14.26h-17.19v-3.032h17.19Zm0-7.128h-17.19v-3.032h17.19Zm0-7.134h-17.19v-3.023h17.19Zm0-14.26h-17.19v-3.032h17.19Zm0-7.128h-17.19v-3.031h17.19Zm0-7.134h-17.19v-3.024h17.19Zm0-14.26h-17.19v-3.032h17.19Zm0-14.26h-17.19v-3.026h17.19Zm0-7.134h-17.19v-3.024h17.19Z" transform="translate(-28.575 -407.839)" fill="#6a90ac"/>
          </g>
          <path id="パス_1758" data-name="パス 1758" d="M1422.94,888.392a28.227,28.227,0,0,0-28.227-28.226H1281.679V847.032h-10.647V814.326a56.409,56.409,0,0,0,17.9-10.443c12.486-1.626,20.017-7.606,20.017-7.606,8.431-2.005,15.042-4.811,17.984-8.713,0,0-35.31,5.236-52.433-1.113h-.243V775.61h-12.417V765.264c4.162-.776,18.351-3.823,25.514-10.484,11.973-1.616,19.174-7.346,19.174-7.346,8.16-1.937,14.568-4.655,17.423-8.431,0,0-34.2,5.062-50.768-1.084h-.135V727.078h-12.418v-10.6s16.174-2.739,24.556-10.725a40.783,40.783,0,0,0,18.932-7.164c7.888-1.877,14.083-4.51,16.842-8.158,0,0-33.063,4.907-49.092-1.035h-.224V678.557h-12.427V667.949s15.39-3.242,23.782-11.229a39.612,39.612,0,0,0,18.71-6.968c7.626-1.81,13.609-4.356,16.271-7.878,0,0-31.94,4.732-47.43-1.008v-7.242h-12.418v-12.31a37.534,37.534,0,0,0,18.391-9.485,38.677,38.677,0,0,0,23.037-7.261c7.383-1.818,13.181-4.354,15.758-7.878,0,0-37.344,9.649-74.453-26.958l.947-.928v-1.133h-2.235V563.5H1236a2.654,2.654,0,0,0-1.509-2.9V558.96s3.348-1.491,3.348-4.027h-3.348v-3.91h1.973v-1.055c0-1.133-1.973-1.133-1.973-1.133V545.09h1.973v-1.055c0-1.133-1.973-1.133-1.973-1.133v-3.747h1.973V538.1c0-1.131-1.973-1.131-1.973-1.131v-3.747h1.973v-1.055c0-1.133-1.973-1.133-1.973-1.133V527.29h1.973v-1.055c0-1.133-1.973-1.133-1.973-1.133v-3.745h1.973V520.3c0-1.131-1.973-1.131-1.973-1.131v-3.745h1.973v-1.056c0-1.131-1.973-1.131-1.973-1.131v-3.747h1.973v-1.055c0-1.131-1.973-1.131-1.973-1.131v-3.747h1.973V502.5c0-1.131-1.973-1.131-1.973-1.131v-3.612h2.477V487.479a2.467,2.467,0,0,0-2.477-2.6v-3.2s.939,0,.939-1.395h-.939V478.4s.939,0,.939-1.4h-.939v-2.137s.754,0,.754-.968h-1.761V465.43a.363.363,0,1,0-.726,0V473.9h-1.771c0,.968.765.968.765.968V477h-.939c0,1.4.939,1.4.939,1.4v1.877h-.939c0,1.395.939,1.395.939,1.395v3.2a2.474,2.474,0,0,0-2.487,2.6v10.279h2.487v3.612s-1.984,0-1.984,1.131v1.055h1.984V507.3s-1.984,0-1.984,1.131v1.055h1.984v3.747s-1.984,0-1.984,1.131v1.056h1.984v3.745s-1.984,0-1.984,1.131v1.056h1.984V525.1s-1.984,0-1.984,1.133v1.055h1.984v3.745s-1.984,0-1.984,1.133v1.055h1.984v3.747s-1.984,0-1.984,1.131v1.055h1.984V542.9s-1.984,0-1.984,1.133v1.055h1.984v3.745s-1.984,0-1.984,1.133v1.055h1.984v3.91h-3.35c0,2.536,3.35,4.027,3.35,4.027V560.6a2.66,2.66,0,0,0-1.519,2.905h-3.563v4.17h-2.245V568.8l.948.928c-37.1,36.607-74.443,26.958-74.443,26.958,2.573,3.524,8.373,6.06,15.758,7.878a38.636,38.636,0,0,0,23.037,7.261,37.526,37.526,0,0,0,18.39,9.485v12.31H1195.7v7.242c-15.487,5.739-47.428,1.008-47.428,1.008,2.661,3.522,8.643,6.068,16.27,7.878a39.593,39.593,0,0,0,18.7,6.968c8.391,7.987,23.782,11.229,23.782,11.229v10.608h-12.418V689.4h-.224c-16.038,5.943-49.1,1.035-49.1,1.035,2.759,3.648,8.954,6.281,16.842,8.158a40.794,40.794,0,0,0,18.933,7.164c8.391,7.985,24.565,10.725,24.565,10.725v10.6h-12.427v10.841h-.127C1176.486,744.065,1142.3,739,1142.3,739c2.857,3.776,9.254,6.485,17.415,8.431,0,0,7.211,5.729,19.184,7.346,7.173,6.67,21.362,9.719,25.514,10.494V775.61h-12.428v10.84h-.234c-5.663,2.1-13.319,2.93-21.028,3.1-9.169-18.251-22.579-32.657-42.092-32.657-28.909,0-44.438,31.62-52.594,60.539h-8.182v-9.691a1.2,1.2,0,0,0-.43-1.577V789.52s-.07-44.068-38.008-59.722v-7.121l-5.962-7.54v-8.28a1.318,1.318,0,0,1,1.41-1.287v-1.987l1.865-4.017v-3.019a4.557,4.557,0,0,0-4.807-3.439V691.8l-4.9-6.33v-4.722s2.235-2.365,2.235-4.72v-1.372l-7.6-28.884a3.316,3.316,0,0,0,.825-2.142h3.7a.375.375,0,0,0,.371-.371v-1.449a1.425,1.425,0,0,0,.508-1.162.464.464,0,0,0,.353-.508s.163-1.843-1.232-1.843-1.232,1.843-1.232,1.843a.462.462,0,0,0,.35.508,1.426,1.426,0,0,0,.509,1.162v1.073h-3.33a5.768,5.768,0,0,1,.129-2.235l0-.012c.1-.177,1.188-2.235.15-3.125a1.764,1.764,0,0,0-1.1.417,7.5,7.5,0,0,0-3.355-3.413,1.656,1.656,0,0,0-.339-1.561s.578-1.346,0-2.072c0,0,.413-.973,0-1.387,0,0,.039-1.367-.581-1.367s-.581,1.367-.581,1.367c-.413.414,0,1.387,0,1.387-.576.726,0,2.072,0,2.072a1.656,1.656,0,0,0-.339,1.561,7.505,7.505,0,0,0-3.355,3.413,1.759,1.759,0,0,0-1.1-.417c-1.038.89.049,2.948.148,3.125l.005.012a5.8,5.8,0,0,1,.129,2.235h-3.327v-1.073a1.43,1.43,0,0,0,.5-1.162.464.464,0,0,0,.355-.508s.163-1.843-1.234-1.843-1.232,1.843-1.232,1.843a.464.464,0,0,0,.353.508,1.43,1.43,0,0,0,.506,1.162v1.449a.375.375,0,0,0,.373.371h3.7a3.315,3.315,0,0,0,.825,2.142l-7.6,28.884v1.372c0,2.355,2.235,4.72,2.235,4.72v4.722l-4.9,6.33v1.309a4.555,4.555,0,0,0-4.8,3.439v3.019l1.862,4.017v1.987a1.321,1.321,0,0,1,1.411,1.287v8.28l-5.964,7.54V729.8c-37.938,15.654-38.008,59.722-38.008,59.722v16.647a1.207,1.207,0,0,0-.428,1.577v9.691h-9.522l-1.326,9.024h-9.193l-1.655,14.91h-9.193l-1.012,18.8H901.39v-.526s-2.772-4.429-2.772-12.128V828.785h-.171s-1.009-66.771-1.009-91.646h3.952v-5.31s.1-.01.272-.031c1.019-.129,4.577-.7,5.445-2.443L896.854,726.9s-.192-12.937-.332-30.471h50.219V683.653c2.046-.094,3.083-.16,3.083-.16v-3.26s-15.574.882-45.188,1.615v-2.411s2.1.531,1.673-1.423l-9.9-5.3v-.01q-.015-3.33-.01-6.682h3.84V659.3c33.094-1.454,48.575-3.408,48.575-3.408l3.651-12.7s5.672-.394,9.281-.967l6.221-6.6s9.867-1.328,12.6-5.046V619.069c5.423-3.8,7.893-13.1,7.893-13.1s-23.517,17.706-166.149,17.706-166.15-17.706-166.15-17.706,2.471,9.294,7.893,13.1v11.513c2.731,3.718,12.6,5.046,12.6,5.046l6.221,6.6c3.609.573,9.283.967,9.283.967l3.649,12.7s15.483,1.955,48.574,3.408v6.724h3.841q0,3.347-.008,6.682v.01l-9.9,5.3c-.423,1.953,1.673,1.423,1.673,1.423v2.411c-29.614-.732-45.188-1.615-45.188-1.615v3.26s1.037.065,3.084.16v12.779H748.1c-.142,17.534-.334,30.471-.334,30.471l-10.251,2.453c.858,1.742,4.406,2.315,5.433,2.443.182.021.283.031.283.031v5.31h3.95c0,16.28-.431,50.5-.729,72.213H675.349V761.827a1.629,1.629,0,0,1-.889-1.558V725.892c0-4.657-2.154-6.779-2.285-8.475s1.208-3.4-2.539-5.235c-3.76-1.821-2.8-4.659-2.8-4.659,0-3.4-2.816-3.688-2.816-3.688v-5.222h-9.382c-.931-1.7-8.571-1.416-8.571-1.416a12.293,12.293,0,0,1-7.9-2.541v-1.851H621.031v1.978l-5.368-.015c-9.5,0-7.242,8.225-11.573,2.569-4.357-5.655-8.65-5.093-8.65-5.093V655.326h1.872v-5.935h-5.884V635.528a1.991,1.991,0,0,0-.015-.282,12.618,12.618,0,0,0-.133-1.784l.013.2c-.013-.057-.013-.125-.024-.212a.376.376,0,0,0-.015-.127v-.07a.384.384,0,0,1-.015-.083c-.342-2.863-2.111-14.187-9.26-23.826-.013-.041-.013-.1-.026-.14a.749.749,0,0,0-.334-.352A37.939,37.939,0,0,0,576.4,603.3a.717.717,0,0,0-.2-.238c-.068-.057-.361-.28-.812-.589a33.556,33.556,0,0,0-4.8-3.211.6.6,0,0,0-.319-.173,42.96,42.96,0,0,0-37.95,0,.613.613,0,0,0-.317.173,33.736,33.736,0,0,0-4.8,3.211c-.451.309-.746.532-.812.589a.559.559,0,0,0-.184.238,38.243,38.243,0,0,0-5.236,5.557.78.78,0,0,0-.334.352c-.011.042-.011.1-.023.14-7.152,9.639-8.917,20.963-9.263,23.826v.015l-.015.068c0,.07-.011.14-.011.2-.013.086-.013.155-.026.212l-.16,1.292-.08.687v13.749h-5.9v5.935h1.89v41.029H479.719v-2.834a28.02,28.02,0,0,0-9.234,0c-4.955.84-3.495,2.246-5.1,2.834v1.823h-9.369s-.8.983-1.608.983a59.206,59.206,0,0,1-7.015,0c-2.616-.239-4.53.194-4.53,1.346,0,0-2.328,3.508-3.721,3.815-1.395.326-5.355,5.025-4.943,8.42a8.1,8.1,0,0,1-2.684,7.508c-2.018,1.823-2.818,3.4-2.818,4.951s1.209,3.1-1.209,3.817-2.139,1.838-2.4,3.957-3.495,6.356-6.153,6.356c-2.682,0-2.153,3.537-2.153,3.537h-1.952v1.88h-5.01a2.607,2.607,0,0,1-1.421-1.585H375.652v-1.7s-3.2-.436-3.2.841l-1.608.715H332.269V710.808a2.519,2.519,0,0,0-1.82-2.344c-1.794-.519-3.215-1.165-3.215-2.118s-.187-1.895-1.994-1.895-5.528.295-6.433.1c-.915-.226-3.825.519-4.012,1.278-.211.744-4.624,1.8-5.235,1.8s-1.994,0-1.994,1.7V860.166H251.54a28.2,28.2,0,0,0-28.135,26.414h-.466V1041.7H1422.564V888.393l-1.247,0ZM444.1,841.006V816.2H452v24.808Zm40.928.591V817.406H492.5V841.6Zm38.995-226.26a32.315,32.315,0,0,1,1,4.139,56.655,56.655,0,0,0-6.552,11.112c-.584.156-1.154.324-1.686.492A64.241,64.241,0,0,1,524.018,615.337ZM517.4,625.51c.252-.981.544-2.02.89-3.1.4-.576.807-1.165,1.247-1.755C518.706,622.351,518,623.994,517.4,625.51Zm2.63-7.676a40.381,40.381,0,0,1,2.8-5.344c.213.405.425.84.625,1.3l-.321.462C522.013,615.436,520.976,616.642,520.034,617.834Zm30.654-16.682v.659A37.006,37.006,0,0,0,536.5,604.8c-.241-.49-.493-.982-.773-1.458a28.717,28.717,0,0,1,10.352-3.973A16.56,16.56,0,0,1,550.688,601.151Zm-1.077-2.176c.358-.015.719-.028,1.077-.041v.576C550.33,599.312,549.969,599.143,549.611,598.975Zm13.686,40.16v5.233h-4.955v-5.233ZM561.9,625.4c-1.354-5.642-3.893-12.655-8.476-16.277,3.612.674,6.8,2.962,9.514,5.922A70.525,70.525,0,0,0,561.9,625.4Zm23.932,5.725c-.532-.169-1.1-.335-1.688-.5a55.793,55.793,0,0,0-6.566-11.142,32.877,32.877,0,0,1,1-4.139A64.712,64.712,0,0,1,585.833,631.122Zm-6.7-17.328a14.45,14.45,0,0,1,.679-1.377c.61,1,1.208,2.036,1.768,3.13.41.827.8,1.655,1.139,2.482a48.876,48.876,0,0,0-3.28-3.773C579.349,614.1,579.241,613.948,579.135,613.794Zm3.919,6.861c.466.632.918,1.263,1.33,1.895.345,1.107.65,2.176.9,3.184C584.676,624.162,583.931,622.45,583.055,620.654Zm-.106,26.252v-4.729H585.9v4.729Zm2.949,2.5v8.967h-2.949V649.4Zm-10.217-3.828v-4.743h3.959v4.743Zm3.959,2.481v8.967h-3.959v-8.967Zm-3.068-18.94c.106-2.261.306-5.052.7-7.818a54.482,54.482,0,0,1,5.285,8.926C580.716,629.789,578.683,629.425,576.572,629.117Zm0-10.9a41.481,41.481,0,0,0-3.15-3.452c.08-1.276.212-2.526.4-3.719a45.634,45.634,0,0,1,3.786,3.3A35.421,35.421,0,0,0,576.572,618.213Zm-.319,1.738a74.915,74.915,0,0,0-.916,9c-.427-.07-.866-.127-1.3-.182a86.744,86.744,0,0,1-.69-12.152A39.541,39.541,0,0,1,576.253,619.951Zm-1.981,84.8v31.906H563.3V704.746ZM563.3,760.773h10.976v31.893H563.3Zm-2.406-75.223V675.8h9.237v9.753Zm12.146-76.836a39.135,39.135,0,0,0-5.754-3.369c.212-.436.44-.869.679-1.278a33.886,33.886,0,0,1,5.142,4.338A2.051,2.051,0,0,0,573.036,608.715Zm-.319,1.5c-.2,1.112-.345,2.277-.451,3.456A33.852,33.852,0,0,0,565.782,609c.265-.8.571-1.574.89-2.331A37.714,37.714,0,0,1,572.717,610.213Zm-.557,5.223a80.892,80.892,0,0,0,.584,13.033,54.844,54.844,0,0,0-8.412-13.974c.278-1.375.612-2.764,1.009-4.1A33.478,33.478,0,0,1,572.161,615.436Zm-.851,13.02c-2.8-.295-5.606-.521-8.186-.689A74.26,74.26,0,0,1,564,616.274,55.164,55.164,0,0,1,571.31,628.456ZM563.3,647.131v9.893h-4.955v-9.893Zm-1.473,169.333a4.39,4.39,0,0,0,2.8,3.986v31.53H537.851V820.45a4.4,4.4,0,0,0,2.818-3.986Zm-33.618-23.8V760.773h10.989v31.893Zm2.232-177.245a34.077,34.077,0,0,1,6.817-5.036c.4,1.346.731,2.72,1.009,4.11a54.928,54.928,0,0,0-8.41,13.974A81.178,81.178,0,0,0,530.436,615.421Zm8.147.853a74.068,74.068,0,0,1,.89,11.493c-2.578.156-5.381.381-8.186.672A55.817,55.817,0,0,1,538.583,616.274Zm5.554,22.861v5.233h-4.943v-5.233Zm-4.478-24.093c2.709-2.959,5.9-5.248,9.512-5.922-4.582,3.622-7.121,10.635-8.475,16.277A68.776,68.776,0,0,0,539.659,615.042Zm4.478,32.089v9.893h-4.943v-9.893ZM532.364,675.8H541.6v9.753h-9.237Zm13.38,116.869V760.773h10.989v31.893Zm10.989-56.014H545.743V704.746h10.989Zm-.861-51.1h-9.262V675.8h9.262Zm-2.154-28.527h-4.958v-9.893h4.958Zm-12.222-29.369c1.245-5.949,3.9-14.451,9.193-17.89v17.57C549.373,627.348,545.891,627.418,541.495,627.655Zm-2.168-14.325c-.252-1.192-.558-2.386-.916-3.55a28.4,28.4,0,0,1,12.278-3v.661C546.3,607.648,542.5,610.047,539.327,613.33Zm-1.354-4.938c-.265-.773-.56-1.515-.879-2.246a35.809,35.809,0,0,1,13.594-2.832v1.963A29.231,29.231,0,0,0,537.973,608.391Zm-2.049-1.725c.321.757.627,1.529.892,2.331a33.851,33.851,0,0,0-6.485,4.671c-.106-1.178-.252-2.344-.451-3.456A37.844,37.844,0,0,1,535.923,606.666Zm-6.363,2.049c-.013-.114-.054-.212-.067-.309a34.514,34.514,0,0,1,5.142-4.338c.239.409.466.842.679,1.278A39.313,39.313,0,0,0,529.561,608.715Zm9.633,96.031v31.906H528.2V704.746Zm-10.63-75.994c-.438.055-.877.111-1.3.182a75.5,75.5,0,0,0-.916-8.995,38.766,38.766,0,0,1,2.91-3.34A86.991,86.991,0,0,1,528.563,628.752Zm-5.712,19.3H526.8v8.967h-3.945Zm-2.8-17.859a54.248,54.248,0,0,1,5.275-8.912c.4,2.764.6,5.57.7,7.816C523.914,629.408,521.9,629.775,520.047,630.2Zm2.8,15.378v-4.743H526.8v4.743Zm3.174-27.363a35.407,35.407,0,0,0-1.035-3.872,45.681,45.681,0,0,1,3.788-3.3c.184,1.193.319,2.443.4,3.719A41.78,41.78,0,0,0,526.025,618.213Zm-6.5,23.965v4.729h-2.936v-4.729Zm0,7.227v8.967h-2.936V649.4Zm92.188,191.347V818.261h7.494v22.492ZM758.233,675.358l6.957,3.452v1.073h-6.945C758.244,678.387,758.244,676.878,758.233,675.358Zm3.553,165.394V818.261h7.481v22.492ZM886.371,679.883h-6.934v-1.073l6.942-3.439C886.38,676.888,886.38,678.387,886.371,679.883Zm354.172,144.965v19.3h-6.457v-19.3Zm-11.19-193.854s.444-2.624,3.766-2.624,3.773,2.624,3.773,2.624v2.63h-7.54Zm-.484,44.592s.5-2.964,4.25-2.964,4.258,2.964,4.258,2.964v2.971h-8.508Zm-.485,48.183s.563-3.291,4.735-3.291,4.742,3.291,4.742,3.291v3.309h-9.476Zm-.483,48.193s.62-3.63,5.218-3.63,5.227,3.63,5.227,3.63v3.648H1227.9Zm-2.2,52.886h6.447v19.3H1225.7Zm-48.385-20.955h.008a56.47,56.47,0,0,0,17.887,10.445v32.694h-7.6c-1.846-11.719-5.135-27.837-10.775-43.214C1177,803.842,1177.155,803.872,1177.319,803.893Zm-48.691-3.775c20.942,0,36.431,46.085,40.644,60.047h-69.519l-1.011-18.8h-4.2C1101.862,822.953,1113.907,800.118,1128.628,800.118ZM903.374,678.811v1.073h-6.953c0-1.5,0-3-.01-4.525ZM833.341,660.82c18.806-.085,35.178-.414,49.218-.861v6.065H886.4q0,3.347-.008,6.682v.01l-9.9,5.3c-.423,1.953,1.685,1.423,1.685,1.423v2.931q-19.84.32-44.835.4Zm52.939,35.612c-.13,17.534-.322,30.471-.322,30.471l-10.271,2.453c.917,1.859,4.919,2.389,5.614,2.464a.705.705,0,0,0,.1.01v5.31h3.941c0,24.875-1.007,91.646-1.007,91.646h-.161v18.727c0,7.7-2.772,12.128-2.772,12.128v.526H787.163V818.038h1.211v-7.212a2.315,2.315,0,0,0-1.809-1.473,2.411,2.411,0,0,0-3.241,0H760.013c-.3-21.709-.731-55.933-.731-72.213h3.941v-5.31a.705.705,0,0,0,.1-.01c.7-.075,4.7-.606,5.614-2.464L758.666,726.9s-.19-12.937-.322-30.471ZM762.066,666.023v-6.065c14.041.448,30.412.776,49.22.861v21.953q-24.979-.063-44.836-.4v-2.931s2.108.531,1.683-1.423l-9.9-5.3v-.01q-.015-3.33-.01-6.682Zm-20.815,13.86v-1.073l6.955-3.439c0,1.517,0,3.016-.011,4.512Zm-1.034,138.377h6.114c-.091,6.472-.153,10.525-.153,10.525h-.172v11.967h-5.788Zm-23.437,0h7.494v22.492H716.78Zm-10.79,0h7.481v22.492H705.99Zm-10.788,0h7.481v22.492H695.2Zm-22.6,0h7.492v22.492H672.6Zm-3.311,0v22.492h-7.481V818.261ZM654.5,715.229h7.907v23.895H654.5Zm0,52.477h7.907v23.88H654.5Zm4,50.555v22.492h-7.483V818.261ZM643.127,715.229h7.893v23.895h-7.893Zm0,52.477h7.893v23.88h-7.893Zm-13.142,73.046h-7.479V818.261h7.479ZM615.463,715.229h7.893v23.895h-7.893Zm0,52.477h7.893v23.88h-7.893ZM604.09,715.229h7.891v23.895H604.09Zm0,52.477h7.891v23.88H604.09Zm-3.15,50.555h7.481v22.492H600.94Zm-13.3-186.451a55.724,55.724,0,0,0-1.022-5.668,49.516,49.516,0,0,1,3.348,6.975A9.745,9.745,0,0,0,587.639,631.809ZM581.3,610.524a43.758,43.758,0,0,1,2.87,4.5,51.862,51.862,0,0,1,4.877,12.908,61.2,61.2,0,0,0-3.68-6.285,46.52,46.52,0,0,0-4.8-10.368A5.69,5.69,0,0,1,581.3,610.524Zm-5.315-5.852a34.889,34.889,0,0,1,4.463,4.745,7.7,7.7,0,0,0-.649.7,35.329,35.329,0,0,0-4.108-4.966C575.787,604.981,575.893,604.827,575.987,604.672Zm3.042,6.527a13.247,13.247,0,0,0-.718,1.387,47.465,47.465,0,0,0-3.788-4.672,14.371,14.371,0,0,1,.558-1.543A32.5,32.5,0,0,1,579.03,611.2Zm-4.107-7.326c-.067.112-.12.238-.184.35-.654-.589-1.317-1.164-2.022-1.711C573.688,603.059,574.446,603.549,574.923,603.873Zm-5.515-2.02a29.987,29.987,0,0,1,4.7,3.578c-.2.479-.4.968-.57,1.473a34.183,34.183,0,0,0-4.838-4.056C568.932,602.5,569.172,602.174,569.408,601.853Zm-5.526-2.582a30.02,30.02,0,0,1,4.357,1.937c-.213.295-.425.589-.625.91a29.949,29.949,0,0,0-6.591-3.158A21.652,21.652,0,0,1,563.882,599.271Zm-11.972-2.007a43.917,43.917,0,0,1,5.368.405c-.267.059-.547.1-.823.171a31.433,31.433,0,0,0-4.545-.41Zm0,1.67c.358.013.718.026,1.076.041-.358.168-.718.337-1.076.519Zm0,2.217a16.343,16.343,0,0,1,4.61-1.784,28.527,28.527,0,0,1,10.337,3.973c-.265.477-.518.968-.757,1.458a37.027,37.027,0,0,0-14.19-2.988Zm0,2.162a35.794,35.794,0,0,1,13.593,2.832c-.319.731-.612,1.473-.877,2.246a29.248,29.248,0,0,0-12.716-3.115Zm0,3.464a28.448,28.448,0,0,1,12.276,3c-.358,1.18-.662,2.358-.915,3.55-3.177-3.283-6.978-5.682-11.361-5.892Zm0,2.988c5.288,3.44,7.945,11.941,9.195,17.89-4.331-.238-7.8-.308-9.195-.337Zm1.807,29.37v5.233h-4.958v-5.233Zm-3.029-41.871v.166a29.9,29.9,0,0,0-4.544.41c-.278-.072-.558-.112-.838-.171A40.759,40.759,0,0,1,550.688,597.264Zm-11.68,1.95a21.311,21.311,0,0,1,2.564-.254A30.144,30.144,0,0,0,535,602.118c-.187-.295-.4-.576-.6-.84A31.4,31.4,0,0,1,539.008,599.214Zm-5.752,2.721c.212.295.423.6.623.911a36.555,36.555,0,0,0-4.824,4.056c-.16-.477-.343-.939-.531-1.374A29.314,29.314,0,0,1,533.256,601.936Zm-3.361.576c-.719.547-1.382,1.122-2.035,1.711-.067-.112-.12-.238-.187-.35C528.151,603.549,528.91,603.059,529.894,602.512Zm-2.339,3.957c.184.448.358.941.518,1.445a46.984,46.984,0,0,0-3.788,4.672,11.666,11.666,0,0,0-.677-1.3A34.305,34.305,0,0,1,527.555,606.469Zm-.944-1.8c.093.155.2.309.293.479a35.075,35.075,0,0,0-4.107,4.966,7.962,7.962,0,0,0-.651-.7A34.809,34.809,0,0,1,526.611,604.672Zm-8.184,10.355a43.738,43.738,0,0,1,2.868-4.5,5.7,5.7,0,0,1,.731.758,46.663,46.663,0,0,0-4.8,10.368,60.857,60.857,0,0,0-3.679,6.285A51.8,51.8,0,0,1,518.427,615.028Zm-2.445,11.114a52.148,52.148,0,0,0-1.025,5.612,11.227,11.227,0,0,0-2.285,1.235A51.253,51.253,0,0,1,515.982,626.141ZM496.2,714.174H504.1V740.19H496.2Zm0,52.479H504.1v26.014H496.2Zm-.384,50.753h7.494V841.6h-7.494Zm-10.99-103.232h7.893V740.19h-7.893Zm0,52.479h7.893v26.014h-7.893ZM481.713,841.6h-7.481V817.406h7.481Zm-8.292-127.423h7.906V740.19h-7.906Zm0,52.479h7.906v26.014h-7.906ZM453.73,714.174h7.919V740.19H453.73ZM452,766.653v26.014H444.1V766.653Zm-9.646-52.479h7.906V740.19h-7.906Zm-9.647,52.479h7.906v26.014H432.71Zm0,49.546h7.906v24.808H432.71Zm-11.374-49.546h7.893v26.014h-7.893Zm0,49.546h7.893v24.808h-7.893Zm-16.052-49.546h7.069v26.014h-7.069Zm0,50.429h7.069v24.793h-7.069Zm-10.191-50.429h7.069v26.014h-7.069Zm0,50.429h7.069v24.793h-7.069ZM384.9,766.653h7.069v26.014H384.9Zm0,50.429h7.069v24.793H384.9Zm-24.516-50.429H368.3v26.014h-7.919Zm0,50.429H368.3v24.793h-7.919Zm-11.371-50.429H356.9v26.014h-7.891Zm0,50.429H356.9v24.793h-7.891Zm-11.389-50.429h7.907v26.014h-7.907Zm0,50.429h7.907v24.793h-7.907ZM318.331,714.174h4.118V740.19h-4.118Zm0,52.479h4.118v26.014h-4.118Zm0,52.379h4.118V843.07h-4.118ZM312.4,714.174h4.105V740.19H312.4Zm0,52.479h4.105v26.014H312.4Zm0,52.379h4.105V843.07H312.4Z" transform="translate(-207.506 778.167)" fill="#1f2b5d"/>
        </g>
        <g id="グループ_553" data-name="グループ 553" transform="translate(-233.213 513.769) rotate(-38)">
          <g id="グループ_547" data-name="グループ 547" transform="translate(743.512 438.347)">
            <path id="パス_1759" data-name="パス 1759" d="M786.792,433.7c20.034-24.754,23.55-55.121,14.16-62.72s-38.358,2.167-58.393,26.92c-6.4,7.907-10.157,17.162-12.306,26.1,1.187.294,2.412.6,3.644.913a106.623,106.623,0,0,0-5.5,35.71,106.642,106.642,0,0,0,32.215-11.905c.429,1.075.87,2.178,1.333,3.33C770.858,448.042,779.908,442.2,786.792,433.7Z" transform="translate(-728.36 -368.457)" fill="#db520d"/>
            <path id="パス_1760" data-name="パス 1760" d="M769.844,416.872c-12.506,15.452-33.893,18.87-33.893,18.87s-1.113-21.633,11.391-37.083,28.033-23.614,33.895-18.869S782.349,401.421,769.844,416.872Z" transform="translate(-722.277 -360.426)" fill="#f1831b"/>
            <path id="パス_1761" data-name="パス 1761" d="M760.137,406.793c-6.821,8.427-18.486,10.292-18.486,10.292s-.608-11.8,6.213-20.225,15.291-12.881,18.488-10.294S766.958,398.364,760.137,406.793Z" transform="translate(-717.685 -354.486)" fill="#f7a928"/>
          </g>
          <path id="パス_1762" data-name="パス 1762" d="M879.461,420.263c-36.318,44.873-74.782,70.611-101.329,76.276-6.352,1.355-18.261-7.173-22.755-10.81-4.725-3.825-15.53-14.065-15.558-20.978-.115-27.236,17.844-69.691,53.727-114.026,44.806-55.358,107.656-78.764,124.084-65.466C933.709,298.274,924.266,364.905,879.461,420.263Z" transform="translate(24.365 0.065)" fill="#e8e7e7"/>
          <path id="パス_1763" data-name="パス 1763" d="M820.471,349.762c-26.08-21.108-27.456-37.911-22.255-44.337,2.114-2.611,56.383-34.69,74.407-20.1s-1.7,73.583-4.092,76.538C862.72,369.042,846.55,370.868,820.471,349.762Z" transform="translate(69.371 0)" fill="#2095a7"/>
          <path id="パス_1764" data-name="パス 1764" d="M812.423,416.049c-12.619,7.77-24.3,12.746-34.292,14.878-6.352,1.355-18.261-7.173-22.755-10.81-4.725-3.825-15.53-14.065-15.558-20.978-.043-10.24,2.271-22.089,7.33-35.923,0,0,.148,15.356,24.864,35.36S812.423,416.049,812.423,416.049Z" transform="translate(24.365 65.677)" fill="#1f2b5d"/>
          <path id="パス_1765" data-name="パス 1765" d="M910.695,283.636c16.08,13.015,6.637,79.646-38.169,135-36.318,44.873-74.782,70.611-101.329,76.276-6.352,1.355-18.261-7.173-22.755-10.81,0,0,43.509-11.927,101.582-83.678S910.695,283.636,910.695,283.636Z" transform="translate(31.299 1.688)" fill="#1b1311" opacity="0.05"/>
          <g id="グループ_548" data-name="グループ 548" transform="translate(709.516 388.115)">
            <path id="パス_1766" data-name="パス 1766" d="M793.761,347.119,774.685,387.2s-44.026,22.634-62.928,39.212C750.485,369.674,755.206,358.759,793.761,347.119Z" transform="translate(-707.714 -335.382)" fill="#15717f"/>
            <path id="パス_1767" data-name="パス 1767" d="M709.516,419.911c38.728-56.742,43.449-67.658,82-79.3l4.043,11.737c-38.555,11.64-43.276,22.555-82,79.3Z" transform="translate(-709.516 -340.613)" fill="#2095a7"/>
          </g>
          <g id="グループ_549" data-name="グループ 549" transform="translate(799.979 452.367)">
            <path id="パス_1768" data-name="パス 1768" d="M820.127,376.228,784.9,403.239s-12.962,47.775-25.237,69.716C807.086,423.255,816.777,416.36,820.127,376.228Z" transform="translate(-759.66 -376.228)" fill="#15717f"/>
            <path id="パス_1769" data-name="パス 1769" d="M771.982,474.463c47.426-49.7,57.117-56.594,60.465-96.727l-12.32-1.508c-3.35,40.132-13.042,47.027-60.467,96.727Z" transform="translate(-759.66 -376.228)" fill="#2095a7"/>
          </g>
          <g id="グループ_558" data-name="グループ 558" transform="matrix(0.788, 0.616, -0.616, 0.788, 845.661, 338.358)">
            <g id="グループ_556" data-name="グループ 556">
              <path id="パス_1777" data-name="パス 1777" d="M22.709,73.068a.858.858,0,0,0,.1-.489,3.7,3.7,0,0,0-.246-1.384,2.916,2.916,0,0,0-.688-1.035,2.985,2.985,0,0,0-1.043-.64,3.75,3.75,0,0,0-1.3-.22A4.04,4.04,0,0,0,18,69.577,3.281,3.281,0,0,0,16.117,71.5a3.964,3.964,0,0,0-.251,1.418,4.6,4.6,0,0,0,.277,1.65,3.415,3.415,0,0,0,.782,1.223,3.332,3.332,0,0,0,1.192.752,4.246,4.246,0,0,0,1.488.254,5.417,5.417,0,0,0,.846-.067,5,5,0,0,0,.828-.2,3.951,3.951,0,0,0,.761-.347,2.647,2.647,0,0,0,.625-.511l.108-.121-.466-.562c-.163-.214-.445-.272-.8-.058a4.458,4.458,0,0,1-.412.22,4.29,4.29,0,0,1-.587.218,2.825,2.825,0,0,1-.8.1,2.513,2.513,0,0,1-.89-.149,1.763,1.763,0,0,1-.664-.438,2.1,2.1,0,0,1-.445-.742,3.2,3.2,0,0,1-.171-.886H22.3A.458.458,0,0,0,22.709,73.068Zm-5.09-.958a2.041,2.041,0,0,1,.579-1.081,1.925,1.925,0,0,1,1.363-.457,1.951,1.951,0,0,1,.728.126,1.467,1.467,0,0,1,.525.35,1.531,1.531,0,0,1,.327.54,2.093,2.093,0,0,1,.107.522Z" fill="#666767"/>
              <path id="パス_1778" data-name="パス 1778" d="M31.258,74.791a.6.6,0,0,0-.382.147,3.632,3.632,0,0,1-.321.223,2.375,2.375,0,0,1-.476.217,2.3,2.3,0,0,1-.725.1,2.062,2.062,0,0,1-.826-.158,1.665,1.665,0,0,1-.611-.453,2.191,2.191,0,0,1-.4-.755,3.531,3.531,0,0,1-.145-1.057,3.643,3.643,0,0,1,.135-1.031,2.132,2.132,0,0,1,.391-.759,1.673,1.673,0,0,1,.632-.469,2.229,2.229,0,0,1,.888-.165,2.281,2.281,0,0,1,.64.077,2.665,2.665,0,0,1,.45.175,3.18,3.18,0,0,1,.309.177.556.556,0,0,0,.619.042.714.714,0,0,0,.159-.154l.454-.574-.128-.118a3.536,3.536,0,0,0-1.126-.7,3.98,3.98,0,0,0-1.451-.248,4.156,4.156,0,0,0-1.571.28,3.263,3.263,0,0,0-1.165.786,3.376,3.376,0,0,0-.717,1.195,4.454,4.454,0,0,0-.242,1.489,4.382,4.382,0,0,0,.266,1.575,3.452,3.452,0,0,0,.735,1.179,3.173,3.173,0,0,0,1.106.736,3.692,3.692,0,0,0,1.368.252,4.8,4.8,0,0,0,1.6-.266,3.039,3.039,0,0,0,1.292-.862l.107-.121-.461-.555A.467.467,0,0,0,31.258,74.791Z" fill="#666767"/>
              <rect id="長方形_247" data-name="長方形 247" width="1.686" height="10.425" transform="translate(36.024 66.271)" fill="#666767"/>
              <path id="パス_1779" data-name="パス 1779" d="M48.248,73.068a.858.858,0,0,0,.1-.489,3.7,3.7,0,0,0-.246-1.384,2.916,2.916,0,0,0-.688-1.035,2.994,2.994,0,0,0-1.043-.64,3.75,3.75,0,0,0-1.3-.22,4.04,4.04,0,0,0-1.527.277A3.281,3.281,0,0,0,41.656,71.5a3.964,3.964,0,0,0-.251,1.418,4.6,4.6,0,0,0,.277,1.65,3.415,3.415,0,0,0,.782,1.223,3.332,3.332,0,0,0,1.192.752,4.246,4.246,0,0,0,1.488.254,5.417,5.417,0,0,0,.846-.067,5,5,0,0,0,.828-.2,3.951,3.951,0,0,0,.761-.347,2.647,2.647,0,0,0,.625-.511l.108-.121-.466-.562c-.163-.214-.445-.272-.8-.058a4.458,4.458,0,0,1-.412.22,4.29,4.29,0,0,1-.587.218,2.825,2.825,0,0,1-.795.1,2.513,2.513,0,0,1-.89-.149,1.763,1.763,0,0,1-.664-.438,2.1,2.1,0,0,1-.445-.742,3.161,3.161,0,0,1-.171-.886h4.758A.458.458,0,0,0,48.248,73.068Zm-5.09-.958a2.041,2.041,0,0,1,.579-1.081,1.925,1.925,0,0,1,1.363-.457,1.951,1.951,0,0,1,.728.126,1.467,1.467,0,0,1,.525.35,1.531,1.531,0,0,1,.327.54,2.093,2.093,0,0,1,.107.522Z" fill="#666767"/>
              <path id="パス_1780" data-name="パス 1780" d="M56.8,74.791a.6.6,0,0,0-.382.147,3.52,3.52,0,0,1-.322.223,2.338,2.338,0,0,1-.475.217,2.3,2.3,0,0,1-.725.1,2.062,2.062,0,0,1-.826-.158,1.665,1.665,0,0,1-.611-.453,2.191,2.191,0,0,1-.4-.755,3.531,3.531,0,0,1-.145-1.057,3.643,3.643,0,0,1,.135-1.031,2.132,2.132,0,0,1,.391-.759,1.673,1.673,0,0,1,.632-.469,2.229,2.229,0,0,1,.888-.165,2.281,2.281,0,0,1,.64.077,2.665,2.665,0,0,1,.45.175,3.181,3.181,0,0,1,.309.177.556.556,0,0,0,.619.042.714.714,0,0,0,.159-.154l.454-.574-.128-.118a3.536,3.536,0,0,0-1.126-.7,3.98,3.98,0,0,0-1.451-.248,4.156,4.156,0,0,0-1.571.28,3.263,3.263,0,0,0-1.165.786,3.376,3.376,0,0,0-.717,1.195,4.454,4.454,0,0,0-.242,1.489,4.382,4.382,0,0,0,.266,1.575,3.436,3.436,0,0,0,.735,1.179,3.173,3.173,0,0,0,1.106.736,3.692,3.692,0,0,0,1.368.252,4.8,4.8,0,0,0,1.6-.266,3.039,3.039,0,0,0,1.292-.862l.107-.121-.461-.555A.467.467,0,0,0,56.8,74.791Z" fill="#666767"/>
              <path id="パス_1781" data-name="パス 1781" d="M65.715,75.3a.4.4,0,0,0-.338-.2.438.438,0,0,0-.24.082c-.048.032-.107.067-.175.105a1.355,1.355,0,0,1-.23.1.944.944,0,0,1-.3.041.645.645,0,0,1-.46-.16.677.677,0,0,1-.167-.511V70.8h2.132V69.545H63.809v-2.38h-.851a.507.507,0,0,0-.324.106.444.444,0,0,0-.164.289l-.282,1.99-1.242.146v.652a.423.423,0,0,0,.151.348.493.493,0,0,0,.317.108h.708v4.04a1.927,1.927,0,0,0,.532,1.451,2.064,2.064,0,0,0,1.488.511,3.164,3.164,0,0,0,1.047-.178,2.671,2.671,0,0,0,.878-.5l.125-.109Z" fill="#666767"/>
            </g>
            <g id="グループ_557" data-name="グループ 557">
              <path id="パス_1782" data-name="パス 1782" d="M57.784,13.814,49.4,8.973h0l-8.384-4.84-8.384,4.84h0l-8.384,4.84-8.384,4.84V47.7l8.384,4.84,8.384,4.84,8.384,4.84V52.537L32.633,47.7l-8.384-4.84V23.495l8.384,4.84,8.384,4.84,8.384-4.84-8.384-4.84-8.384-4.84,8.384-4.84h0l8.384,4.84,8.384,4.84,8.384-4.84Z" fill="#004e60"/>
              <path id="パス_1783" data-name="パス 1783" d="M57.808,33.175l8.384-4.84V18.654l-8.384,4.84-.024-.014v.027l-8.36,4.827-.024-.014v.027l-8.36,4.827-.024-.014V62.2l.024.014,8.384-4.84,8.384-4.84,8.384-4.84V38.016l-8.384,4.84-.024-.014v.027L49.424,47.7V38.016Z" fill="#a9a9a8"/>
            </g>
          </g>
        </g>
      </g>
    </g>
  </g>
</svg>
