<svg xmlns="http://www.w3.org/2000/svg" xmlns:xlink="http://www.w3.org/1999/xlink" width="375" height="667" viewBox="0 0 375 667" preserveAspectRatio="none">
  <defs>
    <clipPath id="clip-path">
      <rect id="長方形_344" data-name="長方形 344" width="375" height="667" fill="#fff" stroke="#707070" stroke-width="1"/>
    </clipPath>
  </defs>
  <g id="visual_img_01_sp" data-name="visual_img_01@sp" clip-path="url(#clip-path)">
    <g id="グループ_564" data-name="グループ 564">
      <g id="グループ_566" data-name="グループ 566">
        <path id="パス_417" data-name="パス 417" d="M779.372,546.367H772.14v10.117h5.424v1.077H772.14v2.206h5.424v1.077H772.14v2.205h5.424v1.077H772.14v2.2h5.424v1.077H772.14v2.206h5.424v1.077H772.14v2.205h5.424v1.077H772.14v2.2h5.424v1.077H772.14v2.205h5.424v1.077H772.14v2.206h5.424v1.076H772.14v2.207h5.424V587.1H772.14V589.3h5.424v1.076H772.14v2.205h5.424v1.078H772.14v2.205h5.424v1.076H772.14v2.206h5.424v1.077H772.14v2.2h5.424v1.078H772.14v2.205h5.424v1.076H772.14V609h5.424v1.077H772.14v5.391h-3.374v-91.6H720.023V646.923h34.753v1.515h25.4v-1.515h1.019V545.7h-1.822Zm-51.859,49h-1.4v-1.4h1.4Zm0-3.61h-1.4v-1.4h1.4Zm0-3.611h-1.4v-1.4h1.4Zm0-3.611h-1.4v-1.4h1.4Zm0-3.611h-1.4v-1.4h1.4Zm0-3.611h-1.4v-1.4h1.4Zm0-3.61h-1.4v-1.4h1.4Zm0-3.611h-1.4v-1.4h1.4Zm0-3.61h-1.4v-1.4h1.4Zm0-3.611h-1.4v-1.4h1.4Zm0-3.611h-1.4v-1.4h1.4Zm0-3.61h-1.4v-1.4h1.4Zm0-3.609h-1.4V550.64h1.4Zm0-3.611h-1.4v-1.405h1.4Zm0-3.611h-1.4v-1.405h1.4Zm0-3.611h-1.4v-1.4h1.4Zm0-3.611h-1.4V536.2h1.4Zm4.374,107.666h-3.536V632.556h3.536Zm-1.177-105.46v1.4h-1.4v-1.4Zm-1.4-2.206V536.2h1.4V537.6Zm1.4,5.816v1.405h-1.4v-1.405Zm0,3.611v1.405h-1.4v-1.405Zm0,3.61v1.405h-1.4V550.64Zm0,3.61v1.4h-1.4v-1.4Zm0,3.611v1.4h-1.4v-1.4Zm0,3.61v1.4h-1.4v-1.4Zm0,3.611v1.4h-1.4v-1.4Zm0,3.61v1.4h-1.4v-1.4Zm0,3.611v1.4h-1.4v-1.4Zm0,3.611v1.4h-1.4v-1.4Zm0,3.61v1.4h-1.4v-1.4Zm0,3.61v1.4h-1.4v-1.4Zm0,3.611v1.4h-1.4v-1.4Zm0,3.611v1.4h-1.4v-1.4Zm0,3.611v1.4h-1.4v-1.4Zm.812,4.715v2.807h-2.809v-2.807Zm0,6.394v2.807h-2.809v-2.807Zm0,6.394v2.807h-2.809V611.47Zm0,6.393v2.807h-2.809v-2.807Zm2.384-22.493h-1.4v-1.4h1.4Zm0-3.61h-1.4v-1.4h1.4Zm0-3.611h-1.4v-1.4h1.4Zm0-3.611h-1.4v-1.4h1.4Zm0-3.611h-1.4v-1.4h1.4Zm0-3.611h-1.4v-1.4h1.4Zm0-3.61h-1.4v-1.4h1.4Zm0-3.611h-1.4v-1.4h1.4Zm0-3.61h-1.4v-1.4h1.4Zm0-3.611h-1.4v-1.4h1.4Zm0-3.611h-1.4v-1.4h1.4Zm0-3.61h-1.4v-1.4h1.4Zm0-3.609h-1.4V550.64h1.4Zm0-3.611h-1.4v-1.405h1.4Zm0-3.611h-1.4v-1.405h1.4Zm0-3.611h-1.4v-1.4h1.4Zm0-3.611h-1.4V536.2h1.4Zm3.2,2.206v1.4h-1.4v-1.4Zm-1.4-2.206V536.2h1.4V537.6Zm1.4,5.816v1.405h-1.4v-1.405Zm0,3.611v1.405h-1.4v-1.405Zm0,3.61v1.405h-1.4V550.64Zm0,3.61v1.4h-1.4v-1.4Zm0,3.611v1.4h-1.4v-1.4Zm0,3.61v1.4h-1.4v-1.4Zm0,3.611v1.4h-1.4v-1.4Zm0,3.61v1.4h-1.4v-1.4Zm0,3.611v1.4h-1.4v-1.4Zm0,3.611v1.4h-1.4v-1.4Zm0,3.61v1.4h-1.4v-1.4Zm0,3.61v1.4h-1.4v-1.4Zm0,3.611v1.4h-1.4v-1.4Zm0,3.611v1.4h-1.4v-1.4Zm0,3.611v1.4h-1.4v-1.4Zm.13,4.715v2.807h-2.809v-2.807Zm0,6.394v2.807h-2.809v-2.807Zm0,6.394v2.807h-2.809V611.47Zm0,6.393v2.807h-2.809v-2.807Zm1.369,27.4h-3.535V632.556H738.6Zm4.9-105.46v1.4h-1.4v-1.4Zm-1.4-2.206V536.2h1.4V537.6Zm1.4,5.816v1.405h-1.4v-1.405Zm0,3.611v1.405h-1.4v-1.405Zm0,3.61v1.405h-1.4V550.64Zm0,3.61v1.4h-1.4v-1.4Zm0,3.611v1.4h-1.4v-1.4Zm0,3.61v1.4h-1.4v-1.4Zm0,3.611v1.4h-1.4v-1.4Zm0,3.61v1.4h-1.4v-1.4Zm0,3.611v1.4h-1.4v-1.4Zm0,3.611v1.4h-1.4v-1.4Zm0,3.61v1.4h-1.4v-1.4Zm0,3.61v1.4h-1.4v-1.4Zm0,3.611v1.4h-1.4v-1.4Zm0,3.611v1.4h-1.4v-1.4Zm0,3.611v1.4h-1.4v-1.4Zm-.554,4.715v2.807h-2.808v-2.807Zm-2.808,9.2v-2.807h2.808v2.807Zm2.808,3.587v2.807h-2.808V611.47ZM740.3,537.6h-1.4V536.2h1.4Zm0,2.206v1.4h-1.4v-1.4Zm0,3.611v1.405h-1.4v-1.405Zm0,3.611v1.405h-1.4v-1.405Zm0,3.61v1.405h-1.4V550.64Zm0,3.61v1.4h-1.4v-1.4Zm0,3.611v1.4h-1.4v-1.4Zm0,3.61v1.4h-1.4v-1.4Zm0,3.611v1.4h-1.4v-1.4Zm0,3.61v1.4h-1.4v-1.4Zm0,3.611v1.4h-1.4v-1.4Zm0,3.611v1.4h-1.4v-1.4Zm0,3.61v1.4h-1.4v-1.4Zm0,3.61v1.4h-1.4v-1.4Zm0,3.611v1.4h-1.4v-1.4Zm0,3.611v1.4h-1.4v-1.4Zm0,3.611v1.4h-1.4v-1.4Zm-.166,23.9h2.808v2.807h-2.808Zm1.288,13.515s-.083-3.712,2.972-3.712a2.591,2.591,0,0,1,2.5,1.6h-4.046v16h-1.425Zm7.231-19.908v2.807h-2.807V611.47Zm-2.807-3.587v-2.807h2.807v2.807Zm2.807,9.98v2.807h-2.807v-2.807Zm1.238-80.261h-1.4V536.2h1.4Zm0,2.206v1.4h-1.4v-1.4Zm0,3.611v1.405h-1.4v-1.405Zm0,3.611v1.405h-1.4v-1.405Zm0,3.61v1.405h-1.4V550.64Zm0,3.61v1.4h-1.4v-1.4Zm0,3.611v1.4h-1.4v-1.4Zm0,3.61v1.4h-1.4v-1.4Zm0,3.611v1.4h-1.4v-1.4Zm0,3.61v1.4h-1.4v-1.4Zm0,3.611v1.4h-1.4v-1.4Zm0,3.611v1.4h-1.4v-1.4Zm0,3.61v1.4h-1.4v-1.4Zm0,3.61v1.4h-1.4v-1.4Zm0,3.611v1.4h-1.4v-1.4Zm0,3.611v1.4h-1.4v-1.4Zm0,3.611v1.4h-1.4v-1.4Zm-1.238,4.715v2.807h-2.807v-2.807Zm-1.959-61.08h-1.4V536.2h1.4Zm0,2.206v1.4h-1.4v-1.4Zm0,3.611v1.405h-1.4v-1.405Zm0,3.611v1.405h-1.4v-1.405Zm0,3.61v1.405h-1.4V550.64Zm0,3.61v1.4h-1.4v-1.4Zm0,3.611v1.4h-1.4v-1.4Zm0,3.61v1.4h-1.4v-1.4Zm0,3.611v1.4h-1.4v-1.4Zm0,3.61v1.4h-1.4v-1.4Zm0,3.611v1.4h-1.4v-1.4Zm0,3.611v1.4h-1.4v-1.4Zm0,3.61v1.4h-1.4v-1.4Zm0,3.61v1.4h-1.4v-1.4Zm0,3.611v1.4h-1.4v-1.4Zm0,3.611v1.4h-1.4v-1.4Zm0,3.611v1.4h-1.4v-1.4Zm7.027,51.3h-.043V632.556h.043Zm.643-24.6h-2.809v-2.807h2.809Zm0-6.393h-2.809V611.47h2.809Zm0-6.394h-2.809v-2.807h2.809Zm0-6.394h-2.809v-2.807h2.809Zm-1.276-61.681v1.4h-1.4v-1.4Zm-1.4-2.206V536.2h1.4V537.6Zm1.4,5.816v1.405h-1.4v-1.405Zm0,3.611v1.405h-1.4v-1.405Zm0,3.61v1.405h-1.4V550.64Zm0,3.61v1.4h-1.4v-1.4Zm0,3.611v1.4h-1.4v-1.4Zm0,3.61v1.4h-1.4v-1.4Zm0,3.611v1.4h-1.4v-1.4Zm0,3.61v1.4h-1.4v-1.4Zm0,3.611v1.4h-1.4v-1.4Zm0,3.611v1.4h-1.4v-1.4Zm0,3.61v1.4h-1.4v-1.4Zm0,3.61v1.4h-1.4v-1.4Zm0,3.611v1.4h-1.4v-1.4Zm0,3.611v1.4h-1.4v-1.4Zm0,3.611v1.4h-1.4v-1.4Zm3.2,1.4h-1.4v-1.4h1.4Zm0-3.61h-1.4v-1.4h1.4Zm0-3.611h-1.4v-1.4h1.4Zm0-3.611h-1.4v-1.4h1.4Zm0-3.611h-1.4v-1.4h1.4Zm0-3.611h-1.4v-1.4h1.4Zm0-3.61h-1.4v-1.4h1.4Zm0-3.611h-1.4v-1.4h1.4Zm0-3.61h-1.4v-1.4h1.4Zm0-3.611h-1.4v-1.4h1.4Zm0-3.611h-1.4v-1.4h1.4Zm0-3.61h-1.4v-1.4h1.4Zm0-3.609h-1.4V550.64h1.4Zm0-3.611h-1.4v-1.405h1.4Zm0-3.611h-1.4v-1.405h1.4Zm0-3.611h-1.4v-1.4h1.4Zm0-3.611h-1.4V536.2h1.4Zm3.789,76.675h-2.809V611.47h2.809Zm0-6.394h-2.809v-2.807h2.809Zm0-6.394h-2.809v-2.807h2.809Zm-.592-61.681v1.4h-1.4v-1.4Zm-1.4-2.206V536.2h1.4V537.6Zm1.4,5.816v1.405h-1.4v-1.405Zm0,3.611v1.405h-1.4v-1.405Zm0,3.61v1.405h-1.4V550.64Zm0,3.61v1.4h-1.4v-1.4Zm0,3.611v1.4h-1.4v-1.4Zm0,3.61v1.4h-1.4v-1.4Zm0,3.611v1.4h-1.4v-1.4Zm0,3.61v1.4h-1.4v-1.4Zm0,3.611v1.4h-1.4v-1.4Zm0,3.611v1.4h-1.4v-1.4Zm0,3.61v1.4h-1.4v-1.4Zm0,3.61v1.4h-1.4v-1.4Zm0,3.611v1.4h-1.4v-1.4Zm0,3.611v1.4h-1.4v-1.4Zm0,3.611v1.4h-1.4v-1.4Zm3.2,1.4h-1.4v-1.4h1.4Zm0-3.61h-1.4v-1.4h1.4Zm0-3.611h-1.4v-1.4h1.4Zm0-3.611h-1.4v-1.4h1.4Zm0-3.611h-1.4v-1.4h1.4Zm0-3.611h-1.4v-1.4h1.4Zm0-3.61h-1.4v-1.4h1.4Zm0-3.611h-1.4v-1.4h1.4Zm0-3.61h-1.4v-1.4h1.4Zm0-3.611h-1.4v-1.4h1.4Zm0-3.611h-1.4v-1.4h1.4Zm0-3.61h-1.4v-1.4h1.4Zm0-3.609h-1.4V550.64h1.4Zm0-3.611h-1.4v-1.405h1.4Zm0-3.611h-1.4v-1.405h1.4Zm0-3.611h-1.4v-1.4h1.4Zm0-3.611h-1.4V536.2h1.4Zm0-4.914h-36.57v-1.455h36.57Zm12.062,82.777h-.258v-2.219h.258Zm3.354,0h-.257v-2.219h.257Z" transform="translate(-451.649 3.837)" fill="#6a90ac"/>
        <rect id="長方形_232" data-name="長方形 232" width="3.097" height="101.222" transform="translate(329.802 549.539)" fill="#6a90ac"/>
        <rect id="長方形_233" data-name="長方形 233" width="3.097" height="101.222" transform="translate(333.155 549.539)" fill="#6a90ac"/>
        <rect id="長方形_234" data-name="長方形 234" width="3.097" height="101.222" transform="translate(336.51 549.539)" fill="#6a90ac"/>
        <path id="パス_418" data-name="パス 418" d="M865.067,568.27V557.615h-31.1v-.665h-5.634V658.172h3.1v-58.6h.257v58.6h3.1v-58.6h.257v58.6h3.1v-58.6h.257v58.6h3.1v-50.1h.257v50.1h23.317V621.863h-11.18v-1.079h11.18v-2.2h-11.18V617.5h11.18v-2.2h-11.18V614.22h11.18v-2.2h-11.18v-1.078h11.18v-2.2h-11.18v-1.079h11.18v-2.2h-21.5v-1.079h21.5v-2.2h-21.5v-1.078h21.5v-2.2H835.206V597.81h29.861v-2.2H835.206v-1.08h29.861v-2.2H835.206v-1.079h29.861v-2.2H835.206v-1.078h29.861v-2.2H835.206v-1.08h29.861v-2.2H835.206V581.4h29.861v-2.2H835.206v-1.079h29.861v-2.2H835.206v-1.079h29.861v-2.2H835.206v-1.079h29.861v-2.2H835.206v-1.08Zm-31.4,30.078h-3.28v-1.076h3.28Zm0-3.282h-3.28v-1.076h3.28Zm0-3.282h-3.28v-1.077h3.28Zm0-3.282h-3.28v-1.077h3.28Zm0-3.282h-3.28v-1.077h3.28Zm0-3.282h-3.28v-1.077h3.28Zm0-3.282h-3.28v-1.077h3.28Zm0-3.281h-3.28V574.3h3.28Zm0-3.282h-3.28v-1.077h3.28Zm0-3.282h-3.28v-1.077h3.28Zm19.785,57.366H860.3v1.079h-6.846Zm0,4.218H860.3v1.079h-6.846Zm0,4.218H860.3v1.078h-6.846Zm-7.215-24.21h4.62v1.077h-4.62Zm0,3.281h4.62v1.078h-4.62Zm0,3.283h4.62v1.076h-4.62Zm0,3.282h4.62v1.077h-4.62Zm-6.761-19.693H842.1v1.077h-2.627Zm0,3.282H842.1v1.078h-2.627Z" transform="translate(-488.468 -7.411)" fill="#6a90ac"/>
        <path id="パス_419" data-name="パス 419" d="M518.821,488.353h-8.193v-2.622H500.356v-.862h-19.51v.862H470.574v2.622h-8.192v76.115h-.418V600.9h-4.289v-2.533h-9.814v-3.412h9.814v-3.2h-9.814v-1.221h9.814v-2.01h-9.814V587.3h9.814v-2.01h-9.814v-1.221h9.814v-2.011h-9.814v-1.22h9.814v-2.007h-9.814v-1.221h9.814V575.6h-9.814v-1.222h9.814v-2.01h-9.814v-1.221h9.814v-2.01h-9.814v-1.221h9.814v-2.007h-9.814v-1.221h9.814v-2.01h-9.814v-1.221h9.814v-2.01h-12.21v-1.221h12.21v-2.01h-12.21V555h12.21v-2.007h-12.21v-1.22h12.21v-2.011h-12.21v-1.221h12.21V546.53h-12.21V545.31h12.21V543.3h-12.21v-1.222h12.21v-2.007h-12.21v-1.221h12.21v-2.01h-12.21v-1.22h12.21v-2.01h-12.21v-1.221h12.21v-2.01h-12.21v-1.221h12.21v-2.006h-12.21v-1.224h12.21v-2.008h-12.21V522.7h12.21v-2.01h-12.21v-1.222h12.21v-2.009h-6.752v-1.221h6.752V514.23h-6.752v-1.224h6.752V511h-6.752v-1.222h6.752v-2.01h-6.752v-1.22h6.752v-2.011h-6.752v-1.22h6.752v-2.007h-6.752v-1.224h6.752v-2.007h-6.752v-1.222h6.752v-2.009h-6.752v-1.222h6.752v-2.009h-6.752v-1.221h6.752v-2.007h-6.752v-1.224h6.752v-2.006h-6.752v-1.222h6.752v-2.01h-6.752V480.7h6.752v-2.011h-6.752v-1.221h6.752v-2.006h-6.752v-1.224h6.752v-2.007h-6.752v-1.22h6.752V469h-6.752v-1.222h6.752v-2.009h-6.752v-1.22h6.752v-2.007h-6.752v-1.224h6.752v-2.006h-6.752v-1.221h6.752v-2.01h-6.752v-1.221h6.752v-2.01h-6.752v-1.221h6.752V449.02h-7.327v-2.94h-6.462v-4.535h-6.536V432.93h-8.379v8.614h-6.535v4.535h-6.463v2.94h-7.326v2.611h6.75v1.221h-6.75v2.01h6.75v1.221h-6.75v2.01h6.75v1.221h-6.75v2.006h6.75v1.224h-6.75v2.007h6.75v1.22h-6.75v2.009h6.75V469h-6.75v2.01h6.75v1.22h-6.75v2.007h6.75v1.224h-6.75v2.006h6.75v1.221h-6.75V480.7h6.75v1.221h-6.75v2.01h6.75v1.222h-6.75v2.006h6.75v1.224h-6.75v2.007h6.75v1.221h-6.75v2.009h6.75v1.222h-6.75v2.009h6.75v1.222h-6.75v2.007h6.75v1.224h-6.75v2.007h6.75v1.22h-6.75v2.011h6.75v1.22h-6.75v0h-8.092l-5.747-2.964H391.7v-3.939l-3.555-2.791H366.587l-3.556,2.791v3.939h-1.756l-.721-.732-.723.732h-1.465l-.723-.732-.723.732h-1.63l-1.115.449-.5,63.283c-1.113-.157-2.428-.371-3.766-.651V486.943h1.7s-.1-3.714,1.942-3.714v-16.6s-.05-.711-1.193-.711v-.828h-2.84V460.83s.8.082.8-.7v-.568c0-.132-.046-.621-.8-.621h-.12v-2.187h-.73v1.1h-.463v.365h-.824v-1.927a1.239,1.239,0,1,0-1.943,0v1.927h-.824v-.365h-.462v-1.1h-.731v2.187h-.12c-.754,0-.805.489-.8.621v.568c0,.777.8.7.8.7v4.258h-2.84v.828c-1.142,0-1.192.711-1.192.711v16.6c2.043,0,1.943,3.714,1.943,3.714h1.7v66.4c-2.366-.286-5.038-.952-6.583-2.459v-7.826s4.68-1.295,5.111-2.946c0,0-6.473.745-9.146-1.3v-3.038h-3.145v-5.454s3.406-.667,4.35-2.123c0,0-6.343.079-6.343-4.953v-3.432H327v-1.5a1.9,1.9,0,0,0,.236-.8c0-.393-.057-1.476-.551-1.85s.164.654.132,1.022.017,1.091-.4.724-.339-.737-.383-.249a1.251,1.251,0,0,0,.352.956l.135.192v1.506h-.16v.733H307.624v-.733h-.16v-1.506l.136-.192a1.25,1.25,0,0,0,.352-.956c-.044-.488.032-.119-.384.249s-.368-.352-.4-.724.622-1.4.131-1.022-.55,1.456-.55,1.85a1.9,1.9,0,0,0,.236.8v1.5h-.164v3.432c0,5.032-6.343,4.953-6.343,4.953.943,1.456,4.35,2.123,4.35,2.123v5.454h-3.146v3.038c-2.673,2.044-9.146,1.3-9.146,1.3.431,1.651,5.111,2.946,5.111,2.946v7.826c-3.224,3.145-11.36,2.632-11.36,2.632.587,1.692,4.912,2.387,4.912,2.387v9.25c-3.067,2.83-13.97,3.748-13.97,3.748a5.121,5.121,0,0,0,3.33,1.68c1.44,0,2.5,2.4,2.5,2.4v3.932c-.509,1.218-5.818,2.632-5.818,2.632,1.378,1.023,5.7,1.457,5.7,1.457v1.767l-5.346,6.762h1.966v9.985h-3.931l-7.548,15.568h74.831v.93h6.993v-.93h3.4l-.007.928H391.7v0H519.237V564.468h-.417ZM352.407,467.42h.548v6.671h-.548Zm0,7.786h.548v6.962h-.548Zm-11.982,6.962h-.548v-6.962h.548Zm0-8.077h-.548V467.42h.548Zm2.494,91.177c-.044-.039-.094-.075-.136-.114V555.9l.136-.024Zm5.754-100.18h-4.515v-4.273h4.515Zm4.869,120.844-2.5-3.166V581s1.205-.123,2.545-.387Zm.058-7.408c-1.25-.481-2.449-1.067-2.679-1.614v-3.932s1.061-2.4,2.5-2.4c.079,0,.159-.005.24-.013Zm60.04-68.09-1.171-.657H415.4V511h-1.745Zm.057,2.571h1.7v1.224h-1.673Zm.073,3.232H415.4v1.221h-1.6Zm4.692,82.13H415.6l-.076-3.412h2.937Zm0-6.611h-3.009l-.026-1.221h3.036Zm0-3.231h-3.081l-.026-1.221h3.108Zm0-3.231h-3.153l-.027-1.221h3.18Zm0-3.232h-3.225l-.027-1.22h3.252Zm0-3.227h-3.3l-.027-1.221h3.324Zm0-3.231h-3.369l-.027-1.222h3.4Zm0-3.232h-3.441l-.027-1.221h3.468Zm0-3.231h-3.513l-.027-1.221h3.54Zm0-3.228h-3.585l-.027-1.221h3.613Zm0-3.231h-3.657l-.028-1.221h3.684Zm2.393-3.232h-6.121l-.028-1.221h6.149Zm0-3.23h-6.193L414.634,555h6.221Zm0-3.228h-6.266l-.027-1.22h6.293Zm0-3.231h-6.338l-.027-1.221h6.365Zm0-3.232h-6.41l-.027-1.221h6.437Zm0-3.23h-6.482l-.027-1.222h6.509Zm0-3.228H414.3l-.028-1.221h6.582Zm0-3.232h-6.626l-.028-1.22h6.653Zm0-3.23h-6.7l-.027-1.221h6.725Zm0-3.232h-6.77l-.026-1.221h6.8Zm0-3.227h-6.842l-.027-1.224h6.869Zm0-3.232h-6.914l-.027-1.22h6.941Zm0-3.23h-6.986l-.027-1.222h7.013Zm1.545-3.231h-5.061v-1.221H422.4Zm0-3.228h-5.061v-1.224H422.4Zm0-3.23h-5.061v-1.222H422.4Zm0-3.232h-5.061v-1.22H422.4Zm0-3.232h-5.061v-1.22H422.4Zm0-3.227h-5.061v-1.224H422.4Zm0-3.231h-5.061v-1.222H422.4Zm0-3.231h-5.061v-1.222H422.4Zm0-3.231h-5.061v-1.221H422.4Zm0-3.228h-5.061v-1.224H422.4Zm0-3.23h-5.061v-1.222H422.4Zm0-3.232h-5.061V480.7H422.4Zm0-3.231h-5.061v-1.221H422.4Zm0-3.227h-5.061v-1.224H422.4Zm0-3.232h-5.061v-1.22H422.4Zm0-3.23h-5.061v-1.222H422.4Zm0-3.232h-5.061v-1.22H422.4Zm0-3.228h-5.061v-1.224H422.4Zm0-3.231h-5.061v-1.221H422.4Zm0-3.232h-5.061v-1.221H422.4Zm0-3.231h-5.061v-1.221H422.4Zm3.663,64.606h-1.9v-1.221h1.9Zm0-3.228h-1.9v-1.224h1.9Zm0-3.23h-1.9v-1.222h1.9Zm0-3.232h-1.9v-1.22h1.9Zm0-3.232h-1.9v-1.22h1.9Zm0-3.227h-1.9v-1.224h1.9Zm0-3.231h-1.9v-1.222h1.9Zm0-3.231h-1.9v-1.222h1.9Zm0-3.231h-1.9v-1.221h1.9Zm0-3.228h-1.9v-1.224h1.9Zm0-3.23h-1.9v-1.222h1.9Zm0-3.232h-1.9V480.7h1.9Zm0-3.231h-1.9v-1.221h1.9Zm0-3.227h-1.9v-1.224h1.9Zm0-3.232h-1.9v-1.22h1.9Zm0-3.23h-1.9v-1.222h1.9Zm0-3.232h-1.9v-1.22h1.9Zm0-3.228h-1.9v-1.224h1.9Zm0-3.231h-1.9v-1.221h1.9Zm0-3.232h-1.9v-1.221h1.9Zm0-3.231h-1.9v-1.221h1.9Zm9.611-12.7h-5.023v-5.417h5.023Zm6.488,77.3h-1.9v-1.221h1.9Zm0-3.228h-1.9v-1.224h1.9Zm0-3.23h-1.9v-1.222h1.9Zm0-3.232h-1.9v-1.22h1.9Zm0-3.232h-1.9v-1.22h1.9Zm0-3.227h-1.9v-1.224h1.9Zm0-3.231h-1.9v-1.222h1.9Zm0-3.231h-1.9v-1.222h1.9Zm0-3.231h-1.9v-1.221h1.9Zm0-3.228h-1.9v-1.224h1.9Zm0-3.23h-1.9v-1.222h1.9Zm0-3.232h-1.9V480.7h1.9Zm0-3.231h-1.9v-1.221h1.9Zm0-3.227h-1.9v-1.224h1.9Zm0-3.232h-1.9v-1.22h1.9Zm0-3.23h-1.9v-1.222h1.9Zm0-3.232h-1.9v-1.22h1.9Zm0-3.228h-1.9v-1.224h1.9Zm0-3.231h-1.9v-1.221h1.9Zm0-3.232h-1.9v-1.221h1.9Zm0-3.231h-1.9v-1.221h1.9Zm1.758-1.221h5.064v1.221h-5.064Zm0,3.231h5.064v1.221h-5.064Zm0,3.232h5.064v1.221h-5.064Zm0,3.228h5.064v1.224h-5.064Zm0,3.232h5.064v1.22h-5.064Zm0,3.23h5.064V469h-5.064Zm0,3.232h5.064v1.22h-5.064Zm0,3.228h5.064v1.224h-5.064Zm0,3.23h5.064v1.221h-5.064Zm0,3.232h5.064v1.221h-5.064Zm0,3.231h5.064v1.222h-5.064Zm0,3.228h5.064v1.224h-5.064Zm0,3.232h5.064v1.221h-5.064Zm0,3.23h5.064v1.222h-5.064Zm0,3.231h5.064v1.222h-5.064Zm0,3.229h5.064v1.224h-5.064Zm0,3.23h5.064v1.22h-5.064Zm0,3.232h5.064v1.22h-5.064Zm0,3.23h5.064V511h-5.064Zm0,3.228h5.064v1.224h-5.064Zm0,3.232h5.064v1.221h-5.064Z" transform="translate(-298.018 34.748)" fill="#6a90ac"/>
        <path id="パス_420" data-name="パス 420" d="M692.52,594.186h.792v-7.764h-.951v-111.3h-3.406V472.9h-32.48v2.218h-3.407v111.3h-.95v7.764h.792v3.643h-3.248V629.6h46.106V597.829H692.52Zm-27.952,2.364H657.6v-1.226h6.972Zm0-13.772H657.6v-1.226h6.972Zm0-2.889H657.6v-1.23h6.972Zm0-5.784H657.6v-1.226h6.972Zm0-2.893H657.6v-1.226h6.972Zm0-5.779H657.6V564.2h6.972Zm0-2.893H657.6v-1.226h6.972Zm0-5.783H657.6v-1.23h6.972Zm0-2.89H657.6v-1.23h6.972Zm0-2.893H657.6v-1.226h6.972Zm0-5.783H657.6V543.96h6.972Zm0-2.89H657.6v-1.229h6.972Zm0-2.893H657.6V538.18h6.972Zm0-5.783H657.6v-1.23h6.972Zm0-5.784H657.6v-1.226h6.972Zm0-2.893H657.6v-1.226h6.972Zm0-5.78H657.6v-1.229h6.972Zm0-2.893H657.6v-1.227h6.972Zm0-2.893H657.6v-1.226h6.972Zm0-5.78H657.6v-1.23h6.972Zm0-5.786H657.6v-1.226h6.972Zm0-5.78H657.6v-1.229h6.972Zm0-2.893H657.6v-1.226h6.972Zm0-5.783H657.6v-1.23h6.972Zm0-5.783H657.6v-1.227h6.972Zm0-2.893H657.6v-1.226h6.972Zm7.763,117.867H665.36v-1.226h6.971Zm0-10.879H665.36v-1.226h6.971Zm0-2.893H665.36v-1.226h6.971Zm0-5.779H665.36v-1.23h6.971Zm0-2.894H665.36v-1.226h6.971Zm0-5.783H665.36v-1.229h6.971Zm0-2.89H665.36V564.2h6.971Zm0-2.893H665.36v-1.226h6.971Zm0-2.894H665.36v-1.226h6.971Zm0-5.779H665.36v-1.23h6.971Zm0-2.893H665.36v-1.226h6.971Zm0-2.893H665.36v-1.227h6.971Zm0-2.89H665.36V543.96h6.971Zm0-5.783H665.36V538.18h6.971Zm0-2.893H665.36v-1.227h6.971Zm0-2.89H665.36v-1.23h6.971Zm0-2.89H665.36V529.5h6.971Zm0-5.786H665.36v-1.226h6.971Zm0-2.89H665.36v-1.229h6.971Zm0-2.89H665.36v-1.229h6.971Zm0-5.786H665.36v-1.226h6.971Zm0-2.89H665.36v-1.23h6.971Zm0-5.783H665.36v-1.226h6.971Zm0-5.783H665.36V497.7h6.971Zm0-2.89H665.36v-1.229h6.971Zm0-5.786H665.36v-1.226h6.971Zm0-5.779H665.36v-1.23h6.971Zm0-2.893H665.36v-1.227h6.971ZM680.1,596.55h-6.972v-1.226H680.1Zm0-10.879h-6.972v-1.226H680.1Zm0-5.782h-6.972v-1.23H680.1Zm0-2.89h-6.972v-1.23H680.1Zm0-2.894h-6.972v-1.226H680.1Zm0-2.893h-6.972v-1.226H680.1Zm0-5.779h-6.972V564.2H680.1Zm0-5.787h-6.972v-1.226H680.1Zm0-2.889h-6.972v-1.23H680.1Zm0-5.784h-6.972v-1.226H680.1Zm0-2.893h-6.972v-1.227H680.1Zm0-5.78h-6.972v-1.229H680.1Zm0-2.893h-6.972V538.18H680.1Zm0-5.783h-6.972v-1.23H680.1Zm0-5.784h-6.972v-1.226H680.1Zm0-2.893h-6.972v-1.226H680.1Zm0-5.78h-6.972v-1.229H680.1Zm0-5.786h-6.972v-1.226H680.1Zm0-2.89h-6.972v-1.23H680.1Zm0-2.89h-6.972v-1.23H680.1Zm0-5.786h-6.972v-1.226H680.1Zm0-2.89h-6.972V497.7H680.1Zm0-5.783h-6.972v-1.226H680.1Zm0-2.893h-6.972v-1.226H680.1Zm0-2.89h-6.972v-1.23H680.1Zm0-2.89h-6.972v-1.23H680.1Zm0-5.786h-6.972v-1.226H680.1Zm7.763,117.867h-6.971v-1.226h6.971Zm0-10.879h-6.971v-1.226h6.971Zm0-2.893h-6.971v-1.226h6.971Zm0-5.779h-6.971v-1.23h6.971Zm0-5.787h-6.971v-1.226h6.971Zm0-2.89h-6.971v-1.229h6.971Zm0-2.89h-6.971V564.2h6.971Zm0-2.893h-6.971v-1.226h6.971Zm0-5.783h-6.971v-1.23h6.971Zm0-2.89h-6.971v-1.23h6.971Zm0-5.786h-6.971v-1.227h6.971Zm0-2.89h-6.971V543.96h6.971Zm0-2.89h-6.971v-1.229h6.971Zm0-5.786h-6.971v-1.227h6.971Zm0-2.89h-6.971v-1.23h6.971Zm0-2.89h-6.971V529.5h6.971Zm0-2.893h-6.971v-1.226h6.971Zm0-5.783h-6.971v-1.229h6.971Zm0-5.783h-6.971v-1.227h6.971Zm0-5.783h-6.971v-1.23h6.971Zm0-2.89h-6.971v-1.23h6.971Zm0-2.893h-6.971v-1.226h6.971Zm0-5.783h-6.971V497.7h6.971Zm0-2.89h-6.971v-1.229h6.971Zm0-2.893h-6.971v-1.226h6.971Zm0-5.783h-6.971v-1.23h6.971Zm0-5.783h-6.971v-1.227h6.971Zm0-2.893h-6.971v-1.226h6.971Z" transform="translate(-427.731 21.16)" fill="#6a90ac"/>
        <path id="パス_421" data-name="パス 421" d="M932.149,667.828c-1.6,1.736-4.132-2.241-4.529-5.206-4.89-36.481-58.64-24.494-45.959-.662,5.488,10.319,17.689,4.422,16.23,1-.458-1.079-4.528,1.469-7.728-4.524s5.517-15.792,13.076-8.525c5.225,5.024,7.968,14.044,7.246,22.207v0c-4.58,7.659-8.828,6.306-6.627,3.964,2.007-2.134,1.4-6.722-4.721-6-10.212,1.209-10.963,16.3-1.033,19h0c.976,3.487,4.9,1.6,3.468,10.875-1.282,8.306-6.063,13.889-14.754,25.687,13.472-11.4,21.5-16.724,26.457-24.044,2.377-3.509.812-13.133,6.343-6.088,16.576,21.11,50.682-9.534,24.754-9.9C962.953,680.31,948.18,650.412,932.149,667.828Z" transform="translate(-540.047 -28.325)" fill="#fff"/>
        <path id="パス_422" data-name="パス 422" d="M712.9,635.722c-11.032-5.585-7.5-4.058-17.651-3.227,18.616-2.505,13.211-26.089,4.831-39.125C694.7,585,674.17,580.618,664.338,581.165c-2.731.151-9.866.6-11.729,3.283,0-9.725-9.5-18.893-22.683-16.421-14.37,2.7-24.184,16.334-13.284,22.229-11.5-3.625-29.066,2.862-30.873,11.677-2.578,12.568.591,23.267,7.906,26.58,7.063,3.2,10.135,6.188,9.286,15.3-.976,10.484.375,8.865-7.578,13.969,1.782-6.885-.532-12.2-4.865-15.631-8.477-6.705-16.63-1.317-20.315,3.729-5.4,7.4,2.386,14.146,5.435,13.465-2.73-8.94,8.373-11.149,10.873-7.169,3.035,4.833.666,9.655-3.506,14.379-1.989,2.255-10.092,10.417-24.867,16.939,6.151-13.036,5.254-29.443-8.029-40.034-19.473-15.526-41.524,14.211-19.695,20.382,1.229.346,6.027.733,3.868-.864-9.647-7.139-2.263-15,4.3-14.449,5.1.43,9.534,7.159,6.162,15.484-6.679,16.485-2.552,28.374-18.105,30.283-11.728,1.438-30.716-3.468-39.245-12-17.433-17.445,2.69-40.1,10.655-57.956,1.88-3.467,3.823-7.083,5.832-10.816,17.659-27.382,37.216-45.184,48.03-60.6C668.4,432.807,672.467,426.6,672.467,426.6l-4.455-6.157s-76.489,78.623-148.531,152.378c-37.409,51.895-83.969,57.176-91.294,69.291a21.779,21.779,0,0,0-13.4-13.1c-8.406-2.82-17.544,1.324-16.279,9.606.889,5.816,7.368,6.632,9.19,3.933,2.109-3.129,2.79-4.109,4.3-3.982,4.469.375,9.33,9.779,1.9,13.619-1.259.651-5.641,3.161-7.651.736-2.776-3.345-7.11-7-13.049-2.906a8.242,8.242,0,0,0-3.14,3.651c-9.914-8.655-13.417-23.725-.172-37.824,15.329-16.317,21.717,4.375,11.929,3.9-2.191-.106-1.755,2.255-.954,2.655,14.187,7.072,28.629-18.95,7.432-27.707-15.43-6.375-27.635,6.1-34.763,20.08-8.352-8.363-23.5-11.2-29.472,6.212-2.686,7.83,4.427,16.611,9.987,17.353,9.878,1.316-14.3,28.744-39.173,14.41-22.915-13.209-15.912-65.863,17.734-55.839,23.3,6.937,21.823-2.161,14.824-6.471-8.959-5.517-11.034,1.823-16.343.126-7.076-2.258-2.352-12.855,3.644-13.368,8.38-.717,14.2,9.743,21.314-.661,5.827-8.522-.483-15.528-9.876-16.111,13.723-14.634-9.6-33.182-21.715-15.534-2.341,3.411-1.051,8.812,2.175,11.126-7.129-2.779-15.426-1.979-20.851,5.2-7.043,9.325-1.21,16.767,6.724,20.318-6.813-1.915-16.131,4.127-11.382,11.592a13.906,13.906,0,0,0-8.964-3.319c-11.243-11.73-32.929-6.978-33.471-26.887-.356-13.08-5.086-12.451,6.617-19.6-.081,25.01,36.055,18.368,33.943-4.038-1.1-11.681-18.77-20.546-11.677-31.793A19.59,19.59,0,0,1,305.311,499c10.07,1,14.558,16.963,4.94,19.676s-9.883.2-13.111.575c-6.363.746,9.217,18.878,26.537,9.22,28.584-15.941,6.541-70.415-39.741-40.012,16.348-18.922,12.8-46.654-13.967-56.7-20.105-7.549-35.113,1-41.271,14.934s7.031,26.995,7.031,26.995c-10.972.928-20.066-2.088-28.444,6.648-7.7,8.029-13.849,21.705-13.851,32.827,0,12.879,14.345,34.056,28.242,28.8-14.863,16.881,3.23,50.181,33.329,52.708-4.287,3.177-19.607-4.352-21.069.028-2.836,8.491,7.029,35.05,22.412,33.168-44.916,3.095-19.512,87.26,33.428,76.972-3.392,8.384-3.522,37.525,18.052,44.988,19.5,6.748,31.655,3.956,39.2-2.092a29.794,29.794,0,0,0,55.26-11.712,72.576,72.576,0,0,0,17.923-.455c.021.591.04,1.178.082,1.772a51.652,51.652,0,0,0,99.064,15.947,32.369,32.369,0,0,0,25.057,8.964,31.807,31.807,0,0,0,26.942-18.331,29.736,29.736,0,0,0,23.284,8.731c13.9-1.007,25.8-20.944,20.057-32.3,6.386,6.329,23.5,8.6,31.711-7.219,3.655.373,13.075-2.656,8.137,7.514-7.052,14.523,30.793,25.425,37.036.547,13.117-3.084,28.222-10.128,43.565-22.611,6.055-4.926,6.472-6.566,8.972-10.147-12.529,5.057-14.3,6.266-26.655,7.686C726.882,672.842,732.189,645.485,712.9,635.722Z" transform="translate(-397.347 8.898)" fill="#fff"/>
        <path id="パス_423" data-name="パス 423" d="M709.561,636.729a11.446,11.446,0,0,0-11.447-11.446H652.277v-5.326H647.96V606.694a22.874,22.874,0,0,0,7.257-4.235,17.67,17.67,0,0,0,8.118-3.084c3.419-.813,6.1-1.951,7.293-3.533,0,0-14.319,2.123-21.263-.452h-.1v-4.4h-5.036v-4.2c1.688-.315,7.441-1.551,10.346-4.251a17.057,17.057,0,0,0,7.775-2.979c3.309-.785,5.908-1.888,7.065-3.419,0,0-13.867,2.053-20.587-.44h-.055v-4.4H643.74v-4.3s6.559-1.111,9.958-4.349a16.538,16.538,0,0,0,7.677-2.9c3.2-.761,5.711-1.829,6.83-3.308,0,0-13.408,1.99-19.908-.42h-.091v-4.4h-5.04v-4.3s6.241-1.315,9.644-4.554a16.062,16.062,0,0,0,7.587-2.826c3.092-.734,5.519-1.766,6.6-3.195,0,0-12.952,1.919-19.234-.409v-2.937h-5.036v-4.992a15.221,15.221,0,0,0,7.458-3.846,15.685,15.685,0,0,0,9.342-2.945c2.994-.737,5.345-1.766,6.39-3.195,0,0-15.144,3.913-30.192-10.932l.384-.376v-.459H635.2V504.98h-1.449a1.076,1.076,0,0,0-.612-1.174v-.667s1.358-.6,1.358-1.633h-1.358V499.92h.8v-.428c0-.459-.8-.459-.8-.459v-1.519h.8v-.428c0-.459-.8-.459-.8-.459v-1.519h.8v-.428c0-.459-.8-.459-.8-.459V492.7h.8v-.428c0-.459-.8-.459-.8-.459V490.3h.8v-.428c0-.459-.8-.459-.8-.459V487.89h.8v-.428c0-.459-.8-.459-.8-.459v-1.519h.8v-.428c0-.459-.8-.459-.8-.459v-1.519h.8v-.428c0-.459-.8-.459-.8-.459v-1.519h.8v-.428c0-.459-.8-.459-.8-.459V478.32h1v-4.168a1,1,0,0,0-1-1.056v-1.3s.381,0,.381-.566h-.381v-.761s.381,0,.381-.566h-.381v-.867s.306,0,.306-.393h-.714v-3.434a.147.147,0,1,0-.294,0v3.434h-.718c0,.393.31.393.31.393v.867h-.381c0,.566.381.566.381.566v.761h-.381c0,.566.381.566.381.566v1.3a1,1,0,0,0-1.009,1.056v4.168h1.009v1.465s-.8,0-.8.459v.428h.8v1.519s-.8,0-.8.459v.428h.8V484.6s-.8,0-.8.459v.428h.8V487s-.8,0-.8.459v.428h.8v1.519s-.8,0-.8.459v.428h.8v1.519s-.8,0-.8.459v.428h.8v1.519s-.8,0-.8.459v.428h.8v1.519s-.8,0-.8.459v.428h.8v1.519s-.8,0-.8.459v.428h.8v1.585h-1.358c0,1.028,1.358,1.633,1.358,1.633v.663a1.079,1.079,0,0,0-.616,1.178h-1.445v1.691h-.91v.459l.384.376c-15.045,14.845-30.188,10.932-30.188,10.932,1.044,1.429,3.4,2.457,6.39,3.195a15.668,15.668,0,0,0,9.342,2.945,15.218,15.218,0,0,0,7.457,3.846v4.992h-5.036v2.937c-6.28,2.327-19.233.409-19.233.409,1.079,1.428,3.5,2.461,6.6,3.195a16.054,16.054,0,0,0,7.583,2.826c3.4,3.239,9.644,4.554,9.644,4.554v4.3h-5.036v4.4h-.091c-6.5,2.41-19.912.42-19.912.42,1.119,1.479,3.631,2.547,6.83,3.308a16.542,16.542,0,0,0,7.678,2.9c3.4,3.238,9.962,4.349,9.962,4.349v4.3h-5.04v4.4h-.052c-6.723,2.492-20.587.44-20.587.44,1.158,1.531,3.752,2.63,7.062,3.419a17.087,17.087,0,0,0,7.779,2.979c2.909,2.7,8.663,3.941,10.347,4.255v4.191H615.9v4.4h-.1a27.739,27.739,0,0,1-8.527,1.258c-3.718-7.4-9.156-13.243-17.069-13.243-11.723,0-18.02,12.822-21.328,24.55h-3.318v-3.93a.488.488,0,0,0-.174-.64v-6.75s-.028-17.87-15.413-24.218v-2.888l-2.418-3.057v-3.358a.534.534,0,0,1,.572-.522v-.806l.756-1.629v-1.224a1.848,1.848,0,0,0-1.949-1.395v-.531l-1.989-2.567v-1.915a3.408,3.408,0,0,0,.906-1.914v-.556l-3.083-11.713a1.344,1.344,0,0,0,.335-.869h1.5a.152.152,0,0,0,.15-.15v-.587a.578.578,0,0,0,.206-.471.188.188,0,0,0,.143-.206s.066-.747-.5-.747-.5.747-.5.747a.187.187,0,0,0,.142.206.578.578,0,0,0,.207.471v.435h-1.35a2.338,2.338,0,0,1,.052-.906l0,0c.041-.072.482-.906.061-1.267a.715.715,0,0,0-.446.169,3.04,3.04,0,0,0-1.36-1.384.672.672,0,0,0-.137-.633s.234-.546,0-.84c0,0,.168-.395,0-.562,0,0,.016-.554-.236-.554s-.236.554-.236.554c-.168.168,0,.563,0,.563-.234.294,0,.84,0,.84a.672.672,0,0,0-.137.633,3.043,3.043,0,0,0-1.36,1.384.713.713,0,0,0-.445-.169c-.421.361.02,1.2.06,1.267l0,0a2.355,2.355,0,0,1,.052.906h-1.349v-.435a.58.58,0,0,0,.2-.471.188.188,0,0,0,.144-.206s.066-.747-.5-.747-.5.747-.5.747a.188.188,0,0,0,.143.206.58.58,0,0,0,.205.471v.587a.152.152,0,0,0,.151.15h1.5a1.344,1.344,0,0,0,.335.869l-3.082,11.713v.556a3.408,3.408,0,0,0,.906,1.914v1.915l-1.989,2.567v.531a1.847,1.847,0,0,0-1.948,1.395v1.224l.755,1.629v.806a.536.536,0,0,1,.572.522v3.358l-2.418,3.057v2.888c-15.385,6.348-15.413,24.218-15.413,24.218v6.75a.489.489,0,0,0-.174.64v3.93h-3.861l-.538,3.659H508.4l-.671,6.046H504l-.411,7.622h-5.524v-.213a9.894,9.894,0,0,1-1.124-4.918v-7.594h-.069s-.409-27.077-.409-37.164h1.6V573.24l.11-.012c.413-.052,1.856-.284,2.208-.991l-4.158-.995s-.078-5.246-.135-12.356h20.365V553.7c.83-.038,1.25-.065,1.25-.065v-1.322s-6.316.358-18.325.655v-.978s.85.215.679-.577l-4.014-2.149v0q-.006-1.35,0-2.71H497.6v-2.727c13.42-.589,19.7-1.382,19.7-1.382l1.481-5.15s2.3-.16,3.764-.392l2.523-2.675s4-.539,5.11-2.046v-4.669c2.2-1.542,3.2-5.311,3.2-5.311s-9.536,7.18-67.376,7.18-67.377-7.18-67.377-7.18,1,3.769,3.2,5.311v4.669c1.108,1.508,5.109,2.046,5.109,2.046l2.523,2.675c1.463.232,3.764.392,3.764.392l1.48,5.15s6.279.793,19.7,1.382v2.727h1.558q0,1.357,0,2.71v0l-4.014,2.149c-.172.792.679.577.679.577v.978c-12.009-.3-18.324-.655-18.324-.655v1.322s.42.026,1.251.065v5.182H435.9c-.057,7.11-.135,12.356-.135,12.356l-4.157.995c.348.706,1.787.939,2.2.991l.115.012v2.153h1.6c0,6.6-.175,20.48-.3,29.284H406.4V585.4a.661.661,0,0,1-.36-.632v-13.94c0-1.888-.873-2.749-.927-3.437s.49-1.378-1.03-2.123-1.137-1.889-1.137-1.889a1.364,1.364,0,0,0-1.142-1.5V559.77H398c-.378-.688-3.476-.574-3.476-.574a4.985,4.985,0,0,1-3.205-1.03v-.751h-6.946v.8l-2.177-.006c-3.853,0-2.937,3.335-4.693,1.042S374,557.188,374,557.188V542.217h.759V539.81h-2.386v-5.622a.809.809,0,0,0-.006-.114,5.124,5.124,0,0,0-.054-.724l.005.081c-.005-.023-.005-.051-.01-.086a.154.154,0,0,0-.006-.052v-.028a.155.155,0,0,1-.006-.034,21.537,21.537,0,0,0-3.755-9.662c-.005-.016-.005-.04-.011-.057a.3.3,0,0,0-.135-.143,15.388,15.388,0,0,0-2.117-2.254.291.291,0,0,0-.08-.1c-.028-.023-.147-.114-.329-.239a13.6,13.6,0,0,0-1.945-1.3.243.243,0,0,0-.129-.07,17.421,17.421,0,0,0-15.389,0,.248.248,0,0,0-.129.07,13.676,13.676,0,0,0-1.945,1.3c-.183.125-.3.216-.329.239a.227.227,0,0,0-.075.1,15.507,15.507,0,0,0-2.123,2.254.316.316,0,0,0-.135.143c0,.017,0,.04-.009.057a21.552,21.552,0,0,0-3.756,9.662v.006l-.006.028c0,.028,0,.057,0,.08s-.005.063-.011.086l-.065.524-.032.279v5.576h-2.393v2.407h.766v16.638H327.068v-1.149a11.362,11.362,0,0,0-3.745,0c-2.009.341-1.417.911-2.069,1.149v.739h-3.8s-.323.4-.652.4a24.019,24.019,0,0,1-2.845,0c-1.061-.1-1.837.079-1.837.546,0,0-.944,1.422-1.509,1.547a4.312,4.312,0,0,0-2,3.414,3.284,3.284,0,0,1-1.088,3.045,2.763,2.763,0,0,0-1.143,2.008c0,.626.49,1.258-.49,1.548s-.867.745-.975,1.6-1.417,2.578-2.5,2.578-.873,1.434-.873,1.434h-.791v.763h-2.032a1.057,1.057,0,0,1-.576-.643H284.867v-.688s-1.3-.177-1.3.341l-.652.29H267.275V564.716a1.021,1.021,0,0,0-.738-.951c-.727-.211-1.3-.473-1.3-.859s-.076-.768-.809-.768-2.242.12-2.609.039-1.551.211-1.627.518-1.875.729-2.123.729-.809,0-.809.688v61.17h-22.72a11.437,11.437,0,0,0-11.409,10.711h-.189V698.9H709.408v-62.17h.152ZM312.622,617.513v-10.06h3.207v10.06Zm16.6.24v-9.81h3.033v9.81ZM345.033,526a13.1,13.1,0,0,1,.4,1.679,22.978,22.978,0,0,0-2.657,4.506c-.237.063-.468.131-.684.2A26.049,26.049,0,0,1,345.033,526Zm-2.682,4.125c.1-.4.22-.819.361-1.257.162-.234.327-.473.506-.712C342.878,528.844,342.592,529.511,342.35,530.126Zm1.067-3.113a16.373,16.373,0,0,1,1.137-2.167c.086.164.172.341.253.529l-.13.187C344.219,526.041,343.8,526.53,343.417,527.013Zm12.431-6.765v.267a15.008,15.008,0,0,0-5.754,1.212c-.1-.2-.2-.4-.314-.591a11.645,11.645,0,0,1,4.2-1.611A6.716,6.716,0,0,1,355.848,520.248Zm-.437-.882.437-.017v.234C355.7,519.5,355.556,519.433,355.411,519.365Zm5.55,16.286v2.122h-2.009v-2.122Zm-.566-5.571c-.549-2.288-1.579-5.132-3.437-6.6a7.2,7.2,0,0,1,3.858,2.4A28.6,28.6,0,0,0,360.395,530.08Zm9.7,2.321c-.216-.069-.447-.136-.684-.2a22.624,22.624,0,0,0-2.663-4.518,13.328,13.328,0,0,1,.4-1.679A26.238,26.238,0,0,1,370.1,532.4Zm-2.716-7.027a5.844,5.844,0,0,1,.275-.558c.248.4.49.826.717,1.269.166.335.323.671.462,1.007a19.835,19.835,0,0,0-1.33-1.53C367.47,525.5,367.426,525.437,367.383,525.375Zm1.589,2.782c.189.256.372.512.539.768.14.449.263.882.366,1.291C369.63,529.579,369.328,528.885,368.973,528.157ZM368.93,538.8v-1.917h1.2V538.8Zm1.2,1.013v3.636h-1.2v-3.636Zm-4.143-1.552V536.34h1.605v1.923Zm1.605,1.006v3.636h-1.605v-3.636Zm-1.244-7.681c.043-.917.124-2.049.286-3.17a22.09,22.09,0,0,1,2.143,3.62C368.024,531.861,367.2,531.713,366.344,531.588Zm0-4.422a16.81,16.81,0,0,0-1.277-1.4c.032-.517.086-1.024.162-1.508a18.479,18.479,0,0,1,1.535,1.338A14.354,14.354,0,0,0,366.344,527.167Zm-.129.7a30.4,30.4,0,0,0-.372,3.648c-.173-.028-.351-.052-.529-.074a35.184,35.184,0,0,1-.28-4.928A16.062,16.062,0,0,1,366.215,527.872Zm-.8,34.386V575.2H360.96V562.258Zm-4.451,22.72h4.451v12.933H360.96Zm-.976-30.5v-3.955h3.746v3.955Zm4.925-31.158a15.87,15.87,0,0,0-2.333-1.366c.086-.177.178-.352.275-.518a13.737,13.737,0,0,1,2.085,1.759A.837.837,0,0,0,364.91,523.315Zm-.129.607c-.081.451-.14.923-.183,1.4a13.732,13.732,0,0,0-2.63-1.894c.108-.325.232-.638.361-.945A15.3,15.3,0,0,1,364.781,523.922Zm-.226,2.118a32.8,32.8,0,0,0,.237,5.285,22.243,22.243,0,0,0-3.411-5.667c.113-.558.248-1.121.409-1.662A13.581,13.581,0,0,1,364.555,526.041Zm-.345,5.28c-1.137-.119-2.273-.211-3.319-.279a30.106,30.106,0,0,1,.356-4.661A22.376,22.376,0,0,1,364.21,531.32Zm-3.249,7.573v4.012h-2.009v-4.012Zm-.6,68.667a1.78,1.78,0,0,0,1.137,1.616v12.786H350.642V609.177a1.782,1.782,0,0,0,1.143-1.616Zm-13.633-9.65V584.977h4.456v12.933Zm.9-71.876a13.816,13.816,0,0,1,2.764-2.042c.162.546.3,1.1.409,1.667a22.273,22.273,0,0,0-3.41,5.667A32.927,32.927,0,0,0,347.635,526.035Zm3.3.346a30.038,30.038,0,0,1,.361,4.661c-1.046.063-2.182.154-3.319.273A22.634,22.634,0,0,1,350.939,526.38Zm2.252,9.271v2.122h-2v-2.122Zm-1.816-9.77a7.2,7.2,0,0,1,3.857-2.4c-1.858,1.469-2.888,4.313-3.437,6.6A27.893,27.893,0,0,0,351.375,525.881Zm1.816,13.012v4.012h-2v-4.012Zm-4.774,11.625h3.746v3.955h-3.746Zm5.426,47.392V584.977H358.3v12.933ZM358.3,575.2h-4.456V562.258H358.3Zm-.349-20.723h-3.756v-3.955h3.756Zm-.873-11.568h-2.011v-4.012h2.011ZM352.12,531c.505-2.413,1.583-5.86,3.728-7.255v7.125C355.314,530.871,353.9,530.9,352.12,531Zm-.879-5.809c-.1-.483-.226-.968-.372-1.44a11.519,11.519,0,0,1,4.979-1.218v.268A6.989,6.989,0,0,0,351.24,525.186Zm-.549-2c-.108-.314-.227-.614-.356-.911a14.521,14.521,0,0,1,5.513-1.148v.8A11.853,11.853,0,0,0,350.691,523.184Zm-.831-.7c.13.307.254.62.362.945a13.729,13.729,0,0,0-2.63,1.894c-.043-.478-.1-.951-.183-1.4A15.353,15.353,0,0,1,349.86,522.484Zm-2.58.831c-.005-.046-.022-.086-.027-.125a14,14,0,0,1,2.085-1.759c.1.166.189.341.275.518A15.941,15.941,0,0,0,347.28,523.315Zm3.906,38.942V575.2H346.73V562.258Zm-4.311-30.817c-.178.023-.356.045-.527.074a30.619,30.619,0,0,0-.372-3.647,15.729,15.729,0,0,1,1.18-1.354A35.274,35.274,0,0,1,346.875,531.44Zm-2.316,7.828h1.6v3.636h-1.6Zm-1.137-7.242a22,22,0,0,1,2.139-3.614c.161,1.121.242,2.259.285,3.17C344.99,531.707,344.172,531.855,343.422,532.027Zm1.137,6.236V536.34h1.6v1.923Zm1.287-11.1a14.333,14.333,0,0,0-.42-1.57,18.482,18.482,0,0,1,1.536-1.338c.075.484.129.991.161,1.508A16.943,16.943,0,0,0,345.846,527.167Zm-2.635,9.718V538.8h-1.191v-1.917Zm0,2.931v3.636h-1.191v-3.636ZM380.6,617.41v-9.121h3.039v9.121Zm59.415-67.07,2.821,1.4v.435h-2.816C440.015,551.568,440.015,550.956,440.01,550.34Zm1.441,67.07v-9.121h3.034v9.121Zm50.522-65.235h-2.812v-.435l2.815-1.395C491.976,550.96,491.976,551.568,491.973,552.175ZM635.6,610.961v7.826h-2.618v-7.826Zm-4.538-78.611a1.63,1.63,0,0,1,3.057,0v1.067h-3.057Zm-.2,18.083a1.839,1.839,0,0,1,3.45,0v1.2h-3.45Zm-.2,19.539a2.05,2.05,0,0,1,3.843,0v1.342h-3.843Zm-.2,19.543a2.26,2.26,0,0,1,4.236,0v1.479h-4.236Zm-.891,21.446h2.615v7.826h-2.615Zm-19.621-8.5h0a22.9,22.9,0,0,0,7.253,4.235v13.258h-3.082a95.547,95.547,0,0,0-4.37-17.524C609.829,602.443,609.891,602.454,609.957,602.463Zm-19.745-1.531c8.492,0,14.773,18.688,16.482,24.35H578.5l-.41-7.622h-1.7C579.358,610.192,584.243,600.932,590.212,600.932ZM498.868,551.74v.435h-2.82c0-.607,0-1.219,0-1.835Zm-28.4-7.3c7.626-.034,14.265-.168,19.959-.349v2.459h1.558q0,1.357,0,2.71v0l-4.015,2.149c-.172.792.683.577.683.577v1.189q-8.045.13-18.181.164Zm21.468,14.441c-.053,7.11-.131,12.356-.131,12.356l-4.165.995c.372.754,1.995.969,2.277,1a.287.287,0,0,0,.041,0v2.153h1.6c0,10.087-.409,37.164-.409,37.164h-.065v7.594a9.894,9.894,0,0,1-1.124,4.918v.213H451.742V608.2h.491v-2.925a.939.939,0,0,0-.733-.6.978.978,0,0,0-1.314,0h-9.453c-.121-8.8-.3-22.682-.3-29.284h1.6V573.24a.286.286,0,0,0,.041,0c.282-.03,1.9-.246,2.277-1l-4.166-.995s-.077-5.246-.131-12.356Zm-50.371-12.331V544.1c5.694.181,12.333.315,19.96.349v8.9q-10.13-.026-18.182-.164v-1.189s.855.215.682-.577l-4.015-2.149v0q-.006-1.35,0-2.71Zm-8.441,5.62v-.435l2.82-1.395c0,.615,0,1.223,0,1.83Zm-.419,56.114h2.479c-.037,2.624-.062,4.268-.062,4.268h-.07v4.853H432.7Zm-9.5,0h3.039v9.121H423.2Zm-4.375,0h3.034v9.121h-3.034Zm-4.375,0h3.034v9.121H414.45Zm-9.165,0h3.038v9.121h-3.038Zm-1.342,0v9.121h-3.034v-9.121Zm-6-41.781h3.207v9.69h-3.207Zm0,21.28h3.207v9.684h-3.207Zm1.622,20.5v9.121h-3.034v-9.121Zm-6.235-41.781h3.2v9.69h-3.2Zm0,21.28h3.2v9.684h-3.2ZM388,617.41h-3.033v-9.121H388Zm-5.889-50.9h3.2v9.69h-3.2Zm0,21.28h3.2v9.684h-3.2Zm-4.612-21.28h3.2v9.69h-3.2Zm0,21.28h3.2v9.684h-3.2Zm-1.277,20.5h3.034v9.121h-3.034Zm-5.394-75.609a22.612,22.612,0,0,0-.414-2.3,20.074,20.074,0,0,1,1.358,2.828A3.952,3.952,0,0,0,370.832,532.68Zm-2.57-8.632a17.741,17.741,0,0,1,1.164,1.826,21.031,21.031,0,0,1,1.978,5.234,24.809,24.809,0,0,0-1.492-2.548,18.867,18.867,0,0,0-1.945-4.2A2.311,2.311,0,0,1,368.262,524.049Zm-2.155-2.373a14.144,14.144,0,0,1,1.81,1.924,3.12,3.12,0,0,0-.263.284,14.325,14.325,0,0,0-1.666-2.014C366.026,521.8,366.069,521.738,366.107,521.676Zm1.234,2.647a5.375,5.375,0,0,0-.291.562,19.241,19.241,0,0,0-1.536-1.894,5.851,5.851,0,0,1,.226-.626A13.185,13.185,0,0,1,367.341,524.323Zm-1.665-2.971c-.027.046-.049.1-.075.142-.265-.239-.534-.472-.82-.694C365.174,521.021,365.482,521.22,365.675,521.352Zm-2.236-.819a12.154,12.154,0,0,1,1.908,1.451c-.08.194-.161.393-.231.6a13.856,13.856,0,0,0-1.962-1.645C363.246,520.794,363.343,520.662,363.439,520.532Zm-2.241-1.047a12.185,12.185,0,0,1,1.767.785c-.086.12-.172.239-.253.369a12.145,12.145,0,0,0-2.673-1.28A8.79,8.79,0,0,1,361.2,519.486Zm-4.855-.814a17.828,17.828,0,0,1,2.177.164c-.108.024-.222.04-.334.069a12.741,12.741,0,0,0-1.843-.166Zm0,.677.436.017c-.145.068-.291.137-.436.211Zm0,.9a6.628,6.628,0,0,1,1.869-.723,11.568,11.568,0,0,1,4.192,1.611c-.108.193-.21.393-.307.591a15.015,15.015,0,0,0-5.754-1.212Zm0,.877a14.514,14.514,0,0,1,5.512,1.148c-.129.3-.248.6-.356.911a11.861,11.861,0,0,0-5.156-1.263Zm0,1.4a11.538,11.538,0,0,1,4.978,1.218c-.145.479-.269.956-.371,1.44a6.991,6.991,0,0,0-4.607-2.389Zm0,1.212c2.145,1.395,3.222,4.842,3.729,7.255-1.756-.1-3.163-.125-3.729-.137Zm.733,11.91v2.122h-2.011v-2.122Zm-1.228-16.979v.067a12.126,12.126,0,0,0-1.843.166c-.113-.029-.226-.046-.34-.069A16.524,16.524,0,0,1,355.848,518.672Zm-4.737.791a8.646,8.646,0,0,1,1.04-.1,12.222,12.222,0,0,0-2.667,1.28c-.076-.119-.162-.234-.243-.341A12.734,12.734,0,0,1,351.111,519.462Zm-2.333,1.1c.086.12.172.245.253.37a14.826,14.826,0,0,0-1.956,1.645c-.065-.193-.139-.381-.215-.557A11.894,11.894,0,0,1,348.778,520.566Zm-1.363.234c-.292.222-.56.455-.825.694-.027-.046-.049-.1-.076-.142C346.708,521.22,347.016,521.021,347.415,520.8Zm-.949,1.6c.075.181.145.382.21.586a19.049,19.049,0,0,0-1.536,1.894,4.746,4.746,0,0,0-.275-.529A13.9,13.9,0,0,1,346.467,522.4Zm-.383-.729c.038.063.081.125.119.194a14.234,14.234,0,0,0-1.665,2.014,3.206,3.206,0,0,0-.264-.284A14.115,14.115,0,0,1,346.084,521.676Zm-3.319,4.2a17.742,17.742,0,0,1,1.163-1.826,2.313,2.313,0,0,1,.3.308,18.921,18.921,0,0,0-1.945,4.2,24.674,24.674,0,0,0-1.492,2.548A21.006,21.006,0,0,1,342.765,525.875Zm-.991,4.507a21.148,21.148,0,0,0-.416,2.276,4.55,4.55,0,0,0-.927.5A20.781,20.781,0,0,1,341.774,530.382Zm-8.024,35.7h3.206v10.55H333.75Zm0,21.281h3.206v10.549H333.75Zm-.156,20.581h3.039v9.81h-3.039Zm-4.457-41.862h3.2v10.55h-3.2Zm0,21.281h3.2v10.549h-3.2Zm-1.261,30.391h-3.034v-9.81h3.034Zm-3.362-51.672h3.206v10.55h-3.206Zm0,21.281h3.206v10.549h-3.206Zm-7.985-21.281h3.211v10.55h-3.211Zm-.7,21.281v10.549h-3.207V587.361Zm-3.911-21.281h3.206v10.55h-3.206Zm-3.912,21.281h3.206v10.549h-3.206Zm0,20.092h3.206v10.06h-3.206Zm-4.612-20.092h3.2v10.549h-3.2Zm0,20.092h3.2v10.06h-3.2Zm-6.509-20.092h2.867v10.549h-2.867Zm0,20.45h2.867v10.054h-2.867Zm-4.133-20.45h2.867v10.549h-2.867Zm0,20.45h2.867v10.054h-2.867Zm-4.133-20.45h2.867v10.549h-2.867Zm0,20.45h2.867v10.054h-2.867Zm-9.942-20.45h3.211v10.549h-3.211Zm0,20.45h3.211v10.054h-3.211Zm-4.611-20.45h3.2v10.549h-3.2Zm0,20.45h3.2v10.054h-3.2Zm-4.618-20.45h3.207v10.549h-3.207Zm0,20.45h3.207v10.054h-3.207Zm-7.824-41.731h1.67v10.55h-1.67Zm0,21.281h1.67v10.549h-1.67Zm0,21.241h1.67v9.748h-1.67Zm-2.4-42.522h1.665v10.55H259.22Zm0,21.281h1.665v10.549H259.22Zm0,21.241h1.665v9.748H259.22Z" transform="translate(-282.671 23.826)" fill="#1f2b5d"/>
        <g id="グループ_210" data-name="グループ 210" transform="translate(252.328 345.775) rotate(7)">
          <g id="グループ_204" data-name="グループ 204" transform="translate(14.582 67.26)">
            <path id="パス_424" data-name="パス 424" d="M25.063,27.983c8.593-10.617,10.1-23.643,6.074-26.9S14.684,2.01,6.091,12.628A28.111,28.111,0,0,0,.812,23.822c.509.126,1.035.258,1.563.392A45.733,45.733,0,0,0,.017,39.53a45.741,45.741,0,0,0,13.818-5.106c.184.461.373.934.572,1.428A28.62,28.62,0,0,0,25.063,27.983Z" transform="translate(0 0)" fill="#db520d"/>
            <path id="パス_425" data-name="パス 425" d="M14.548,16.482C9.184,23.109.011,24.576.011,24.576S-.467,15.3,4.9,8.67,16.921-1.458,19.435.577,19.912,9.855,14.548,16.482Z" transform="translate(5.854 7.729)" fill="#f1831b"/>
            <path id="パス_426" data-name="パス 426" d="M7.935,8.99C5.009,12.6.006,13.4.006,13.4S-.255,8.344,2.671,4.73,9.23-.8,10.6.315,10.861,5.375,7.935,8.99Z" transform="translate(10.273 13.445)" fill="#f7a928"/>
          </g>
          <path id="パス_427" data-name="パス 427" d="M59.9,59.468C44.318,78.715,27.82,89.755,16.433,92.185c-2.725.581-7.832-3.077-9.76-4.637C4.647,85.908.013,81.516,0,78.55-.049,66.868,7.654,48.658,23.045,29.642,42.263,5.9,69.221-4.142,76.267,1.562,83.164,7.144,79.114,35.724,59.9,59.468Z" transform="translate(23.448 0.062)" fill="#e8e7e7"/>
          <path id="パス_428" data-name="パス 428" d="M10.586,29.263C-.6,20.21-1.191,13,1.04,10.246c.907-1.12,24.184-14.879,31.915-8.622S32.226,33.186,31.2,34.453C28.707,37.533,21.772,38.316,10.586,29.263Z" transform="translate(66.76 0)" fill="#2095a7"/>
          <path id="パス_429" data-name="パス 429" d="M31.142,22.661a48.33,48.33,0,0,1-14.708,6.382c-2.725.581-7.832-3.077-9.76-4.637-2.027-1.64-6.661-6.033-6.673-9A44.858,44.858,0,0,1,3.144,0s.063,6.587,10.665,15.167S31.142,22.661,31.142,22.661Z" transform="translate(23.448 63.205)" fill="#1f2b5d"/>
          <path id="パス_430" data-name="パス 430" d="M69.594,0c6.9,5.582,2.847,34.162-16.371,57.906C37.645,77.153,21.147,88.193,9.76,90.623,7.035,91.2,1.928,87.546,0,85.986c0,0,18.662-5.116,43.571-35.891S69.594,0,69.594,0Z" transform="translate(30.121 1.625)" fill="#1b1311" opacity="0.05"/>
          <g id="グループ_205" data-name="グループ 205" transform="translate(0 45.714)">
            <path id="パス_431" data-name="パス 431" d="M35.173,0,26.991,17.193S8.107,26.9,0,34.012C16.611,9.674,18.636,4.993,35.173,0Z" transform="translate(1.734 5.034)" fill="#15717f"/>
            <path id="パス_432" data-name="パス 432" d="M0,34.013C16.611,9.675,18.636,4.993,35.173,0l1.734,5.034C20.37,10.027,18.345,14.708,1.734,39.046Z" transform="translate(0 0)" fill="#2095a7"/>
          </g>
          <g id="グループ_206" data-name="グループ 206" transform="translate(38.802 73.273)">
            <path id="パス_433" data-name="パス 433" d="M25.936,0,10.825,11.585S5.265,32.077,0,41.488C20.342,20.171,24.5,17.213,25.936,0Z" transform="translate(0 0)" fill="#15717f"/>
            <path id="パス_434" data-name="パス 434" d="M5.285,42.135C25.627,20.818,29.784,17.861,31.22.647L25.936,0C24.5,17.213,20.342,20.171,0,41.488Z" transform="translate(0 0)" fill="#2095a7"/>
          </g>
          <g id="グループ_209" data-name="グループ 209" transform="translate(41.9 34.787)">
            <g id="グループ_207" data-name="グループ 207" transform="translate(9.419 0)">
              <path id="パス_435" data-name="パス 435" d="M4.031.817A.6.6,0,0,0,3.807.552a2.566,2.566,0,0,0-.86-.463,2.033,2.033,0,0,0-.861-.07,2.081,2.081,0,0,0-.8.293,2.6,2.6,0,0,0-.68.614A2.8,2.8,0,0,0,.1,1.876a2.34,2.34,0,0,0-.082.963,2.305,2.305,0,0,0,.314.894A2.745,2.745,0,0,0,1,4.481a3.2,3.2,0,0,0,1.019.56,2.375,2.375,0,0,0,1,.1,2.327,2.327,0,0,0,.924-.326,2.965,2.965,0,0,0,.78-.7,3.848,3.848,0,0,0,.327-.49A3.545,3.545,0,0,0,5.3,3.085a2.72,2.72,0,0,0,.139-.564,1.835,1.835,0,0,0-.009-.561l-.019-.111L4.9,1.861c-.187,0-.34.125-.375.409a2.845,2.845,0,0,1-.058.32A2.811,2.811,0,0,1,4.334,3a1.978,1.978,0,0,1-.289.476A1.756,1.756,0,0,1,3.58,3.9a1.221,1.221,0,0,1-.525.173A1.458,1.458,0,0,1,2.459,4,2.2,2.2,0,0,1,1.9,3.708L3.952,1.114A.318.318,0,0,0,4.031.817ZM1.315,3.179A1.419,1.419,0,0,1,.975,2.4a1.341,1.341,0,0,1,.338-.94A1.359,1.359,0,0,1,1.7,1.115,1.014,1.014,0,0,1,2.112.98a1.048,1.048,0,0,1,.436.055,1.4,1.4,0,0,1,.331.166Z" transform="translate(0 24.271)" fill="#666767"/>
              <path id="パス_436" data-name="パス 436" d="M4.439,2.338a.423.423,0,0,0-.084.272,2.563,2.563,0,0,1-.017.272,1.588,1.588,0,0,1-.087.352,1.58,1.58,0,0,1-.261.436,1.425,1.425,0,0,1-.442.382,1.151,1.151,0,0,1-.51.138,1.5,1.5,0,0,1-.583-.108,2.439,2.439,0,0,1-.639-.376,2.53,2.53,0,0,1-.5-.518,1.469,1.469,0,0,1-.245-.54A1.148,1.148,0,0,1,1.083,2.1a1.546,1.546,0,0,1,.292-.556,1.579,1.579,0,0,1,.318-.316,1.869,1.869,0,0,1,.289-.169A2.4,2.4,0,0,1,2.213.967.385.385,0,0,0,2.5.648.5.5,0,0,0,2.487.5L2.37,0,2.25.019A2.448,2.448,0,0,0,1.382.33a2.765,2.765,0,0,0-.761.684A2.9,2.9,0,0,0,.1,1.991a2.278,2.278,0,0,0-.073.975,2.327,2.327,0,0,0,.343.905,3.087,3.087,0,0,0,.706.774,3.044,3.044,0,0,0,.974.533,2.391,2.391,0,0,0,.96.108A2.2,2.2,0,0,0,3.884,5a2.556,2.556,0,0,0,.727-.637,3.347,3.347,0,0,0,.544-.987A2.1,2.1,0,0,0,5.242,2.3l-.02-.11-.5.012A.324.324,0,0,0,4.439,2.338Z" transform="translate(4.215 18.831)" fill="#666767"/>
              <rect id="長方形_235" data-name="長方形 235" width="1.172" height="7.245" transform="translate(6.063 14.9) rotate(-51.673)" fill="#666767"/>
              <path id="パス_437" data-name="パス 437" d="M4.031.817A.6.6,0,0,0,3.808.552a2.569,2.569,0,0,0-.86-.463,2.017,2.017,0,0,0-.86-.07,2.085,2.085,0,0,0-.8.293A2.607,2.607,0,0,0,.608.925,2.808,2.808,0,0,0,.1,1.877,2.278,2.278,0,0,0,.332,3.733,2.759,2.759,0,0,0,1,4.481a3.211,3.211,0,0,0,1.019.56,2.391,2.391,0,0,0,1,.1,2.326,2.326,0,0,0,.923-.327,2.941,2.941,0,0,0,.78-.7,3.755,3.755,0,0,0,.328-.49A3.584,3.584,0,0,0,5.3,3.085a2.769,2.769,0,0,0,.139-.564,1.841,1.841,0,0,0-.009-.562l-.019-.111L4.9,1.861c-.187,0-.34.125-.375.409a3.13,3.13,0,0,1-.058.32A2.868,2.868,0,0,1,4.335,3a1.95,1.95,0,0,1-.289.476,1.756,1.756,0,0,1-.464.422,1.235,1.235,0,0,1-.525.173A1.459,1.459,0,0,1,2.46,4,2.234,2.234,0,0,1,1.9,3.708L3.953,1.114A.318.318,0,0,0,4.031.817ZM1.315,3.179A1.419,1.419,0,0,1,.975,2.4a1.344,1.344,0,0,1,.339-.94A1.355,1.355,0,0,1,1.7,1.114,1.024,1.024,0,0,1,2.113.98a1.06,1.06,0,0,1,.436.054,1.444,1.444,0,0,1,.33.167Z" transform="translate(11.006 10.347)" fill="#666767"/>
              <path id="パス_438" data-name="パス 438" d="M4.439,2.338a.422.422,0,0,0-.084.272,2.538,2.538,0,0,1-.017.271,1.6,1.6,0,0,1-.087.353,1.582,1.582,0,0,1-.261.436,1.429,1.429,0,0,1-.442.381,1.156,1.156,0,0,1-.511.138,1.525,1.525,0,0,1-.583-.108,2.462,2.462,0,0,1-.639-.376,2.531,2.531,0,0,1-.5-.518,1.477,1.477,0,0,1-.245-.54A1.157,1.157,0,0,1,1.084,2.1a1.542,1.542,0,0,1,.293-.556,1.559,1.559,0,0,1,.318-.316,1.916,1.916,0,0,1,.289-.17,2.326,2.326,0,0,1,.23-.092A.387.387,0,0,0,2.5.648.529.529,0,0,0,2.488.494L2.37,0,2.251.019a2.456,2.456,0,0,0-.868.31,2.777,2.777,0,0,0-.761.684A2.879,2.879,0,0,0,.1,1.991a2.263,2.263,0,0,0-.074.974,2.353,2.353,0,0,0,.343.906,3.119,3.119,0,0,0,.707.774,3.054,3.054,0,0,0,.973.533,2.392,2.392,0,0,0,.96.108A2.2,2.2,0,0,0,3.885,5a2.571,2.571,0,0,0,.727-.637,3.374,3.374,0,0,0,.544-.987A2.115,2.115,0,0,0,5.243,2.3l-.02-.11-.5.012A.324.324,0,0,0,4.439,2.338Z" transform="translate(15.221 4.907)" fill="#666767"/>
              <path id="パス_439" data-name="パス 439" d="M5.706,2.6a.28.28,0,0,0-.253.1.3.3,0,0,0-.059.166c0,.04-.009.087-.018.141a1.036,1.036,0,0,1-.046.168.652.652,0,0,1-.105.18.449.449,0,0,1-.286.181.467.467,0,0,1-.35-.128L2.432,1.7,3.351.542,2.665,0,1.746,1.162.448.136.081.6A.35.35,0,0,0,0,.823a.309.309,0,0,0,.086.214L1.05,2.047l-.456.741.356.281a.291.291,0,0,0,.255.067A.339.339,0,0,0,1.4,3.01l.3-.386,2.2,1.741A1.343,1.343,0,0,0,4.928,4.7a1.434,1.434,0,0,0,.919-.591A2.193,2.193,0,0,0,6.2,3.462a1.843,1.843,0,0,0,.108-.693L6.3,2.655Z" transform="translate(18.077 0)" fill="#666767"/>
            </g>
            <g id="グループ_208" data-name="グループ 208" transform="translate(0 29.018)">
              <path id="パス_440" data-name="パス 440" d="M4.04.651,2.4,1.3h0L.765,1.952.51,3.7h0L.255,5.439,0,7.183,1.382,8.276,2.765,9.368l1.382,1.093L5.785,9.81l1.637-.651,1.637-.651L7.677,7.416,6.04,8.067,4.4,8.717,3.02,7.625,1.637,6.532l1.638-.651L4.912,5.23l.255-1.743L3.53,4.138l-1.638.651.255-1.744h0l1.638-.651,1.637-.651L5.678,0Z" transform="translate(0 0.003)" fill="#004e60"/>
              <path id="パス_441" data-name="パス 441" d="M1.9,2.836l.255-1.744L.77,0,.515,1.744l0,0,0,0L.26,3.487l0,0,0,0L0,5.23l0,0L1.382,6.325,2.765,7.418,4.147,8.51l0,0,.255-1.743.255-1.744.255-1.743L3.535,2.185,3.279,3.929l0,0,0,0L3.024,5.672,1.642,4.58Z" transform="translate(4.91 0)" fill="#a9a9a8"/>
            </g>
          </g>
        </g>
      </g>
      <g id="logo" transform="translate(-375.443 -98.118)">
        <circle id="楕円形_6" data-name="楕円形 6" cx="80" cy="80" r="80" transform="translate(483.443 332.118)" fill="#004e60"/>
        <g id="グループ_213" data-name="グループ 213" transform="translate(531.947 366.55)">
          <g id="グループ_211" data-name="グループ 211" transform="translate(0.001 77.777)">
            <path id="パス_538" data-name="パス 538" d="M557.489,493.433a1.074,1.074,0,0,0,.125-.613,4.639,4.639,0,0,0-.307-1.732,3.648,3.648,0,0,0-.862-1.3,3.765,3.765,0,0,0-1.305-.8,4.71,4.71,0,0,0-1.627-.275,5.072,5.072,0,0,0-1.911.346,4.108,4.108,0,0,0-2.364,2.4,4.983,4.983,0,0,0-.314,1.775,5.753,5.753,0,0,0,.347,2.065,4.279,4.279,0,0,0,.979,1.531,4.177,4.177,0,0,0,1.492.941,5.321,5.321,0,0,0,1.863.318,6.765,6.765,0,0,0,1.058-.084,6.407,6.407,0,0,0,1.038-.253,4.955,4.955,0,0,0,.952-.435,3.3,3.3,0,0,0,.782-.64l.135-.151-.584-.7c-.2-.267-.557-.339-1-.071-.137.084-.311.176-.517.275a5.183,5.183,0,0,1-.734.272,3.534,3.534,0,0,1-1,.123,3.151,3.151,0,0,1-1.113-.186,2.208,2.208,0,0,1-.832-.548,2.623,2.623,0,0,1-.556-.929,4,4,0,0,1-.215-1.109h5.956A.574.574,0,0,0,557.489,493.433Zm-6.371-1.2a2.553,2.553,0,0,1,.725-1.354,2.41,2.41,0,0,1,1.706-.573,2.443,2.443,0,0,1,.911.159,1.838,1.838,0,0,1,.657.438,1.907,1.907,0,0,1,.409.676,2.561,2.561,0,0,1,.134.654Z" transform="translate(-548.924 -484.926)" fill="#fff"/>
            <path id="パス_539" data-name="パス 539" d="M572.477,495.59a.761.761,0,0,0-.479.184,4.587,4.587,0,0,1-.4.279,2.915,2.915,0,0,1-.6.271,2.884,2.884,0,0,1-.907.118,2.565,2.565,0,0,1-1.033-.2,2.076,2.076,0,0,1-.765-.567,2.722,2.722,0,0,1-.5-.944,4.407,4.407,0,0,1-.182-1.324,4.557,4.557,0,0,1,.17-1.29,2.651,2.651,0,0,1,.49-.95,2.091,2.091,0,0,1,.79-.587,2.793,2.793,0,0,1,1.112-.207,2.835,2.835,0,0,1,.8.1,3.276,3.276,0,0,1,.562.219,4.085,4.085,0,0,1,.387.222.7.7,0,0,0,.775.053.913.913,0,0,0,.2-.193l.568-.718-.16-.148a4.43,4.43,0,0,0-1.41-.88,5,5,0,0,0-1.815-.31,5.21,5.21,0,0,0-1.967.35,4.091,4.091,0,0,0-1.459.984,4.219,4.219,0,0,0-.9,1.5,5.577,5.577,0,0,0-.3,1.864,5.5,5.5,0,0,0,.333,1.971,4.32,4.32,0,0,0,.922,1.476,3.973,3.973,0,0,0,1.384.921,4.61,4.61,0,0,0,1.712.316,6.034,6.034,0,0,0,2-.333,3.8,3.8,0,0,0,1.618-1.079l.133-.151-.577-.695A.584.584,0,0,0,572.477,495.59Z" transform="translate(-553.211 -484.926)" fill="#fff"/>
            <rect id="長方形_236" data-name="長方形 236" width="2.111" height="13.049" transform="translate(25.231)" fill="#fff"/>
            <path id="パス_540" data-name="パス 540" d="M600.643,493.433a1.073,1.073,0,0,0,.125-.613,4.638,4.638,0,0,0-.307-1.732,3.657,3.657,0,0,0-.862-1.3,3.769,3.769,0,0,0-1.306-.8,4.708,4.708,0,0,0-1.628-.275,5.065,5.065,0,0,0-1.91.346,4.1,4.1,0,0,0-2.364,2.4,4.968,4.968,0,0,0-.315,1.775,5.754,5.754,0,0,0,.347,2.065,4.26,4.26,0,0,0,.979,1.531,4.172,4.172,0,0,0,1.492.941,5.32,5.32,0,0,0,1.862.318,6.772,6.772,0,0,0,1.058-.084,6.394,6.394,0,0,0,1.037-.253,4.932,4.932,0,0,0,.952-.435,3.3,3.3,0,0,0,.783-.64l.135-.151-.584-.7c-.2-.267-.556-.339-1-.071-.137.084-.31.176-.516.275a5.216,5.216,0,0,1-.734.272,3.536,3.536,0,0,1-1,.123,3.147,3.147,0,0,1-1.113-.186,2.208,2.208,0,0,1-.832-.548,2.623,2.623,0,0,1-.556-.929,3.981,3.981,0,0,1-.215-1.109h5.956A.572.572,0,0,0,600.643,493.433Zm-6.37-1.2a2.553,2.553,0,0,1,.724-1.354,2.413,2.413,0,0,1,1.707-.573,2.439,2.439,0,0,1,.91.159,1.824,1.824,0,0,1,.657.438,1.905,1.905,0,0,1,.41.676,2.525,2.525,0,0,1,.133.654Z" transform="translate(-560.112 -484.926)" fill="#fff"/>
            <path id="パス_541" data-name="パス 541" d="M615.631,495.59a.762.762,0,0,0-.479.184,4.424,4.424,0,0,1-.4.279,2.927,2.927,0,0,1-.6.271,2.887,2.887,0,0,1-.907.118,2.571,2.571,0,0,1-1.033-.2,2.082,2.082,0,0,1-.765-.567,2.721,2.721,0,0,1-.5-.944,4.407,4.407,0,0,1-.182-1.324,4.559,4.559,0,0,1,.17-1.29,2.662,2.662,0,0,1,.489-.95,2.087,2.087,0,0,1,.791-.587,2.792,2.792,0,0,1,1.112-.207,2.835,2.835,0,0,1,.8.1,3.274,3.274,0,0,1,.562.219,4.122,4.122,0,0,1,.387.222.7.7,0,0,0,.775.053.918.918,0,0,0,.2-.193l.568-.718-.161-.148a4.418,4.418,0,0,0-1.409-.88,5,5,0,0,0-1.816-.31,5.2,5.2,0,0,0-1.966.35,4.086,4.086,0,0,0-1.459.984,4.219,4.219,0,0,0-.9,1.5,5.577,5.577,0,0,0-.3,1.864,5.485,5.485,0,0,0,.333,1.971,4.316,4.316,0,0,0,.921,1.476,3.975,3.975,0,0,0,1.384.921,4.608,4.608,0,0,0,1.712.316,6.033,6.033,0,0,0,2-.333,3.8,3.8,0,0,0,1.617-1.079l.133-.151-.577-.695A.583.583,0,0,0,615.631,495.59Z" transform="translate(-564.399 -484.926)" fill="#fff"/>
            <path id="パス_542" data-name="パス 542" d="M631.068,495.294a.506.506,0,0,0-.424-.247.545.545,0,0,0-.3.1c-.061.041-.135.084-.219.132a1.687,1.687,0,0,1-.289.124,1.165,1.165,0,0,1-.37.052.8.8,0,0,1-.575-.2.842.842,0,0,1-.21-.639v-4.954h2.669v-1.575h-2.669v-2.979h-1.064a.632.632,0,0,0-.406.133.559.559,0,0,0-.205.361l-.352,2.492-1.556.182v.816a.529.529,0,0,0,.189.436.617.617,0,0,0,.4.134h.887v5.057a2.411,2.411,0,0,0,.666,1.817,2.58,2.58,0,0,0,1.862.639,3.966,3.966,0,0,0,1.31-.222,3.336,3.336,0,0,0,1.1-.622l.156-.136Z" transform="translate(-568.673 -483.991)" fill="#fff"/>
          </g>
          <g id="グループ_212" data-name="グループ 212">
            <path id="パス_543" data-name="パス 543" d="M601.392,390.718,590.9,384.659h0L580.4,378.6l-10.494,6.059h0l-10.494,6.059-10.494,6.059v36.351l10.494,6.059,10.494,6.059L580.4,451.3V439.186l-10.494-6.059-10.494-6.058V402.835l10.494,6.059,10.494,6.059,10.494-6.059L580.4,402.835l-10.494-6.059,10.494-6.059h0l10.494,6.059,10.494,6.059,10.494-6.059Z" transform="translate(-548.923 -378.601)" fill="#fff"/>
            <path id="パス_544" data-name="パス 544" d="M612.44,421.314l10.494-6.059V403.138L612.44,409.2l-.029-.017v.034l-10.464,6.042-.03-.017v.034l-10.464,6.042-.03-.017v36.351l.03.017,10.494-6.059,10.494-6.059,10.494-6.059V427.372l-10.494,6.059-.029-.017v.034l-10.464,6.042V427.372Z" transform="translate(-559.942 -384.962)" fill="#d4d5d5"/>
          </g>
        </g>
      </g>
      <g id="copy" transform="matrix(0.998, -0.07, 0.07, 0.998, 16.327, 119.684)">
        <path id="パス_490" data-name="パス 490" d="M20.159,23.9c-.145-1.107-.176-1.378-.251-1.846-3.915.518-9.14.886-14.322,1.157l.08-2.978A11.453,11.453,0,0,1,3.4,23.7L0,20.283a16.775,16.775,0,0,0,3.31-7.63l1.91-10.83H14.1L14.42,0H19.5L19.18,1.823h9.3l-.759,4.307H9.332l-1.09,6.178a34.528,34.528,0,0,1-1.928,6.474c.262,0,1.476-.048,1.764-.048A97.323,97.323,0,0,0,14.095,6.6l5.1.762c-1.241,2.437-4.81,8.861-6.292,11.176,3.069-.173,5.44-.395,6.185-.468a26.573,26.573,0,0,0-1.655-5.023l4.328-1.968a43.962,43.962,0,0,1,3.395,10.9Z" transform="translate(0 0)" fill="#1f2b5d"/>
        <path id="パス_491" data-name="パス 491" d="M7,16.813H2.52l2.7-15.335H12.95A7.612,7.612,0,0,0,13.6,0h5.842c-.3.518-.593.985-.942,1.477h7.8L24.859,9.7H8.593l-.1.591h18.6l-.521,2.953H7.969l-.1.591H25.91c-1.707,7.9-2.347,9.748-5.988,9.748H16.57l-.123-.936-.022.123H4.979l-.108.615H0l1.058-6.006H5.929L5.6,19.25h.97ZM9.105,6.794l-.122.69H20.378l.122-.69ZM9.6,3.988l-.121.689H20.872l.122-.689ZM11.283,19.25H12.41l.33-1.871h4.636L17,19.5h1.571a1.182,1.182,0,0,0,1.03-.345,6,6,0,0,0,.753-2.339H11.713Z" transform="translate(26.166 0)" fill="#1f2b5d"/>
        <path id="パス_492" data-name="パス 492" d="M8.976.108C8.736,1,8.539,1.753,8.237,2.63l1.034-.016c2.922-.045,3.382,1.8,2.821,4.984-.279,1.583-1.07,4.306-2.1,5.322A4.555,4.555,0,0,1,6.691,14a16.381,16.381,0,0,1-2-.138l.3-2.985a17.264,17.264,0,0,0,1.88.2A1.07,1.07,0,0,0,7.88,10.6a12.416,12.416,0,0,0,1.2-3.645c.193-1.093.091-1.538-.814-1.507l-1.07.03C4.909,11.29,3.468,13.151,2.827,14L0,12.489A24.607,24.607,0,0,0,3.869,5.583L1.78,5.645,2.3,2.692,4.924,2.66A21.088,21.088,0,0,0,5.639,0Zm3.968,9.151c.3-2.061.462-4.661-.487-6.707l2.964-1.03c1.2,1.63,1.266,4.891.963,7.167Z" transform="translate(52.566 8.249)" fill="#1f2b5d"/>
        <path id="パス_493" data-name="パス 493" d="M5.371,3.307A20.621,20.621,0,0,0,4.485,6.2,11.417,11.417,0,0,1,9.335,5.06c3.5,0,4.247,2.369,3.93,4.168C12.462,13.782,7.464,14,3.47,14,3.208,14,1.489,14,0,13.9l.075-2.938a32.924,32.924,0,0,0,3.875.215c4.124,0,5.709-.538,5.985-2.107.248-1.4-1.308-1.4-1.651-1.4a7.071,7.071,0,0,0-4.44,1.6,2.429,2.429,0,0,1-.084.478L.588,9.644A65.686,65.686,0,0,1,2.125,3.152Zm6.015.891c-1.646-.877-6.271-1.384-7.261-1.43L5.186,0a28.525,28.525,0,0,1,7.566,1Z" transform="translate(69.78 8.157)" fill="#1f2b5d"/>
        <path id="パス_494" data-name="パス 494" d="M.158,8.017A17.511,17.511,0,0,0,8.388.56l4.354.4a22.791,22.791,0,0,1-1.4,2.159h3.935a6.178,6.178,0,0,1,0,1.1l4.23-.46a23.871,23.871,0,0,1-6.811,10.636c-2.536,2.2-5.775,3.558-11.441,4.438L0,15.195c4.644-.4,10.65-1.4,13.916-8.457H8.15a22.365,22.365,0,0,1-5.864,4.179ZM15.976,3.5A27.127,27.127,0,0,0,15.845.38L17.9.2a17,17,0,0,1,.275,3.019Zm3.152-.379a15.365,15.365,0,0,0-.255-2.9L20.912,0a13.084,13.084,0,0,1,.265,2.839Z" transform="translate(85.3 3.916)" fill="#1f2b5d"/>
        <path id="パス_495" data-name="パス 495" d="M20.372,0l-2.8,15.874H0L2.8,0ZM15.451,3.659H6.366L4.857,12.215h9.085Z" transform="translate(105.943 5.755)" fill="#1f2b5d"/>
        <path id="パス_496" data-name="パス 496" d="M19.391,0l-.712,4.038H0L.712,0Z" transform="translate(127.746 11.473)" fill="#1f2b5d"/>
        <path id="パス_497" data-name="パス 497" d="M0,15.374A15.533,15.533,0,0,0,3.894,9.457,41.267,41.267,0,0,0,6.354,1.18l4.028.44C7.934,10.916,6.33,15.314,2.96,18.374ZM16.7,1.36A14.917,14.917,0,0,1,17.019,4.4l.819-.181c-.158,4.4.1,7.417,2.238,11.076l-4.359,2.879c-1.382-3.019-2.755-7.058-1.783-16.434Zm.935,2.419A14.276,14.276,0,0,0,17.1.561L19.114.24a11.693,11.693,0,0,1,.606,3.078Zm2.907-.32a12.079,12.079,0,0,0-.6-3.138L21.9,0a12.431,12.431,0,0,1,.581,3.1Z" transform="translate(147.585 3.956)" fill="#1f2b5d"/>
        <path id="パス_498" data-name="パス 498" d="M8.639,4.978c-.55,3.118-1.759,9.5-5.933,12.776L0,14.515c1.13-.98,3.3-2.919,4.42-9.257L5.223.7h4.17Zm4.585,7.177c2.92-1.12,4.027-4.5,4.617-6.278l3.626,1.88a14.041,14.041,0,0,1-5.244,7.057,13.852,13.852,0,0,1-8.082,2.4L11.176,0h4.191Z" transform="translate(168.8 5.056)" fill="#1f2b5d"/>
        <path id="パス_499" data-name="パス 499" d="M5.283,12.935A11.883,11.883,0,0,0,11.5,10.6a16.811,16.811,0,0,0,4.643-5.7l3.378,2.2a20.874,20.874,0,0,1-7.732,7.778C9.591,16.134,6.418,17.233,0,17.313L3.053,0h4.51Z" transform="translate(191.424 5.116)" fill="#1f2b5d"/>
        <path id="パス_500" data-name="パス 500" d="M0,9.315c1.031-.9,4.045-3.759,5.324-4.978,1.453-1.36,2.6-2.459,4.114-2.459A3.582,3.582,0,0,1,12.22,3.6l7.438,9.7-3.861,3.8L9.291,7.656c-.475-.68-.706-.7-.854-.7-.362,0-.461.079-1.882,1.618-2.975,3.239-3.315,3.6-4.108,4.359ZM15.877,5.177a24.245,24.245,0,0,0-1.489-2.9l1.906-.92a11.237,11.237,0,0,1,1.633,2.679Zm3.008-1.5a9.538,9.538,0,0,0-1.63-2.7l2-.978A10.514,10.514,0,0,1,21,2.538Z" transform="translate(211.683 4.417)" fill="#1f2b5d"/>
        <path id="パス_501" data-name="パス 501" d="M8.638,4.978C8.088,8.1,6.879,14.474,2.7,17.754L0,14.515c1.13-.98,3.3-2.919,4.419-9.257L5.223.7h4.17Zm4.585,7.177c2.921-1.12,4.027-4.5,4.618-6.278l3.626,1.88a14.043,14.043,0,0,1-5.245,7.057,13.849,13.849,0,0,1-8.082,2.4L11.176,0h4.19Z" transform="translate(232.23 5.056)" fill="#1f2b5d"/>
        <path id="パス_502" data-name="パス 502" d="M6.435,10.706c1.094-.077,5.014-.4,5.706-4.322.341-1.939-.383-3.307-2.288-3.553a19.7,19.7,0,0,1-3.4,7.6A4.226,4.226,0,0,1,3.02,12.244c-3.273,0-3.154-3.461-2.913-4.83C1.038,2.138,5.753,0,9.419,0c5.059,0,6.589,3.292,6,6.614a8.066,8.066,0,0,1-3.41,5.322,12.668,12.668,0,0,1-4.92,1.63ZM3.122,7.4c-.076.431-.161,1.57.575,1.57.949,0,2.3-2.738,3.182-5.983A5.679,5.679,0,0,0,3.122,7.4Z" transform="translate(254.242 8.664)" fill="#1f2b5d"/>
        <path id="パス_503" data-name="パス 503" d="M15.809,0c5.972,0,7.069,2.389,5.81,9.526C20.2,17.55,17.81,19.4,12.231,19.4H0L3.42,0ZM7.863,4.5,6.032,14.892h6.417c2.75,0,3.095-.614,4-5.735.707-4.012.27-4.652-2.087-4.652Z" transform="translate(271.028 1.773)" fill="#1f2b5d"/>
        <path id="パス_504" data-name="パス 504" d="M9.915,0l2.5,6.178L17.092,0h6.024L15.163,9.452,20.036,19.4H13.959l-2.7-6.671L6.076,19.4H0L8.485,9.452,3.891,0Z" transform="translate(292.816 1.773)" fill="#1f2b5d"/>
        <path id="パス_505" data-name="パス 505" d="M9.371.093c-.261.553-.288.615-.5,1.046h5.762l-.5,2.83H7.329c-.155.23-.245.369-.608.845A5.294,5.294,0,0,1,8.8,4.353,2.447,2.447,0,0,1,11.066,5.43a36.726,36.726,0,0,1,3.982-1.138l-.038,3c-2.975.538-3.3.6-3.745.723-.057.6-.148,1.308-.232,1.784-.044.246-.076.431-.134.661H7.789c.008-.046.271-1.169.291-1.276-1.26.645-1.311.937-1.366,1.245-.125.708.765.861,2.5.769a41.22,41.22,0,0,0,4.2-.215l-.515,2.922c-.59,0-3.184.046-3.708.046-3.045,0-6.483-.278-5.981-3.122C3.567,8.783,5.9,7.6,7.793,6.722a1.178,1.178,0,0,0-.508-.092A4.746,4.746,0,0,0,4.439,7.921c-.8.816-1.944,2.016-2.609,2.539L0,8.4a16,16,0,0,0,4.17-4.43H1.616l.5-2.83H5.6C5.757.723,5.842.431,5.966,0Z" transform="translate(314.976 8.233)" fill="#1f2b5d"/>
        <path id="パス_506" data-name="パス 506" d="M0,15.754.645,12.1H4.56l-.645,3.658ZM6.884,0l-2.5,11.036H1.193L2.586,0Z" transform="translate(332.637 5.415)" fill="#1f2b5d"/>
        <path id="パス_507" data-name="パス 507" d="M7.672.38h3.915l-.31,1.76h3.211c-.128-.121-.277-.24-.408-.341L17.8,0a13.077,13.077,0,0,1,3.335,5.1l-3.785,2.04A30.355,30.355,0,0,0,15.49,3.458l-.405,2.3H10.639l-.194,1.1a12.981,12.981,0,0,1,2-.12c2.957,0,4.5.54,5.522,1.62a4.837,4.837,0,0,1,1.093,4.177c-.6,3.379-3.573,4.578-4.6,4.958a17.8,17.8,0,0,1-5.24.88l-.361-3.138c-.293.7-1.074,2.6-4.82,2.6-2.765,0-4.416-1.74-3.968-4.279C.767,9.616,4.762,8.2,6.4,7.617l.328-1.86H2.15l.638-3.618H7.362Zm-1.9,10.756a3.133,3.133,0,0,0-1.9,2.2c-.165.941.505,1,.633,1,.7,0,.8-.58.905-1.16Zm3.341,3.258a3.528,3.528,0,0,1-.17.6,12.435,12.435,0,0,0,2.609-.2c2.752-.52,3.012-1.64,3.142-2.379.24-1.36-.417-2.339-3.14-2.339a11.086,11.086,0,0,0-1.7.141Z" transform="translate(1.238 33.519)" fill="#1f2b5d"/>
        <path id="パス_508" data-name="パス 508" d="M1.2,6.957a16.262,16.262,0,0,0,2.566-.8H1.662l.885-5.018h7.6L10.343,0H14.3l-.2,1.139h7.595l-.913,5.178H18.314l-.2,1.14a18.11,18.11,0,0,1-3.038,2.019,34.339,34.339,0,0,0,5.948.66l-1.65,3.679c-.95-.161-1.259-.22-1.67-.3l-.966,5.479H12.845l.105-.6H5.186l-.106.6H1.123l.962-5.459c-.241.041-1.379.22-1.6.261L0,10.276a60.719,60.719,0,0,0,6.864-.919c-.628-.541-.827-.74-1.008-.921a24.205,24.205,0,0,1-3.522,1.4Zm4.579,8.056-.127.721H13.42l.127-.721Zm.181-10.8-.177,1a13.242,13.242,0,0,0,1.6-1Zm7.2,8.3a20.77,20.77,0,0,1-2.93-1c-.631.2-1.712.54-3.5,1ZM9.188,7.277a11.335,11.335,0,0,0,1.9,1.019,6.767,6.767,0,0,0,2.053-1.019Zm7.909-2.5.1-.561h-5.51c-.185.2-.291.32-.524.561Z" transform="translate(22.096 33.319)" fill="#1f2b5d"/>
        <path id="パス_509" data-name="パス 509" d="M9.088,17.714c-2,.819-2.808,1.079-3.484,1.3l-.535-3.478-.663,3.757H.809l.807-4.578A9.364,9.364,0,0,1,.194,16.633L0,11.456a13.929,13.929,0,0,0,2.927-4.9H1.268L1.86,3.2H3.647l.529-3h3.6l-.529,3h1.34l.229-1.3h1.936A5.748,5.748,0,0,0,10.24.441L14.264.06A10.554,10.554,0,0,1,14.9,1.9h1.192A15.819,15.819,0,0,0,17,0l3.893.48c-.215.38-.332.559-.909,1.42h1.893l-.5,2.858H16.712l-.078.44h4.148l-.416,2.359H16.217l-.092.52h5L20.611,11H18.952l1.806,1.58a31.07,31.07,0,0,1-2.491,1.939,8.347,8.347,0,0,0,1.912.98l-2.01,3.8a10.6,10.6,0,0,1-3.446-3.258l-.257,1.459a2.12,2.12,0,0,1-2.254,1.8H9.128ZM7.825,11H7.017l.025-.139-.711.9c-.306-.32-.355-.4-.5-.56l-.762,4.318c1.932-.46,2.265-.54,3.208-.819a13.1,13.1,0,0,0-2.158-2.119ZM7.532,8.077h4.936l.092-.52H8.58L9,5.2h3.979l.078-.44H8.309l-.318,1.8H6.651l-.12.68a11.37,11.37,0,0,0,.955,1.1Zm1.194,6.5c1.1-.3,1.166-.341,1.7-.48l-.012,1.638c.489,0,.7,0,.787-.479L11.952,11H9.633a19.685,19.685,0,0,1,1.573,1.58Zm6.836-3.3a5.57,5.57,0,0,0,.689,1.28A15.219,15.219,0,0,0,18.037,11H15.611Z" transform="translate(43.258 33.039)" fill="#1f2b5d"/>
        <path id="パス_510" data-name="パス 510" d="M8.3,0c-.17.783-.333,1.614-.469,2.383-.2,1.123-.205,1.723.131,1.769,2.266-.507,3.3-.723,5.1-.984l-.2,3.168c-2.682.262-8.9,1.108-9.254,3.092-.211,1.2,1.7,1.215,2.847,1.215,1.227,0,4.319-.077,6.125-.292l-.548,3.107c-1.144.077-2.666.17-4.761.17-3.748,0-5.116-.324-6.168-1.139A2.886,2.886,0,0,1,.052,9.628C.516,7,3.431,5.782,4.772,5.229a2.163,2.163,0,0,1-.427-1.477A25.156,25.156,0,0,1,4.811,0Z" transform="translate(64.933 37.765)" fill="#1f2b5d"/>
        <path id="パス_511" data-name="パス 511" d="M19.779,8.717l-.617,3.5H13.311l-.5,2.84h7.574l-.641,3.638H0l.641-3.638H2.811L3.989,8.376H7.84L6.662,15.055h2.3l1.716-9.737h3.851l-.6,3.4Zm.5-.08a20.231,20.231,0,0,1-7.675-5.818,29.916,29.916,0,0,1-9.763,5.9L1.819,4.878A22.3,22.3,0,0,0,10.891,0h4.383a13.765,13.765,0,0,0,7.543,4.757Z" transform="translate(78.697 33.159)" fill="#1f2b5d"/>
        <path id="パス_512" data-name="パス 512" d="M0,15.634a32.383,32.383,0,0,0,5.546-1.42H.505l.5-2.839H9.2l.084-.48H2.537l.391-2.219H9.672l.085-.48H2.268l.476-2.7h4a3.477,3.477,0,0,0-.21-.62H2.151l.54-3.059H4.818A4.216,4.216,0,0,0,4.367.52L8.2,0a12.477,12.477,0,0,1,.317,1.819h.6L9.437,0h3.382L12.5,1.819h.681L13.5,0h3.382l-.321,1.819h.469A11.939,11.939,0,0,0,18.053,0l3.674.52c-.174.26-.411.64-.889,1.3H22.86l-.54,3.059H18.065c-.131.26-.159.3-.344.62H21.53l-.477,2.7H13.671l-.085.48h6.7L19.9,10.9H13.2l-.085.48h8.064l-.5,2.839H15.78a20.055,20.055,0,0,0,5.009,1.279l-2.465,3.48c-3.429-.941-4.686-1.78-6.01-3.079l-.561,3.179H7.839l.543-3.079c-.953.7-2.64,1.939-7.145,3ZM10.6,4.878c.025.1.138.54.164.64h3.085c.124-.219.185-.32.347-.64Z" transform="translate(100.026 33.279)" fill="#1f2b5d"/>
        <path id="パス_513" data-name="パス 513" d="M9.371.093c-.261.553-.289.614-.5,1.046h5.762l-.5,2.829H7.328c-.155.231-.245.37-.607.846A5.29,5.29,0,0,1,8.8,4.353a2.449,2.449,0,0,1,2.266,1.077,36.677,36.677,0,0,1,3.981-1.137l-.037,3c-2.976.538-3.3.6-3.746.722-.056.6-.148,1.308-.232,1.785-.043.246-.076.431-.133.661H7.789c.008-.046.271-1.169.29-1.277-1.26.646-1.311.938-1.365,1.246-.125.708.765.861,2.5.769a41.105,41.105,0,0,0,4.2-.215L12.894,13.9c-.59,0-3.185.046-3.708.046-3.045,0-6.482-.277-5.981-3.122C3.566,8.782,5.9,7.6,7.793,6.722a1.175,1.175,0,0,0-.508-.092A4.736,4.736,0,0,0,4.439,7.921c-.8.815-1.944,2.016-2.609,2.539L0,8.4a16.009,16.009,0,0,0,4.17-4.43H1.616l.5-2.829H5.6C5.756.723,5.841.431,5.966,0Z" transform="translate(122.215 37.456)" fill="#1f2b5d"/>
        <path id="パス_514" data-name="パス 514" d="M8.711,0,5.291,19.4H0L3.42,0Z" transform="translate(139.312 30.996)" fill="#1f2b5d"/>
        <path id="パス_515" data-name="パス 515" d="M11.944,4.455,9.309,19.4H4.07L6.705,4.455H0L.786,0H19.434l-.786,4.455Z" transform="translate(150.064 30.996)" fill="#1f2b5d"/>
        <path id="パス_516" data-name="パス 516" d="M14.768,3.121a7.855,7.855,0,0,0-1.635-.107,5.1,5.1,0,0,0-2.859.523c-.914.446-3.841,2.2-4.216,4.322-.214,1.215.055,2.384,6.222,2.307l-1.035,3.276c-3.981-.077-9.637-.215-8.745-5.276a7.253,7.253,0,0,1,4.06-5.014c-.318.03-4.927.368-6.561.631L.474.537C1.593.507,6.536.23,7.527.184,10.047.092,10.574.076,15.318,0Zm-4.551,4.83A13.952,13.952,0,0,0,9.166,5.459l1.762-.8a12.106,12.106,0,0,1,1.087,2.369Zm2.615-1.277a9.576,9.576,0,0,0-1.088-2.368l1.71-.785a7.688,7.688,0,0,1,1.113,2.231Z" transform="translate(169.03 38.011)" fill="#1f2b5d"/>
        <path id="パス_517" data-name="パス 517" d="M1.319,12.355c6.238.1,12.3-.04,13.189-5.058.508-2.879-1.744-3.378-3.255-3.378a26.393,26.393,0,0,0-4.371.54C5.846,4.658,1.259,5.7.334,5.878L0,1.62C1.177,1.46,6.349.6,7.417.461A34.981,34.981,0,0,1,12.327,0c5.255,0,7.254,3.5,6.6,7.237-1.263,7.157-8.087,8.217-10.384,8.577a40.028,40.028,0,0,1-6.861.42Z" transform="translate(186.187 35.058)" fill="#1f2b5d"/>
        <path id="パス_518" data-name="パス 518" d="M10.863.12c-.149.48-.2.64-.611,2.019h3.106L12.694,5.9H8.928c-.59,1.539-1,2.518-1.588,3.819-.481,1.038-2.764,5.537-3.185,6.478L0,15.273A53.91,53.91,0,0,0,4.653,5.9H2.227l.664-3.759H5.954C6.31.959,6.356.7,6.522,0ZM21.229,6c-.422-.021-.925-.06-1.479-.06a12.21,12.21,0,0,0-1.765.12l-.8,4.879a13.6,13.6,0,0,1,3.105,2.418l-2.567,3.939a8.8,8.8,0,0,0-1.665-2.139l-.184.44c-.149.36-1.21,2.639-4.933,2.639-2.787,0-5.422-1.1-4.876-4.2.311-1.76,2.046-4.359,6.151-4.359.277,0,.508.02,1.032.06l1.114-7.157a25.3,25.3,0,0,1,7.4-.721Zm-8.485,7.217a2.456,2.456,0,0,0-1.245-.3c-.659,0-1.74.219-1.885,1.04-.1.559.348,1.039,1.306,1.039.425,0,1.482-.079,1.647-.9Z" transform="translate(205.695 33.499)" fill="#1f2b5d"/>
        <path id="パス_519" data-name="パス 519" d="M10.157,18.672a82.662,82.662,0,0,0-7.307-5.738C.464,11.275-.186,10.856.043,9.554c.221-1.258,1.1-1.9,3.492-3.638C9.229,1.738,9.863,1.279,11.45,0l4.158,2C13.915,3.278,9.542,6.236,5.8,8.535c-.408.26-.645.4-.688.64s.036.28.692.661c.6.339,4.506,2.559,4.68,2.658a34.08,34.08,0,0,1,4.649,3.2ZM13.063,9.2a16.359,16.359,0,0,0-1.337-3.159l2.1-.96a10.479,10.479,0,0,1,1.517,2.978Zm3.32-1.82a11.542,11.542,0,0,0-1.573-3.018l2.133-1a9.931,9.931,0,0,1,1.66,2.9Z" transform="translate(228.984 33.48)" fill="#1f2b5d"/>
        <path id="パス_520" data-name="パス 520" d="M20.56,3.258l-.6,3.419c-.381,2.159-1.379,6.737-2.483,8.656a4.9,4.9,0,0,1-4.6,2.419c-.212,0-1.34,0-4.077-.279l.4-3.939a18.192,18.192,0,0,0,3.135.32c1.192,0,1.613-.1,2.037-1.18.188-.459,1.19-4.578,1.244-4.878l.148-.839H12.228A19.454,19.454,0,0,1,2.538,17.872L0,14.895c3.008-1.5,6.131-3.4,7.995-7.937H2.633l.652-3.7H9.115c.318-1.32.491-2.3.66-3.258l4.312.04c-.268,1.159-.481,2.119-.781,3.218Z" transform="translate(246.308 33.919)" fill="#1f2b5d"/>
        <path id="パス_521" data-name="パス 521" d="M11.38,18.092H6.934l1.36-7.717A36.815,36.815,0,0,1,1.46,12.934L0,9.515C7.2,7.316,12.016,4.837,17.336,0l3.2,2.5A44.823,44.823,0,0,1,13.21,7.716Z" transform="translate(268.058 33.48)" fill="#1f2b5d"/>
        <path id="パス_522" data-name="パス 522" d="M6.112,10.476A25.145,25.145,0,0,0,0,8.1L1.837,4.917a24.427,24.427,0,0,1,6.328,2.12ZM.172,13.4c6.708-.641,11.639-1.58,16.084-10.856l3.568,1.84C14.187,15.114,7.77,16.633.662,17.613ZM9.234,5.318A26.1,26.1,0,0,0,2.806,3.159L4.7,0a28,28,0,0,1,6.65,1.859Z" transform="translate(289.031 34.219)" fill="#1f2b5d"/>
        <path id="パス_523" data-name="パス 523" d="M4.347.439,8.275,0l-.1,3.238L16.589,2.2c-.771,5.218-3.269,7.557-5.728,9.076l-2.47-2.4a8.375,8.375,0,0,0,3.181-2.839l-3.493.5L7.84,15.014l-3.992.44.278-8.337L0,7.717l.149-3.5,4.087-.5Z" transform="translate(309.553 36.718)" fill="#1f2b5d"/>
      </g>
      <g id="text" transform="matrix(0.998, -0.07, 0.07, 0.998, 21.819, 185.853)">
        <path id="パス_524" data-name="パス 524" d="M4.632,7.91c-.855.1-1.478.269-1.675,1.391l-.066.375h8.275l-.4,2.247H0l.369-2.1c.22-1.244.691-3.745,3.715-4.074l3.97-.434C9.2,5.2,9.61,4.868,9.784,3.879c.2-1.108-.062-1.633-2.375-1.633-2.752,0-3.046.286-3.37,1.947H1.576C2.068,1.573,2.664,0,7.562,0c2.768,0,5.358.15,4.727,3.73a4.715,4.715,0,0,1-1.3,2.695A5.613,5.613,0,0,1,8.454,7.46Z" transform="translate(0.976 1.019)" fill="#1f2b5d"/>
        <path id="パス_525" data-name="パス 525" d="M4.786,12.043C.3,12.043-.6,11.249.326,6.021,1.222.944,2.331,0,6.787,0c4.5,0,5.382.794,4.46,6.021C10.352,11.1,9.257,12.043,4.786,12.043ZM2.83,6.051C2.186,9.706,2.429,9.8,5.3,9.8c2.464,0,2.816-.27,3.392-3.535a14.9,14.9,0,0,0,.3-3.146c-.164-.793-1.048-.869-2.539-.869C3.76,2.246,3.477,2.381,2.83,6.051Z" transform="translate(14.007 1.019)" fill="#1f2b5d"/>
        <path id="パス_526" data-name="パス 526" d="M4.632,7.91c-.855.1-1.478.269-1.675,1.391l-.066.375h8.275l-.4,2.247H0l.369-2.1c.22-1.244.691-3.745,3.715-4.074l3.97-.434C9.2,5.2,9.61,4.868,9.784,3.879c.2-1.108-.062-1.633-2.375-1.633-2.752,0-3.046.286-3.37,1.947H1.575C2.068,1.573,2.664,0,7.562,0c2.768,0,5.358.15,4.727,3.73a4.726,4.726,0,0,1-1.3,2.695A5.613,5.613,0,0,1,8.454,7.46Z" transform="translate(25.761 1.019)" fill="#1f2b5d"/>
        <path id="パス_527" data-name="パス 527" d="M5.339,0,3.258,11.8H.748L2.433,2.247H0L.4,0Z" transform="translate(39.339 1.138)" fill="#1f2b5d"/>
        <path id="パス_528" data-name="パス 528" d="M3.061,5.647a11.314,11.314,0,0,1-.938.749L.982,4.419A11.289,11.289,0,0,0,4.863,0l2.3.3a8.079,8.079,0,0,1-.534,1.048h9L15.258,3.5H10.664l-.253,1.438h4.106l-.37,2.1H10.041L9.69,9.033h5.141l-.38,2.157H9.309l-.558,3.16H6.409l.558-3.16H0L.381,9.033H2.464Zm5.006-.7L8.322,3.5H5.127A13.047,13.047,0,0,1,3.839,4.943ZM5.1,7.04,4.746,9.033h2.6L7.7,7.04Z" transform="translate(46.171 0)" fill="#1f2b5d"/>
        <path id="パス_529" data-name="パス 529" d="M11.989,14.395c-.089-.7-.119-.883-.184-1.287-1.87.254-5.019.6-8.747.78L3.121,11.8A9.3,9.3,0,0,1,1.543,14.29L0,12.6A9.2,9.2,0,0,0,2.152,7.55l1.1-6.261H8.473L8.7,0h2.358l-.228,1.289h5.735l-.375,2.126H5.148l-.742,4.21A15.8,15.8,0,0,1,3.175,11.67c.247-.016.352-.016,1.382-.075A54.168,54.168,0,0,0,8.284,3.835l2.357.434a69.176,69.176,0,0,1-3.783,7.22c2.333-.12,3.01-.165,4.573-.315a19.583,19.583,0,0,0-1.048-3.28l2.082-.944a25.327,25.327,0,0,1,1.929,6.486Z" transform="translate(0 17.605)" fill="#1f2b5d"/>
        <path id="パス_530" data-name="パス 530" d="M4.242,10.05H1.595L3.206.912H7.692A5.8,5.8,0,0,0,8.128,0h2.662c-.206.389-.331.584-.542.912h4.792L14.16,5.9H4.593l-.1.54H15.556l-.264,1.5H4.233l-.1.569H14.811a22.04,22.04,0,0,1-1.23,4.389,2.115,2.115,0,0,1-1.893,1.334h-2.1l-.107-1.468-.129.734H2.341l-.09.51H0l.626-3.551H2.877l-.225,1.273H3.945ZM4.92,4.044l-.1.584H12.1l.1-.584Zm.307-1.738-.1.585h7.285l.1-.585Zm.909,9.423H7.49l.224-1.273H9.889l-.3,1.723h1.339c.563,0,.806,0,1.257-2.127H6.431Z" transform="translate(15.265 17.592)" fill="#1f2b5d"/>
        <path id="パス_531" data-name="パス 531" d="M1.875,0H16.233l-.373,2.112H10.994L10.74,3.55h4.32l-1.8,10.186h-2.22l.114-.644H2.3l-.113.644H0L1.8,3.55h3.7l.254-1.438H1.5ZM3.04,8.912l-.372,2.113h8.853l.295-1.679a1.359,1.359,0,0,1-1.135.569H8.8c-.746,0-1.129-.419-1-1.153l.56-3.175H7.1a8.4,8.4,0,0,1-2.967,4.838Zm.587-3.325-.547,3.1a5.492,5.492,0,0,0,2.053-3.1ZM7.754,2.112,7.5,3.55H8.717l.253-1.438Zm4.509,4.7.216-1.228h-2.1l-.365,2.067c-.034.194-.055.4.172.4h.29c.335,0,.465-.225.73-1.467Z" transform="translate(30.865 18.04)" fill="#1f2b5d"/>
        <path id="パス_532" data-name="パス 532" d="M2.385,0H14.128L11.742,13.526H9.309l.106-.6H2.539l-.106.6H0Zm8,7.4H3.514l-.581,3.295H9.808ZM11.3,2.247H4.422L3.9,5.228h6.876Z" transform="translate(46.842 18.19)" fill="#1f2b5d"/>
        <path id="パス_533" data-name="パス 533" d="M3.54,10.366A18.791,18.791,0,0,1,.925,12.343L0,10.082A18.456,18.456,0,0,0,6.293,4.329H1.227L1.61,2.158H7.664L8.044,0h2.3l-.38,2.158H16.03l-.383,2.171h-5.11a10.889,10.889,0,0,0,4.347,5.708L13.14,12.343A10.268,10.268,0,0,1,11.186,10.4l-.259,1.467H8.2L7.776,14.29H5.525l.427-2.427H3.276Zm2.782-.6L6.876,6.62a18.117,18.117,0,0,1-2.7,3.147Zm4.411,0a12.662,12.662,0,0,1-1.6-3.147L8.574,9.767Z" transform="translate(61.206 17.605)" fill="#1f2b5d"/>
        <path id="パス_534" data-name="パス 534" d="M3.54,10.366A18.79,18.79,0,0,1,.925,12.343L0,10.082A18.456,18.456,0,0,0,6.293,4.329H1.227L1.61,2.158H7.664L8.044,0h2.3l-.38,2.158H16.03l-.383,2.171h-5.11a10.889,10.889,0,0,0,4.347,5.708L13.14,12.343A10.268,10.268,0,0,1,11.186,10.4l-.259,1.467H8.2L7.776,14.29H5.525l.427-2.427H3.276Zm2.782-.6L6.876,6.62a18.115,18.115,0,0,1-2.7,3.147Zm4.411,0a12.662,12.662,0,0,1-1.6-3.147L8.574,9.767Z" transform="translate(76.412 17.605)" fill="#1f2b5d"/>
        <path id="パス_535" data-name="パス 535" d="M3.367,14.186H1.055L1.935,9.2c-.716.525-1.329.9-1.823,1.2L0,7.745a13.489,13.489,0,0,0,4.239-3.6H.908l.37-2.1H3.194L3.556,0H5.869L5.507,2.053H7.059l-.37,2.1a12.452,12.452,0,0,1-1.6,2.172,5.865,5.865,0,0,0,1.8,1.6L5.372,10.066A6.611,6.611,0,0,1,4.347,8.628ZM10.386,0h2.372L12.1,3.716H15.07l-.407,2.306H11.7L10.73,11.5h3.194l-.4,2.278H4.473l.4-2.278H8.357l.967-5.482H6.587l.406-2.306H9.731Z" transform="translate(91.991 17.65)" fill="#1f2b5d"/>
        <path id="パス_536" data-name="パス 536" d="M5.415,12.314l-.164.928h-3.1l-.095.54H0l.863-4.9H6.02L5.549,11.55a9.423,9.423,0,0,0,2.49-.659,6.3,6.3,0,0,1-1.2-1.827L8.7,8.09H6.784l.37-2.1H14.7l-.37,2.1A12.265,12.265,0,0,1,11.872,10.8a12.4,12.4,0,0,0,2.809.719l-1.372,2.262a15.3,15.3,0,0,1-3.551-1.514,13.906,13.906,0,0,1-3.882,1.483ZM1.262,6.622H6.419L6.125,8.285H.969Zm.392-4.465H7.693l-.3,1.708H1.353Zm0,2.262H6.807L6.517,6.067H1.36ZM2.43,0H7.586L7.3,1.6H2.147Zm.207,10.472-.2,1.108H3.72l.2-1.108ZM6.9,4.584C8.064,3.761,8.536,2.637,8.85.854,8.913.495,8.939.27,8.971,0h5.216l-.5,2.816c-.029.166-.022.3.191.3.29,0,.411,0,.478-.21.133-.4.286-1.108.373-1.513l1.622.465a12.1,12.1,0,0,1-.7,2.441,1.612,1.612,0,0,1-1.437.989H12.4c-.685,0-1.1-.3-.971-1.049l.385-2.187h-1.2a6.325,6.325,0,0,1-2.3,3.79ZM8.761,8.09a4.719,4.719,0,0,0,1.323,1.723A6.719,6.719,0,0,0,11.925,8.09Z" transform="translate(106.646 18.024)" fill="#1f2b5d"/>
        <path id="パス_537" data-name="パス 537" d="M.4,11.444h7.97A56.974,56.974,0,0,0,11.292,4.6l2.533.389a52.793,52.793,0,0,1-3.009,6.457h3.939l-.4,2.246H0ZM8.33,0h2.48l-.346,1.962h5.612l-.4,2.246H2.022l.4-2.246H7.985ZM6.156,4.657A23.4,23.4,0,0,1,6.431,10.6l-2.528.36a19.487,19.487,0,0,0-.122-5.781Z" transform="translate(121.64 17.592)" fill="#1f2b5d"/>
      </g>
    </g>
  </g>
</svg>
