<svg xmlns="http://www.w3.org/2000/svg" xmlns:xlink="http://www.w3.org/1999/xlink" width="1360" height="768" viewBox="0 0 1360 768" preserveAspectRatio="none">
  <defs>
    <clipPath id="clip-path">
      <rect id="長方形_248" data-name="長方形 248" width="1360" height="768" fill="#fff" stroke="#707070" stroke-width="1"/>
    </clipPath>
    <filter id="パス_1" x="-45" y="22" width="1450" height="794" filterUnits="userSpaceOnUse">
      <feOffset dy="3" input="SourceAlpha"/>
      <feGaussianBlur stdDeviation="15" result="blur"/>
      <feFlood flood-opacity="0.078"/>
      <feComposite operator="in" in2="blur"/>
      <feComposite in="SourceGraphic"/>
    </filter>
  </defs>
  <g id="visual_img_01" clip-path="url(#clip-path)">
    <g id="visual_img_01-2" data-name="visual_img_01">
      <g transform="matrix(1, 0, 0, 1, 0, 0)" filter="url(#パス_1)">
        <path id="パス_1-2" data-name="パス 1" d="M0,764.656s202.914-52.69,397.463-52.69,366.014,52.69,574.016,52.69S1360,734.806,1360,734.806V60.656H0Z" transform="translate(0 3.34)" fill="none"/>
      </g>
      <path id="パス_417" data-name="パス 417" d="M835.329,567.587h-14.05v19.655h10.537v2.092H821.279v4.286h10.537v2.092H821.279V600h10.537v2.093H821.279v4.283h10.537v2.092H821.279v4.286h10.537v2.092H821.279v4.284h10.537v2.093H821.279V625.5h10.537v2.093H821.279v4.285h10.537v2.092H821.279v4.286h10.537v2.09H821.279v4.287h10.537v2.09H821.279v4.284h10.537V653.1H821.279v4.285h10.537v2.094H821.279v4.285h10.537v2.09H821.279v4.286h10.537v2.092H821.279v4.283h10.537v2.094H821.279v4.284h10.537v2.09H821.279v4.286h10.537v2.092H821.279v10.473h-6.556V523.861h-94.7V762.953h67.52V765.9h49.345v-2.943h1.98V566.294h-3.539ZM734.574,662.794h-2.726v-2.726h2.726Zm0-7.013h-2.726v-2.728h2.726Zm0-7.016h-2.726v-2.728h2.726Zm0-7.015h-2.726v-2.728h2.726Zm0-7.015h-2.726v-2.726h2.726Zm0-7.016h-2.726v-2.725h2.726Zm0-7.013h-2.726v-2.728h2.726Zm0-7.016h-2.726v-2.726h2.726Zm0-7.013h-2.726v-2.728h2.726Zm0-7.016h-2.726v-2.726h2.726Zm0-7.016h-2.726v-2.725h2.726Zm0-7.013h-2.726V582.9h2.726Zm0-7.012h-2.726v-2.73h2.726Zm0-7.015h-2.726v-2.73h2.726Zm0-7.015h-2.726v-2.73h2.726Zm0-7.016h-2.726v-2.729h2.726Zm0-7.015h-2.726v-2.73h2.726Zm8.5,209.179H736.2v-24.7h6.87Zm-2.287-204.893v2.729H738.06v-2.729Zm-2.726-4.286v-2.73h2.726v2.73Zm2.726,11.3v2.73H738.06v-2.73Zm0,7.015v2.73H738.06v-2.73Zm0,7.015v2.73H738.06v-2.73Zm0,7.015v2.728H738.06V582.9Zm0,7.016v2.725H738.06v-2.725Zm0,7.015v2.726H738.06v-2.726Zm0,7.015v2.728H738.06v-2.728Zm0,7.015v2.726H738.06v-2.726Zm0,7.015v2.728H738.06v-2.728Zm0,7.016v2.725H738.06v-2.725Zm0,7.015v2.726H738.06v-2.726Zm0,7.013v2.728H738.06v-2.728Zm0,7.015v2.728H738.06v-2.728Zm0,7.016v2.728H738.06v-2.728Zm0,7.015v2.726H738.06v-2.726Zm1.579,9.16v5.454h-5.457v-5.454Zm0,12.423V687.1h-5.457V681.65Zm0,12.423v5.454h-5.457v-5.454Zm0,12.421v5.454h-5.457v-5.454Zm4.632-43.7h-2.726v-2.726H747Zm0-7.013h-2.726v-2.728H747Zm0-7.016h-2.726v-2.728H747Zm0-7.015h-2.726v-2.728H747Zm0-7.015h-2.726v-2.726H747Zm0-7.016h-2.726v-2.725H747Zm0-7.013h-2.726v-2.728H747Zm0-7.016h-2.726v-2.726H747Zm0-7.013h-2.726v-2.728H747Zm0-7.016h-2.726v-2.726H747Zm0-7.016h-2.726v-2.725H747Zm0-7.013h-2.726V582.9H747Zm0-7.012h-2.726v-2.73H747Zm0-7.015h-2.726v-2.73H747Zm0-7.015h-2.726v-2.73H747Zm0-7.016h-2.726v-2.729H747Zm0-7.015h-2.726v-2.73H747Zm6.211,4.286v2.729h-2.725v-2.729Zm-2.725-4.286v-2.73h2.725v2.73Zm2.725,11.3v2.73h-2.725v-2.73Zm0,7.015v2.73h-2.725v-2.73Zm0,7.015v2.73h-2.725v-2.73Zm0,7.015v2.728h-2.725V582.9Zm0,7.016v2.725h-2.725v-2.725Zm0,7.015v2.726h-2.725v-2.726Zm0,7.015v2.728h-2.725v-2.728Zm0,7.015v2.726h-2.725v-2.726Zm0,7.015v2.728h-2.725v-2.728Zm0,7.016v2.725h-2.725v-2.725Zm0,7.015v2.726h-2.725v-2.726Zm0,7.013v2.728h-2.725v-2.728Zm0,7.015v2.728h-2.725v-2.728Zm0,7.016v2.728h-2.725v-2.728Zm0,7.015v2.726h-2.725v-2.726Zm.253,9.16v5.454H748v-5.454Zm0,12.423V687.1H748V681.65Zm0,12.423v5.454H748v-5.454Zm0,12.421v5.454H748v-5.454Zm2.66,53.243h-6.867v-24.7h6.867Zm9.51-204.893v2.729H762.9v-2.729Zm-2.726-4.286v-2.73h2.726v2.73Zm2.726,11.3v2.73H762.9v-2.73Zm0,7.015v2.73H762.9v-2.73Zm0,7.015v2.73H762.9v-2.73Zm0,7.015v2.728H762.9V582.9Zm0,7.016v2.725H762.9v-2.725Zm0,7.015v2.726H762.9v-2.726Zm0,7.015v2.728H762.9v-2.728Zm0,7.015v2.726H762.9v-2.726Zm0,7.015v2.728H762.9v-2.728Zm0,7.016v2.725H762.9v-2.725Zm0,7.015v2.726H762.9v-2.726Zm0,7.013v2.728H762.9v-2.728Zm0,7.015v2.728H762.9v-2.728Zm0,7.016v2.728H762.9v-2.728Zm0,7.015v2.726H762.9v-2.726Zm-1.077,9.16v5.454H759.1v-5.454ZM759.1,687.1V681.65h5.455V687.1Zm5.455,6.969v5.454H759.1v-5.454ZM759.42,550.558h-2.726v-2.73h2.726Zm0,4.286v2.729h-2.726v-2.729Zm0,7.015v2.73h-2.726v-2.73Zm0,7.015v2.73h-2.726v-2.73Zm0,7.015v2.73h-2.726v-2.73Zm0,7.015v2.728h-2.726V582.9Zm0,7.016v2.725h-2.726v-2.725Zm0,7.015v2.726h-2.726v-2.726Zm0,7.015v2.728h-2.726v-2.728Zm0,7.015v2.726h-2.726v-2.726Zm0,7.015v2.728h-2.726v-2.728Zm0,7.016v2.725h-2.726v-2.725Zm0,7.015v2.726h-2.726v-2.726Zm0,7.013v2.728h-2.726v-2.728Zm0,7.015v2.728h-2.726v-2.728Zm0,7.016v2.728h-2.726v-2.728Zm0,7.015v2.726h-2.726v-2.726Zm-.322,46.427h5.455v5.454H759.1Zm2.5,26.257s-.16-7.211,5.773-7.211a5.034,5.034,0,0,1,4.856,3.106h-7.861v31.091H761.6Zm14.049-38.678v5.454h-5.454v-5.454Zm-5.454-6.969V681.65h5.454V687.1Zm5.454,19.39v5.454h-5.454v-5.454Zm2.406-155.936h-2.728v-2.73h2.728Zm0,4.286v2.729h-2.728v-2.729Zm0,7.015v2.73h-2.728v-2.73Zm0,7.015v2.73h-2.728v-2.73Zm0,7.015v2.73h-2.728v-2.73Zm0,7.015v2.728h-2.728V582.9Zm0,7.016v2.725h-2.728v-2.725Zm0,7.015v2.726h-2.728v-2.726Zm0,7.015v2.728h-2.728v-2.728Zm0,7.015v2.726h-2.728v-2.726Zm0,7.015v2.728h-2.728v-2.728Zm0,7.016v2.725h-2.728v-2.725Zm0,7.015v2.726h-2.728v-2.726Zm0,7.013v2.728h-2.728v-2.728Zm0,7.015v2.728h-2.728v-2.728Zm0,7.016v2.728h-2.728v-2.728Zm0,7.015v2.726h-2.728v-2.726Zm-2.406,9.16v5.454h-5.454v-5.454Zm-3.806-118.67h-2.726v-2.73h2.726Zm0,4.286v2.729h-2.726v-2.729Zm0,7.015v2.73h-2.726v-2.73Zm0,7.015v2.73h-2.726v-2.73Zm0,7.015v2.73h-2.726v-2.73Zm0,7.015v2.728h-2.726V582.9Zm0,7.016v2.725h-2.726v-2.725Zm0,7.015v2.726h-2.726v-2.726Zm0,7.015v2.728h-2.726v-2.728Zm0,7.015v2.726h-2.726v-2.726Zm0,7.015v2.728h-2.726v-2.728Zm0,7.016v2.725h-2.726v-2.725Zm0,7.015v2.726h-2.726v-2.726Zm0,7.013v2.728h-2.726v-2.728Zm0,7.015v2.728h-2.726v-2.728Zm0,7.016v2.728h-2.726v-2.728Zm0,7.015v2.726h-2.726v-2.726Zm13.652,99.669h-.083v-24.7h.083Zm1.249-47.789h-5.457v-5.454h5.457Zm0-12.421h-5.457v-5.454h5.457Zm0-12.423h-5.457V681.65h5.457Zm0-12.423h-5.457v-5.454h5.457Zm-2.479-119.838v2.729h-2.726v-2.729Zm-2.726-4.286v-2.73h2.726v2.73Zm2.726,11.3v2.73h-2.726v-2.73Zm0,7.015v2.73h-2.726v-2.73Zm0,7.015v2.73h-2.726v-2.73Zm0,7.015v2.728h-2.726V582.9Zm0,7.016v2.725h-2.726v-2.725Zm0,7.015v2.726h-2.726v-2.726Zm0,7.015v2.728h-2.726v-2.728Zm0,7.015v2.726h-2.726v-2.726Zm0,7.015v2.728h-2.726v-2.728Zm0,7.016v2.725h-2.726v-2.725Zm0,7.015v2.726h-2.726v-2.726Zm0,7.013v2.728h-2.726v-2.728Zm0,7.015v2.728h-2.726v-2.728Zm0,7.016v2.728h-2.726v-2.728Zm0,7.015v2.726h-2.726v-2.726Zm6.211,2.726h-2.728v-2.726h2.728Zm0-7.013h-2.728v-2.728h2.728Zm0-7.016h-2.728v-2.728h2.728Zm0-7.015h-2.728v-2.728h2.728Zm0-7.015h-2.728v-2.726h2.728Zm0-7.016h-2.728v-2.725h2.728Zm0-7.013h-2.728v-2.728h2.728Zm0-7.016h-2.728v-2.726h2.728Zm0-7.013h-2.728v-2.728h2.728Zm0-7.016h-2.728v-2.726h2.728Zm0-7.016h-2.728v-2.725h2.728Zm0-7.013h-2.728V582.9h2.728Zm0-7.012h-2.728v-2.73h2.728Zm0-7.015h-2.728v-2.73h2.728Zm0-7.015h-2.728v-2.73h2.728Zm0-7.016h-2.728v-2.729h2.728Zm0-7.015h-2.728v-2.73h2.728Zm7.362,148.969h-5.457v-5.454h5.457Zm0-12.423h-5.457V681.65h5.457Zm0-12.423h-5.457v-5.454h5.457Zm-1.15-119.838v2.729H793.96v-2.729Zm-2.728-4.286v-2.73h2.728v2.73Zm2.728,11.3v2.73H793.96v-2.73Zm0,7.015v2.73H793.96v-2.73Zm0,7.015v2.73H793.96v-2.73Zm0,7.015v2.728H793.96V582.9Zm0,7.016v2.725H793.96v-2.725Zm0,7.015v2.726H793.96v-2.726Zm0,7.015v2.728H793.96v-2.728Zm0,7.015v2.726H793.96v-2.726Zm0,7.015v2.728H793.96v-2.728Zm0,7.016v2.725H793.96v-2.725Zm0,7.015v2.726H793.96v-2.726Zm0,7.013v2.728H793.96v-2.728Zm0,7.015v2.728H793.96v-2.728Zm0,7.016v2.728H793.96v-2.728Zm0,7.015v2.726H793.96v-2.726Zm6.211,2.726h-2.728v-2.726H802.9Zm0-7.013h-2.728v-2.728H802.9Zm0-7.016h-2.728v-2.728H802.9Zm0-7.015h-2.728v-2.728H802.9Zm0-7.015h-2.728v-2.726H802.9Zm0-7.016h-2.728v-2.725H802.9Zm0-7.013h-2.728v-2.728H802.9Zm0-7.016h-2.728v-2.726H802.9Zm0-7.013h-2.728v-2.728H802.9Zm0-7.016h-2.728v-2.726H802.9Zm0-7.016h-2.728v-2.725H802.9Zm0-7.013h-2.728V582.9H802.9Zm0-7.012h-2.728v-2.73H802.9Zm0-7.015h-2.728v-2.73H802.9Zm0-7.015h-2.728v-2.73H802.9Zm0-7.016h-2.728v-2.729H802.9Zm0-7.015h-2.728v-2.73H802.9Zm0-9.547h-71.05v-2.828H802.9Zm23.435,160.823h-.5v-4.311h.5Zm6.517,0h-.5v-4.311h.5Z" transform="translate(213.274 -41.762)" fill="#6a90ac"/>
      <rect id="長方形_232" data-name="長方形 232" width="6.017" height="196.66" transform="translate(1052.643 524.532)" fill="#6a90ac"/>
      <rect id="長方形_233" data-name="長方形 233" width="6.018" height="196.66" transform="translate(1059.159 524.532)" fill="#6a90ac"/>
      <rect id="長方形_234" data-name="長方形 234" width="6.017" height="196.66" transform="translate(1065.677 524.532)" fill="#6a90ac"/>
      <path id="パス_418" data-name="パス 418" d="M899.7,578.943v-20.7H839.28V556.95H828.333V753.609h6.017V639.753h.5V753.609h6.017V639.753h.5V753.609h6.018V639.753h.5V753.609H853.9V656.267h.5v97.342h45.3V683.067H877.981v-2.1H899.7V676.69H877.981v-2.1H899.7v-4.281H877.981v-2.1H899.7v-4.282H877.981v-2.1H899.7v-4.279H877.981v-2.1H899.7v-4.281H857.937v-2.1H899.7v-4.282H857.937v-2.1H899.7V638.43H841.687v-2.1H899.7v-4.281H841.687v-2.1H899.7v-4.279H841.687v-2.1H899.7V619.3H841.687v-2.1H899.7v-4.281H841.687v-2.1H899.7v-4.279H841.687v-2.1H899.7v-4.281H841.687v-2.1H899.7v-4.282H841.687v-2.1H899.7v-4.279H841.687v-2.1H899.7v-4.279H841.687v-2.1ZM838.694,637.38H832.32v-2.09h6.374Zm0-6.377H832.32v-2.09h6.374Zm0-6.376H832.32v-2.092h6.374Zm0-6.376H832.32v-2.093h6.374Zm0-6.376H832.32v-2.093h6.374Zm0-6.377H832.32v-2.092h6.374Zm0-6.377H832.32v-2.092h6.374Zm0-6.375H832.32v-2.093h6.374Zm0-6.377H832.32v-2.092h6.374Zm0-6.377H832.32V577.9h6.374Zm38.44,111.453h13.3v2.1h-13.3Zm0,8.195h13.3v2.1h-13.3Zm0,8.195h13.3v2.094h-13.3ZM863.116,660.8h8.977v2.092h-8.977Zm0,6.375h8.977v2.094h-8.977Zm0,6.379h8.977v2.09h-8.977Zm0,6.376h8.977v2.092h-8.977Zm-13.136-38.26h5.1v2.092h-5.1Zm0,6.376h5.1v2.094h-5.1Z" transform="translate(243.861 -32.417)" fill="#6a90ac"/>
      <path id="パス_419" data-name="パス 419" d="M755.226,540.609H739.309v-5.095H719.352V533.84H681.447v1.675H661.49v5.095H645.574V688.49h-.812V759.27H636.43V754.35H617.362v-6.63H636.43v-6.213H617.362v-2.372H636.43v-3.9H617.362v-2.372H636.43v-3.9H617.362v-2.372H636.43v-3.906H617.362V720.3H636.43v-3.9H617.362v-2.372H636.43v-3.9H617.362v-2.374H636.43v-3.9H617.362v-2.372H636.43v-3.9H617.362V695.2H636.43v-3.9H617.362v-2.372H636.43v-3.9H617.362V682.65H636.43v-3.906H612.706v-2.371H636.43v-3.9H612.706v-2.374H636.43v-3.9H612.706v-2.371H636.43v-3.906H612.706v-2.372H636.43v-3.906H612.706v-2.371H636.43v-3.9H612.706V644.99H636.43v-3.9H612.706V638.72H636.43v-3.906H612.706v-2.371H636.43v-3.9H612.706v-2.372H636.43v-3.906H612.706v-2.371H636.43v-3.9H612.706V613.61H636.43v-3.9H612.706v-2.371H636.43v-3.9H612.706v-2.374H636.43v-3.9H623.311v-2.372H636.43v-3.9H623.311V588.5H636.43v-3.9H623.311v-2.374H636.43v-3.9H623.311v-2.371H636.43V572.05H623.311v-2.371H636.43v-3.9H623.311V563.4H636.43v-3.9H623.311v-2.374H636.43v-3.9H623.311v-2.374H636.43v-3.9H623.311v-2.372H636.43v-3.9H623.311V538.3H636.43v-3.9H623.311v-2.374H636.43V528.12H623.311v-2.371H636.43v-3.906H623.311V519.47H636.43v-3.9H623.311v-2.379H636.43v-3.9H623.311v-2.371H636.43v-3.9H623.311v-2.375H636.43v-3.9H623.311v-2.371H636.43v-3.9H623.311V488.09H636.43v-3.9H623.311v-2.372H636.43v-3.906H623.311V475.54H636.43v-3.9H623.311v-2.372H636.43V464.19H622.195v-5.713H609.64v-8.81h-12.7V432.93H580.663v16.737h-12.7v8.81H555.409v5.713H541.175v5.073h13.114v2.372H541.175v3.9h13.114v2.372H541.175v3.906h13.114v2.372H541.175v3.9h13.114v2.379H541.175v3.9h13.114v2.371H541.175v3.9h13.114v2.375H541.175v3.9h13.114v2.371H541.175v3.9h13.114v2.379H541.175v3.9h13.114v2.372H541.175v3.906h13.114v2.371H541.175v3.906h13.114V534.4H541.175v3.9h13.114v2.379H541.175v3.9h13.114v2.372H541.175v3.9h13.114v2.374H541.175v3.9h13.114V559.5H541.175v3.9h13.114v2.378H541.175v3.9h13.114v2.371H541.175v3.907h13.114v2.371H541.175v.008H525.453l-11.165-5.758h-6.047v-7.653l-6.907-5.422H459.458l-6.908,5.422v7.653h-3.411l-1.4-1.422-1.406,1.422h-2.846l-1.406-1.422-1.406,1.422h-3.168l-2.166.873-.963,122.95c-2.162-.305-4.717-.721-7.317-1.265V537.869h3.307s-.2-7.216,3.773-7.216V498.4s-.1-1.381-2.317-1.381v-1.609h-5.518v-8.273s1.556.159,1.556-1.35v-1.1c.008-.257-.09-1.207-1.556-1.207h-.233v-4.25h-1.418v2.129h-.9v.709h-1.6v-3.745a2.408,2.408,0,1,0-3.774,0v3.745h-1.6v-.709h-.9v-2.129h-1.42v4.25h-.233c-1.465,0-1.565.95-1.556,1.207v1.1c0,1.509,1.556,1.35,1.556,1.35v8.273h-5.518v1.609c-2.219,0-2.316,1.381-2.316,1.381v32.254c3.969,0,3.774,7.216,3.774,7.216h3.3V666.877c-4.6-.555-9.789-1.849-12.791-4.778v-15.2s9.092-2.516,9.93-5.725c0,0-12.575,1.448-17.769-2.522v-5.9h-6.111v-10.6s6.617-1.3,8.451-4.124c0,0-12.324.154-12.324-9.623v-6.667h-.318v-2.91a3.7,3.7,0,0,0,.458-1.562c0-.764-.11-2.867-1.07-3.593s.318,1.271.257,1.986.032,2.12-.771,1.406-.659-1.431-.744-.483a2.431,2.431,0,0,0,.685,1.857l.262.373v2.926h-.31v1.425H344.9v-1.425h-.312v-2.926l.264-.373a2.43,2.43,0,0,0,.684-1.857c-.086-.948.062-.232-.746.483s-.714-.685-.769-1.406,1.209-2.714.255-1.986-1.068,2.829-1.068,3.593a3.689,3.689,0,0,0,.459,1.562v2.91h-.318V608.4c0,9.777-12.324,9.623-12.324,9.623,1.833,2.829,8.451,4.124,8.451,4.124v10.6h-6.112v5.9c-5.194,3.97-17.769,2.522-17.769,2.522.837,3.209,9.93,5.725,9.93,5.725v15.2c-6.263,6.109-22.07,5.114-22.07,5.114C304.6,670.5,313,671.85,313,671.85v17.972c-5.958,5.5-27.142,7.283-27.142,7.283.154.612,3.666,3.264,6.47,3.264s4.859,4.655,4.859,4.655v7.639c-.989,2.366-11.3,5.114-11.3,5.114,2.676,1.986,11.077,2.83,11.077,2.83v3.433l-10.387,13.138h3.819v19.4h-7.637l-14.666,30.247H413.474v1.807h13.587v-1.807h6.609l-.014,1.8h74.586v0H756.035V688.49h-.809ZM431.907,499.938h1.064V512.9h-1.064Zm0,15.127h1.064v13.527h-1.064Zm-23.279,13.527h-1.064V515.065h1.064Zm0-15.693h-1.064V499.938h1.064Zm4.846,177.145c-.086-.076-.182-.146-.264-.222V671.85s.106-.017.264-.046Zm11.18-194.635h-8.772v-8.3h8.772Zm9.46,234.783-4.864-6.152v-3.433s2.342-.239,4.945-.753Zm.113-14.394c-2.429-.934-4.758-2.072-5.2-3.135v-7.639s2.061-4.655,4.859-4.655c.153,0,.309-.01.465-.026ZM550.875,583.51l-2.275-1.276h5.689v2.374H550.9Zm.11,4.995h3.3v2.379h-3.25Zm.141,6.279h3.162v2.372h-3.11Zm9.117,159.567h-5.559l-.147-6.63h5.707Zm0-12.843H554.4l-.051-2.372h5.9Zm0-6.277h-5.986l-.051-2.372h6.038Zm0-6.277h-6.126l-.053-2.372h6.179Zm0-6.279h-6.266l-.053-2.371h6.318Zm0-6.27h-6.406l-.053-2.372h6.458Zm0-6.277H553.7l-.053-2.374h6.6Zm0-6.279h-6.685l-.053-2.372h6.738Zm0-6.277h-6.825l-.053-2.372h6.878Zm0-6.271h-6.966l-.053-2.372h7.019Zm0-6.277h-7.1l-.054-2.372h7.158Zm4.649-6.279H553l-.054-2.371h11.947Zm0-6.276H552.859l-.054-2.374h12.087Zm0-6.272H552.718l-.053-2.371h12.226Zm0-6.277H552.578l-.053-2.372h12.366Zm0-6.279H552.439l-.053-2.371h12.506Zm0-6.275H552.3l-.053-2.374h12.646Zm0-6.272H552.159l-.054-2.372h12.787Zm0-6.279H552.019l-.054-2.371h12.927Zm0-6.276H551.878l-.053-2.372h13.066Zm0-6.279H551.739l-.051-2.371h13.2Zm0-6.27H551.6l-.053-2.379h13.346Zm0-6.28H551.459l-.053-2.371h13.486Zm0-6.276H551.319l-.053-2.374h13.626Zm3-6.277h-9.832v-2.372h9.832Zm0-6.272h-9.832V588.5h9.832Zm0-6.276h-9.832v-2.374h9.832Zm0-6.279h-9.832v-2.371h9.832Zm0-6.279h-9.832v-2.371h9.832Zm0-6.27h-9.832V563.4h9.832Zm0-6.277h-9.832v-2.374h9.832Zm0-6.277h-9.832v-2.374h9.832Zm0-6.277h-9.832v-2.372h9.832Zm0-6.272h-9.832V538.3h9.832Zm0-6.276h-9.832v-2.374h9.832Zm0-6.28h-9.832v-2.371h9.832Zm0-6.277h-9.832V519.47h9.832Zm0-6.27h-9.832v-2.379h9.832Zm0-6.279h-9.832v-2.371h9.832Zm0-6.276h-9.832v-2.375h9.832Zm0-6.279h-9.832v-2.371h9.832Zm0-6.271h-9.832V488.09h9.832Zm0-6.277h-9.832v-2.372h9.832Zm0-6.279h-9.832V475.54h9.832Zm0-6.277h-9.832v-2.372h9.832Zm7.117,125.52h-3.695v-2.372h3.695Zm0-6.272h-3.695V588.5h3.695Zm0-6.276h-3.695v-2.374h3.695Zm0-6.279h-3.695v-2.371h3.695Zm0-6.279h-3.695v-2.371h3.695Zm0-6.27h-3.695V563.4h3.695Zm0-6.277h-3.695v-2.374h3.695Zm0-6.277h-3.695v-2.374h3.695Zm0-6.277h-3.695v-2.372h3.695Zm0-6.272h-3.695V538.3h3.695Zm0-6.276h-3.695v-2.374h3.695Zm0-6.28h-3.695v-2.371h3.695Zm0-6.277h-3.695V519.47h3.695Zm0-6.27h-3.695v-2.379h3.695Zm0-6.279h-3.695v-2.371h3.695Zm0-6.276h-3.695v-2.375h3.695Zm0-6.279h-3.695v-2.371h3.695Zm0-6.271h-3.695V488.09h3.695Zm0-6.277h-3.695v-2.372h3.695Zm0-6.279h-3.695V475.54h3.695Zm0-6.277h-3.695v-2.372h3.695Zm18.673-24.671h-9.759V436.44h9.759Zm12.606,150.191h-3.695v-2.372h3.695Zm0-6.272h-3.695V588.5h3.695Zm0-6.276h-3.695v-2.374h3.695Zm0-6.279h-3.695v-2.371h3.695Zm0-6.279h-3.695v-2.371h3.695Zm0-6.27h-3.695V563.4h3.695Zm0-6.277h-3.695v-2.374h3.695Zm0-6.277h-3.695v-2.374h3.695Zm0-6.277h-3.695v-2.372h3.695Zm0-6.272h-3.695V538.3h3.695Zm0-6.276h-3.695v-2.374h3.695Zm0-6.28h-3.695v-2.371h3.695Zm0-6.277h-3.695V519.47h3.695Zm0-6.27h-3.695v-2.379h3.695Zm0-6.279h-3.695v-2.371h3.695Zm0-6.276h-3.695v-2.375h3.695Zm0-6.279h-3.695v-2.371h3.695Zm0-6.271h-3.695V488.09h3.695Zm0-6.277h-3.695v-2.372h3.695Zm0-6.279h-3.695V475.54h3.695Zm0-6.277h-3.695v-2.372h3.695Zm3.416-2.372h9.839v2.372h-9.839Zm0,6.277h9.839v2.372h-9.839Zm0,6.279h9.839v2.372h-9.839Zm0,6.271h9.839v2.379h-9.839Zm0,6.279h9.839v2.371h-9.839Zm0,6.275h9.839v2.375h-9.839Zm0,6.28h9.839v2.371h-9.839Zm0,6.271h9.839v2.379h-9.839Zm0,6.276h9.839v2.372h-9.839Zm0,6.279h9.839v2.371h-9.839Zm0,6.277h9.839V534.4h-9.839Zm0,6.271h9.839v2.379h-9.839Zm0,6.279h9.839v2.372h-9.839Zm0,6.276h9.839v2.374h-9.839Zm0,6.277h9.839V559.5h-9.839Zm0,6.274h9.839v2.378h-9.839Zm0,6.276h9.839v2.371h-9.839Zm0,6.279h9.839v2.371h-9.839Zm0,6.276h9.839v2.374h-9.839Zm0,6.271h9.839v2.379h-9.839Zm0,6.279h9.839v2.372h-9.839Z" transform="translate(85.647 -67.441)" fill="#6a90ac"/>
      <path id="パス_420" data-name="パス 420" d="M732.93,708.539h1.539V693.454h-1.848V477.212H726V472.9H662.9v4.309h-6.618V693.454h-1.847v15.085h1.539v7.078h-6.311v61.727h89.577V715.617H732.93Zm-54.307,4.592H665.078v-2.383h13.545Zm0-26.757H665.078v-2.383h13.545Zm0-5.613H665.078v-2.39h13.545Zm0-11.238H665.078v-2.381h13.545Zm0-5.621H665.078v-2.381h13.545Zm0-11.229H665.078v-2.389h13.545Zm0-5.621H665.078V644.67h13.545Zm0-11.235H665.078v-2.39h13.545Zm0-5.616H665.078v-2.389h13.545Zm0-5.621H665.078V622.2h13.545Zm0-11.236H665.078v-2.388h13.545Zm0-5.614H665.078v-2.388h13.545Zm0-5.621H665.078v-2.383h13.545Zm0-11.235H665.078v-2.389h13.545Zm0-11.236H665.078v-2.383h13.545Zm0-5.621H665.078v-2.381h13.545Zm0-11.23H665.078V560.4h13.545Zm0-5.621H665.078v-2.383h13.545Zm0-5.621H665.078v-2.383h13.545Zm0-11.23H665.078v-2.389h13.545Zm0-11.242H665.078v-2.381h13.545Zm0-11.23H665.078v-2.388h13.545Zm0-5.621H665.078v-2.383h13.545Zm0-11.235H665.078V498.6h13.545Zm0-11.235H665.078V487.37h13.545Zm0-5.621H665.078V481.75h13.545Zm15.082,229H680.161v-2.383H693.7Zm0-21.137H680.161v-2.383H693.7Zm0-5.621H680.161v-2.383H693.7Zm0-11.229H680.161v-2.389H693.7Zm0-5.622H680.161v-2.381H693.7Zm0-11.235H680.161V655.9H693.7Zm0-5.614H680.161v-2.389H693.7Zm0-5.621H680.161V644.67H693.7Zm0-5.622H680.161v-2.383H693.7Zm0-11.229H680.161v-2.389H693.7Zm0-5.621H680.161V622.2H693.7Zm0-5.621H680.161v-2.383H693.7Zm0-5.616H680.161v-2.388H693.7Zm0-11.235H680.161v-2.383H693.7Zm0-5.621H680.161v-2.384H693.7Zm0-5.614H680.161v-2.389H693.7Zm0-5.616H680.161V582.87H693.7Zm0-11.242H680.161v-2.381H693.7Zm0-5.616H680.161v-2.387H693.7Zm0-5.614H680.161V560.4H693.7Zm0-11.242H680.161v-2.383H693.7Zm0-5.614H680.161v-2.389H693.7Zm0-11.236H680.161v-2.381H693.7Zm0-11.235H680.161v-2.389H693.7Zm0-5.616H680.161v-2.388H693.7Zm0-11.242H680.161v-2.383H693.7Zm0-11.229H680.161v-2.389H693.7Zm0-5.621H680.161V487.37H693.7ZM708.79,713.131H695.245v-2.383H708.79Zm0-21.137H695.245v-2.383H708.79Zm0-11.234H695.245v-2.39H708.79Zm0-5.616H695.245v-2.389H708.79Zm0-5.622H695.245v-2.381H708.79Zm0-5.621H695.245v-2.381H708.79Zm0-11.229H695.245v-2.389H708.79Zm0-11.243H695.245v-2.383H708.79Zm0-5.613H695.245v-2.39H708.79Zm0-11.236H695.245V622.2H708.79Zm0-5.621H695.245v-2.383H708.79Zm0-11.23H695.245v-2.388H708.79Zm0-5.621H695.245v-2.383H708.79Zm0-11.235H695.245v-2.389H708.79Zm0-11.236H695.245v-2.383H708.79Zm0-5.621H695.245v-2.381H708.79Zm0-11.23H695.245V560.4H708.79Zm0-11.242H695.245v-2.383H708.79Zm0-5.614H695.245v-2.389H708.79Zm0-5.616H695.245v-2.389H708.79Zm0-11.242H695.245v-2.381H708.79Zm0-5.614H695.245v-2.389H708.79Zm0-11.236H695.245v-2.383H708.79Zm0-5.621H695.245v-2.383H708.79Zm0-5.614H695.245V498.6H708.79Zm0-5.614H695.245v-2.389H708.79Zm0-11.242H695.245V481.75H708.79Zm15.082,229H710.329v-2.383h13.543Zm0-21.137H710.329v-2.383h13.543Zm0-5.621H710.329v-2.383h13.543Zm0-11.229H710.329v-2.389h13.543Zm0-11.243H710.329v-2.381h13.543Zm0-5.614H710.329V655.9h13.543Zm0-5.614H710.329v-2.389h13.543Zm0-5.621H710.329V644.67h13.543Zm0-11.235H710.329v-2.39h13.543Zm0-5.616H710.329v-2.389h13.543Zm0-11.242H710.329v-2.383h13.543Zm0-5.616H710.329v-2.388h13.543Zm0-5.614H710.329v-2.388h13.543Zm0-11.242H710.329v-2.384h13.543Zm0-5.614H710.329v-2.389h13.543Zm0-5.616H710.329V582.87h13.543Zm0-5.621H710.329v-2.383h13.543Zm0-11.236H710.329v-2.387h13.543Zm0-11.235H710.329v-2.383h13.543Zm0-11.235H710.329v-2.389h13.543Zm0-5.616H710.329v-2.389h13.543Zm0-5.621H710.329v-2.381h13.543Zm0-11.235H710.329v-2.389h13.543Zm0-5.616H710.329v-2.388h13.543Zm0-5.621H710.329v-2.383h13.543Zm0-11.235H710.329V498.6h13.543Zm0-11.235H710.329V487.37h13.543Zm0-5.621H710.329V481.75h13.543Z" transform="translate(193.404 -56.152)" fill="#6a90ac"/>
      <path id="パス_421" data-name="パス 421" d="M981.573,694.558c-3.108,3.373-8.028-4.354-8.8-10.115-9.5-70.878-113.93-47.588-89.292-1.286,10.663,20.049,34.366,8.591,31.532,1.945-.889-2.1-8.8,2.855-15.015-8.789s10.718-30.681,25.4-16.563c10.151,9.761,15.48,27.286,14.078,43.146l0,0c-8.9,14.88-17.152,12.251-12.876,7.7,3.9-4.146,2.713-13.06-9.172-11.651-19.841,2.348-21.3,31.666-2.007,36.921l0,0c1.9,6.776,9.518,3.11,6.737,21.129-2.491,16.137-11.78,26.984-28.665,49.906,26.173-22.155,41.77-32.493,51.4-46.714,4.618-6.817,1.577-25.516,12.323-11.828,32.206,41.014,98.467-18.523,48.093-19.236C1041.42,718.809,1012.718,660.723,981.573,694.558Z" transform="translate(250.397 4.761)" fill="#fff"/>
      <path id="パス_422" data-name="パス 422" d="M1202.68,838.7c-21.434-10.851-14.573-7.884-34.294-6.269,36.169-4.867,25.667-50.686,9.386-76.014-10.448-16.255-50.337-24.776-69.439-23.713-5.306.292-19.168,1.174-22.788,6.379.008-18.894-18.459-36.707-44.071-31.9-27.919,5.244-46.987,31.735-25.809,43.189-22.351-7.043-56.471,5.56-59.983,22.688-5.009,24.417,1.148,45.2,15.36,51.642,13.722,6.216,19.69,12.022,18.042,29.724-1.9,20.369.729,17.223-14.724,27.14,3.462-13.376-1.034-23.71-9.452-30.368-16.471-13.027-32.31-2.559-39.469,7.245-10.49,14.37,4.635,27.484,10.56,26.161-5.3-17.369,16.268-21.66,21.124-13.928,5.9,9.39,1.294,18.759-6.811,27.937-3.864,4.381-19.607,20.239-48.313,32.91,11.951-25.327,10.208-57.2-15.6-77.78-37.833-30.165-80.676,27.611-38.264,39.6,2.388.672,11.709,1.423,7.516-1.679-18.744-13.87-4.4-29.142,8.348-28.072,9.91.836,18.523,13.908,11.972,30.084C863,925.7,871.014,948.8,840.8,952.506c-22.786,2.795-59.676-6.737-76.247-23.323-33.869-33.892,5.226-77.9,20.7-112.6,3.653-6.736,7.427-13.762,11.331-21.013,34.309-53.2,72.306-87.786,93.315-117.746C1116.228,444.467,1124.127,432.4,1124.127,432.4l-8.655-11.962S966.864,573.194,826.9,716.489c-72.68,100.824-163.14,111.086-177.371,134.623a42.313,42.313,0,0,0-26.035-25.461c-16.332-5.48-34.085,2.573-31.629,18.662,1.727,11.3,14.315,12.885,17.856,7.642,4.1-6.079,5.421-7.982,8.348-7.736,8.682.729,18.126,19,3.7,26.459-2.445,1.263-10.96,6.142-14.865,1.43-5.394-6.5-13.813-13.607-25.353-5.646a16.013,16.013,0,0,0-6.1,7.093c-19.261-16.815-26.067-46.094-.334-73.486,29.782-31.7,42.193,8.5,23.177,7.579-4.256-.206-3.41,4.381-1.854,5.158,27.563,13.741,55.621-36.818,14.439-53.83-29.979-12.385-53.692,11.857-67.54,39.012-16.227-16.247-45.659-21.754-57.26,12.07-5.218,15.213,8.6,32.273,19.4,33.714,19.191,2.556-27.789,55.846-76.107,28-44.52-25.664-30.915-127.963,34.456-108.487,45.263,13.478,42.4-4.2,28.8-12.573-17.406-10.72-21.437,3.541-31.752.245-13.748-4.387-4.57-24.976,7.079-25.972,16.281-1.393,27.581,18.93,41.41-1.285,11.321-16.557-.939-30.168-19.187-31.3,26.663-28.431-18.656-64.468-42.188-30.181-4.549,6.628-2.042,17.12,4.226,21.617-13.85-5.4-29.97-3.846-40.511,10.112-13.684,18.117-2.351,32.577,13.064,39.475-13.237-3.72-31.341,8.018-22.114,22.522a27.018,27.018,0,0,0-17.415-6.448c-21.843-22.789-63.976-13.558-65.029-52.237-.692-25.413-9.881-24.191,12.856-38.072-.157,48.59,70.05,35.687,65.946-7.845-2.141-22.694-36.467-39.919-22.688-61.769,4.734-7.507,17.677-18.165,34.469-16.5,19.564,1.948,28.285,32.957,9.6,38.227s-19.2.382-25.473,1.117c-12.362,1.45,17.908,36.678,51.557,17.914,55.535-30.971,12.708-136.807-77.21-77.738,31.761-36.764,24.864-90.642-27.135-110.164-39.061-14.667-68.22,1.941-80.183,29.014s13.661,52.447,13.661,52.447c-21.317,1.8-38.986-4.056-55.263,12.916-14.959,15.6-26.906,42.17-26.91,63.777,0,25.022,27.871,66.166,54.87,55.957-28.877,32.8,6.276,97.494,64.753,102.4-8.328,6.172-38.094-8.455-40.934.055-5.511,16.5,13.656,68.1,43.544,64.441-87.265,6.012-37.909,169.534,64.945,149.545-6.591,16.289-6.842,72.906,35.073,87.405,37.89,13.11,61.5,7.685,76.155-4.064A57.885,57.885,0,0,0,599.2,1033.569a141,141,0,0,0,34.822-.883c.042,1.148.077,2.29.16,3.442,3.972,54.821,51.948,96.02,107.16,92.022a100.291,100.291,0,0,0,85.306-61.04,62.889,62.889,0,0,0,48.682,17.416c23.925-1.733,43.65-16.132,52.345-35.614a57.774,57.774,0,0,0,45.237,16.963c27.007-1.956,50.124-40.691,38.968-62.757,12.408,12.3,45.655,16.715,61.611-14.025,7.1.725,25.4-5.161,15.809,14.6-13.7,28.217,59.826,49.4,71.955,1.062,25.484-5.992,54.832-19.678,84.641-43.93,11.763-9.57,12.574-12.757,17.431-19.715-24.342,9.824-27.783,12.174-51.786,14.933C1229.845,910.821,1240.158,857.671,1202.68,838.7Z" transform="translate(-119.435 -129.44)" fill="#fff"/>
      <path id="パス_423" data-name="パス 423" d="M1168.375,798.587a22.239,22.239,0,0,0-22.239-22.238h-89.055V766h-8.388V740.234a44.443,44.443,0,0,0,14.1-8.228,34.33,34.33,0,0,0,15.771-5.993c6.643-1.58,11.851-3.791,14.169-6.865,0,0-27.819,4.125-41.31-.877h-.191V709.73h-9.783v-8.151c3.279-.612,14.458-3.012,20.1-8.26a33.142,33.142,0,0,0,15.107-5.787c6.429-1.526,11.478-3.668,13.727-6.643,0,0-26.942,3.988-40-.854h-.106v-8.541H1040.5v-8.35s12.743-2.158,19.346-8.45a32.131,32.131,0,0,0,14.916-5.644c6.214-1.479,11.1-3.554,13.269-6.427,0,0-26.049,3.866-38.677-.816h-.177v-8.542h-9.791v-8.357s12.125-2.555,18.737-8.847a31.209,31.209,0,0,0,14.741-5.49c6.008-1.426,10.722-3.432,12.819-6.207,0,0-25.165,3.728-37.368-.794v-5.705h-9.783v-9.7a29.572,29.572,0,0,0,14.49-7.473,30.472,30.472,0,0,0,18.15-5.721c5.817-1.432,10.385-3.43,12.415-6.207,0,0-29.422,7.6-58.658-21.239l.746-.731V545.9h-1.761v-3.286h-2.815a2.091,2.091,0,0,0-1.189-2.281v-1.3s2.638-1.175,2.638-3.173h-2.638v-3.08h1.554v-.831c0-.893-1.554-.893-1.554-.893v-2.951h1.554v-.831c0-.893-1.554-.893-1.554-.893v-2.952h1.554v-.831c0-.891-1.554-.891-1.554-.891v-2.952h1.554v-.831c0-.893-1.554-.893-1.554-.893v-2.951h1.554v-.831c0-.893-1.554-.893-1.554-.893v-2.951h1.554v-.832c0-.891-1.554-.891-1.554-.891V504.74h1.554v-.832c0-.891-1.554-.891-1.554-.891v-2.952h1.554v-.831c0-.891-1.554-.891-1.554-.891V495.39h1.554v-.831c0-.891-1.554-.891-1.554-.891v-2.846h1.952v-8.1a1.944,1.944,0,0,0-1.952-2.052v-2.524s.74,0,.74-1.1h-.74V475.57s.74,0,.74-1.1h-.74v-1.684s.594,0,.594-.763h-1.388v-6.672a.286.286,0,1,0-.572,0v6.672h-1.4c0,.763.6.763.6.763v1.684h-.74c0,1.1.74,1.1.74,1.1v1.479h-.74c0,1.1.74,1.1.74,1.1v2.524a1.949,1.949,0,0,0-1.959,2.052v8.1h1.959v2.846s-1.563,0-1.563.891v.831h1.563v2.952s-1.563,0-1.563.891v.831h1.563v2.952s-1.563,0-1.563.891v.832h1.563v2.951s-1.563,0-1.563.891v.832h1.563v2.951s-1.563,0-1.563.893v.831h1.563v2.951s-1.563,0-1.563.893v.831h1.563v2.952s-1.563,0-1.563.891v.831h1.563v2.952s-1.563,0-1.563.893v.831h1.563v2.951s-1.563,0-1.563.893v.831h1.563v3.08h-2.639c0,2,2.639,3.173,2.639,3.173v1.289a2.1,2.1,0,0,0-1.2,2.289h-2.807V545.9h-1.768v.893l.746.731c-29.231,28.841-58.651,21.239-58.651,21.239,2.027,2.776,6.6,4.774,12.415,6.207a30.44,30.44,0,0,0,18.15,5.721,29.565,29.565,0,0,0,14.489,7.473v9.7H989.34v5.705c-12.2,4.522-37.367.794-37.367.794,2.1,2.775,6.81,4.781,12.819,6.207a31.194,31.194,0,0,0,14.734,5.49c6.611,6.293,18.737,8.847,18.737,8.847v8.357H988.48v8.542H988.3c-12.636,4.682-38.686.816-38.686.816,2.174,2.874,7.055,4.949,13.269,6.427a32.14,32.14,0,0,0,14.917,5.644c6.611,6.291,19.354,8.45,19.354,8.45v8.35h-9.791v8.541h-.1c-13.062,4.842-40,.854-40,.854,2.251,2.975,7.29,5.109,13.72,6.643A33.2,33.2,0,0,0,976.1,693.32c5.652,5.255,16.83,7.657,20.1,8.268v8.143h-9.791v8.541h-.185c-4.461,1.656-10.494,2.308-16.567,2.444-7.224-14.38-17.789-25.729-33.163-25.729-22.777,0-35.011,24.912-41.437,47.7h-6.447v-7.635a.949.949,0,0,0-.339-1.243V720.69s-.055-34.72-29.945-47.053v-5.61l-4.7-5.94v-6.524a1.038,1.038,0,0,1,1.111-1.014v-1.566l1.47-3.165v-2.379a3.59,3.59,0,0,0-3.787-2.71V643.7l-3.864-4.987v-3.72s1.761-1.863,1.761-3.719v-1.081l-5.99-22.756a2.612,2.612,0,0,0,.65-1.688H847.9a.3.3,0,0,0,.292-.292v-1.141a1.123,1.123,0,0,0,.4-.916.365.365,0,0,0,.278-.4s.128-1.452-.971-1.452S846.93,603,846.93,603a.364.364,0,0,0,.276.4,1.123,1.123,0,0,0,.4.916v.845h-2.624a4.544,4.544,0,0,1,.1-1.761l0-.009c.08-.14.936-1.761.118-2.462a1.39,1.39,0,0,0-.866.328,5.907,5.907,0,0,0-2.643-2.689,1.3,1.3,0,0,0-.267-1.23s.455-1.06,0-1.632c0,0,.326-.767,0-1.093,0,0,.031-1.077-.458-1.077s-.458,1.077-.458,1.077c-.326.326,0,1.093,0,1.093-.454.572,0,1.632,0,1.632a1.3,1.3,0,0,0-.267,1.23,5.914,5.914,0,0,0-2.643,2.689,1.385,1.385,0,0,0-.864-.328c-.818.7.039,2.322.117,2.462l0,.009a4.571,4.571,0,0,1,.1,1.761h-2.621v-.845a1.126,1.126,0,0,0,.4-.916.366.366,0,0,0,.28-.4s.128-1.452-.972-1.452-.971,1.452-.971,1.452a.365.365,0,0,0,.278.4,1.126,1.126,0,0,0,.4.916v1.141a.3.3,0,0,0,.294.292h2.916a2.612,2.612,0,0,0,.65,1.688l-5.989,22.756v1.081c0,1.856,1.761,3.719,1.761,3.719v3.72l-3.864,4.987v1.031a3.588,3.588,0,0,0-3.786,2.71v2.379l1.467,3.165v1.566a1.041,1.041,0,0,1,1.112,1.014v6.524l-4.7,5.94v5.61c-29.89,12.333-29.945,47.053-29.945,47.053V733.8a.951.951,0,0,0-.337,1.243v7.635h-7.5l-1.045,7.11h-7.243l-1.3,11.747H769l-.8,14.809H757.465v-.414a19.225,19.225,0,0,1-2.184-9.555V751.625h-.135s-.8-52.607-.8-72.2h3.114v-4.183s.08-.008.214-.024c.8-.1,3.606-.553,4.29-1.925l-8.078-1.933s-.151-10.193-.262-24.007H793.2V637.281c1.612-.074,2.429-.126,2.429-.126v-2.569s-12.27.7-35.6,1.272v-1.9s1.652.418,1.318-1.121l-7.8-4.176v-.008q-.012-2.624-.008-5.264h3.025v-5.3c26.074-1.145,38.271-2.685,38.271-2.685l2.876-10.007s4.469-.31,7.312-.762l4.9-5.2s7.774-1.047,9.927-3.976V586.4c4.273-3,6.218-10.318,6.218-10.318s-18.528,13.95-130.9,13.95-130.9-13.95-130.9-13.95,1.947,7.322,6.218,10.318v9.07c2.152,2.929,9.927,3.976,9.927,3.976l4.9,5.2c2.843.451,7.314.762,7.314.762l2.875,10.007s12.2,1.54,38.269,2.685v5.3h3.026q0,2.637-.006,5.264v.008l-7.8,4.176c-.333,1.539,1.318,1.121,1.318,1.121v1.9c-23.332-.577-35.6-1.272-35.6-1.272v2.569s.817.051,2.43.126v10.068H636.7c-.112,13.814-.263,24.007-.263,24.007l-8.077,1.933c.676,1.372,3.471,1.824,4.281,1.925.144.017.223.024.223.024v4.183h3.112c0,12.827-.34,39.79-.575,56.894H579.376V698.871a1.284,1.284,0,0,1-.7-1.227V670.56c0-3.669-1.7-5.341-1.8-6.677s.952-2.676-2-4.124-2.208-3.67-2.208-3.67a2.65,2.65,0,0,0-2.219-2.906v-4.114h-7.392c-.734-1.336-6.753-1.116-6.753-1.116a9.686,9.686,0,0,1-6.227-2v-1.458H536.581v1.558l-4.229-.012c-7.485,0-5.705,6.48-9.118,2.024-3.433-4.455-6.815-4.013-6.815-4.013V614.964h1.475v-4.676h-4.636V599.366a1.576,1.576,0,0,0-.012-.222,9.932,9.932,0,0,0-.105-1.406l.01.158c-.01-.045-.01-.1-.019-.167a.3.3,0,0,0-.012-.1v-.055a.3.3,0,0,1-.012-.065,41.841,41.841,0,0,0-7.3-18.772c-.01-.032-.01-.077-.021-.11a.59.59,0,0,0-.263-.277,29.89,29.89,0,0,0-4.114-4.378.564.564,0,0,0-.155-.187c-.054-.045-.285-.221-.64-.464a26.437,26.437,0,0,0-3.779-2.53.472.472,0,0,0-.251-.136,33.847,33.847,0,0,0-29.9,0,.483.483,0,0,0-.25.136,26.581,26.581,0,0,0-3.779,2.53c-.355.244-.587.419-.64.464a.441.441,0,0,0-.145.187,30.122,30.122,0,0,0-4.125,4.378.615.615,0,0,0-.263.277c-.009.033-.009.078-.018.11a41.872,41.872,0,0,0-7.3,18.772v.012l-.012.054c0,.055-.009.11-.009.155-.01.068-.01.122-.021.167l-.126,1.018-.063.541v10.833h-4.65v4.676h1.489v32.325H425.247v-2.233a22.076,22.076,0,0,0-7.275,0c-3.9.662-2.753,1.77-4.019,2.233v1.436h-7.382s-.628.774-1.267.774a46.648,46.648,0,0,1-5.527,0c-2.061-.188-3.569.153-3.569,1.061,0,0-1.834,2.764-2.932,3.006s-4.219,3.959-3.895,6.634a6.381,6.381,0,0,1-2.115,5.916c-1.59,1.436-2.22,2.675-2.22,3.9s.953,2.444-.953,3.007-1.685,1.448-1.894,3.117-2.753,5.008-4.847,5.008c-2.113,0-1.7,2.787-1.7,2.787h-1.538v1.481h-3.947a2.054,2.054,0,0,1-1.12-1.249h-25.8v-1.338s-2.522-.344-2.522.663l-1.267.563h-30.39V658.675a1.984,1.984,0,0,0-1.434-1.847c-1.413-.409-2.533-.918-2.533-1.668s-.148-1.493-1.571-1.493-4.355.232-5.068.077c-.721-.178-3.014.409-3.161,1.007-.167.586-3.643,1.416-4.124,1.416s-1.571,0-1.571,1.336V776.349H245.473a22.22,22.22,0,0,0-22.166,20.811h-.367V919.376h945.139V798.588h.3Zm-771.2-37.333V741.708h6.23v19.545Zm32.246.465V742.66h5.893v19.059Zm30.723-178.261a25.46,25.46,0,0,1,.786,3.261,44.638,44.638,0,0,0-5.162,8.755c-.46.123-.909.255-1.329.387A50.613,50.613,0,0,1,460.148,583.457Zm-5.212,8.015c.2-.773.428-1.591.7-2.443.314-.454.636-.918.982-1.382C455.963,588.983,455.407,590.279,454.937,591.472Zm2.072-6.048a31.828,31.828,0,0,1,2.208-4.21c.168.319.335.662.492,1.027l-.253.364C458.568,583.536,457.752,584.486,457.009,585.425Zm24.151-13.143v.519a29.156,29.156,0,0,0-11.18,2.354c-.19-.386-.389-.773-.609-1.149a22.626,22.626,0,0,1,8.156-3.13A13.049,13.049,0,0,1,481.161,572.281Zm-.849-1.715.849-.032v.454C480.878,570.832,480.594,570.7,480.312,570.567Zm10.782,31.641v4.123h-3.9v-4.123Zm-1.1-10.823c-1.067-4.445-3.068-9.971-6.677-12.824a14,14,0,0,1,7.5,4.665A55.579,55.579,0,0,0,489.995,591.384Zm18.855,4.51c-.419-.133-.87-.264-1.33-.4a43.951,43.951,0,0,0-5.173-8.778,25.907,25.907,0,0,1,.786-3.261A50.981,50.981,0,0,1,508.85,595.894Zm-5.277-13.652a11.38,11.38,0,0,1,.535-1.085c.481.786.952,1.6,1.393,2.466.323.651.628,1.3.9,1.956a38.51,38.51,0,0,0-2.584-2.973C503.741,582.484,503.656,582.364,503.573,582.242Zm3.088,5.405c.367.5.723,1,1.048,1.493.272.872.512,1.715.712,2.508C507.938,590.411,507.351,589.062,506.661,587.647Zm-.083,20.683V604.6H508.9v3.725ZM508.9,610.3v7.065h-2.324V610.3Zm-8.05-3.016v-3.737h3.119v3.737Zm3.119,1.954V616.3h-3.119v-7.065Zm-2.417-14.922c.083-1.781.241-3.981.555-6.159a42.924,42.924,0,0,1,4.164,7.033C504.818,594.844,503.217,594.557,501.553,594.314Zm0-8.591a32.681,32.681,0,0,0-2.481-2.72c.063-1.005.167-1.99.314-2.93a35.949,35.949,0,0,1,2.983,2.6A27.879,27.879,0,0,0,501.553,585.723Zm-.251,1.37a59.049,59.049,0,0,0-.722,7.088c-.336-.055-.682-.1-1.027-.144a68.354,68.354,0,0,1-.544-9.574A31.177,31.177,0,0,1,501.3,587.093ZM499.741,653.9v25.138h-8.647V653.9Zm-8.647,44.142h8.647v25.127h-8.647Zm-1.9-59.265v-7.684h7.278v7.684Zm9.569-60.536a30.835,30.835,0,0,0-4.533-2.655c.167-.344.346-.685.535-1.007A26.691,26.691,0,0,1,498.82,578,1.628,1.628,0,0,0,498.768,578.241Zm-.251,1.18c-.158.876-.272,1.794-.355,2.723a26.669,26.669,0,0,0-5.109-3.68c.209-.632.45-1.24.7-1.836A29.716,29.716,0,0,1,498.517,579.42Zm-.439,4.115a63.723,63.723,0,0,0,.46,10.268,43.208,43.208,0,0,0-6.627-11.009c.219-1.084.482-2.177.8-3.229A26.376,26.376,0,0,1,498.078,583.536Zm-.671,10.258c-2.21-.232-4.417-.41-6.449-.542a58.507,58.507,0,0,1,.691-9.055A43.463,43.463,0,0,1,497.407,593.794Zm-6.313,14.713V616.3h-3.9v-7.794Zm-1.161,133.411a3.459,3.459,0,0,0,2.208,3.141V769.9h-21.1V745.058a3.463,3.463,0,0,0,2.22-3.141Zm-26.487-18.749V698.041H472.1v25.127ZM465.2,583.524a26.85,26.85,0,0,1,5.371-3.968c.314,1.061.576,2.143.8,3.238a43.276,43.276,0,0,0-6.626,11.009A63.959,63.959,0,0,0,465.2,583.524Zm6.418.672a58.364,58.364,0,0,1,.7,9.055c-2.031.123-4.24.3-6.449.53A43.972,43.972,0,0,1,471.623,584.2ZM476,602.207v4.123H472.1v-4.123Zm-3.528-18.982a13.98,13.98,0,0,1,7.494-4.665c-3.61,2.853-5.611,8.379-6.677,12.824A54.2,54.2,0,0,0,472.471,583.225ZM476,608.507V616.3H472.1v-7.794Zm-9.276,22.586H474v7.684h-7.278Zm10.541,92.076V698.041h8.658v25.127Zm8.658-44.131h-8.658V653.9h8.658Zm-.678-40.261h-7.3v-7.684h7.3Zm-1.7-22.475h-3.906v-7.794h3.906Zm-9.63-23.138c.981-4.687,3.075-11.385,7.243-14.095V592.91C480.124,592.92,477.381,592.975,473.917,593.163Zm-1.708-11.286c-.2-.939-.44-1.88-.722-2.8a22.377,22.377,0,0,1,9.673-2.366v.521C477.706,577.4,474.713,579.29,472.209,581.876Zm-1.067-3.891c-.209-.609-.441-1.194-.693-1.77a28.211,28.211,0,0,1,10.711-2.231v1.547A23.03,23.03,0,0,0,471.142,577.985Zm-1.615-1.359c.253.6.494,1.2.7,1.836a26.669,26.669,0,0,0-5.109,3.68c-.083-.928-.2-1.847-.355-2.723A29.816,29.816,0,0,1,469.528,576.626Zm-5.013,1.615c-.01-.09-.042-.167-.053-.244a27.2,27.2,0,0,1,4.051-3.418c.189.322.367.663.535,1.007A30.975,30.975,0,0,0,464.515,578.241ZM472.1,653.9v25.138h-8.657V653.9Zm-8.375-59.873c-.345.044-.691.087-1.025.144a59.475,59.475,0,0,0-.722-7.087,30.542,30.542,0,0,1,2.293-2.631A68.531,68.531,0,0,1,463.729,594.027Zm-4.5,15.209h3.109V616.3h-3.109Zm-2.21-14.07a42.749,42.749,0,0,1,4.156-7.021c.313,2.178.471,4.388.554,6.158C460.066,594.544,458.476,594.832,457.019,595.166Zm2.21,12.116v-3.737h3.109v3.737Zm2.5-21.558a27.879,27.879,0,0,0-.816-3.051,35.96,35.96,0,0,1,2.984-2.6c.145.94.251,1.925.313,2.93A32.916,32.916,0,0,0,461.73,585.723ZM456.61,604.6v3.725H454.3V604.6Zm0,5.694v7.065H454.3V610.3Zm72.631,150.755v-17.72h5.9v17.72ZM644.677,630.746l5.481,2.72v.845h-5.472C644.686,633.133,644.686,631.944,644.677,630.746Zm2.8,130.307v-17.72h5.894v17.72Zm98.156-126.742H740.17v-.845l5.469-2.71C745.639,631.951,745.639,633.133,745.633,634.311Zm279.039,114.212v15.205h-5.087V748.523Zm-8.816-152.73a3.167,3.167,0,0,1,5.94,0v2.072h-5.94Zm-.381,35.133a3.573,3.573,0,0,1,6.7,0v2.34h-6.7Zm-.382,37.962s.444-2.593,3.73-2.593,3.736,2.593,3.736,2.593v2.607h-7.466Zm-.381,37.969s.489-2.86,4.111-2.86,4.118,2.86,4.118,2.86v2.874h-8.229Zm-1.731,41.667h5.08v15.205h-5.08Zm-38.121-16.51h.006a44.49,44.49,0,0,0,14.092,8.229V766h-5.988a185.637,185.637,0,0,0-8.49-34.046C974.609,731.974,974.73,732,974.859,732.013ZM936.5,729.04c16.5,0,28.7,36.309,32.022,47.309H913.748l-.8-14.809H909.64C915.41,747.03,924.9,729.04,936.5,729.04ZM759.029,633.466v.845H753.55c0-1.179,0-2.367-.008-3.565Zm-55.177-14.174c14.817-.067,27.715-.326,38.777-.678v4.778h3.026q0,2.637-.006,5.264v.008l-7.8,4.176c-.333,1.539,1.327,1.121,1.327,1.121v2.31q-15.631.252-35.324.318Zm41.709,28.058c-.1,13.814-.254,24.007-.254,24.007l-8.092,1.933c.722,1.464,3.875,1.883,4.423,1.942a.554.554,0,0,0,.08.008v4.183h3.1c0,19.6-.794,72.2-.794,72.2H743.9v14.754a19.225,19.225,0,0,1-2.184,9.555v.414H667.47V743.157h.954v-5.682A1.824,1.824,0,0,0,667,736.315a1.9,1.9,0,0,0-2.553,0H646.08c-.236-17.1-.576-44.067-.576-56.894h3.1v-4.183a.554.554,0,0,0,.08-.008c.548-.059,3.7-.477,4.423-1.942l-8.093-1.933s-.15-10.193-.254-24.007ZM647.7,623.391v-4.778c11.062.353,23.96.612,38.779.678v17.3q-19.68-.05-35.325-.318v-2.31s1.661.418,1.326-1.121l-7.8-4.176v-.008q-.011-2.624-.008-5.264Zm-16.4,10.92v-.845l5.48-2.71c0,1.2,0,2.376-.009,3.555Zm-.814,109.022H635.3c-.072,5.1-.121,8.292-.121,8.292h-.136v9.428h-4.56Zm-18.465,0h5.9v17.72h-5.9Zm-8.5,0h5.894v17.72h-5.894Zm-8.5,0h5.894v17.72h-5.894Zm-17.806,0h5.9v17.72h-5.9Zm-2.608,0v17.72h-5.894v-17.72Zm-11.652-81.175h6.23v18.826h-6.23Zm0,41.345h6.23v18.814h-6.23Zm3.152,39.83v17.72h-5.9v-17.72Zm-12.114-81.175h6.218v18.826h-6.218Zm0,41.345h6.218v18.814h-6.218Zm-10.354,57.55h-5.893v-17.72h5.893Zm-11.442-98.895h6.218v18.826h-6.218Zm0,41.345h6.218v18.814h-6.218Zm-8.96-41.345h6.217v18.826h-6.217Zm0,41.345h6.217v18.814h-6.217Zm-2.481,39.83h5.894v17.72h-5.894Zm-10.48-146.9a43.918,43.918,0,0,0-.805-4.465,39.009,39.009,0,0,1,2.638,5.5A7.68,7.68,0,0,0,510.272,596.435Zm-4.992-16.77a34.47,34.47,0,0,1,2.261,3.548,40.859,40.859,0,0,1,3.842,10.169,48.2,48.2,0,0,0-2.9-4.951,36.648,36.648,0,0,0-3.779-8.169A4.485,4.485,0,0,1,505.28,579.665Zm-4.187-4.61a27.487,27.487,0,0,1,3.516,3.738,6.056,6.056,0,0,0-.512.551,27.829,27.829,0,0,0-3.237-3.913C500.935,575.3,501.019,575.177,501.093,575.055Zm2.4,5.142a10.425,10.425,0,0,0-.566,1.093,37.375,37.375,0,0,0-2.984-3.68,11.323,11.323,0,0,1,.44-1.216A25.613,25.613,0,0,1,503.49,580.2Zm-3.236-5.772c-.053.089-.095.187-.145.276-.516-.464-1.037-.917-1.593-1.348C499.281,573.784,499.878,574.17,500.254,574.425Zm-4.345-1.591a23.626,23.626,0,0,1,3.706,2.819c-.156.377-.313.763-.449,1.161a26.935,26.935,0,0,0-3.811-3.2C495.534,573.343,495.724,573.087,495.909,572.834Zm-4.354-2.034a23.651,23.651,0,0,1,3.433,1.526c-.168.232-.335.464-.492.717a23.6,23.6,0,0,0-5.192-2.488A17.059,17.059,0,0,1,491.556,570.8Zm-9.432-1.581a34.6,34.6,0,0,1,4.229.319c-.21.046-.431.078-.649.135a24.773,24.773,0,0,0-3.581-.323Zm0,1.316.848.032c-.282.132-.566.265-.848.409Zm0,1.747a12.878,12.878,0,0,1,3.632-1.406,22.477,22.477,0,0,1,8.145,3.13c-.209.376-.408.763-.6,1.149a29.172,29.172,0,0,0-11.18-2.354Zm0,1.7a28.2,28.2,0,0,1,10.709,2.231c-.251.576-.482,1.161-.691,1.77a23.044,23.044,0,0,0-10.018-2.454Zm0,2.729a22.412,22.412,0,0,1,9.672,2.366c-.282.93-.522,1.858-.721,2.8-2.5-2.587-5.5-4.477-8.951-4.642Zm0,2.354c4.167,2.71,6.259,9.408,7.244,14.095-3.412-.187-6.145-.242-7.244-.265Zm1.423,23.14v4.123h-3.906v-4.123Zm-2.387-32.989v.131a23.559,23.559,0,0,0-3.58.323c-.219-.056-.44-.088-.66-.135A32.109,32.109,0,0,1,481.161,569.219Zm-9.2,1.536a16.8,16.8,0,0,1,2.02-.2,23.75,23.75,0,0,0-5.181,2.488c-.147-.232-.314-.454-.472-.662A24.741,24.741,0,0,1,471.958,570.755Zm-4.532,2.144c.167.232.333.476.491.718a28.81,28.81,0,0,0-3.8,3.2c-.126-.376-.271-.74-.418-1.082A23.1,23.1,0,0,1,467.426,572.9Zm-2.648.454c-.567.431-1.089.884-1.6,1.348-.053-.089-.095-.187-.147-.276C463.4,574.17,464,573.784,464.778,573.353Zm-1.843,3.118c.145.353.282.741.408,1.139a37.016,37.016,0,0,0-2.984,3.68,9.2,9.2,0,0,0-.534-1.027A27.027,27.027,0,0,1,462.935,576.471Zm-.744-1.416c.073.122.156.244.231.377a27.638,27.638,0,0,0-3.235,3.913,6.255,6.255,0,0,0-.513-.551A27.419,27.419,0,0,1,462.191,575.055Zm-6.448,8.159a34.452,34.452,0,0,1,2.26-3.548,4.488,4.488,0,0,1,.576.6,36.758,36.758,0,0,0-3.779,8.169,47.936,47.936,0,0,0-2.9,4.951A40.811,40.811,0,0,1,455.743,583.214Zm-1.926,8.756a41.094,41.094,0,0,0-.808,4.422,8.846,8.846,0,0,0-1.8.973A40.381,40.381,0,0,1,453.817,591.97Zm-15.589,69.357h6.229v20.5h-6.229Zm0,41.346h6.229v20.5h-6.229Zm-.3,39.987h5.9v19.059h-5.9Zm-8.659-81.332h6.218v20.5h-6.218Zm0,41.346h6.218v20.5h-6.218Zm-2.449,59.046h-5.894V742.66h5.894Zm-6.533-100.391h6.229v20.5h-6.229Zm0,41.346h6.229v20.5h-6.229ZM404.77,661.327h6.239v20.5H404.77Zm-1.361,41.346v20.5h-6.23v-20.5Zm-7.6-41.346h6.229v20.5H395.81Zm-7.6,41.346h6.229v20.5H388.21Zm0,39.035h6.229v19.545H388.21Zm-8.961-39.035h6.218v20.5h-6.218Zm0,39.035h6.218v19.545h-6.218ZM366.6,702.673h5.569v20.5H366.6Zm0,39.731h5.569v19.534H366.6Zm-8.029-39.731h5.569v20.5h-5.569Zm0,39.731h5.569v19.534h-5.569Zm-8.029-39.731h5.569v20.5h-5.569Zm0,39.731h5.569v19.534h-5.569Zm-19.316-39.731h6.239v20.5h-6.239Zm0,39.731h6.239v19.534h-6.239Zm-8.959-39.731h6.217v20.5h-6.217Zm0,39.731h6.217v19.534h-6.217ZM313.3,702.673h6.23v20.5H313.3Zm0,39.731h6.23v19.534H313.3Zm-15.2-81.077h3.244v20.5H298.1Zm0,41.346h3.244v20.5H298.1Zm0,41.268h3.244V762.88H298.1Zm-4.669-82.614h3.234v20.5h-3.234Zm0,41.346h3.234v20.5h-3.234Zm0,41.268h3.234V762.88h-3.234Z" transform="translate(72.897 -58.367)" fill="#1f2b5d"/>
      <path id="パス_424" data-name="パス 424" d="M777.053,422.824c16.7-20.628,19.625-45.935,11.8-52.267s-31.965,1.806-48.66,22.434a54.617,54.617,0,0,0-10.255,21.748c.989.245,2.01.5,3.037.761a88.851,88.851,0,0,0-4.582,29.758,88.869,88.869,0,0,0,26.846-9.921c.358.9.725,1.815,1.111,2.775C763.775,434.778,771.316,429.913,777.053,422.824Z" transform="translate(294.575 -192.672) rotate(7)" fill="#db520d"/>
      <path id="パス_425" data-name="パス 425" d="M764.19,410.467c-10.422,12.877-28.244,15.725-28.244,15.725s-.928-18.027,9.492-30.9,23.361-19.678,28.246-15.724S774.612,397.592,764.19,410.467Z" transform="translate(297.742 -187.218) rotate(7)" fill="#f1831b"/>
      <path id="パス_426" data-name="パス 426" d="M757.053,403.3c-5.684,7.022-15.405,8.577-15.405,8.577s-.507-9.832,5.178-16.855,12.743-10.734,15.407-8.578S762.737,396.276,757.053,403.3Z" transform="translate(300.143 -183.176) rotate(7)" fill="#f7a928"/>
      <path id="パス_427" data-name="パス 427" d="M856.187,397.156C825.922,434.55,793.868,456,771.746,460.719c-5.293,1.129-15.217-5.977-18.962-9.008-3.937-3.187-12.941-11.72-12.965-17.481-.1-22.7,14.87-58.076,44.772-95.022,37.338-46.132,89.714-65.637,103.4-54.555C901.394,295.5,893.525,351.024,856.187,397.156Z" transform="translate(305.627 -235.358) rotate(7)" fill="#e8e7e7"/>
      <path id="パス_428" data-name="パス 428" d="M816.357,338.391c-21.733-17.59-22.88-31.592-18.546-36.947,1.762-2.175,46.985-28.909,62.006-16.751s-1.416,61.319-3.41,63.781C851.565,354.458,838.09,355.979,816.357,338.391Z" transform="translate(333.599 -231.965) rotate(7)" fill="#2095a7"/>
      <path id="パス_429" data-name="パス 429" d="M800.322,407.244c-10.516,6.475-20.249,10.621-28.576,12.4-5.293,1.129-15.217-5.977-18.962-9.008-3.937-3.187-12.941-11.72-12.965-17.482-.036-8.533,1.893-18.408,6.108-29.936,0,0,.123,12.8,20.72,29.466S800.322,407.244,800.322,407.244Z" transform="translate(300.621 -194.588) rotate(7)" fill="#1f2b5d"/>
      <path id="パス_430" data-name="パス 430" d="M883.653,283.636c13.4,10.845,5.531,66.372-31.807,112.5-30.265,37.394-62.319,58.843-84.441,63.563-5.293,1.129-15.217-5.977-18.962-9.008,0,0,36.257-9.939,84.652-69.732S883.653,283.636,883.653,283.636Z" transform="translate(309.813 -233.82) rotate(7)" fill="#1b1311" opacity="0.05"/>
      <path id="パス_431" data-name="パス 431" d="M780.094,347.119l-15.9,33.4s-36.689,18.862-52.44,32.676C744.03,365.914,747.965,356.819,780.094,347.119Z" transform="translate(287.588 -204.352) rotate(7)" fill="#15717f"/>
      <path id="パス_432" data-name="パス 432" d="M709.516,406.695c32.273-47.285,36.208-56.382,68.337-66.082l3.369,9.781c-32.129,9.7-36.063,18.8-68.337,66.08Z" transform="translate(286.868 -207.741) rotate(7)" fill="#2095a7"/>
      <path id="パス_433" data-name="パス 433" d="M810.049,376.228l-29.358,22.509s-10.8,39.813-21.031,58.1C799.181,415.417,807.258,409.671,810.049,376.228Z" transform="translate(309.736 -186.869) rotate(7)" fill="#15717f"/>
      <path id="パス_434" data-name="パス 434" d="M769.928,458.091c39.521-41.417,47.6-47.161,50.388-80.606l-10.267-1.257c-2.792,33.443-10.868,39.189-50.389,80.606Z" transform="translate(309.736 -186.869) rotate(7)" fill="#2095a7"/>
      <path id="パス_435" data-name="パス 435" d="M783.666,359.445a1.157,1.157,0,0,0-.434-.516,4.985,4.985,0,0,0-1.67-.9,3.951,3.951,0,0,0-1.673-.137,4.043,4.043,0,0,0-1.552.568,5.055,5.055,0,0,0-1.322,1.194,5.448,5.448,0,0,0-.985,1.848,4.546,4.546,0,0,0-.159,1.87,4.478,4.478,0,0,0,.61,1.736,5.334,5.334,0,0,0,1.291,1.454,6.209,6.209,0,0,0,1.98,1.089,4.615,4.615,0,0,0,1.95.2,4.522,4.522,0,0,0,1.8-.633,5.763,5.763,0,0,0,1.515-1.364,7.481,7.481,0,0,0,.636-.952,6.889,6.889,0,0,0,.48-1.048,5.288,5.288,0,0,0,.269-1.1,3.565,3.565,0,0,0-.018-1.09l-.038-.217-.985.024c-.364-.008-.66.244-.729.8a5.546,5.546,0,0,1-.113.621,5.458,5.458,0,0,1-.26.8,3.843,3.843,0,0,1-.562.925,3.413,3.413,0,0,1-.9.818,2.372,2.372,0,0,1-1.021.337,2.832,2.832,0,0,1-1.158-.15,4.27,4.27,0,0,1-1.082-.561l3.984-5.039A.617.617,0,0,0,783.666,359.445Zm-5.275,4.59a2.756,2.756,0,0,1-.661-1.52,2.605,2.605,0,0,1,.657-1.827,2.641,2.641,0,0,1,.743-.664,1.97,1.97,0,0,1,.81-.263,2.036,2.036,0,0,1,.846.107,2.717,2.717,0,0,1,.643.323Z" transform="translate(318.945 -195.056) rotate(7)" fill="#666767"/>
      <path id="パス_436" data-name="パス 436" d="M789.907,355.371a.823.823,0,0,0-.164.528,4.976,4.976,0,0,1-.033.528,2.858,2.858,0,0,1-.675,1.532,2.769,2.769,0,0,1-.858.743,2.237,2.237,0,0,1-.991.268,2.916,2.916,0,0,1-1.134-.211,4.738,4.738,0,0,1-1.242-.731,4.916,4.916,0,0,1-.979-1.007,2.855,2.855,0,0,1-.475-1.049,2.23,2.23,0,0,1,.032-1.061,3,3,0,0,1,.568-1.079,3.069,3.069,0,0,1,.618-.613,3.629,3.629,0,0,1,.561-.329,4.665,4.665,0,0,1,.448-.18.747.747,0,0,0,.562-.619.969.969,0,0,0-.03-.3l-.227-.962-.233.038a4.757,4.757,0,0,0-1.687.6,5.371,5.371,0,0,0-1.478,1.329,5.641,5.641,0,0,0-1.019,1.9,4.426,4.426,0,0,0-.143,1.894,4.52,4.52,0,0,0,.666,1.759,6,6,0,0,0,1.373,1.5,5.915,5.915,0,0,0,1.891,1.036,4.645,4.645,0,0,0,1.866.209,4.273,4.273,0,0,0,1.706-.555,4.965,4.965,0,0,0,1.412-1.237,6.5,6.5,0,0,0,1.057-1.917,4.085,4.085,0,0,0,.168-2.091l-.039-.213-.973.023A.63.63,0,0,0,789.907,355.371Z" transform="translate(322.099 -198.234) rotate(7)" fill="#666767"/>
      <rect id="長方形_235" data-name="長方形 235" width="2.277" height="14.077" transform="matrix(0.711, -0.703, 0.703, 0.711, 1059.297, 238.049)" fill="#666767"/>
      <path id="パス_437" data-name="パス 437" d="M797.891,341.452a1.167,1.167,0,0,0-.434-.516,4.991,4.991,0,0,0-1.672-.9,3.919,3.919,0,0,0-1.672-.137,4.05,4.05,0,0,0-1.553.568,5.066,5.066,0,0,0-1.32,1.192,5.456,5.456,0,0,0-.986,1.849,4.427,4.427,0,0,0,.451,3.607A5.361,5.361,0,0,0,792,348.57a6.24,6.24,0,0,0,1.98,1.089,4.646,4.646,0,0,0,1.951.2,4.519,4.519,0,0,0,1.794-.634,5.715,5.715,0,0,0,1.516-1.364,7.3,7.3,0,0,0,.637-.952,6.972,6.972,0,0,0,.48-1.046,5.381,5.381,0,0,0,.269-1.1,3.576,3.576,0,0,0-.018-1.091l-.038-.215-.986.024c-.362-.008-.66.244-.728.8a6.1,6.1,0,0,1-.113.621,5.58,5.58,0,0,1-.26.8,3.788,3.788,0,0,1-.562.925,3.414,3.414,0,0,1-.9.819,2.4,2.4,0,0,1-1.021.337,2.834,2.834,0,0,1-1.158-.15,4.34,4.34,0,0,1-1.082-.561l3.984-5.039A.618.618,0,0,0,797.891,341.452Zm-5.277,4.588a2.757,2.757,0,0,1-.661-1.518,3.016,3.016,0,0,1,1.4-2.493,1.989,1.989,0,0,1,.81-.262,2.06,2.06,0,0,1,.846.105,2.808,2.808,0,0,1,.642.325Z" transform="translate(327.156 -203.174) rotate(7)" fill="#666767"/>
      <path id="パス_438" data-name="パス 438" d="M804.131,337.377a.82.82,0,0,0-.164.528,4.93,4.93,0,0,1-.033.526,3.11,3.11,0,0,1-.168.686,3.075,3.075,0,0,1-.507.848,2.778,2.778,0,0,1-.859.741,2.246,2.246,0,0,1-.992.269,2.964,2.964,0,0,1-1.132-.21,4.782,4.782,0,0,1-1.242-.731,4.914,4.914,0,0,1-.979-1.007,2.87,2.87,0,0,1-.477-1.049,2.249,2.249,0,0,1,.033-1.061,3,3,0,0,1,.568-1.079,3.031,3.031,0,0,1,.618-.613,3.726,3.726,0,0,1,.561-.331,4.518,4.518,0,0,1,.447-.179.751.751,0,0,0,.564-.621,1.028,1.028,0,0,0-.03-.3l-.229-.961-.232.038a4.772,4.772,0,0,0-1.687.6,5.4,5.4,0,0,0-1.478,1.329,5.6,5.6,0,0,0-1.019,1.9,4.4,4.4,0,0,0-.144,1.893,4.571,4.571,0,0,0,.666,1.761,6.058,6.058,0,0,0,1.374,1.5,5.933,5.933,0,0,0,1.891,1.036,4.648,4.648,0,0,0,1.866.209,4.284,4.284,0,0,0,1.7-.555,5,5,0,0,0,1.413-1.237,6.555,6.555,0,0,0,1.057-1.918,4.111,4.111,0,0,0,.168-2.09l-.039-.213-.974.023A.629.629,0,0,0,804.131,337.377Z" transform="translate(330.309 -206.352) rotate(7)" fill="#666767"/>
      <path id="パス_439" data-name="パス 439" d="M810.282,331.549a.544.544,0,0,0-.492.194.577.577,0,0,0-.114.323c-.006.078-.018.17-.035.274a2.011,2.011,0,0,1-.089.326,1.27,1.27,0,0,1-.2.349.872.872,0,0,1-.555.352.908.908,0,0,1-.681-.25l-4.191-3.313,1.785-2.26-1.332-1.052-1.786,2.258-2.521-1.994-.713.9a.68.68,0,0,0-.158.431.6.6,0,0,0,.167.415l1.873,1.965-.885,1.439.692.546a.566.566,0,0,0,.495.131.659.659,0,0,0,.379-.245l.592-.75,4.28,3.383a2.61,2.61,0,0,0,1.983.652,2.785,2.785,0,0,0,1.786-1.149,4.261,4.261,0,0,0,.689-1.258,3.58,3.58,0,0,0,.209-1.346l-.011-.222Z" transform="translate(332.542 -209.294) rotate(7)" fill="#666767"/>
      <path id="パス_440" data-name="パス 440" d="M771.513,365.261l-3.181,1.264h0l-3.181,1.264-.5,3.387h0l-.5,3.387-.5,3.387,2.686,2.123,2.686,2.123,2.686,2.123,3.181-1.264,3.181-1.264,3.181-1.264-2.686-2.123-3.182,1.264-3.181,1.264-2.686-2.123-2.686-2.123,3.181-1.264,3.181-1.264.5-3.387-3.181,1.264-3.181,1.264.5-3.387h0l3.181-1.264,3.181-1.264.5-3.387Z" transform="translate(312.487 -192.735) rotate(7)" fill="#004e60"/>
      <path id="パス_441" data-name="パス 441" d="M773.7,369.5l.5-3.387-2.686-2.123-.5,3.387-.009,0,.008.006-.494,3.378-.009,0,.008.006-.494,3.378-.009,0,2.686,2.123,2.686,2.123,2.686,2.123.009,0,.5-3.387.5-3.387.5-3.387-2.686-2.123-.5,3.387-.009,0,.008.006-.494,3.378L773.2,372.89Z" transform="translate(315.658 -192.348) rotate(7)" fill="#a9a9a8"/>
      <g id="copy" transform="matrix(0.998, -0.07, 0.07, 0.998, 144, 143.434)">
        <path id="パス_490" data-name="パス 490" d="M74.744,551.893c-.291-2.218-.353-2.76-.5-3.7-7.841,1.037-18.306,1.774-28.684,2.316l.16-5.964a22.939,22.939,0,0,1-4.531,6.951l-6.817-6.852c3.546-4.043,5.768-10.4,6.629-15.282l3.824-21.691H62.607l.644-3.65H73.427l-.644,3.65H91.4l-1.52,8.625H53.061l-2.183,12.374a69.155,69.155,0,0,1-3.861,12.966c.525,0,2.956-.1,3.533-.1a194.922,194.922,0,0,0,12.049-24.3l10.221,1.526c-2.486,4.881-9.633,17.747-12.6,22.383,6.147-.347,10.9-.79,12.388-.936a53.219,53.219,0,0,0-3.315-10.059l8.668-3.941c3.181,6.36,5.208,13.9,6.8,21.838Z" transform="translate(-34.37 -504.023)" fill="#1f2b5d"/>
        <path id="パス_491" data-name="パス 491" d="M82.413,537.7h-8.97l5.415-30.714H94.331a15.247,15.247,0,0,0,1.309-2.959h11.7c-.6,1.037-1.188,1.973-1.887,2.959h15.632l-2.9,16.467H85.606l-.208,1.183h37.244l-1.043,5.914H84.355l-.209,1.184h36.143c-3.419,15.824-4.7,19.524-11.994,19.524h-6.714l-.246-1.874-.043.246H78.366l-.216,1.232H68.395l2.119-12.029H80.27l-.661,3.748h1.942Zm4.219-20.065-.243,1.382h22.82l.243-1.382Zm.99-5.62-.242,1.38H110.2l.243-1.38Zm3.372,30.566H93.25l.661-3.748H103.2l-.747,4.24h3.147a2.367,2.367,0,0,0,2.062-.69c.587-.642.846-1.824,1.508-4.684H91.854Z" transform="translate(-15.988 -504.023)" fill="#1f2b5d"/>
        <path id="パス_492" data-name="パス 492" d="M120.7,514.966c-.481,1.785-.876,3.294-1.48,5.052l2.07-.032c5.851-.091,6.774,3.6,5.65,9.982-.559,3.171-2.144,8.624-4.206,10.658-2.141,2.095-5.069,2.156-6.611,2.156a32.813,32.813,0,0,1-4.015-.276l.593-5.977a34.575,34.575,0,0,0,3.766.4,2.143,2.143,0,0,0,2.038-.953c1.02-1.325,2.109-5.637,2.4-7.3.387-2.189.182-3.08-1.63-3.019l-2.142.06c-4.579,11.647-7.466,15.375-8.749,17.067l-5.662-3.019c2.623-3.356,4.451-5.914,7.749-13.831l-4.185.123,1.043-5.914,5.255-.063a42.235,42.235,0,0,0,1.432-5.328Zm7.948,18.329c.6-4.128.926-9.335-.975-13.432l5.936-2.062c2.409,3.265,2.535,9.8,1.928,14.355Z" transform="translate(2.557 -498.228)" fill="#1f2b5d"/>
        <path id="パス_493" data-name="パス 493" d="M135.865,521.253a41.3,41.3,0,0,0-1.774,5.79,22.865,22.865,0,0,1,9.713-2.278c7.017,0,8.507,4.744,7.871,8.348-1.606,9.12-11.616,9.549-19.616,9.549-.524,0-3.968,0-6.95-.185l.151-5.884a65.94,65.94,0,0,0,7.761.431c8.26,0,11.435-1.078,11.988-4.22.5-2.8-2.62-2.8-3.307-2.8-2.951,0-6.945,1.265-8.893,3.2a4.865,4.865,0,0,1-.168.956l-6.355-.216a131.555,131.555,0,0,1,3.079-13Zm12.046,1.785c-3.3-1.756-12.559-2.771-14.543-2.865l2.126-5.543a57.132,57.132,0,0,1,15.153,2Z" transform="translate(14.65 -498.293)" fill="#1f2b5d"/>
        <path id="パス_494" data-name="パス 494" d="M145.606,525.172a35.072,35.072,0,0,0,16.482-14.936l8.721.8a45.646,45.646,0,0,1-2.8,4.325h7.881a12.373,12.373,0,0,1-.006,2.2l8.471-.921c-3.093,9.087-7.707,16.177-13.64,21.3-5.08,4.4-11.567,7.127-22.914,8.889l-2.508-7.287c9.3-.8,21.331-2.8,27.871-16.938H161.612a44.793,44.793,0,0,1-11.744,8.37Zm31.68-9.05a54.327,54.327,0,0,0-.262-6.246l4.112-.36a34.043,34.043,0,0,1,.551,6.047Zm6.313-.759a30.775,30.775,0,0,0-.511-5.808l4.083-.439a26.2,26.2,0,0,1,.531,5.687Z" transform="translate(25.552 -501.272)" fill="#1f2b5d"/>
        <path id="パス_495" data-name="パス 495" d="M212.932,511.507,207.325,543.3H172.131l5.606-31.792Zm-9.856,7.329H184.881l-3.022,17.137h18.195Z" transform="translate(40.053 -499.98)" fill="#1f2b5d"/>
        <path id="パス_496" data-name="パス 496" d="M239.319,518.942l-1.426,8.088H200.482l1.426-8.088Z" transform="translate(55.37 -495.963)" fill="#1f2b5d"/>
        <path id="パス_497" data-name="パス 497" d="M226.28,539.958c1.432-1.362,4.689-4.364,7.8-11.851a82.65,82.65,0,0,0,4.926-16.578l8.068.881c-4.9,18.618-8.116,27.427-14.865,33.555Zm33.456-28.068a29.877,29.877,0,0,1,.631,6.087l1.64-.362c-.317,8.81.193,14.856,4.482,22.184l-8.73,5.767c-2.768-6.047-5.517-14.136-3.57-32.915Zm1.873,4.844a28.593,28.593,0,0,0-1.078-6.444l4.032-.642a23.419,23.419,0,0,1,1.214,6.166Zm5.822-.641c-.508-4.364-.872-5.445-1.192-6.286l3.9-.641a24.9,24.9,0,0,1,1.164,6.206Z" transform="translate(69.307 -501.244)" fill="#1f2b5d"/>
        <path id="パス_498" data-name="パス 498" d="M271.167,520.567c-1.1,6.246-3.522,19.019-11.883,25.588l-5.418-6.487c2.264-1.964,6.614-5.847,8.852-18.54L264.327,512h8.351Zm9.183,14.375c5.848-2.243,8.065-9.009,9.248-12.573l7.262,3.764a28.121,28.121,0,0,1-10.5,14.133,27.743,27.743,0,0,1-16.186,4.806l6.078-34.475h8.394Z" transform="translate(84.209 -500.472)" fill="#1f2b5d"/>
        <path id="パス_499" data-name="パス 499" d="M293.866,536.582c3.486-.44,8.1-1.243,12.457-4.685a33.67,33.67,0,0,0,9.3-11.41l6.765,4.4A41.808,41.808,0,0,1,306.9,540.466c-4.408,2.521-10.762,4.724-23.616,4.884l6.115-34.675h9.033Z" transform="translate(100.103 -500.429)" fill="#1f2b5d"/>
        <path id="パス_500" data-name="パス 500" d="M309.629,528.423c2.065-1.8,8.1-7.529,10.663-9.97,2.91-2.723,5.215-4.924,8.24-4.924,2.514,0,4.22,1.682,5.571,3.442L349,536.392,341.269,544l-13.03-18.9c-.952-1.361-1.414-1.4-1.711-1.4-.725,0-.924.159-3.769,3.241-5.959,6.487-6.64,7.208-8.228,8.73Zm31.8-8.288a48.561,48.561,0,0,0-2.982-5.805l3.818-1.842a22.506,22.506,0,0,1,3.271,5.366Zm6.025-3a19.1,19.1,0,0,0-3.264-5.408l4.009-1.959a21.059,21.059,0,0,1,3.492,5.083Z" transform="translate(114.335 -500.92)" fill="#1f2b5d"/>
        <path id="パス_501" data-name="パス 501" d="M353.647,520.567c-1.1,6.246-3.523,19.019-11.883,25.588l-5.417-6.487c2.263-1.964,6.612-5.847,8.85-18.54L346.808,512h8.351Zm9.183,14.375c5.85-2.243,8.065-9.009,9.249-12.573l7.262,3.764a28.126,28.126,0,0,1-10.5,14.133,27.738,27.738,0,0,1-16.186,4.806L358.73,510.6h8.393Z" transform="translate(128.769 -500.472)" fill="#1f2b5d"/>
        <path id="パス_502" data-name="パス 502" d="M377.857,536.731c2.192-.154,10.042-.8,11.429-8.656.684-3.883-.767-6.623-4.582-7.116-.842,4.405-3.769,11.706-6.814,15.218-2.8,3.234-5.067,3.635-6.871,3.635-6.555,0-6.317-6.931-5.834-9.673,1.864-10.568,11.307-14.849,18.651-14.849,10.132,0,13.2,6.594,12.023,13.248a16.155,16.155,0,0,1-6.829,10.66c-3.214,2.249-8.132,2.987-9.853,3.265Zm-6.635-6.625c-.152.864-.323,3.144,1.152,3.144,1.9,0,4.605-5.483,6.373-11.983A11.373,11.373,0,0,0,371.222,530.106Z" transform="translate(144.232 -497.937)" fill="#1f2b5d"/>
        <path id="パス_503" data-name="パス 503" d="M418.46,506.328c11.96,0,14.158,4.784,11.636,19.079-2.834,16.071-7.629,19.769-18.8,19.769H386.8l6.849-38.848Zm-15.914,9.023-3.667,20.8H411.73c5.508,0,6.2-1.231,8.006-11.487,1.417-8.035.541-9.317-4.18-9.317Z" transform="translate(156.023 -502.778)" fill="#1f2b5d"/>
        <path id="パス_504" data-name="パス 504" d="M434.987,506.328l5,12.374,9.369-12.374h12.065L445.5,525.259l9.76,19.917H443.087l-5.406-13.36L427.3,545.176H415.129l16.993-19.917-9.2-18.931Z" transform="translate(171.329 -502.778)" fill="#1f2b5d"/>
        <path id="パス_505" data-name="パス 505" d="M462.713,514.915c-.524,1.107-.578,1.231-.994,2.095h11.541l-1,5.668H458.622c-.311.461-.49.739-1.217,1.693a10.6,10.6,0,0,1,4.163-.923,4.9,4.9,0,0,1,4.538,2.156,73.569,73.569,0,0,1,7.975-2.28l-.076,6.007c-5.959,1.077-6.606,1.2-7.5,1.448-.114,1.2-.3,2.62-.465,3.573-.088.493-.152.863-.268,1.325h-6.229c.017-.092.544-2.341.582-2.555-2.523,1.292-2.626,1.878-2.735,2.494-.25,1.417,1.533,1.725,5.007,1.54a82.558,82.558,0,0,0,8.4-.43l-1.032,5.853c-1.181,0-6.377.092-7.425.092-6.1,0-12.984-.556-11.978-6.253.722-4.1,5.4-6.472,9.188-8.227a2.359,2.359,0,0,0-1.018-.185c-2.491,0-4.625,1.694-5.7,2.586-1.6,1.634-3.894,4.037-5.226,5.084l-3.664-4.128a32.04,32.04,0,0,0,8.351-8.872H447.18l1-5.668h6.983c.311-.833.481-1.419.73-2.281Z" transform="translate(186.896 -498.239)" fill="#1f2b5d"/>
        <path id="パス_506" data-name="パス 506" d="M466.91,542.617l1.292-7.327h7.84l-1.292,7.327ZM480.7,511.064l-5,22.1H469.3l2.791-22.1Z" transform="translate(199.303 -500.219)" fill="#1f2b5d"/>
        <path id="パス_507" data-name="パス 507" d="M51.344,548.37h7.841l-.621,3.524H65c-.256-.242-.554-.481-.816-.682l7.453-3.6a26.19,26.19,0,0,1,6.678,10.21L70.731,561.9A60.8,60.8,0,0,0,67,554.536l-.812,4.605h-8.9l-.388,2.2a26,26,0,0,1,4-.24c5.922,0,9.012,1.081,11.06,3.245a9.687,9.687,0,0,1,2.189,8.367c-1.194,6.768-7.156,9.169-9.208,9.93-3.153,1.2-6.66,1.523-10.5,1.762l-.724-6.286c-.587,1.4-2.152,5.206-9.653,5.206-5.539,0-8.844-3.484-7.948-8.57,1.391-7.888,9.392-10.731,12.664-11.891l.656-3.724h-9.16l1.277-7.247h9.161Zm-3.8,21.542c-1.462.8-3.356,1.882-3.8,4.4-.331,1.884,1.012,2,1.268,2,1.4,0,1.61-1.161,1.813-2.323Zm6.691,6.526a7.066,7.066,0,0,1-.34,1.2,24.908,24.908,0,0,0,5.226-.4c5.511-1.041,6.033-3.284,6.293-4.766.481-2.723-.835-4.685-6.289-4.685a22.2,22.2,0,0,0-3.415.282Z" transform="translate(-33.501 -480.476)" fill="#1f2b5d"/>
        <path id="パス_508" data-name="パス 508" d="M65.509,561.284a32.571,32.571,0,0,0,5.14-1.6H66.43L68.2,549.63H83.416l.4-2.281h7.925l-.4,2.281h15.211L104.724,560H99.781l-.4,2.284a36.271,36.271,0,0,1-6.084,4.043,68.774,68.774,0,0,0,11.912,1.321l-3.3,7.369c-1.9-.322-2.521-.441-3.344-.6l-1.935,10.973h-7.8l.211-1.2H73.488l-.213,1.2H65.351l1.927-10.933c-.484.082-2.762.441-3.2.522L63.1,567.93a121.624,121.624,0,0,0,13.747-1.841c-1.258-1.083-1.656-1.482-2.019-1.844a48.48,48.48,0,0,1-7.054,2.8Zm9.171,16.135-.254,1.443H89.979l.254-1.443Zm.362-21.622-.354,2a26.519,26.519,0,0,0,3.208-2Zm14.412,16.618a41.6,41.6,0,0,1-5.868-2c-1.263.4-3.429,1.081-7,2ZM81.5,561.924a22.705,22.705,0,0,0,3.815,2.041,13.555,13.555,0,0,0,4.111-2.041Zm15.84-5,.2-1.123H86.5c-.37.4-.582.641-1.05,1.123Z" transform="translate(-18.848 -480.617)" fill="#1f2b5d"/>
        <path id="パス_509" data-name="パス 509" d="M108.821,582.463c-4,1.64-5.623,2.161-6.979,2.6L100.77,578.1l-1.328,7.526h-7.2l1.617-9.169a18.755,18.755,0,0,1-2.849,3.844l-.388-10.37a27.9,27.9,0,0,0,5.862-9.81H93.16l1.186-6.726h3.578l1.06-6.007h7.2l-1.06,6.007h2.685l.459-2.6h3.877a11.511,11.511,0,0,0-1.018-2.922l8.06-.762a21.138,21.138,0,0,1,1.266,3.684h2.387a31.679,31.679,0,0,0,1.822-3.8l7.8.961c-.431.761-.665,1.12-1.821,2.843h3.791l-1.009,5.725h-9.331l-.156.881h8.308l-.833,4.725H123.1l-.183,1.041H132.93l-1.03,5.845h-3.322l3.618,3.164a62.219,62.219,0,0,1-4.989,3.883,16.719,16.719,0,0,0,3.829,1.962l-4.026,7.607a21.234,21.234,0,0,1-6.9-6.526l-.514,2.922a4.246,4.246,0,0,1-4.514,3.6H108.9Zm-2.529-13.455h-1.619l.049-.279-1.425,1.8c-.613-.641-.71-.8-.995-1.121l-1.526,8.648c3.869-.921,4.536-1.081,6.426-1.64a26.246,26.246,0,0,0-4.322-4.245Zm-.587-5.845h9.885l.183-1.041H107.8l.833-4.725h7.969l.156-.881h-9.5l-.636,3.6H103.94l-.24,1.362a22.775,22.775,0,0,0,1.913,2.2Zm2.392,13.014c2.193-.6,2.335-.682,3.407-.961l-.025,3.281c.98,0,1.406,0,1.576-.96l1.5-8.528h-4.645a39.426,39.426,0,0,1,3.151,3.164Zm13.691-6.609a11.156,11.156,0,0,0,1.38,2.564,30.48,30.48,0,0,0,3.576-3.123h-4.858Z" transform="translate(-3.982 -480.813)" fill="#1f2b5d"/>
        <path id="パス_510" data-name="パス 510" d="M135.421,553.13c-.34,1.568-.667,3.233-.94,4.773-.4,2.249-.411,3.452.262,3.543,4.538-1.015,6.614-1.448,10.215-1.971l-.4,6.346c-5.371.525-17.833,2.219-18.534,6.193-.424,2.4,3.407,2.434,5.7,2.434,2.458,0,8.65-.154,12.266-.585l-1.1,6.222c-2.29.154-5.34.34-9.536.34-7.507,0-10.246-.648-12.353-2.281a5.78,5.78,0,0,1-2.1-5.73c.929-5.269,6.768-7.7,9.454-8.81a4.333,4.333,0,0,1-.855-2.959,50.383,50.383,0,0,1,.932-7.515Z" transform="translate(11.245 -477.494)" fill="#1f2b5d"/>
        <path id="パス_511" data-name="パス 511" d="M176.315,564.6,175.08,571.6H163.362l-1,5.688h15.17l-1.285,7.285H136.7l1.285-7.285h4.345l2.36-13.375H152.4l-2.358,13.375h4.6l3.438-19.5H165.8l-1.2,6.808Zm1.007-.16c-4.447-2.082-10.621-5.486-15.372-11.653-4.725,4.325-10.487,8.25-19.553,11.814l-2.053-7.689c8.336-2.563,13.459-5.526,18.17-9.77h8.778a27.568,27.568,0,0,0,15.108,9.528Z" transform="translate(20.913 -480.729)" fill="#1f2b5d"/>
        <path id="パス_512" data-name="パス 512" d="M164.437,578.61a64.857,64.857,0,0,0,11.108-2.845h-10.1l1-5.685h16.405l.168-.961H169.518l.784-4.445h13.506l.169-.961h-15l.953-5.4h8.011a6.963,6.963,0,0,0-.42-1.241h-8.778l1.081-6.127h4.26a8.444,8.444,0,0,0-.9-2.6l7.683-1.041a24.986,24.986,0,0,1,.635,3.643h1.2l.642-3.643h6.774l-.642,3.643h1.363l.642-3.643h6.774l-.642,3.643h.94a23.911,23.911,0,0,0,2.049-3.643l7.358,1.041c-.348.521-.822,1.281-1.78,2.6h4.049l-1.081,6.127h-8.522c-.262.521-.319.6-.688,1.241h7.629l-.955,5.4H191.818l-.169.961h13.423l-.784,4.445H190.864l-.169.961h16.151l-1,5.685h-9.8a40.166,40.166,0,0,0,10.032,2.561l-4.936,6.97c-6.868-1.884-9.385-3.564-12.037-6.167l-1.123,6.367h-7.84l1.087-6.167c-1.908,1.4-5.288,3.883-14.31,6.007Zm21.224-21.543c.049.2.277,1.081.328,1.281h6.178c.248-.439.37-.641.695-1.281Z" transform="translate(35.897 -480.645)" fill="#1f2b5d"/>
        <path id="パス_513" data-name="パス 513" d="M212.06,552.915c-.524,1.107-.579,1.229-.993,2.095h11.541l-1,5.667h-13.64c-.31.462-.49.741-1.215,1.694a10.6,10.6,0,0,1,4.162-.924,4.9,4.9,0,0,1,4.539,2.156,73.458,73.458,0,0,1,7.974-2.278l-.074,6.007c-5.961,1.077-6.606,1.2-7.5,1.446-.112,1.2-.3,2.62-.465,3.575-.086.493-.152.863-.266,1.325h-6.229c.017-.092.544-2.341.581-2.557-2.523,1.294-2.626,1.879-2.734,2.5-.251,1.417,1.533,1.725,5.006,1.54a82.331,82.331,0,0,0,8.405-.431l-1.032,5.853c-1.181,0-6.378.092-7.427.092-6.1,0-12.983-.554-11.978-6.253.722-4.1,5.4-6.47,9.187-8.225a2.352,2.352,0,0,0-1.017-.185c-2.492,0-4.627,1.693-5.7,2.586-1.6,1.633-3.894,4.037-5.226,5.084l-3.664-4.129a32.064,32.064,0,0,0,8.351-8.872h-5.115l1-5.667h6.983c.31-.833.479-1.419.73-2.281Z" transform="translate(51.485 -477.71)" fill="#1f2b5d"/>
        <path id="パス_514" data-name="パス 514" d="M232.968,544.328l-6.849,38.848h-10.6l6.849-38.848Z" transform="translate(63.495 -482.249)" fill="#1f2b5d"/>
        <path id="パス_515" data-name="パス 515" d="M253.425,553.251l-5.277,29.925H237.656l5.277-29.925H229.5l1.574-8.922h37.349l-1.574,8.922Z" transform="translate(71.048 -482.249)" fill="#1f2b5d"/>
        <path id="パス_516" data-name="パス 516" d="M283.742,559.7a15.731,15.731,0,0,0-3.275-.214c-2.622,0-3.638,0-5.725,1.047-1.83.893-7.693,4.405-8.444,8.656-.428,2.434.109,4.775,12.462,4.621l-2.073,6.561c-7.972-.154-19.3-.431-17.514-10.566.511-2.9,2.566-7.116,8.132-10.042-.636.06-9.868.738-13.141,1.263l.95-6.5c2.24-.06,12.14-.614,14.124-.707,5.047-.185,6.1-.216,15.6-.368Zm-9.115,9.673a27.941,27.941,0,0,0-2.1-4.99l3.529-1.6a24.247,24.247,0,0,1,2.178,4.744Zm5.237-2.557a19.18,19.18,0,0,0-2.179-4.742l3.424-1.573a15.4,15.4,0,0,1,2.229,4.468Z" transform="translate(84.371 -477.321)" fill="#1f2b5d"/>
        <path id="パス_517" data-name="パス 517" d="M279.117,574.355c12.493.2,24.644-.08,26.415-10.13,1.017-5.767-3.493-6.766-6.52-6.766a52.864,52.864,0,0,0-8.755,1.081c-2.073.4-11.261,2.483-13.114,2.842l-.668-8.527c2.357-.322,12.716-2.042,14.854-2.323a70.058,70.058,0,0,1,9.834-.923c10.524,0,14.529,7.008,13.211,14.5-2.529,14.335-16.2,16.457-20.8,17.178a80.169,80.169,0,0,1-13.74.841Z" transform="translate(96.424 -479.395)" fill="#1f2b5d"/>
        <path id="パス_518" data-name="パス 518" d="M323.6,547.823c-.3.961-.4,1.281-1.224,4.043h6.221l-1.328,7.529h-7.543c-1.181,3.082-2,5.044-3.181,7.649-.963,2.079-5.536,11.09-6.378,12.973l-8.323-1.845A107.974,107.974,0,0,0,311.16,559.4H306.3l1.329-7.529h6.135c.713-2.363.805-2.882,1.138-4.283ZM344.36,559.6c-.846-.042-1.853-.12-2.962-.12a24.455,24.455,0,0,0-3.535.24l-1.6,9.771a27.23,27.23,0,0,1,6.219,4.843l-5.141,7.889a17.62,17.62,0,0,0-3.335-4.285l-.368.881c-.3.721-2.424,5.286-9.881,5.286-5.582,0-10.86-2.2-9.767-8.408.622-3.524,4.1-8.73,12.319-8.73.555,0,1.017.04,2.067.12l2.23-14.333c3.167-.8,6.836-1.563,14.826-1.443ZM327.367,574.05a4.919,4.919,0,0,0-2.494-.6c-1.32,0-3.486.439-3.775,2.082-.2,1.12.7,2.081,2.615,2.081.852,0,2.968-.159,3.3-1.8Z" transform="translate(110.128 -480.49)" fill="#1f2b5d"/>
        <path id="パス_519" data-name="パス 519" d="M352.469,584.955a165.542,165.542,0,0,0-14.634-11.492c-4.781-3.324-6.082-4.163-5.623-6.769.444-2.52,2.2-3.8,6.994-7.285,11.4-8.37,12.673-9.289,15.852-11.851l8.328,4c-3.392,2.561-12.149,8.487-19.65,13.092-.816.521-1.292.8-1.377,1.281s.072.561,1.386,1.323c1.2.679,9.024,5.124,9.372,5.324,6.759,4.2,8.273,5.525,9.311,6.406Zm5.819-18.979a32.766,32.766,0,0,0-2.677-6.327l4.216-1.922a20.987,20.987,0,0,1,3.039,5.965Zm6.649-3.646a23.117,23.117,0,0,0-3.151-6.045l4.273-2a19.89,19.89,0,0,1,3.324,5.8Z" transform="translate(126.488 -480.504)" fill="#1f2b5d"/>
        <path id="パス_520" data-name="パス 520" d="M395.831,554.655l-1.208,6.848c-.762,4.323-2.762,13.493-4.973,17.337-2.588,4.525-6.9,4.846-9.208,4.846-.425,0-2.683,0-8.165-.559l.793-7.889a36.438,36.438,0,0,0,6.278.641c2.387,0,3.231-.2,4.08-2.364.377-.919,2.384-9.169,2.491-9.77l.3-1.68h-7.073a38.963,38.963,0,0,1-19.409,21.861l-5.083-5.964c6.025-3,12.279-6.809,16.012-15.9H359.927l1.306-7.409h11.675c.636-2.643.983-4.6,1.322-6.526l8.636.08c-.538,2.321-.963,4.245-1.563,6.446Z" transform="translate(138.658 -480.195)" fill="#1f2b5d"/>
        <path id="パス_521" data-name="パス 521" d="M405.727,583.794h-8.9l2.725-15.456a73.736,73.736,0,0,1-13.688,5.126l-2.925-6.848c14.412-4.405,24.066-9.369,34.721-19.057l6.4,5a89.773,89.773,0,0,1-14.669,10.452Z" transform="translate(153.937 -480.504)" fill="#1f2b5d"/>
        <path id="パス_522" data-name="パス 522" d="M422.449,569.5c-2.6-1.682-8.641-3.924-12.242-4.766l3.68-6.367a48.923,48.923,0,0,1,12.673,4.246Zm-11.9,5.847c13.434-1.283,23.31-3.164,32.213-21.744l7.147,3.684c-11.29,21.5-24.142,24.545-38.378,26.508ZM428.7,559.17a52.274,52.274,0,0,0-12.873-4.323l3.8-6.327a56.071,56.071,0,0,1,13.318,3.724Z" transform="translate(168.67 -479.985)" fill="#1f2b5d"/>
        <path id="パス_523" data-name="パス 523" d="M445.6,552.649l7.867-.88-.2,6.486,16.856-2.082c-1.545,10.451-6.548,15.136-11.472,18.178l-4.947-4.8a16.773,16.773,0,0,0,6.37-5.686l-7,1-.478,16.976-8,.881.558-16.7-8.265,1.2.3-7.01,8.185-1Z" transform="translate(183.086 -478.229)" fill="#1f2b5d"/>
      </g>
      <g id="text" transform="matrix(0.998, -0.07, 0.07, 0.998, 155, 269.951)">
        <path id="パス_524" data-name="パス 524" d="M41.644,622.213c-1.242.152-2.146.39-2.433,2.021l-.1.545H51.132l-.575,3.263H34.917L35.453,625c.319-1.806,1-5.438,5.4-5.917l5.766-.631c1.666-.174,2.259-.654,2.511-2.089.283-1.608-.09-2.371-3.449-2.371-4,0-4.424.415-4.894,2.828H37.205c.715-3.806,1.581-6.09,8.695-6.09,4.02,0,7.782.217,6.865,5.418-.137.781-.6,2.892-1.882,3.914a8.151,8.151,0,0,1-3.689,1.5Z" transform="translate(-33.5 -609.247)" fill="#1f2b5d"/>
        <path id="パス_525" data-name="パス 525" d="M57.293,628.216c-6.517,0-7.815-1.153-6.476-8.745,1.3-7.375,2.911-8.745,9.383-8.745,6.539,0,7.816,1.153,6.476,8.745C65.377,626.845,63.787,628.216,57.293,628.216Zm-2.84-8.7c-.936,5.309-.583,5.439,3.592,5.439,3.579,0,4.089-.391,4.926-5.133a21.637,21.637,0,0,0,.429-4.569c-.238-1.152-1.522-1.262-3.688-1.262C55.8,613.988,55.393,614.184,54.453,619.514Z" transform="translate(-30.001 -609.247)" fill="#1f2b5d"/>
        <path id="パス_526" data-name="パス 526" d="M70.984,622.213c-1.242.152-2.146.39-2.433,2.021l-.1.545H80.472l-.575,3.263H64.257L64.793,625c.319-1.806,1-5.438,5.4-5.917l5.766-.631c1.665-.174,2.259-.654,2.511-2.089.283-1.608-.09-2.371-3.449-2.371-4,0-4.424.415-4.894,2.828H66.545c.715-3.806,1.581-6.09,8.695-6.09,4.02,0,7.782.217,6.865,5.418-.139.781-.6,2.892-1.882,3.914a8.151,8.151,0,0,1-3.689,1.5Z" transform="translate(-26.845 -609.247)" fill="#1f2b5d"/>
        <path id="パス_527" data-name="パス 527" d="M88.083,610.867,85.061,628.01H81.416l2.446-13.879H80.329l.575-3.263Z" transform="translate(-23.199 -609.215)" fill="#1f2b5d"/>
        <path id="パス_528" data-name="パス 528" d="M92.863,617.721A16.432,16.432,0,0,1,91.5,618.81l-1.659-2.872a16.394,16.394,0,0,0,5.637-6.417l3.347.435a11.732,11.732,0,0,1-.775,1.521h13.077l-.552,3.133H103.9l-.368,2.088H109.5l-.537,3.046H103l-.51,2.894h7.466l-.552,3.132h-7.466l-.81,4.59h-3.4l.81-4.59H88.417l.553-3.132H92Zm7.27-1.023.369-2.088h-4.64a18.948,18.948,0,0,1-1.87,2.088Zm-4.315,3.046-.509,2.894h3.777l.509-2.894Z" transform="translate(-21.365 -609.52)" fill="#1f2b5d"/>
        <path id="パス_529" data-name="パス 529" d="M51.173,651.265c-.129-1.022-.173-1.282-.267-1.87-2.716.369-7.289.87-12.7,1.132L38.3,647.5A13.508,13.508,0,0,1,36,651.113l-2.24-2.457c1.448-1.7,2.428-3.373,3.126-7.332l1.6-9.092h7.576l.331-1.872h3.424l-.331,1.872H57.82l-.545,3.088H41.238l-1.077,6.115a22.942,22.942,0,0,1-1.787,5.873c.358-.023.512-.023,2.007-.109a78.664,78.664,0,0,0,5.412-11.268l3.423.631a100.46,100.46,0,0,1-5.494,10.486c3.388-.174,4.371-.239,6.641-.458a28.441,28.441,0,0,0-1.522-4.764l3.024-1.37a36.781,36.781,0,0,1,2.8,9.42Z" transform="translate(-33.762 -604.793)" fill="#1f2b5d"/>
        <path id="パス_530" data-name="パス 530" d="M57.992,644.94H54.148l2.34-13.271H63a8.426,8.426,0,0,0,.632-1.325H67.5c-.3.564-.481.848-.786,1.325h6.959L72.4,638.913H58.5l-.139.784H74.423l-.384,2.174H57.98l-.145.827H73.341a32.008,32.008,0,0,1-1.786,6.373,3.071,3.071,0,0,1-2.749,1.937H65.758l-.156-2.132-.188,1.066H55.232l-.13.741H51.832l.909-5.156h3.269l-.326,1.849h1.877Zm.985-8.723-.15.848h10.58l.15-.848Zm.445-2.525-.15.849h10.58l.15-.849Zm1.32,13.684h1.967l.325-1.849h3.159l-.442,2.5H67.7c.817,0,1.17,0,1.826-3.089h-8.35Z" transform="translate(-29.663 -604.797)" fill="#1f2b5d"/>
        <path id="パス_531" data-name="パス 531" d="M73.02,630.875H93.873l-.541,3.067H86.264l-.369,2.088h6.274l-2.609,14.793H86.335l.166-.936H73.644l-.164.936H70.3l2.608-14.793h5.367l.369-2.088H72.479Zm1.693,12.943-.54,3.068H87.031l.428-2.438a1.973,1.973,0,0,1-1.648.827H83.073c-1.083,0-1.639-.608-1.451-1.675l.813-4.612H80.6a12.2,12.2,0,0,1-4.309,7.026Zm.853-4.829-.795,4.5a7.976,7.976,0,0,0,2.981-4.5Zm5.993-5.047-.369,2.088h1.768l.368-2.088Zm6.549,6.831.314-1.784H85.373l-.53,3c-.049.282-.08.586.25.586h.421c.486,0,.676-.326,1.06-2.131Z" transform="translate(-25.475 -604.676)" fill="#1f2b5d"/>
        <path id="パス_532" data-name="パス 532" d="M92.674,631.052h17.054l-3.465,19.643h-3.534l.153-.869H92.9l-.153.869H89.211ZM104.3,641.8H94.315l-.844,4.785h9.984Zm1.32-7.484H95.633l-.763,4.329h9.985Z" transform="translate(-21.185 -604.636)" fill="#1f2b5d"/>
        <path id="パス_533" data-name="パス 533" d="M111.357,645.414a27.287,27.287,0,0,1-3.8,2.871L106.215,645a26.8,26.8,0,0,0,9.139-8.355H108l.556-3.153h8.791l.552-3.133h3.337l-.552,3.133h8.812l-.556,3.153h-7.421a15.813,15.813,0,0,0,6.313,8.29l-2.533,3.349a14.912,14.912,0,0,1-2.838-2.827l-.375,2.13h-3.955l-.621,3.525h-3.269l.621-3.525h-3.887Zm4.04-.87.8-4.57a26.31,26.31,0,0,1-3.918,4.57Zm6.405,0a18.389,18.389,0,0,1-2.33-4.57l-.806,4.57Z" transform="translate(-17.328 -604.793)" fill="#1f2b5d"/>
        <path id="パス_534" data-name="パス 534" d="M129.357,645.414a27.287,27.287,0,0,1-3.8,2.871L124.215,645a26.8,26.8,0,0,0,9.139-8.355H126l.556-3.153h8.791l.552-3.133h3.337l-.552,3.133h8.812l-.556,3.153h-7.421a15.813,15.813,0,0,0,6.313,8.29l-2.533,3.349a14.911,14.911,0,0,1-2.838-2.827l-.375,2.13h-3.955l-.621,3.525h-3.27l.621-3.525h-3.887Zm4.04-.87.8-4.57a26.308,26.308,0,0,1-3.919,4.57Zm6.405,0a18.389,18.389,0,0,1-2.33-4.57l-.806,4.57Z" transform="translate(-13.245 -604.793)" fill="#1f2b5d"/>
        <path id="パス_535" data-name="パス 535" d="M147.547,651.015h-3.358l1.277-7.244c-1.04.762-1.93,1.305-2.647,1.741l-.162-3.851a19.59,19.59,0,0,0,6.156-5.221h-4.837l.537-3.045H147.3l.526-2.981h3.358l-.525,2.981h2.254l-.537,3.045a18.084,18.084,0,0,1-2.325,3.154,8.517,8.517,0,0,0,2.617,2.329l-2.2,3.11a9.6,9.6,0,0,1-1.488-2.088Zm10.194-20.6h3.445l-.951,5.4h4.307l-.591,3.349h-4.307l-1.4,7.961h4.639l-.583,3.309H149.153l.583-3.309h5.058l1.4-7.961h-3.976l.59-3.349h3.976Z" transform="translate(-9.062 -604.781)" fill="#1f2b5d"/>
        <path id="パス_536" data-name="パス 536" d="M167.868,648.739l-.238,1.348h-4.506l-.137.784H160l1.254-7.114h7.489l-.683,3.872a13.685,13.685,0,0,0,3.617-.957,9.147,9.147,0,0,1-1.742-2.654l2.7-1.414h-2.782l.537-3.046h10.956l-.537,3.046a17.813,17.813,0,0,1-3.565,3.938,18.012,18.012,0,0,0,4.079,1.044l-1.992,3.285a22.22,22.22,0,0,1-5.158-2.2,20.2,20.2,0,0,1-5.637,2.154Zm-6.031-8.266h7.489l-.426,2.414h-7.489Zm.569-6.484h8.769l-.438,2.481h-8.768Zm0,3.286h7.489l-.422,2.392h-7.489Zm1.131-6.419h7.489l-.411,2.328h-7.487Zm.3,15.208-.283,1.608h1.856l.283-1.608Zm6.192-8.55c1.691-1.2,2.375-2.828,2.832-5.418.092-.521.129-.848.175-1.24h7.576l-.721,4.09c-.042.24-.032.436.277.436.421,0,.6,0,.694-.3.193-.588.416-1.61.542-2.2l2.355.675a17.574,17.574,0,0,1-1.023,3.545,2.341,2.341,0,0,1-2.087,1.437h-2.628c-.995,0-1.6-.436-1.411-1.524l.559-3.176h-1.745a9.186,9.186,0,0,1-3.333,5.5Zm2.7,5.09a6.854,6.854,0,0,0,1.921,2.5,9.758,9.758,0,0,0,2.673-2.5Z" transform="translate(-5.127 -604.681)" fill="#1f2b5d"/>
        <path id="パス_537" data-name="パス 537" d="M178.328,646.964H189.9a82.741,82.741,0,0,0,4.25-9.942l3.678.564a76.669,76.669,0,0,1-4.37,9.378h5.721l-.575,3.262H177.753Zm11.522-16.62h3.6l-.5,2.849h8.15l-.575,3.262H180.689l.575-3.262h8.085Zm-3.158,6.764a33.979,33.979,0,0,1,.4,8.636l-3.671.523a28.3,28.3,0,0,0-.177-8.4Z" transform="translate(-1.101 -604.797)" fill="#1f2b5d"/>
      </g>
      <circle id="楕円形_6" data-name="楕円形 6" cx="140" cy="140" r="140" transform="translate(540 232)" fill="#004e60"/>
      <path id="パス_538" data-name="パス 538" d="M563.913,496.971a1.879,1.879,0,0,0,.219-1.072,8.117,8.117,0,0,0-.538-3.031,6.383,6.383,0,0,0-1.508-2.267,6.593,6.593,0,0,0-2.284-1.4,8.245,8.245,0,0,0-2.848-.481,8.874,8.874,0,0,0-3.344.605,7.19,7.19,0,0,0-4.137,4.2,8.721,8.721,0,0,0-.55,3.106,10.067,10.067,0,0,0,.607,3.614,7.493,7.493,0,0,0,1.714,2.679,7.312,7.312,0,0,0,2.611,1.646,9.31,9.31,0,0,0,3.26.557,11.851,11.851,0,0,0,1.851-.148,11.224,11.224,0,0,0,1.816-.442,8.671,8.671,0,0,0,1.666-.761,5.771,5.771,0,0,0,1.369-1.12l.237-.264-1.021-1.232c-.357-.468-.975-.594-1.745-.124-.24.146-.544.309-.9.481a9.066,9.066,0,0,1-1.285.476,6.185,6.185,0,0,1-1.742.215,5.514,5.514,0,0,1-1.948-.325,3.863,3.863,0,0,1-1.456-.959,4.6,4.6,0,0,1-.974-1.626,7.007,7.007,0,0,1-.376-1.941h10.422A1,1,0,0,0,563.913,496.971Zm-11.149-2.1a4.47,4.47,0,0,1,1.269-2.37,4.217,4.217,0,0,1,2.985-1,4.275,4.275,0,0,1,1.594.277,3.219,3.219,0,0,1,1.15.766,3.337,3.337,0,0,1,.716,1.183,4.486,4.486,0,0,1,.235,1.145Z" transform="translate(75.958 -53.718)" fill="#fff"/>
      <path id="パス_539" data-name="パス 539" d="M577.74,500.744a1.33,1.33,0,0,0-.837.323,8.1,8.1,0,0,1-.7.489,5.1,5.1,0,0,1-1.042.474,5.043,5.043,0,0,1-1.588.207,4.49,4.49,0,0,1-1.807-.346,3.633,3.633,0,0,1-1.339-.992,4.768,4.768,0,0,1-.872-1.653,7.717,7.717,0,0,1-.319-2.317,7.979,7.979,0,0,1,.3-2.258,4.639,4.639,0,0,1,.857-1.662,3.659,3.659,0,0,1,1.383-1.027,4.887,4.887,0,0,1,1.946-.363,4.959,4.959,0,0,1,1.4.17,5.739,5.739,0,0,1,.984.382,7.168,7.168,0,0,1,.678.389,1.22,1.22,0,0,0,1.356.092,1.6,1.6,0,0,0,.349-.338l.994-1.256-.28-.259a7.749,7.749,0,0,0-2.467-1.54,8.745,8.745,0,0,0-3.177-.543,9.114,9.114,0,0,0-3.442.613,7.16,7.16,0,0,0-2.554,1.721,7.383,7.383,0,0,0-1.568,2.617,9.758,9.758,0,0,0-.531,3.261,9.628,9.628,0,0,0,.582,3.449,7.558,7.558,0,0,0,1.613,2.584,6.95,6.95,0,0,0,2.422,1.613,8.066,8.066,0,0,0,3,.552,10.558,10.558,0,0,0,3.5-.583,6.649,6.649,0,0,0,2.831-1.889l.233-.264-1.01-1.216A1.023,1.023,0,0,0,577.74,500.744Z" transform="translate(80.856 -53.718)" fill="#fff"/>
      <rect id="長方形_236" data-name="長方形 236" width="3.694" height="22.836" transform="translate(669.035 428.364)" fill="#fff"/>
      <path id="パス_540" data-name="パス 540" d="M607.067,496.971a1.879,1.879,0,0,0,.219-1.072,8.116,8.116,0,0,0-.537-3.031,6.4,6.4,0,0,0-1.508-2.267,6.6,6.6,0,0,0-2.285-1.4,8.24,8.24,0,0,0-2.848-.481,8.863,8.863,0,0,0-3.343.605,7.181,7.181,0,0,0-4.136,4.2,8.693,8.693,0,0,0-.551,3.106,10.069,10.069,0,0,0,.608,3.614,7.459,7.459,0,0,0,1.714,2.679,7.3,7.3,0,0,0,2.611,1.646,9.308,9.308,0,0,0,3.259.557,11.866,11.866,0,0,0,1.852-.148,11.2,11.2,0,0,0,1.815-.442,8.635,8.635,0,0,0,1.666-.761,5.778,5.778,0,0,0,1.37-1.12l.236-.264-1.021-1.232c-.356-.468-.974-.594-1.745-.124-.24.146-.543.309-.9.481a9.119,9.119,0,0,1-1.285.476,6.191,6.191,0,0,1-1.742.215,5.508,5.508,0,0,1-1.948-.325,3.863,3.863,0,0,1-1.456-.959,4.6,4.6,0,0,1-.974-1.626,6.96,6.96,0,0,1-.376-1.941H606.18A1,1,0,0,0,607.067,496.971Zm-11.148-2.1a4.468,4.468,0,0,1,1.268-2.37,4.223,4.223,0,0,1,2.987-1,4.269,4.269,0,0,1,1.593.277,3.2,3.2,0,0,1,1.15.766,3.338,3.338,0,0,1,.717,1.183,4.427,4.427,0,0,1,.233,1.145Z" transform="translate(88.744 -53.718)" fill="#fff"/>
      <path id="パス_541" data-name="パス 541" d="M620.895,500.744a1.333,1.333,0,0,0-.837.323,7.862,7.862,0,0,1-.7.489,5.131,5.131,0,0,1-1.042.474,5.049,5.049,0,0,1-1.588.207,4.5,4.5,0,0,1-1.808-.346,3.643,3.643,0,0,1-1.339-.992,4.764,4.764,0,0,1-.871-1.653,7.713,7.713,0,0,1-.319-2.317,7.981,7.981,0,0,1,.3-2.258,4.659,4.659,0,0,1,.856-1.662,3.652,3.652,0,0,1,1.384-1.027,4.887,4.887,0,0,1,1.946-.363,4.96,4.96,0,0,1,1.4.17,5.74,5.74,0,0,1,.984.382,7.193,7.193,0,0,1,.678.389,1.22,1.22,0,0,0,1.356.092,1.608,1.608,0,0,0,.349-.338l.994-1.256-.281-.259a7.73,7.73,0,0,0-2.466-1.54,8.753,8.753,0,0,0-3.178-.543,9.1,9.1,0,0,0-3.44.613,7.149,7.149,0,0,0-2.554,1.721,7.386,7.386,0,0,0-1.57,2.617,9.758,9.758,0,0,0-.531,3.261,9.6,9.6,0,0,0,.583,3.449,7.553,7.553,0,0,0,1.611,2.584,6.954,6.954,0,0,0,2.423,1.613,8.061,8.061,0,0,0,3,.552,10.559,10.559,0,0,0,3.5-.583,6.645,6.645,0,0,0,2.83-1.889l.233-.264-1.01-1.216A1.021,1.021,0,0,0,620.895,500.744Z" transform="translate(93.643 -53.718)" fill="#fff"/>
      <path id="パス_542" data-name="パス 542" d="M635.545,502.933a.885.885,0,0,0-.742-.433.954.954,0,0,0-.524.18c-.106.071-.236.148-.384.231a2.952,2.952,0,0,1-.506.216,2.038,2.038,0,0,1-.648.091,1.407,1.407,0,0,1-1.006-.353,1.473,1.473,0,0,1-.368-1.117v-8.67h4.671v-2.756h-4.671v-5.214h-1.863a1.107,1.107,0,0,0-.71.233.978.978,0,0,0-.359.631l-.616,4.361-2.722.319v1.429a.926.926,0,0,0,.331.762,1.08,1.08,0,0,0,.695.235h1.552v8.85a4.22,4.22,0,0,0,1.165,3.18,4.515,4.515,0,0,0,3.259,1.119,6.94,6.94,0,0,0,2.293-.389,5.84,5.84,0,0,0,1.922-1.088l.273-.239Z" transform="translate(98.527 -54.787)" fill="#fff"/>
      <path id="パス_543" data-name="パス 543" d="M640.744,399.806,622.38,389.2h0l-18.364-10.6-18.364,10.6h0l-18.364,10.6-18.364,10.6v63.615l18.364,10.6,18.364,10.6,18.364,10.6V484.626l-18.364-10.6-18.364-10.6v-42.41l18.364,10.6,18.364,10.6,18.364-10.6-18.364-10.6-18.364-10.6,18.364-10.6h0l18.364,10.6,18.364,10.6,18.364-10.6Z" transform="translate(75.958 -86.345)" fill="#fff"/>
      <path id="パス_544" data-name="パス 544" d="M628.2,434.945l18.364-10.6v-21.2L628.2,413.74l-.052-.03v.06l-18.312,10.573-.052-.03v.06l-18.312,10.573-.052-.03v63.615l.052.03,18.364-10.6,18.364-10.6,18.364-10.6v-21.2L628.2,456.15l-.052-.03v.06l-18.312,10.573v-21.2Z" transform="translate(88.55 -79.075)" fill="#d4d5d5"/>
    </g>
  </g>
</svg>
