<svg xmlns="http://www.w3.org/2000/svg" xmlns:xlink="http://www.w3.org/1999/xlink" width="1096" height="285" viewBox="0 0 1096 285">
  <defs>
    <linearGradient id="linear-gradient" x1="0.268" y1="0.171" x2="-0.164" y2="-0.489" gradientUnits="objectBoundingBox">
      <stop offset="0" stop-color="#ffbb0a"/>
      <stop offset="1" stop-color="#fff551"/>
    </linearGradient>
    <linearGradient id="linear-gradient-2" x1="0.295" y1="1.249" x2="0.905" y2="0.383" xlink:href="#linear-gradient"/>
    <linearGradient id="linear-gradient-3" x1="0.85" y1="0.533" x2="1.493" y2="0.593" xlink:href="#linear-gradient"/>
    <linearGradient id="linear-gradient-4" x1="99.959" y1="-36.967" x2="72.132" y2="-62.04" xlink:href="#linear-gradient"/>
    <linearGradient id="linear-gradient-5" x1="0.427" y1="-0.006" x2="0.289" y2="-1.034" xlink:href="#linear-gradient"/>
    <linearGradient id="linear-gradient-6" x1="0.42" y1="-0.006" x2="0.284" y2="-1.034" xlink:href="#linear-gradient"/>
    <linearGradient id="linear-gradient-7" x1="0.053" y1="0.283" x2="0.862" y2="0.659" gradientUnits="objectBoundingBox">
      <stop offset="0.009" stop-color="#e4e4e4"/>
      <stop offset="0.579" stop-color="#f6f7f5"/>
      <stop offset="0.991" stop-color="#fefffd"/>
    </linearGradient>
    <linearGradient id="linear-gradient-8" x1="-1.529" y1="0.286" x2="-0.72" y2="0.663" xlink:href="#linear-gradient-7"/>
    <linearGradient id="linear-gradient-9" x1="1.027" y1="0.831" x2="-0.027" y2="0.173" xlink:href="#linear-gradient-7"/>
    <linearGradient id="linear-gradient-10" x1="6.536" y1="0.531" x2="-6.885" y2="0.462" xlink:href="#linear-gradient-7"/>
    <linearGradient id="linear-gradient-11" x1="-15.446" y1="45.579" x2="-14.659" y2="45.579" gradientUnits="objectBoundingBox">
      <stop offset="0.002" stop-color="#9bb3d5"/>
      <stop offset="0.019" stop-color="#9cb4d5"/>
      <stop offset="0.462" stop-color="#cad5e4"/>
      <stop offset="0.804" stop-color="#e7eaee"/>
      <stop offset="1" stop-color="#f2f2f2"/>
    </linearGradient>
    <linearGradient id="linear-gradient-12" x1="-0.438" y1="21.177" x2="-0.386" y2="21.233" gradientUnits="objectBoundingBox">
      <stop offset="0.003" stop-color="#f15a24"/>
      <stop offset="0.995" stop-color="#ffb501"/>
    </linearGradient>
    <linearGradient id="linear-gradient-13" x1="0.484" y1="-0.048" x2="0.452" y2="-1.072" xlink:href="#linear-gradient-12"/>
    <linearGradient id="linear-gradient-14" x1="0.111" y1="0.491" x2="1.108" y2="0.491" xlink:href="#linear-gradient"/>
    <linearGradient id="linear-gradient-15" x1="0.251" y1="0.532" x2="1.214" y2="0.532" xlink:href="#linear-gradient"/>
    <linearGradient id="linear-gradient-16" x1="0.217" y1="0.577" x2="1.247" y2="0.577" xlink:href="#linear-gradient"/>
    <clipPath id="clip-visual_img_01">
      <rect width="1096" height="285"/>
    </clipPath>
  </defs>
  <g id="visual_img_01" clip-path="url(#clip-visual_img_01)">
    <g id="グループ_61" data-name="グループ 61" transform="translate(-795.394 -768.479)">
      <g id="グループ_9" data-name="グループ 9" transform="translate(805.394 727.031)">
        <g id="グループ_6" data-name="グループ 6" transform="translate(0 210.452)">
          <path id="パス_6" data-name="パス 6" d="M621.444,502.044c-12.053-3.444-23.821-6.891-27.243-8.163-7.728-2.871,5.34-27.107-31.72-34.795s-54.865-3.479-54.865-3.479,18.692-30.263-.445-51.587-40.219-21.039-40.219-21.039-9.064-28.4-57.372-24.032-37.668,39.448-46.165,53.206-30.507.161-51.182,12.1-6.918,20.433-23.142,31.318-26.7,6.312-37.831,8.942-10.6,4.855-20.673,11.935-16.225,10.884-40.7,16.67c-11.831,2.8-28.458,6.178-42.489,8.927Z" transform="translate(-147.394 -358.492)" fill="#f9f9f9"/>
          <path id="パス_7" data-name="パス 7" d="M543.456,493.3c-1.193-8.58-3.967-20.706-28.233-25.739-37.063-7.688-54.865-3.479-54.865-3.479s18.692-30.265-.445-51.587S419.7,391.455,419.7,391.455s-9.063-28.4-57.372-24.032a79.834,79.834,0,0,0-10.139,1.557c-8.1,12.352-6.344,28.207-11.427,36.435-4.333,7.015-12.183,6.917-21.574,6.72a27.486,27.486,0,0,1-3.026,8.492c-6.688,10.829-21.748,4.719-37.939,7.444-3.587,7.037-.736,13.345-11.787,20.759a42.7,42.7,0,0,1-16.865,7.033c-1.292,2.632-3.477,5.324-7.734,8.18-16.225,10.884-26.7,6.312-37.831,8.942-.5.12-.955.238-1.412.356a66.521,66.521,0,0,1-12.4,6.332c-1.727,1.4-3.8,3.1-6.861,5.249a81.989,81.989,0,0,1-13.981,8.379Z" transform="translate(-124.736 -349.747)" fill="#ececec"/>
          <path id="パス_8" data-name="パス 8" d="M292.863,417.327c4.566,6.172.25,18.586,3.656,19.852s18.639-4.406,22.921,4.942a37.809,37.809,0,0,1,2.788,11.825h17.015a12.475,12.475,0,0,1-2.483-8.669c.908-13.681-9.437-26.774-19.247-24.455s-11.38-8.7-20.852-13.715-25.685.892-25.685.892S288.3,411.156,292.863,417.327Z" transform="translate(-19.835 -310.395)" fill="#f9f9f9"/>
        </g>
        <g id="グループ_7" data-name="グループ 7" transform="translate(702.893 97.826)">
          <path id="パス_9" data-name="パス 9" d="M859.622,369.721c-9.313-2.662-18.407-5.326-21.051-6.308-5.973-2.221,4.127-20.95-24.514-26.892s-42.4-2.687-42.4-2.687,14.445-23.39-.346-39.867-31.08-16.259-31.08-16.259-7-21.95-44.338-18.572-29.109,30.487-35.675,41.117-23.575.126-39.554,9.35-5.347,15.79-17.885,24.2-20.637,4.877-29.235,6.911-8.192,3.751-15.977,9.222-12.538,8.411-31.456,12.884c-9.143,2.16-21.992,4.774-32.836,6.9Z" transform="translate(-493.277 -258.783)" fill="#f9f9f9"/>
          <path id="パス_10" data-name="パス 10" d="M799.355,362.962c-.923-6.631-3.067-16-21.819-19.893-28.641-5.94-42.4-2.689-42.4-2.689s14.445-23.388-.343-39.865-31.082-16.259-31.082-16.259-7-21.949-44.336-18.572a61.317,61.317,0,0,0-7.836,1.2c-6.259,9.545-4.9,21.8-8.83,28.156-3.349,5.422-9.415,5.347-16.672,5.194A21.286,21.286,0,0,1,623.7,306.8c-5.168,8.366-16.808,3.646-29.32,5.751-2.772,5.44-.567,10.313-9.108,16.042a32.962,32.962,0,0,1-13.034,5.436,16.259,16.259,0,0,1-5.977,6.322c-12.536,8.411-20.637,4.877-29.235,6.909-.388.091-.738.183-1.091.274a51.3,51.3,0,0,1-9.584,4.893c-1.335,1.085-2.939,2.4-5.3,4.056a63.455,63.455,0,0,1-10.805,6.476Z" transform="translate(-475.766 -252.024)" fill="#ececec"/>
          <path id="パス_11" data-name="パス 11" d="M605.7,304.252c3.53,4.77.193,14.363,2.827,15.341s14.4-3.4,17.712,3.818a29.268,29.268,0,0,1,2.154,9.141h13.15a9.654,9.654,0,0,1-1.92-6.7c.7-10.573-7.291-20.692-14.873-18.9s-8.793-6.727-16.113-10.6-19.85.689-19.85.689S602.168,299.483,605.7,304.252Z" transform="translate(-394.7 -221.614)" fill="#f9f9f9"/>
        </g>
        <g id="グループ_8" data-name="グループ 8" transform="translate(381.007 50)">
          <path id="パス_12" data-name="パス 12" d="M461.732,293.344c-3.225-.921-6.375-1.843-7.289-2.183-2.069-.77,1.429-7.255-8.488-9.311s-14.68-.931-14.68-.931,5-8.1-.12-13.8-10.762-5.629-10.762-5.629-2.424-7.6-15.353-6.432-10.08,10.557-12.352,14.237-8.163.043-13.7,3.237-1.851,5.466-6.192,8.381-7.145,1.689-10.122,2.392-2.837,1.3-5.534,3.195-4.341,2.912-10.89,4.461c-3.168.748-7.617,1.652-11.37,2.388Z" transform="translate(-334.882 -254.932)" fill="#f9f9f9"/>
          <path id="パス_13" data-name="パス 13" d="M440.863,291c-.319-2.3-1.061-5.54-7.554-6.887-9.919-2.056-14.682-.931-14.682-.931s5-8.1-.118-13.8-10.762-5.629-10.762-5.629-2.426-7.6-15.353-6.432a21.759,21.759,0,0,0-2.713.417c-2.166,3.306-1.7,7.548-3.056,9.75-1.16,1.878-3.26,1.851-5.773,1.8a7.321,7.321,0,0,1-.811,2.272c-1.788,2.9-5.818,1.262-10.151,1.991-.961,1.884-.2,3.573-3.154,5.556a11.438,11.438,0,0,1-4.513,1.882,5.629,5.629,0,0,1-2.069,2.189c-4.343,2.912-7.147,1.689-10.124,2.392-.134.033-.256.065-.378.1a17.7,17.7,0,0,1-3.319,1.695c-.461.376-1.016.829-1.835,1.4A22,22,0,0,1,340.756,291Z" transform="translate(-328.819 -252.592)" fill="#ececec"/>
          <path id="パス_14" data-name="パス 14" d="M373.808,270.677c1.221,1.65.067,4.973.979,5.312s4.987-1.181,6.133,1.321a10.214,10.214,0,0,1,.746,3.164h4.552a3.334,3.334,0,0,1-.664-2.319c.244-3.662-2.524-7.165-5.15-6.544s-3.046-2.329-5.58-3.67-6.873.238-6.873.238S372.586,269.024,373.808,270.677Z" transform="translate(-300.749 -242.061)" fill="#f9f9f9"/>
        </g>
      </g>
    </g>
    <g id="グループ_107" data-name="グループ 107" transform="translate(273.132 -118.301)">
      <g id="グループ_226" data-name="グループ 226" transform="translate(41.868 168.301)">
        <g id="グループ_224" data-name="グループ 224" transform="translate(12.184 23.259)">
          <path id="パス_464" data-name="パス 464" d="M133.765,193.082h0l.955-1.866h0Z" transform="translate(-19.708 -182.996)" fill="#ff6c7b"/>
          <path id="パス_465" data-name="パス 465" d="M131.078,194.238h0l.955-1.866h0Z" transform="translate(-20.712 -182.563)" fill="#ff6c7b"/>
          <path id="パス_466" data-name="パス 466" d="M135.22,195.318l.955-1.866h0l-5.351-8.22-.955,1.866h0Z" transform="translate(-21.163 -185.232)" fill="#ff6c7b"/>
          <path id="パス_467" data-name="パス 467" d="M132.79,193.935h0l-3.74-5.745h0Z" transform="translate(-21.469 -184.126)" fill="#ff6c7b"/>
          <path id="パス_468" data-name="パス 468" d="M130.413,195.537l-.955,1.866h0l.955-1.866Z" transform="translate(-21.317 -181.381)" fill="#ff6c7b"/>
          <path id="パス_469" data-name="パス 469" d="M132.1,195.8l.954-1.866h0l-3.74-5.745h0l-.955,1.866h0Z" transform="translate(-21.729 -184.126)" fill="#ff6c7b"/>
          <path id="パス_470" data-name="パス 470" d="M131.171,197.1h0l-3.74-5.745Z" transform="translate(-22.075 -182.944)" fill="#ff6c7b"/>
          <path id="パス_471" data-name="パス 471" d="M128.8,198.694l-.955,1.866h0l.955-1.866Z" transform="translate(-21.921 -180.201)" fill="#ff6c7b"/>
          <path id="パス_472" data-name="パス 472" d="M130.476,198.965l.955-1.866h0l-3.74-5.745-.955,1.866h0Z" transform="translate(-22.334 -182.944)" fill="#ff6c7b"/>
          <path id="パス_473" data-name="パス 473" d="M129.555,200.257h0l-3.74-5.745h0Z" transform="translate(-22.678 -181.764)" fill="#ff6c7b"/>
          <path id="パス_474" data-name="パス 474" d="M126.224,203.724l.955-1.866h0Z" transform="translate(-22.526 -179.018)" fill="#ff6c7b"/>
          <path id="パス_475" data-name="パス 475" d="M128.86,202.123l.955-1.866h0l-3.74-5.745h0l-.955,1.866h0Z" transform="translate(-22.938 -181.764)" fill="#ff6c7b"/>
          <path id="パス_476" data-name="パス 476" d="M126.823,195.871h0l-6.256.3h0Z" transform="translate(-24.64 -181.256)" fill="#ff6c7b"/>
          <path id="パス_477" data-name="パス 477" d="M125.691,208.862l.96-1.876h0Z" transform="translate(-22.725 -177.102)" fill="#ff6c7b"/>
          <path id="パス_478" data-name="パス 478" d="M127.241,205.287l.955-1.866h0l-3.74-5.745-.955,1.866Z" transform="translate(-23.543 -180.581)" fill="#ff6c7b"/>
          <path id="パス_479" data-name="パス 479" d="M124.2,201l5.351,8.22h0L124.2,201l-6.256.3h0Z" transform="translate(-25.621 -179.338)" fill="#ff6c7b"/>
          <path id="パス_480" data-name="パス 480" d="M122.764,210.486l.955-1.866-.955,1.866Z" transform="translate(-23.819 -176.491)" fill="#ff6c7b"/>
          <path id="パス_481" data-name="パス 481" d="M127.147,211.1l.96-1.876h0L122.756,201l-.96,1.876h0Z" transform="translate(-24.181 -179.338)" fill="#ff6c7b"/>
          <path id="パス_482" data-name="パス 482" d="M124.476,210.183l-3.74-5.745h0Z" transform="translate(-24.576 -178.054)" fill="#ff6c7b"/>
          <path id="パス_483" data-name="パス 483" d="M122.1,211.784l-.955,1.866h0l.955-1.866Z" transform="translate(-24.424 -175.309)" fill="#ff6c7b"/>
          <path id="パス_484" data-name="パス 484" d="M123.781,212.049l.955-1.866L121,204.438h0l-.955,1.866h0Z" transform="translate(-24.836 -178.054)" fill="#ff6c7b"/>
          <path id="パス_485" data-name="パス 485" d="M120.317,336.537l6.256-.3-2.521-102.983-5.964,12.213Z" transform="translate(-25.567 -167.284)" fill="url(#linear-gradient)"/>
          <path id="パス_486" data-name="パス 486" d="M122.857,213.347h0l-3.74-5.744h0Z" transform="translate(-25.182 -176.872)" fill="#ff6c7b"/>
          <path id="パス_487" data-name="パス 487" d="M119.529,216.807h0l.955-1.866h0Z" transform="translate(-25.028 -174.129)" fill="#ff6c7b"/>
          <path id="パス_488" data-name="パス 488" d="M113.868,209.179Z" transform="translate(-27.143 -176.282)" fill="#ff6c7b"/>
          <path id="パス_489" data-name="パス 489" d="M122.162,215.213l.955-1.866h0l-3.74-5.744h0l-.955,1.866h0Z" transform="translate(-25.441 -176.872)" fill="#ff6c7b"/>
          <path id="パス_490" data-name="パス 490" d="M117.91,219.972h0l.955-1.866h0Z" transform="translate(-25.633 -172.946)" fill="#ff6c7b"/>
          <path id="パス_491" data-name="パス 491" d="M120.547,218.37l.955-1.866h0l-3.74-5.744-.955,1.866h0Z" transform="translate(-26.045 -175.692)" fill="#ff6c7b"/>
          <path id="パス_492" data-name="パス 492" d="M117.378,225.109h0l.96-1.876h0Z" transform="translate(-25.832 -171.03)" fill="#ff6c7b"/>
          <path id="パス_493" data-name="パス 493" d="M118.928,221.534l.955-1.866h0l-3.74-5.745-.955,1.866h0Z" transform="translate(-26.65 -174.509)" fill="#ff6c7b"/>
          <path id="パス_494" data-name="パス 494" d="M119.532,225.47h0l-5.351-8.22h0Z" transform="translate(-27.026 -173.266)" fill="#ff6c7b"/>
          <path id="パス_495" data-name="パス 495" d="M114.451,226.733l.955-1.866-.955,1.865Z" transform="translate(-26.926 -170.419)" fill="#ff6c7b"/>
          <path id="パス_496" data-name="パス 496" d="M118.834,227.346l.96-1.876h0l-5.351-8.22h0l-.96,1.876h0Z" transform="translate(-27.288 -173.266)" fill="#ff6c7b"/>
          <path id="パス_497" data-name="パス 497" d="M116.168,226.431l-3.74-5.745h0Z" transform="translate(-27.688 -171.982)" fill="#ff6c7b"/>
          <path id="パス_498" data-name="パス 498" d="M113.786,228.032l-.955,1.866h0l.955-1.866Z" transform="translate(-27.531 -169.237)" fill="#ff6c7b"/>
          <path id="パス_499" data-name="パス 499" d="M115.468,228.3l.955-1.865-3.74-5.745-.955,1.866h0Z" transform="translate(-27.943 -171.982)" fill="#ff6c7b"/>
          <path id="パス_500" data-name="パス 500" d="M114.549,229.6h0l-3.74-5.745h0Z" transform="translate(-28.293 -170.799)" fill="#ff6c7b"/>
          <path id="パス_501" data-name="パス 501" d="M111.216,233.055l.955-1.866h0Z" transform="translate(-28.135 -168.057)" fill="#ff6c7b"/>
          <path id="パス_502" data-name="パス 502" d="M113.849,231.461l.955-1.866h0l-3.74-5.745-.955,1.866,2.174,3.338Z" transform="translate(-28.548 -170.799)" fill="#ff6c7b"/>
          <path id="パス_503" data-name="パス 503" d="M109.6,236.219h0l.955-1.866h0Z" transform="translate(-28.74 -166.874)" fill="#ff6c7b"/>
          <path id="パス_504" data-name="パス 504" d="M112.233,234.618l.955-1.866h0l-3.74-5.745-.955,1.866h0Z" transform="translate(-29.152 -169.62)" fill="#ff6c7b"/>
          <path id="パス_505" data-name="パス 505" d="M109.064,241.357h0l.96-1.876h0Z" transform="translate(-28.939 -164.958)" fill="#ff6c7b"/>
          <path id="パス_506" data-name="パス 506" d="M110.614,237.782l.955-1.866h0l-3.74-5.745-.955,1.866h0Z" transform="translate(-29.757 -168.437)" fill="#ff6c7b"/>
          <path id="パス_507" data-name="パス 507" d="M111.219,241.718h0l-5.351-8.22h0Z" transform="translate(-30.133 -167.194)" fill="#ff6c7b"/>
          <path id="パス_508" data-name="パス 508" d="M106.137,242.981h0l.955-1.866h0Z" transform="translate(-30.033 -164.347)" fill="#ff6c7b"/>
          <path id="パス_509" data-name="パス 509" d="M110.52,243.594l.96-1.876h0l-5.351-8.22h0l-.96,1.876h0Z" transform="translate(-30.394 -167.194)" fill="#ff6c7b"/>
          <path id="パス_510" data-name="パス 510" d="M104.518,246.148h0l.96-1.876h0Z" transform="translate(-30.638 -163.167)" fill="#ff6c7b"/>
          <path id="パス_511" data-name="パス 511" d="M107.154,244.544l.955-1.866h0l-3.74-5.745-.955,1.866h0Z" transform="translate(-31.05 -165.91)" fill="#ff6c7b"/>
          <path id="パス_512" data-name="パス 512" d="M102.9,249.3l.955-1.866L102.9,249.3Z" transform="translate(-31.241 -161.985)" fill="#ff6c7b"/>
          <path id="パス_513" data-name="パス 513" d="M105.535,247.711l.96-1.876h0l-3.74-5.745-.96,1.876h0Z" transform="translate(-31.655 -164.73)" fill="#ff6c7b"/>
          <path id="パス_514" data-name="パス 514" d="M101.283,252.467l.955-1.866-.955,1.866Z" transform="translate(-31.847 -160.802)" fill="#ff6c7b"/>
          <path id="パス_515" data-name="パス 515" d="M103.92,250.865l.955-1.866-3.74-5.744h0l-.955,1.866h0Z" transform="translate(-32.259 -163.547)" fill="#ff6c7b"/>
          <path id="パス_516" data-name="パス 516" d="M101.709,255.729l-.955,1.866h0l.955-1.866Z" transform="translate(-32.044 -158.886)" fill="#ff6c7b"/>
          <path id="パス_517" data-name="パス 517" d="M103,252.164l-3.74-5.745h0Z" transform="translate(-32.609 -162.365)" fill="#ff6c7b"/>
          <path id="パス_518" data-name="パス 518" d="M102.3,254.03l.955-1.866-3.74-5.745-.955,1.866h0Z" transform="translate(-32.864 -162.365)" fill="#ff6c7b"/>
          <path id="パス_519" data-name="パス 519" d="M102.905,257.965h0l-5.351-8.22h0Z" transform="translate(-33.24 -161.122)" fill="#ff6c7b"/>
          <path id="パス_520" data-name="パス 520" d="M97.824,259.229l.955-1.866h0Z" transform="translate(-33.14 -158.275)" fill="#ff6c7b"/>
          <path id="パス_521" data-name="パス 521" d="M102.211,259.831l.955-1.866h0l-5.351-8.22h0l-.955,1.866h0Z" transform="translate(-33.5 -161.122)" fill="#ff6c7b"/>
          <path id="パス_522" data-name="パス 522" d="M96.2,262.4h0l.96-1.876h0Z" transform="translate(-33.745 -157.095)" fill="#ff6c7b"/>
          <path id="パス_523" data-name="パス 523" d="M98.841,260.791l.955-1.865h0l-3.74-5.744-.955,1.866h0Z" transform="translate(-34.157 -159.838)" fill="#ff6c7b"/>
          <path id="パス_524" data-name="パス 524" d="M97.92,262.083h0l-3.74-5.745h0Z" transform="translate(-34.501 -158.658)" fill="#ff6c7b"/>
          <path id="パス_525" data-name="パス 525" d="M95.543,263.684l-.954,1.866h0l.955-1.866Z" transform="translate(-34.348 -155.912)" fill="#ff6c7b"/>
          <path id="パス_526" data-name="パス 526" d="M97.222,263.958l.96-1.876h0l-3.74-5.745h0l-.96,1.876h0Z" transform="translate(-34.762 -158.658)" fill="#ff6c7b"/>
          <path id="パス_527" data-name="パス 527" d="M96.3,265.247h0l-3.74-5.745h0Z" transform="translate(-35.106 -157.475)" fill="#ff6c7b"/>
          <path id="パス_528" data-name="パス 528" d="M93.925,266.849l-.955,1.866h0l.955-1.866Z" transform="translate(-34.954 -154.73)" fill="#ff6c7b"/>
          <path id="パス_529" data-name="パス 529" d="M95.606,267.113l.954-1.866h0l-3.74-5.744h0l-.955,1.866h0Z" transform="translate(-35.366 -157.475)" fill="#ff6c7b"/>
          <path id="パス_530" data-name="パス 530" d="M92.441,273.842h0l.955-1.866h0Z" transform="translate(-35.151 -152.813)" fill="#ff6c7b"/>
          <path id="パス_531" data-name="パス 531" d="M94.682,268.412h0l-3.74-5.745Z" transform="translate(-35.711 -156.293)" fill="#ff6c7b"/>
          <path id="パス_532" data-name="パス 532" d="M85.693,264.243h0Z" transform="translate(-37.673 -155.704)" fill="#ff6c7b"/>
          <path id="パス_533" data-name="パス 533" d="M93.987,270.277l.955-1.866h0l-3.74-5.745-.955,1.866h0Z" transform="translate(-35.971 -156.293)" fill="#ff6c7b"/>
          <path id="パス_534" data-name="パス 534" d="M89.51,275.476h0l.955-1.866h0Z" transform="translate(-36.247 -152.203)" fill="#ff6c7b"/>
          <path id="パス_535" data-name="パス 535" d="M93.9,276.079l.955-1.866h0l-5.351-8.22-.955,1.866h0Z" transform="translate(-36.607 -155.05)" fill="#ff6c7b"/>
          <path id="パス_536" data-name="パス 536" d="M90.631,274.265h0l-1.567-2.406Z" transform="translate(-36.413 -152.857)" fill="#ff6c7b"/>
          <path id="パス_537" data-name="パス 537" d="M87.891,278.644l.96-1.876-.96,1.876Z" transform="translate(-36.852 -151.023)" fill="#ff6c7b"/>
          <path id="パス_538" data-name="パス 538" d="M90.527,277.039l.955-1.866h0l-1.566-2.406-2.173-3.338h0l-.955,1.866h0Z" transform="translate(-37.264 -153.766)" fill="#ff6c7b"/>
          <path id="パス_539" data-name="パス 539" d="M89.612,278.331l-3.74-5.745h0Z" transform="translate(-37.613 -152.586)" fill="#ff6c7b"/>
          <path id="パス_540" data-name="パス 540" d="M87.23,279.932h0l-.955,1.866.955-1.866Z" transform="translate(-37.455 -149.84)" fill="#ff6c7b"/>
          <path id="パス_541" data-name="パス 541" d="M88.908,280.206l.96-1.876-3.74-5.745-.96,1.876h0Z" transform="translate(-37.869 -152.586)" fill="#ff6c7b"/>
          <path id="パス_542" data-name="パス 542" d="M87.988,281.495h0l-3.74-5.745h0Z" transform="translate(-38.213 -151.403)" fill="#ff6c7b"/>
          <path id="パス_543" data-name="パス 543" d="M84.656,284.962h0l.955-1.866h0Z" transform="translate(-38.061 -148.658)" fill="#ff6c7b"/>
          <path id="パス_544" data-name="パス 544" d="M88.247,281.495l-3.74-5.745h0l-.955,1.866,3.74,5.745.955-1.866Z" transform="translate(-38.473 -151.403)" fill="#ff6c7b"/>
          <path id="パス_545" data-name="パス 545" d="M84.128,290.09h0l.955-1.866h0Z" transform="translate(-38.258 -146.741)" fill="#ff6c7b"/>
          <path id="パス_546" data-name="パス 546" d="M83.5,283.187l2.173,3.338.955-1.866h0l-3.74-5.744-.955,1.866h0Z" transform="translate(-39.078 -150.221)" fill="#ff6c7b"/>
          <path id="パス_547" data-name="パス 547" d="M83.074,282.024l2.173,3.338h0Z" transform="translate(-38.652 -149.058)" fill="#ff6c7b"/>
          <path id="パス_548" data-name="パス 548" d="M82.151,289.858l-.955,1.866h0l.955-1.866Z" transform="translate(-39.354 -146.131)" fill="#ff6c7b"/>
          <path id="パス_549" data-name="パス 549" d="M85.583,292.326l.955-1.866h0l-5.351-8.22-.955,1.866h0Z" transform="translate(-39.714 -148.978)" fill="#ff6c7b"/>
          <path id="パス_550" data-name="パス 550" d="M82.913,291.421h0l-3.74-5.744h0Z" transform="translate(-40.116 -147.693)" fill="#ff6c7b"/>
          <path id="パス_551" data-name="パス 551" d="M79.577,294.891h0l.96-1.876h0Z" transform="translate(-39.959 -144.951)" fill="#ff6c7b"/>
          <path id="パス_552" data-name="パス 552" d="M82.214,293.287l.955-1.866h0l-3.74-5.744-.955,1.866h0Z" transform="translate(-40.371 -147.693)" fill="#ff6c7b"/>
          <path id="パス_553" data-name="パス 553" d="M77.962,298.045l.955-1.866-.955,1.865Z" transform="translate(-40.562 -143.768)" fill="#ff6c7b"/>
          <path id="パス_554" data-name="パス 554" d="M80.595,296.454l.96-1.876h0l-3.74-5.744-.96,1.876h0Z" transform="translate(-40.976 -146.514)" fill="#ff6c7b"/>
          <path id="パス_555" data-name="パス 555" d="M76.343,301.213h0l.96-1.876h0Z" transform="translate(-41.168 -142.588)" fill="#ff6c7b"/>
          <path id="パス_556" data-name="パス 556" d="M78.979,299.608l.955-1.865L76.194,292l-.955,1.866h0Z" transform="translate(-41.58 -145.331)" fill="#ff6c7b"/>
          <path id="パス_557" data-name="パス 557" d="M70.685,293.574h0Z" transform="translate(-43.282 -144.742)" fill="#ff6c7b"/>
          <path id="パス_558" data-name="パス 558" d="M70.7,293.655l6.239-.3h0Z" transform="translate(-43.277 -144.823)" fill="#ff6c7b"/>
          <path id="パス_559" data-name="パス 559" d="M75.814,306.338h0l.955-1.866h0Z" transform="translate(-41.365 -140.669)" fill="#ff6c7b"/>
          <path id="パス_560" data-name="パス 560" d="M77.36,302.775l.96-1.876h0l-3.74-5.745-.96,1.876Z" transform="translate(-42.185 -144.151)" fill="#ff6c7b"/>
          <path id="パス_561" data-name="パス 561" d="M76.509,304.472Z" transform="translate(-41.105 -140.669)" fill="#ff6c7b"/>
          <path id="パス_562" data-name="パス 562" d="M74.855,301.931l-2.241-3.443h0Z" transform="translate(-42.561 -142.905)" fill="#ff6c7b"/>
          <path id="パス_563" data-name="パス 563" d="M72.883,307.972h0l.955-1.866h0Z" transform="translate(-42.461 -140.059)" fill="#ff6c7b"/>
          <path id="パス_564" data-name="パス 564" d="M77.27,308.574l.955-1.866h0l-3.11-4.777-2.241-3.443h0l-.955,1.866h0Z" transform="translate(-42.821 -142.905)" fill="#ff6c7b"/>
          <path id="パス_565" data-name="パス 565" d="M72.224,309.263h0l-.96,1.876h0Z" transform="translate(-43.066 -138.879)" fill="#ff6c7b"/>
          <path id="パス_566" data-name="パス 566" d="M73.9,309.534l.955-1.866h0l-3.74-5.745-.955,1.866h0Z" transform="translate(-43.478 -141.621)" fill="#ff6c7b"/>
          <path id="パス_567" data-name="パス 567" d="M69.648,314.293h0l.955-1.866h0Z" transform="translate(-43.669 -137.696)" fill="#ff6c7b"/>
          <path id="パス_568" data-name="パス 568" d="M73.241,310.826l-3.74-5.745-.96,1.876,3.74,5.745.96-1.876Z" transform="translate(-44.083 -140.441)" fill="#ff6c7b"/>
          <path id="パス_569" data-name="パス 569" d="M70.243,306.447l3.74,5.745h0l-3.74-5.745-6.257.3h0Z" transform="translate(-45.785 -139.931)" fill="#ff6c7b"/>
          <path id="パス_570" data-name="パス 570" d="M68.989,315.584l-.96,1.876h0l.96-1.876Z" transform="translate(-44.275 -136.516)" fill="#ff6c7b"/>
          <path id="パス_571" data-name="パス 571" d="M70.666,315.856l.955-1.866h0l-3.74-5.745-.955,1.866h0Z" transform="translate(-44.687 -139.259)" fill="#ff6c7b"/>
          <path id="パス_572" data-name="パス 572" d="M68.455,320.719l-.954,1.866h0l.955-1.866Z" transform="translate(-44.472 -134.597)" fill="#ff6c7b"/>
          <path id="パス_573" data-name="パス 573" d="M69.745,317.147h0l-3.74-5.744h0Z" transform="translate(-45.031 -138.079)" fill="#ff6c7b"/>
          <path id="パス_574" data-name="パス 574" d="M69.046,319.023l.96-1.876h0l-3.74-5.744h0l-.96,1.876h0Z" transform="translate(-45.292 -138.079)" fill="#ff6c7b"/>
          <path id="パス_575" data-name="パス 575" d="M69.656,322.956h0l-5.351-8.22h0Z" transform="translate(-45.673 -136.833)" fill="#ff6c7b"/>
          <path id="パス_576" data-name="パス 576" d="M64.569,324.219h0l.955-1.866h0Z" transform="translate(-45.568 -133.986)" fill="#ff6c7b"/>
          <path id="パス_577" data-name="パス 577" d="M68.957,324.822l.954-1.866h0l-5.351-8.22L63.6,316.6h0Z" transform="translate(-45.928 -136.833)" fill="#ff6c7b"/>
          <path id="パス_578" data-name="パス 578" d="M62.954,327.376h0l.955-1.866h0Z" transform="translate(-46.171 -132.807)" fill="#ff6c7b"/>
          <path id="パス_579" data-name="パス 579" d="M65.587,325.782l.955-1.866h0l-3.74-5.745-.955,1.866h0Z" transform="translate(-46.585 -135.549)" fill="#ff6c7b"/>
          <path id="パス_580" data-name="パス 580" d="M61.335,330.54h0l.955-1.865h0Z" transform="translate(-46.776 -131.624)" fill="#ff6c7b"/>
          <path id="パス_581" data-name="パス 581" d="M63.971,328.939l.955-1.866h0l-3.74-5.745-.955,1.866h0Z" transform="translate(-47.189 -134.369)" fill="#ff6c7b"/>
          <path id="パス_582" data-name="パス 582" d="M62.03,328.675Z" transform="translate(-46.517 -131.624)" fill="#ff6c7b"/>
          <path id="パス_583" data-name="パス 583" d="M60.675,331.832l-.96,1.876h0l.96-1.876Z" transform="translate(-47.381 -130.444)" fill="#ff6c7b"/>
          <path id="パス_584" data-name="パス 584" d="M62.352,332.1l.955-1.865h0l-3.74-5.745h0l-.955,1.866h0Z" transform="translate(-47.794 -133.187)" fill="#ff6c7b"/>
          <path id="パス_585" data-name="パス 585" d="M59.187,338.833h0l.955-1.866h0Z" transform="translate(-47.579 -128.525)" fill="#ff6c7b"/>
          <path id="パス_586" data-name="パス 586" d="M61.437,333.395h0L57.7,327.65h0Z" transform="translate(-48.143 -132.007)" fill="#ff6c7b"/>
          <path id="パス_587" data-name="パス 587" d="M60.733,335.27l.96-1.876h0l-3.74-5.745-.96,1.876h0Z" transform="translate(-48.399 -132.007)" fill="#ff6c7b"/>
          <path id="パス_588" data-name="パス 588" d="M50.737,332.559h0Z" transform="translate(-50.737 -130.172)" fill="#ff6c7b"/>
          <path id="パス_589" data-name="パス 589" d="M60.643,341.069,61.6,339.2h0l-5.351-8.22-.955,1.866h0Z" transform="translate(-49.035 -130.761)" fill="#ff6c7b"/>
        </g>
        <path id="パス_590" data-name="パス 590" d="M177.651,389.294l-1.2-70.225-.934-55.608-1-59.221-.6-35.937-11.9,23.257,5.344,8.215-.948,1.868-5.358-8.215-1.126,2.2,3.737,5.742-.948,1.868-3.737-5.742-1.278,2.473,3.737,5.742-.948,1.868-3.737-5.742-1.264,2.473,3.737,5.742-.962,1.868-3.737-5.742-1.264,2.473L157,214.405l-.948,1.855-3.75-5.742-1.374,2.706,5.344,8.215-.962,1.882-5.344-8.229-1.456,2.857,3.737,5.742-.948,1.868-3.75-5.756-1.264,2.486,3.737,5.742-.948,1.868-3.75-5.742-1.264,2.473,3.75,5.742-.962,1.868-3.737-5.756-1.278,2.486,3.75,5.742-.962,1.868-3.737-5.742-1.387,2.706,5.358,8.215-.962,1.882-5.358-8.229-1.456,2.844,3.75,5.742-.962,1.868-3.737-5.742-1.264,2.486,3.737,5.742-.962,1.868-1.566-2.4-2.17-3.338-1.264,2.459,3.737,5.756-.948,1.855-3.75-5.742-1.264,2.486,3.737,5.742-.948,1.868-3.737-5.742-1.387,2.692,5.344,8.229-.948,1.868-5.358-8.215-1.456,2.844,3.737,5.742-.948,1.868-3.737-5.742-1.264,2.473,3.737,5.742-.962,1.868-3.737-5.742-1.264,2.473,3.737,5.742-.962,1.868-3.737-5.742-1.264,2.486,3.737,5.742-.962,1.868-3.737-5.756-1.374,2.706,5.344,8.229-.948,1.855-5.358-8.215-1.456,2.857,3.737,5.742-.962,1.868-3.737-5.742-1.264,2.473,3.737,5.742-.948,1.868-3.75-5.742-1.264,2.473,3.75,5.742-.962,1.868-3.737-5.742-1.278,2.473,3.75,5.756-.962,1.855-3.737-5.742-1.387,2.706,5.358,8.215-.962,1.868-5.344-8.215-1.47,2.857,2.184,3.338,1.566,2.4-.962,1.868-3.737-5.756-1.264,2.473,3.737,5.742-.962,1.882-3.737-5.742-1.264,2.473,3.737,5.742-.948,1.868-3.75-5.742-1.264,2.473,3.737,5.742-.948,1.868-2.17-3.338-1.566-2.4-1.387,2.706,5.344,8.215-.948,1.868-5.358-8.215-1.456,2.844,3.737,5.742-.948,1.868-3.737-5.742-1.278,2.473,3.75,5.742-.962,1.882-3.737-5.742-1.264,2.459,3.737,5.756-.962,1.854-3.737-5.742-1.264,2.473,3.737,5.742-.962,1.882-3.737-5.742L82.4,347.134l2.253,3.448,3.1,4.781-.948,1.868L81.449,349l-1.456,2.857,3.737,5.742-.962,1.868-3.737-5.742L77.767,356.2l3.737,5.742-.962,1.882-3.737-5.756-1.264,2.473,3.737,5.742-.948,1.868-3.737-5.742-1.264,2.473,3.737,5.742-.962,1.882-3.737-5.756-1.387,2.706,5.358,8.229-.962,1.855-5.344-8.215-1.47,2.857,3.75,5.742-.962,1.868-3.737-5.742-1.264,2.473,3.737,5.742-.948,1.868h-.014l-3.737-5.756-1.264,2.486,3.737,5.742-.948,1.868-3.75-5.742L61.9,387.206l3.75,5.742-.962,1.868-3.75-5.742-1.374,2.706L64.909,400l-.948,1.868L58.6,393.649,46.419,417.455l17.172-2.706,46.185-7.281,21.938-3.462,42.256-6.663,3.805-.6Zm-46.487-28.683-34.055,4,.234-.467,47.6-93.015,5.989-11.7,1.278,55.086,1.017,43.506Z" transform="translate(-40.167 -168.3)" fill="url(#linear-gradient-2)"/>
        <g id="グループ_225" data-name="グループ 225">
          <path id="パス_591" data-name="パス 591" d="M175.612,168.3c-3.966,7.753-123.106,240.6-127.486,249.155l-6.259.3Q105.61,293.183,169.354,168.606Z" transform="translate(-41.868 -168.301)" fill="url(#linear-gradient-3)"/>
          <path id="パス_592" data-name="パス 592" d="M66.282,323.916l-3.74-5.745,3.74,5.745Z" transform="translate(-34.142 -112.291)" fill="url(#linear-gradient-4)"/>
        </g>
        <path id="パス_593" data-name="パス 593" d="M170.85,253.684l-23.312,51.047-1.278-55.086-5.99,11.7-47.6,93.015-.234.467,34.055-4L105.1,397.692l-46.184,7.281,110.928-210.51Z" transform="translate(-35.496 -158.524)" fill="url(#linear-gradient-5)" style="mix-blend-mode: screen;isolation: isolate"/>
        <path id="パス_594" data-name="パス 594" d="M154.446,348.278l-3.682,8.05-42.256,6.663,44.742-84.938Z" transform="translate(-16.963 -127.284)" fill="url(#linear-gradient-6)" style="mix-blend-mode: screen;isolation: isolate"/>
      </g>
      <g id="グループ_244" data-name="グループ 244" transform="translate(108.323 169.742)">
        <g id="グループ_229" data-name="グループ 229" transform="translate(0 122.198)">
          <g id="グループ_227" data-name="グループ 227" transform="translate(5.323)">
            <path id="パス_595" data-name="パス 595" d="M106.665,273.831c-.038.165-.1.341-.152.514-.037.117-.067.231-.111.352-.029.078-.067.161-.1.239-.11.275-.236.56-.383.854-.054.107-.109.216-.168.324-.217.411-.457.833-.745,1.278-.383.592-.808,1.188-1.249,1.784-.115.157-.232.312-.352.468-.462.6-.942,1.21-1.464,1.819a31.922,31.922,0,0,1-3.864,3.818,22.229,22.229,0,0,1-2.05,1.528,13.973,13.973,0,0,1-1.909,1.059h0l3.96-.995a17.616,17.616,0,0,0,3.96-2.587,32.012,32.012,0,0,0,3.864-3.816c.522-.61,1-1.216,1.464-1.82.118-.155.235-.312.35-.467s.249-.324.364-.486q.466-.651.885-1.3c.287-.444.528-.865.746-1.278.027-.051.066-.107.092-.158s.047-.109.074-.165c.147-.3.275-.58.383-.856.022-.056.058-.118.078-.173.008-.022.012-.043.021-.065.044-.121.076-.236.113-.353s.084-.246.114-.361l.037-.151h0Z" transform="translate(-94.119 -252.872)" fill="#166873"/>
            <path id="パス_596" data-name="パス 596" d="M131.479,301.091,112.287,258.3l-3.961.994,19.192,42.787Z" transform="translate(-88.809 -258.304)" fill="#166873"/>
            <path id="パス_597" data-name="パス 597" d="M144.47,285.4l-3.961.994,5.157,11.513-39.239,17.776,3.961-.994,39.239-17.776Z" transform="translate(-89.519 -248.179)" fill="#166873"/>
          </g>
          <g id="グループ_228" data-name="グループ 228" transform="translate(0 0.993)">
            <path id="パス_598" data-name="パス 598" d="M115.084,259.027l19.192,42.787,12.281-5.57,5.158,11.513-39.239,17.776-5.158-11.513,13.726-6.212-12.931-28.815a11.7,11.7,0,0,1-1.658,3.561,38,38,0,0,1-3.065,4.073,32.014,32.014,0,0,1-3.864,3.816,17.627,17.627,0,0,1-3.959,2.587l-5.323-11.885A12.35,12.35,0,0,0,94,278.122a40.515,40.515,0,0,0,3.759-4.841,48.609,48.609,0,0,0,2.907-4.917,8.869,8.869,0,0,0,1.19-3.344Z" transform="translate(-90.244 -259.027)" fill="#24adbf"/>
          </g>
        </g>
        <g id="グループ_230" data-name="グループ 230" transform="translate(36.716 30.429)">
          <path id="パス_599" data-name="パス 599" d="M121.716,211.6c.356-.68.734-1.354,1.153-2.018.317-.512.676-1.007,1.047-1.5.1-.137.207-.275.316-.411.392-.492.8-.977,1.235-1.448a18.407,18.407,0,0,1,3.362-2.818,15.29,15.29,0,0,1,4.319-1.882c.124-.034.246-.066.368-.1l-3.962.993c-.121.03-.245.063-.368.1a15.264,15.264,0,0,0-4.318,1.882,18.368,18.368,0,0,0-3.361,2.819c-.437.47-.843.956-1.236,1.448-.107.135-.21.272-.315.409-.12.158-.249.312-.364.473-.239.337-.468.677-.683,1.025-.419.664-.8,1.337-1.153,2.017-.03.056-.069.113-.1.169l.015,0h0l-.015,0h0q-.365.707-.687,1.426l3.96-.993C121.173,212.659,121.438,212.13,121.716,211.6Z" transform="translate(-116.971 -187.789)" fill="#c95718"/>
          <path id="パス_600" data-name="パス 600" d="M128.585,193.015c.437-.078.872-.155,1.3-.214.264-.038.523-.063.784-.093.375-.044.75-.087,1.118-.115.268-.022.53-.033.794-.047.468-.025.937-.049,1.393-.049.257,0,.512,0,.767.011.567.019,1.11.07,1.653.122s1.051.124,1.562.206c.249.041.5.073.747.121.413.081.81.187,1.207.29.261.069.529.126.783.2.359.11.7.245,1.044.374.288.109.587.2.865.323a16.945,16.945,0,0,1,1.677.846c.051.029.095.063.144.093a15.611,15.611,0,0,1,1.7,1.17c.256.2.507.4.749.62.126.113.256.221.378.337a15.435,15.435,0,0,1,1.132,1.187,15.918,15.918,0,0,1,1,1.328c.1.146.188.3.283.448.206.323.4.653.588.993.1.179.19.361.28.544q.247.5.464,1.026c.077.185.157.371.228.56.194.514.374,1.036.525,1.58.14.523.247,1.036.337,1.544.081.453.13.9.17,1.341.015.155.044.316.054.471s0,.332,0,.5c.01.36.016.718,0,1.07-.008.152-.03.3-.044.451a12.194,12.194,0,0,1-.157,1.231c-.087.466-.2.923-.313,1.375q-.235.9-.551,1.754c-.045.122-.1.24-.146.361-.2.518-.429,1.026-.676,1.525-.121.246-.235.495-.367.735a26.886,26.886,0,0,1-1.639,2.606,25.256,25.256,0,0,1-1.815,2.273c-1.313,1.485-2.625,2.83-3.9,4.047-1.048,1-2.16,2.1-3.334,3.278s-2.323,2.459-3.421,3.8q-.637.781-1.212,1.585c-.048.067-.085.14-.133.207-.549.784-1.067,1.58-1.529,2.4-.088.159-.174.32-.257.479-.032.063-.052.125-.084.188a15.639,15.639,0,0,0-.639,1.437c-.005.014-.014.027-.019.043l0,.011c-.157.419-.286.839-.4,1.258-.011.04-.027.078-.037.118q-.1.4-.18.806h0l3.96-.993c.059-.309.135-.617.217-.926.111-.419.24-.839.4-1.258.007-.018.015-.034.022-.052.181-.478.4-.957.639-1.437.111-.223.217-.445.342-.669.46-.815.978-1.61,1.528-2.393.426-.606.865-1.208,1.345-1.794,1.1-1.345,2.246-2.613,3.421-3.8s2.286-2.279,3.334-3.278c1.276-1.217,2.589-2.562,3.9-4.047a25.229,25.229,0,0,0,1.78-2.22c.012-.016.022-.037.034-.054a27.06,27.06,0,0,0,1.639-2.606q.128-.231.247-.466c.045-.088.077-.181.121-.271.246-.5.473-1,.675-1.523.033-.085.078-.165.111-.25.014-.037.022-.076.034-.111q.317-.859.551-1.754c.01-.033.022-.063.03-.1.109-.42.2-.848.284-1.279.032-.168.06-.337.085-.507.036-.238.048-.484.07-.725.014-.151.036-.3.044-.449,0-.047.011-.091.014-.136.014-.308,0-.625-.01-.938,0-.166,0-.328-.005-.5,0-.022,0-.041,0-.063-.01-.135-.041-.277-.054-.413-.04-.44-.089-.883-.169-1.335-.01-.054-.011-.1-.021-.159q-.128-.682-.317-1.386-.185-.666-.412-1.3c-.034-.095-.077-.183-.113-.276-.071-.19-.15-.374-.227-.559-.146-.349-.3-.692-.466-1.026-.091-.184-.183-.367-.279-.545-.184-.339-.383-.669-.589-.993-.093-.148-.183-.3-.283-.446a15.923,15.923,0,0,0-1-1.33,15.706,15.706,0,0,0-1.133-1.186c-.122-.117-.251-.225-.378-.337-.172-.154-.337-.315-.514-.46-.074-.059-.161-.1-.235-.161a15.642,15.642,0,0,0-1.7-1.169c-.04-.025-.074-.056-.115-.08l-.03-.015a17.058,17.058,0,0,0-1.676-.845l-.176-.076c-.223-.093-.463-.162-.692-.247-.345-.129-.684-.265-1.043-.375-.041-.012-.078-.03-.12-.043-.213-.063-.444-.1-.661-.159-.4-.1-.8-.209-1.21-.291-.066-.012-.125-.033-.191-.045-.179-.034-.375-.045-.556-.074-.51-.082-1.028-.155-1.562-.206-.122-.012-.234-.038-.357-.048q-.637-.051-1.3-.074-.381-.012-.767-.012c-.239,0-.481,0-.723.011-.221.005-.449.027-.673.038-.262.014-.523.026-.79.047-.37.03-.747.073-1.125.117-.258.03-.515.055-.778.092-.074.011-.146.015-.22.026-.354.052-.72.125-1.081.19-.216.038-.427.069-.644.113-.659.131-1.327.277-2.007.448l-3.96.995c.68-.172,1.348-.319,2.007-.449C128.158,193.085,128.371,193.053,128.585,193.015Z" transform="translate(-113.621 -191.501)" fill="#c95718"/>
          <path id="パス_601" data-name="パス 601" d="M167.824,221.529l-3.961.994,3.32,12.166-49.336,13.485,3.961-.994,49.336-13.485Z" transform="translate(-116.643 -180.279)" fill="#c95718"/>
        </g>
        <g id="グループ_231" data-name="グループ 231" transform="translate(25.208 31.424)">
          <path id="パス_602" data-name="パス 602" d="M140.455,192.225c.257,0,.512,0,.767.011a21.371,21.371,0,0,1,7.862,1.639,15.708,15.708,0,0,1,5.782,4.253,16.913,16.913,0,0,1,3.37,6.48,14.582,14.582,0,0,1,.361,6.608,19.142,19.142,0,0,1-2.052,5.75,26.088,26.088,0,0,1-3.454,4.879c-1.313,1.485-2.627,2.83-3.9,4.047-1.048,1-2.16,2.1-3.334,3.279s-2.323,2.458-3.421,3.8a29.89,29.89,0,0,0-2.874,4.188,14.4,14.4,0,0,0-1.615,4.341l29.376-8.029,3.32,12.166-49.335,13.486a45.325,45.325,0,0,1-1.514-8.388,22.025,22.025,0,0,1,.7-7.492,25.152,25.152,0,0,1,3.327-7.172,43.921,43.921,0,0,1,6.424-7.491q3.484-3.324,6.266-5.878,2.765-2.537,4.584-4.547a13.568,13.568,0,0,0,2.544-3.778,5.593,5.593,0,0,0,.2-3.676,6.879,6.879,0,0,0-3.867-4.495,8.465,8.465,0,0,0-3.776-.813,14.906,14.906,0,0,0-3.877.57A15.264,15.264,0,0,0,128,207.847a18.368,18.368,0,0,0-3.361,2.819,21.985,21.985,0,0,0-2.6,3.355,29.148,29.148,0,0,0-1.937,3.612l-11.508-7.555a23.32,23.32,0,0,1,2.936-4.1,37.771,37.771,0,0,1,4.94-4.7,45.225,45.225,0,0,1,6.7-4.432,39.393,39.393,0,0,1,8.384-3.316A33.992,33.992,0,0,1,140.455,192.225Z" transform="translate(-108.594 -192.225)" fill="#fc9a57"/>
        </g>
        <g id="グループ_234" data-name="グループ 234" transform="translate(107.733)">
          <g id="グループ_232" data-name="グループ 232" transform="translate(9.068)">
            <path id="パス_603" data-name="パス 603" d="M198.92,217.174c-.453.03-.9.073-1.379.073-.609,0-1.249-.032-1.9-.08-.4-.03-.8-.06-1.224-.107-.876-.1-1.7-.232-2.5-.387-.463-.091-.89-.209-1.328-.319-.392-.1-.8-.185-1.17-.3-.283-.088-.538-.194-.809-.29-.446-.158-.892-.316-1.305-.5-.262-.115-.5-.247-.754-.374a15.074,15.074,0,0,1-1.383-.753,19.083,19.083,0,0,1-1.71-1.239c-.486-.4-.948-.823-1.4-1.267-.132-.13-.258-.267-.386-.4q-.486-.511-.942-1.065c-.119-.146-.242-.29-.36-.441-.4-.51-.779-1.034-1.135-1.594l-3.962.993c.357.559.74,1.085,1.136,1.595.117.15.239.294.36.441q.455.552.942,1.063c.128.135.254.272.386.4.445.441.9.867,1.387,1.26l.008.007a19.361,19.361,0,0,0,1.71,1.239q.286.183.588.359c.249.143.532.261.8.393s.492.258.754.375c.082.036.152.081.235.117.337.142.712.254,1.069.381.271.1.528.2.809.29.056.016.1.041.162.058.319.095.677.158,1.01.242.438.11.865.228,1.327.319.067.012.124.033.19.045q1.111.208,2.313.342.507.058,1,.1c.078.007.147,0,.225.01.657.048,1.3.081,1.907.081q.307,0,.606-.008c.272-.008.512-.048.773-.066.383-.025.769-.048,1.131-.095.1-.012.2-.011.3-.025q.738-.109,1.414-.279l3.962-.995a14.871,14.871,0,0,1-1.714.3C199.69,217.126,199.3,217.15,198.92,217.174Z" transform="translate(-175.269 -154.855)" fill="#166873"/>
            <path id="パス_604" data-name="パス 604" d="M190.212,179.252a15.93,15.93,0,0,1,2.429-.819l-3.96.993a16.249,16.249,0,0,0-2.43.819,17.226,17.226,0,0,0-6.928,5.4l3.962-.993A17.193,17.193,0,0,1,190.212,179.252Z" transform="translate(-173.754 -165.955)" fill="#166873"/>
            <path id="パス_605" data-name="パス 605" d="M196.225,191.594c-.444.03-.876.074-1.344.074-.558,0-1.14-.03-1.734-.074-.357-.026-.714-.052-1.084-.093l-3.264-.371-3.96.993,3.263.371q.445.051.878.087c.071.005.136,0,.207.008.593.044,1.175.073,1.734.073q.286,0,.569-.008c.269-.007.512-.047.773-.065.367-.026.735-.047,1.084-.092.089-.012.19-.011.277-.023.5-.074.974-.168,1.436-.284l3.96-.993a15.19,15.19,0,0,1-1.712.306C196.959,191.549,196.591,191.57,196.225,191.594Z" transform="translate(-171.692 -161.21)" fill="#166873"/>
            <path id="パス_606" data-name="パス 606" d="M223.011,189.048c.005-.3,0-.6-.007-.9-.007-.177.005-.359-.005-.532s-.044-.313-.058-.473q-.047-.495-.122-.981c-.026-.161-.032-.33-.062-.489-.045-.24-.106-.475-.162-.713-.023-.1-.043-.194-.067-.288-.114-.442-.242-.881-.4-1.311-.049-.139-.1-.276-.154-.413a17.036,17.036,0,0,0-4.294-6.3q-.532-.5-1.109-.968c-.078-.063-.168-.121-.247-.184-.2-.159-.413-.31-.622-.464-.321-.236-.648-.468-.989-.691-.229-.151-.464-.3-.7-.442-.169-.1-.327-.214-.5-.315-.214-.124-.445-.238-.666-.357-.174-.095-.348-.191-.526-.283-.6-.306-1.212-.6-1.856-.881l-.159-.067c-.093-.04-.2-.067-.294-.106-.775-.319-1.58-.6-2.409-.864-.129-.041-.245-.1-.375-.135-.147-.044-.309-.069-.457-.11-.845-.239-1.713-.449-2.611-.629-.139-.027-.264-.071-.405-.1-.051-.01-.107-.014-.158-.023-.908-.166-1.838-.308-2.8-.413-.452-.051-.9-.095-1.353-.132-.124-.01-.245-.005-.367-.015-1.018-.074-2.03-.125-3.036-.125q-.544,0-1.084.015-1.14.031-2.269.128-1.315.115-2.58.3c-.133.021-.26.047-.391.067-.168.027-.332.058-.5.087-.926.158-1.837.338-2.715.558l-3.96.993c.879-.22,1.79-.4,2.717-.558.165-.029.327-.059.493-.085.97-.152,1.958-.28,2.974-.368q1.667-.144,3.353-.143c1,0,2.017.051,3.033.125.573.041,1.146.081,1.723.146.962.107,1.892.247,2.8.415.192.034.374.082.563.121q1.346.268,2.611.628c.28.08.558.159.832.245.828.26,1.633.545,2.408.864.148.062.308.111.455.174.644.276,1.257.573,1.856.881.179.092.352.188.526.283.4.216.787.441,1.166.67.238.146.473.293.7.442.341.224.668.456.989.691.209.154.42.306.622.464.47.372.929.751,1.354,1.153a17.017,17.017,0,0,1,4.3,6.3,15.386,15.386,0,0,1,.549,1.721c.025.1.044.2.067.293.093.394.161.8.223,1.2q.076.484.122.981t.063,1c.01.3.014.595.008.9-.011.529-.025,1.059-.082,1.6-.04.383-.1.756-.163,1.129-.071.438-.161.868-.261,1.293-.034.147-.062.3-.1.444q-.22.837-.514,1.637c-.162.437-.337.865-.533,1.286-.136.291-.289.569-.438.85a17.171,17.171,0,0,1-1.131,1.856c-.166.236-.341.463-.519.69-.093.12-.181.242-.277.359-.293.352-.6.694-.923,1.022a16.363,16.363,0,0,1-4.665,3.342,14.8,14.8,0,0,1-1.367.578c-.067-.021-.126-.049-.194-.069l-.144-.044-3.96.995c.133.038.257.089.387.129q.824.258,1.6.573c.181.074.359.152.537.231q.752.334,1.458.724c.129.071.265.136.392.212.143.084.279.177.419.265.276.173.549.35.813.537.151.109.3.221.445.334q.363.276.709.571c.146.125.29.251.433.382.224.206.441.419.655.639.129.133.261.265.387.4.224.245.438.5.648.761.1.125.207.246.306.374.3.394.6.8.871,1.229a18.419,18.419,0,0,1,.927,1.637c.087.172.162.346.243.519q.282.6.519,1.223c.087.229.173.457.25.69.067.2.13.4.191.609q.128.435.232.879c.051.206.1.412.143.622s.073.412.107.618q.146.859.218,1.75c.012.154.032.3.04.46q.06,1.043.017,2.128c-.021.525-.052,1.055-.11,1.595-.063.584-.169,1.14-.272,1.7-.065.353-.131.7-.21,1.047-.1.409-.212.808-.33,1.2-.092.306-.181.615-.287.914-.13.37-.284.724-.437,1.081-.137.323-.269.648-.424.96a17.947,17.947,0,0,1-.929,1.679c-.306.482-.647.931-.99,1.378-.17.221-.342.442-.522.655-.272.321-.559.628-.853.93-.184.191-.365.386-.559.569-.335.317-.692.615-1.054.909-.174.142-.341.293-.521.43a20.606,20.606,0,0,1-1.741,1.187,25.034,25.034,0,0,1-6.863,2.789l3.96-.995q.96-.241,1.868-.534a23.945,23.945,0,0,0,4.995-2.254,19.777,19.777,0,0,0,1.741-1.187c.18-.136.345-.287.519-.429.363-.3.72-.593,1.056-.911.192-.183.372-.376.556-.566.294-.3.582-.61.854-.933.18-.213.352-.433.522-.655.133-.172.279-.331.407-.51.2-.282.4-.571.584-.867q.437-.686.81-1.411c.045-.087.076-.181.12-.269.154-.312.286-.636.423-.959.11-.255.239-.5.337-.76.038-.1.065-.217.1-.323.1-.3.194-.6.286-.911.078-.262.176-.512.245-.782.036-.136.054-.284.085-.423.081-.342.146-.694.21-1.045.045-.247.111-.482.148-.735q.072-.476.124-.963.078-.746.111-1.471c0-.043,0-.082,0-.125q.043-1.084-.018-2.126c0-.048,0-.1,0-.147-.007-.107-.03-.207-.038-.315q-.07-.89-.217-1.749c-.019-.107-.022-.221-.041-.327s-.047-.2-.067-.294c-.043-.207-.092-.413-.142-.62-.071-.3-.148-.589-.234-.879-.06-.2-.124-.408-.191-.61-.041-.124-.073-.251-.117-.374-.038-.107-.093-.207-.133-.313-.157-.415-.331-.823-.519-1.225-.081-.173-.157-.348-.243-.518a18.424,18.424,0,0,0-.927-1.637c-.275-.427-.567-.835-.87-1.229-.1-.129-.2-.249-.306-.374-.212-.26-.426-.517-.65-.761-.126-.139-.258-.271-.389-.405-.213-.217-.429-.43-.653-.635-.143-.132-.288-.26-.435-.386-.1-.085-.2-.18-.3-.264-.131-.106-.271-.2-.405-.3s-.3-.227-.448-.335c-.264-.188-.536-.365-.812-.539-.14-.088-.276-.18-.42-.265-.041-.023-.078-.052-.121-.076-.085-.049-.184-.087-.271-.135q-.7-.391-1.458-.724c-.095-.043-.18-.1-.277-.137-.082-.036-.176-.059-.26-.093q-.732-.3-1.506-.541l2.348-.589a14.8,14.8,0,0,0,2.837-1.032,16.442,16.442,0,0,0,4.667-3.342q.484-.495.922-1.023c.1-.115.185-.239.279-.359.155-.2.316-.392.463-.6.021-.029.034-.063.055-.092a17.174,17.174,0,0,0,1.131-1.856c.033-.063.077-.117.11-.18q.171-.33.33-.672.278-.6.512-1.223c.007-.021.011-.043.019-.063.2-.533.367-1.08.514-1.637.01-.034.023-.066.032-.1.029-.111.043-.228.069-.341.1-.424.19-.856.261-1.3.015-.089.04-.173.054-.262q.064-.429.11-.867c.041-.382.069-.761.087-1.136C223.022,189.356,223.008,189.2,223.011,189.048Z" transform="translate(-172.551 -169.35)" fill="#166873"/>
          </g>
          <g id="グループ_233" data-name="グループ 233" transform="translate(0 0.995)">
            <path id="パス_607" data-name="パス 607" d="M197.265,170.074a42.835,42.835,0,0,1,4.756.271,33.644,33.644,0,0,1,9.67,2.447,24.6,24.6,0,0,1,7.216,4.584,17.017,17.017,0,0,1,4.3,6.3,16.219,16.219,0,0,1,.951,7.7,18.1,18.1,0,0,1-1.572,5.789,16.85,16.85,0,0,1-3.289,4.776,16.363,16.363,0,0,1-4.665,3.342,14.824,14.824,0,0,1-5.665,1.46,17.256,17.256,0,0,1,10.06,7.363,19.138,19.138,0,0,1,2.778,12.73,19.652,19.652,0,0,1-2.889,8.58,18.741,18.741,0,0,1-6.239,6.058,26.324,26.324,0,0,1-9.108,3.265,35.71,35.71,0,0,1-6.329.538,46.528,46.528,0,0,1-5.129-.3,37.955,37.955,0,0,1-14.03-4.149,25.909,25.909,0,0,1-9.407-8.556l9.068-8.926a19.541,19.541,0,0,0,5.93,6.007,21.343,21.343,0,0,0,9.252,2.919,27.892,27.892,0,0,0,3.129.188,14.019,14.019,0,0,0,6.991-1.558q3.7-2.1,4.254-7.274a9.848,9.848,0,0,0-3.037-8.722q-3.6-3.342-11.517-4.227l-2.947-.332,1.092-10.361,3.263.371a25.122,25.122,0,0,0,2.819.168,13.9,13.9,0,0,0,7.516-1.883,8.917,8.917,0,0,0,4.357-6.9,7.351,7.351,0,0,0-2.228-6.646,13.1,13.1,0,0,0-7.437-2.921,20.322,20.322,0,0,0-2.3-.135,16.7,16.7,0,0,0-6.639,1.326,17.226,17.226,0,0,0-6.928,5.4l-7.83-10.732a16.663,16.663,0,0,1,4.676-3.816,28.963,28.963,0,0,1,6.307-2.651,38.171,38.171,0,0,1,7.455-1.357Q195.579,170.073,197.265,170.074Z" transform="translate(-168.668 -170.074)" fill="#24adbf"/>
          </g>
        </g>
        <g id="グループ_237" data-name="グループ 237" transform="translate(357.925 26.413)">
          <g id="グループ_235" data-name="グループ 235" transform="translate(15.863)">
            <path id="パス_608" data-name="パス 608" d="M381.754,247.167l3.961-.994,2.222-15.355-3.961.994Z" transform="translate(-355.088 -172.791)" fill="#c95718"/>
            <path id="パス_609" data-name="パス 609" d="M383.866,204.487,362.342,225l18.172,2.766,3.961-.994L366.3,224.01l21.524-20.516Z" transform="translate(-362.342 -183.002)" fill="#c95718"/>
            <path id="パス_610" data-name="パス 610" d="M389.521,234.246l6.384-44.2-9.664-1.473-3.961.994,9.664,1.473-6.384,44.2,9.245,1.409-1.792,12.358,3.961-.994,1.792-12.359Z" transform="translate(-354.891 -188.577)" fill="#c9570a"/>
          </g>
          <g id="グループ_236" data-name="グループ 236" transform="translate(0 0.995)">
            <path id="パス_611" data-name="パス 611" d="M397.326,234.969l9.245,1.408-1.793,12.359-9.231-1.409-2.223,15.355-14.071-2.139,2.21-15.355L350.8,240.54l1.767-12.269,41.485-38.97,9.664,1.473Zm-12.5-1.9,3.352-23.282-21.525,20.515,18.173,2.767" transform="translate(-350.795 -189.301)" fill="#fc9a57"/>
          </g>
        </g>
        <g id="グループ_240" data-name="グループ 240" transform="translate(422.813 73.185)">
          <g id="グループ_238" data-name="グループ 238" transform="translate(10.42)">
            <path id="パス_612" data-name="パス 612" d="M420.613,252.251l-3.96.993a12.32,12.32,0,0,0-4.5,2.154l3.96-.995A12.3,12.3,0,0,1,420.613,252.251Z" transform="translate(-403.173 -211.553)" fill="#1960bb"/>
            <path id="パス_613" data-name="パス 613" d="M428.559,273.838c-.317.025-.632.058-.955.058-.379,0-.762-.021-1.15-.055-.457-.04-.919-.1-1.386-.187-.051-.01-.1-.026-.155-.036-.449-.088-.9-.2-1.361-.331-.354-.1-.707-.207-1.067-.335-.576-.2-1.124-.451-1.672-.7-.335-.154-.666-.319-.99-.493-.466-.25-.929-.507-1.374-.8-.092-.059-.188-.114-.279-.177A19.278,19.278,0,0,1,416.5,269.5c-.12-.1-.236-.206-.353-.31a21.374,21.374,0,0,1-1.581-1.543,24.237,24.237,0,0,1-1.536-1.883c-.159-.217-.3-.448-.446-.67-.3-.441-.607-.882-.879-1.342-.164-.276-.3-.569-.453-.852-.228-.426-.46-.85-.664-1.293-.144-.315-.265-.641-.4-.964-.214-.523-.435-1.043-.615-1.589l-3.96.995c.065.2.132.39.2.582.124.348.279.673.416,1.011.13.32.253.646.4.957.2.445.437.872.666,1.3.151.28.289.57.449.843.273.464.58.908.885,1.352.15.218.284.448.442.662a24.263,24.263,0,0,0,1.536,1.883,20.831,20.831,0,0,0,1.58,1.543c.118.1.235.21.354.312s.207.188.315.275c.438.357.892.687,1.353,1,.092.062.188.117.28.177.282.183.56.37.849.537.169.1.352.169.523.261.326.174.655.338.992.493.18.084.35.188.534.266q.558.237,1.137.438.449.159.893.291c.059.018.115.026.174.043.457.132.911.243,1.36.331.044.01.089.025.133.033l.023,0c.467.088.929.148,1.386.188.026,0,.052.008.078.01.36.03.718.044,1.071.044.115,0,.232,0,.346,0,.206-.005.405-.037.609-.052.232-.018.466-.03.7-.06.051-.007.1-.007.155-.014a11.805,11.805,0,0,0,1.158-.231l3.962-.993a11.784,11.784,0,0,1-1.315.243C429.025,273.809,428.791,273.82,428.559,273.838Z" transform="translate(-405.615 -209.009)" fill="#166873"/>
            <path id="パス_614" data-name="パス 614" d="M449.5,271.116c0-.36.014-.721-.007-1.078,0-.073-.01-.146-.014-.218a24,24,0,0,0-.323-2.462c-.008-.04-.01-.082-.016-.122-.118-.632-.269-1.251-.44-1.863-.044-.161-.1-.317-.148-.477-.1-.335-.2-.673-.315-1-.063-.18-.143-.354-.213-.534s-.13-.335-.2-.5c-.261-.626-.541-1.246-.864-1.85a24.084,24.084,0,0,0-5.91-7.2c-.092-.077-.185-.154-.279-.229q-.808-.657-1.675-1.251c-.03-.021-.065-.038-.095-.06-.541-.368-1.1-.721-1.672-1.054-.071-.041-.148-.078-.221-.118-.151-.087-.309-.165-.463-.249q-.789-.427-1.62-.812c-.185-.085-.368-.172-.555-.254-.121-.054-.236-.113-.359-.165q-.9-.379-1.842-.712-.682-.243-1.333-.437c-.044-.014-.084-.018-.126-.032-.658-.191-1.294-.349-1.908-.467-.033-.007-.071-.019-.106-.026-.152-.029-.294-.037-.444-.06-.339-.055-.679-.106-1.007-.137-.063-.005-.132-.022-.2-.026q-.507-.041-.995-.045c-.136,0-.271,0-.4.005-.165.005-.308.029-.467.04-.247.015-.495.03-.727.06-.065.008-.139.007-.2.016q-.447.066-.854.168l-1.338.337,8.024-14.445-3.96.995L418.1,249.5l3.1-.778.136-.011c.287-.018.565-.044.872-.044.386,0,.786.033,1.19.071.328.03.666.082,1.007.136.184.03.363.051.549.087q.921.179,1.905.468c.477.139.96.29,1.46.467.758.267,1.488.565,2.2.878.187.081.37.168.554.253q.83.385,1.621.812c.154.084.312.163.463.249.652.37,1.286.76,1.9,1.176.029.019.06.037.091.056q1.014.7,1.953,1.481a24.09,24.09,0,0,1,5.91,7.2c.323.6.6,1.223.863,1.849.07.166.136.334.2.5.2.505.37,1.019.528,1.539.048.158.1.313.148.474q.272.977.455,1.985a23.97,23.97,0,0,1,.324,2.463c.029.43.015.867.021,1.3.005.4.025.8.008,1.2-.015.386-.067.775-.1,1.164-.039.424-.063.848-.125,1.276-.049.342-.132.69-.2,1.034-.093.493-.177.985-.3,1.482-.192.768-.412,1.537-.679,2.313-.179.523-.394,1.011-.6,1.51-.229.566-.468,1.12-.729,1.654-.245.5-.493,1-.767,1.474-.065.113-.125.232-.192.343-.365.611-.762,1.191-1.176,1.756a21.538,21.538,0,0,1-1.826,2.2,23.4,23.4,0,0,1-8.057,5.481,24.466,24.466,0,0,1-3.293,1.076l3.962-.993a24.8,24.8,0,0,0,3.293-1.076,23.464,23.464,0,0,0,8.057-5.481,21.736,21.736,0,0,0,1.826-2.2c.051-.069.113-.126.162-.2.357-.5.692-1.022,1.012-1.559.067-.111.128-.229.192-.342.184-.319.371-.635.543-.967.082-.161.144-.343.224-.507.261-.534.5-1.089.731-1.655.095-.232.212-.442.3-.679.1-.273.2-.551.3-.831q.371-1.076.643-2.14c.015-.058.021-.114.036-.172.124-.5.209-.99.3-1.485.058-.3.14-.61.185-.911.005-.041.005-.081.012-.122.062-.43.087-.854.125-1.28.03-.349.085-.7.1-1.048,0-.037,0-.073,0-.11C449.529,271.917,449.51,271.519,449.5,271.116Z" transform="translate(-400.95 -218.427)" fill="#166873"/>
            <path id="パス_615" data-name="パス 615" d="M423.874,222.625l-3.961.994,35.135,12.358-4.091,12,3.961-.994,4.091-12Z" transform="translate(-400.272 -222.625)" fill="#166873"/>
          </g>
          <g id="グループ_239" data-name="グループ 239" transform="translate(0 0.994)">
            <path id="パス_616" data-name="パス 616" d="M428.091,223.348l35.134,12.359-4.091,12-25.4-8.926L425.6,253.431a8.786,8.786,0,0,1,4.1-.832,18.793,18.793,0,0,1,6.112,1.229,28.094,28.094,0,0,1,8.781,4.9,24.09,24.09,0,0,1,5.91,7.2,22.1,22.1,0,0,1,2.518,8.811,24.612,24.612,0,0,1-1.374,9.771,23.72,23.72,0,0,1-5.287,8.939,23.407,23.407,0,0,1-8.056,5.481,26.487,26.487,0,0,1-9.979,1.883,32.658,32.658,0,0,1-11.024-1.948A31.66,31.66,0,0,1,404.4,290.7a24.424,24.424,0,0,1-6.367-12.153l10.42-5.149a23.74,23.74,0,0,0,4.991,8.593,19.165,19.165,0,0,0,7.918,5.3,15.3,15.3,0,0,0,5.12.942,12.017,12.017,0,0,0,4.855-1.007,11.5,11.5,0,0,0,6.36-7.286,11.665,11.665,0,0,0-.44-9.413,12.214,12.214,0,0,0-7.212-6.058,14.03,14.03,0,0,0-6.678-.7,12.563,12.563,0,0,0-5.94,2.434l-11.745-4.138A20.72,20.72,0,0,1,406.836,260q1.059-1.787,2.682-4.572t3.585-6.223q1.945-3.46,4.065-7.006Q422.057,233.786,428.091,223.348Z" transform="translate(-398.03 -223.348)" fill="#24adbf"/>
          </g>
        </g>
        <g id="グループ_243" data-name="グループ 243" transform="translate(428.129 160.619)">
          <g id="グループ_241" data-name="グループ 241" transform="translate(12.602)">
            <path id="パス_617" data-name="パス 617" d="M428.886,339.07c-.346,0-.694-.015-1.041-.043h0c-.409-.034-.821-.093-1.232-.166-.12-.021-.239-.048-.359-.073q-.49-.1-.981-.239c-.185-.052-.372-.1-.558-.157-.42-.136-.823-.294-1.217-.463a12.762,12.762,0,0,1-1.265-.631l-.073-.036a12.809,12.809,0,0,1-1.477-1.018c-.25-.2-.5-.392-.74-.607a15.559,15.559,0,0,1-3.282-4.239,13.992,13.992,0,0,1-.729-1.65c-.074-.2-.148-.392-.213-.592-.044-.135-.088-.271-.128-.408-.085-.293-.158-.591-.224-.892-.023-.106-.052-.21-.073-.317-.082-.423-.148-.852-.192-1.289-.036-.324-.044-.646-.055-.967-.01-.255-.012-.511-.008-.764.005-.225.016-.451.033-.674s.037-.444.065-.665.063-.457.1-.685.084-.444.135-.664c.08-.346.162-.694.271-1.037.1-.326.228-.636.353-.947.109-.275.229-.541.354-.8.081-.168.161-.337.247-.5a12.424,12.424,0,0,1,.8-1.305c.015-.019.026-.043.04-.063a12.231,12.231,0,0,1,.839-1.044,14.454,14.454,0,0,1,4.134-3.188,12.582,12.582,0,0,1,2.771-1.052l-3.96.995a12.58,12.58,0,0,0-2.771,1.051,14.453,14.453,0,0,0-4.134,3.188,12.038,12.038,0,0,0-.839,1.045l-.007.01c-.012.017-.022.037-.034.055a12.473,12.473,0,0,0-.794,1.3c-.03.055-.069.1-.1.158-.056.11-.1.229-.151.341-.126.262-.246.529-.356.8-.036.091-.082.174-.117.265-.084.224-.162.451-.235.683s-.146.482-.207.724c-.026.1-.04.209-.063.312-.051.221-.095.442-.135.665-.022.121-.056.24-.074.363-.015.107-.018.216-.032.323-.027.22-.048.442-.063.664-.01.12-.03.239-.036.36,0,.1.005.21,0,.315-.005.254,0,.508.008.764,0,.124-.005.246,0,.371.012.2.03.4.051.6q.062.61.173,1.2c.005.03.015.06.021.091.021.106.049.209.071.315.066.3.14.6.225.894.04.137.084.272.128.408s.076.258.121.383c.025.071.065.137.092.207a13.9,13.9,0,0,0,.729,1.651,15.556,15.556,0,0,0,3.282,4.239q.274.249.56.482c.056.045.122.078.18.124a12.809,12.809,0,0,0,1.477,1.018l0,0c.022.012.047.022.067.034a12.784,12.784,0,0,0,1.267.629c.03.014.056.03.086.044.365.154.743.294,1.131.419.11.036.221.07.331.1.076.022.151.034.225.055q.493.138.982.238c.074.016.15.041.225.055.044.008.088.011.133.019.411.073.821.132,1.232.165h0c.348.029.694.043,1.041.043q.173,0,.346,0,.46-.012.916-.059c.234-.022.466-.051.7-.085q.7-.105,1.385-.275l3.96-.995a14.327,14.327,0,0,1-2.081.361C429.728,339.048,429.308,339.07,428.886,339.07Z" transform="translate(-411.073 -276.696)" fill="#c95718"/>
            <path id="パス_618" data-name="パス 618" d="M419.334,309.147c.136-.352.277-.692.419-1.032.155-.372.312-.74.474-1.1.148-.324.3-.639.452-.951.17-.345.342-.684.518-1.012q.235-.437.477-.854c.184-.316.37-.625.559-.925.168-.266.339-.528.512-.78q.309-.451.628-.875c.15-.2.3-.4.453-.585.232-.29.471-.563.713-.831.151-.169.3-.342.456-.5.269-.28.547-.54.827-.8.136-.124.268-.258.407-.376.422-.363.853-.7,1.3-1.017a13.927,13.927,0,0,1,4.628-2.165l-3.962.993a13.963,13.963,0,0,0-4.627,2.165c-.445.312-.876.654-1.3,1.017-.137.12-.271.254-.407.378-.279.257-.556.516-.826.8-.155.162-.306.335-.459.5-.24.268-.478.541-.71.828-.154.191-.3.389-.455.588-.115.154-.236.3-.35.453-.095.133-.183.284-.276.422q-.262.379-.512.779c-.19.3-.375.609-.558.923-.162.28-.323.565-.479.857-.077.146-.161.278-.238.424-.1.188-.184.4-.279.588-.153.31-.3.624-.451.946-.163.36-.321.731-.478,1.1-.14.338-.28.676-.415,1.026-.058.146-.12.28-.174.429-.177.471-.348.955-.515,1.449l3.96-.995C418.865,310.374,419.1,309.757,419.334,309.147Z" transform="translate(-409.723 -282.88)" fill="#c95718"/>
            <path id="パス_619" data-name="パス 619" d="M453.1,328.522c-.008-.217.008-.434-.005-.651q-.037-.571-.1-1.142-.107-.923-.276-1.822c-.022-.115-.055-.227-.078-.342-.051-.249-.111-.493-.169-.738q-.171-.734-.382-1.453c-.076-.253-.154-.505-.238-.757-.055-.166-.1-.338-.158-.5-.113-.316-.25-.622-.376-.934-.087-.216-.168-.434-.261-.648-.3-.676-.615-1.344-.974-2q-.585-1.063-1.276-2.067c-.118-.17-.258-.328-.381-.5-.356-.489-.713-.978-1.107-1.445-.206-.243-.441-.47-.658-.706-.342-.375-.672-.756-1.04-1.115-.261-.256-.555-.492-.83-.74-.353-.317-.691-.644-1.065-.949l-.025-.021c-.626-.508-1.279-.981-1.947-1.431-.213-.144-.435-.275-.653-.412-.33-.21-.653-.43-.992-.626-.165-.095-.339-.179-.507-.272s-.349-.19-.525-.282c-.668-.349-1.348-.683-2.052-.984-.03-.012-.059-.029-.089-.041l-.025-.011q-1.22-.515-2.513-.935-.29-.095-.581-.181c-.117-.034-.229-.051-.346-.084q-.886-.251-1.757-.429c-.114-.023-.231-.063-.343-.084-.056-.011-.11-.012-.166-.023-.657-.117-1.306-.209-1.948-.262l-.04-.005q-.779-.064-1.541-.063c-.166,0-.331,0-.5.007-.108,0-.214.022-.323.027-.484.022-.963.065-1.438.125-.109.014-.218.012-.326.028-.153.023-.3.047-.455.074q-.655.113-1.28.272l-3.962.993q.626-.157,1.28-.272c.258-.045.521-.067.782-.1q.711-.091,1.437-.124c.273-.012.545-.036.82-.036.523,0,1.05.025,1.583.069.642.054,1.291.146,1.948.264.169.03.341.071.51.106q.87.177,1.756.429c.309.088.615.164.929.265q1.306.425,2.536.947c.032.014.059.029.089.041.7.3,1.386.635,2.052.984.177.093.353.187.526.283.511.282,1.006.585,1.495.9.218.139.444.269.658.415.668.451,1.319.923,1.944,1.43.376.306.717.635,1.071.953.282.254.581.5.849.758.354.346.673.714,1,1.076.228.25.477.489.694.746.345.408.653.838.967,1.262.17.229.36.447.521.681a24.2,24.2,0,0,1,1.276,2.066c.359.654.677,1.322.974,2,.093.213.173.431.261.647.192.475.372.955.534,1.441.084.249.161.5.236.754.143.479.269.964.383,1.455.058.246.118.489.169.736.143.712.269,1.43.354,2.165.067.6.085,1.194.107,1.79.015.427.021.853.011,1.28s-.027.831-.059,1.246c-.027.387-.063.773-.113,1.159-.052.42-.12.839-.2,1.26-.073.4-.151.806-.246,1.21-.15.646-.3,1.293-.511,1.941s-.448,1.265-.694,1.882c-.2.511-.427,1.007-.661,1.495-.191.4-.376.8-.588,1.191-.089.162-.179.323-.271.482-.378.654-.776,1.291-1.213,1.9a23.146,23.146,0,0,1-1.618,2.013,25.6,25.6,0,0,1-7.966,5.994,24.815,24.815,0,0,1-4.786,1.73l3.96-.993a24.979,24.979,0,0,0,4.787-1.73,25.629,25.629,0,0,0,7.965-5.994,22.95,22.95,0,0,0,1.618-2.014l.019-.023c.43-.6.82-1.232,1.194-1.876.092-.159.183-.32.271-.484s.2-.338.289-.512c.113-.217.194-.456.3-.677.234-.489.457-.985.662-1.5.066-.168.153-.321.217-.49q.255-.684.475-1.392t.4-1.394c.047-.181.069-.364.111-.547.093-.4.173-.805.245-1.208.041-.231.106-.46.14-.69.029-.191.032-.382.056-.573.048-.386.084-.772.113-1.158.017-.221.054-.442.065-.662.008-.2-.01-.39-.005-.585C453.119,329.374,453.114,328.948,453.1,328.522Z" transform="translate(-407.964 -279.697)" fill="#c95718"/>
            <path id="パス_620" data-name="パス 620" d="M426.3,287.349c.159-.012.32-.018.481-.027.5-.03.992-.055,1.492-.055q1.041,0,2.094.088c.837.069,1.68.19,2.526.341.6.107,1.2.224,1.806.374.062.015.125.034.188.051.68.172,1.363.363,2.05.587a32.387,32.387,0,0,1,3.07,1.184c.15.067.3.136.445.2.911.422,1.794.878,2.644,1.379.163.095.317.2.478.3q1.082.668,2.094,1.423c.192.144.386.283.574.431a27.1,27.1,0,0,1,4.466,4.356c.029.036.06.069.091.106a27.968,27.968,0,0,1,1.771,2.452c.045.069.092.135.136.2a27.992,27.992,0,0,1,1.451,2.592c.048.1.1.19.146.286.426.883.808,1.8,1.153,2.743.082.227.173.448.251.677l-10.416,5.8,3.961-.993,10.416-5.8q-.078-.233-.161-.462c-.026-.074-.063-.142-.091-.214-.345-.944-.725-1.861-1.153-2.746-.045-.1-.1-.188-.144-.283a28.547,28.547,0,0,0-1.452-2.6c-.043-.069-.091-.133-.135-.2a27.748,27.748,0,0,0-1.772-2.455c-.03-.036-.062-.07-.091-.106a28.473,28.473,0,0,0-2.127-2.324q-.942-.919-1.955-1.745c-.125-.1-.258-.188-.383-.287-.188-.147-.383-.287-.574-.43q-1.014-.756-2.095-1.423c-.161-.1-.315-.206-.478-.3-.074-.044-.143-.095-.217-.137-.78-.451-1.595-.856-2.426-1.24-.15-.069-.3-.139-.448-.2s-.306-.147-.463-.213q-1.265-.536-2.6-.971-.385-.126-.769-.24c-.429-.128-.856-.24-1.283-.348-.062-.015-.125-.036-.187-.051q-.787-.194-1.569-.341c-.08-.015-.158-.018-.238-.033-.846-.151-1.69-.272-2.526-.341l-.029,0c-.691-.056-1.381-.085-2.065-.085-.227,0-.453,0-.679.01-.272.007-.543.03-.813.047-.161.01-.321.014-.481.026-.543.044-1.084.1-1.621.18l-.081.012q-1.139.173-2.247.451l-3.96.995q1.109-.278,2.246-.451C425.166,287.456,425.734,287.394,426.3,287.349Z" transform="translate(-406.857 -286.272)" fill="#c95718"/>
          </g>
          <g id="グループ_242" data-name="グループ 242" transform="translate(0 0.995)">
            <path id="パス_621" data-name="パス 621" d="M452.656,324.832a24.9,24.9,0,0,1,2.912,9.2,24.763,24.763,0,0,1-6.05,18.85,25.6,25.6,0,0,1-7.966,5.994,26.26,26.26,0,0,1-9.936,2.511c-.532.03-1.066.045-1.6.045a30.161,30.161,0,0,1-9.359-1.532,28.463,28.463,0,0,1-10.295-5.75,24.088,24.088,0,0,1-6.351-9.054,31.2,31.2,0,0,1-2.113-11.9,47.907,47.907,0,0,1,2.418-14.241,68.756,68.756,0,0,1,7.319-16.367,39.422,39.422,0,0,1,9.465-10.579A24.323,24.323,0,0,1,435.922,287a27.876,27.876,0,0,1,8.664,1.44,29.444,29.444,0,0,1,11.645,6.954,28.492,28.492,0,0,1,7.124,11.385l-10.416,5.8a17.965,17.965,0,0,0-4.429-7.888,18.253,18.253,0,0,0-7.74-4.816,15.225,15.225,0,0,0-4.708-.79,13.193,13.193,0,0,0-7.719,2.544q-5.654,3.958-8.881,13.512a14.88,14.88,0,0,1,7.748-3.715,17.551,17.551,0,0,1,3.04-.261,21.83,21.83,0,0,1,6.723,1.132,28.665,28.665,0,0,1,9.3,4.995A25.613,25.613,0,0,1,452.656,324.832Zm-11.045,14.882a12.667,12.667,0,0,0,.521-5.353,15.023,15.023,0,0,0-1.534-5.033,13.369,13.369,0,0,0-3.333-4.149,14.812,14.812,0,0,0-9.341-3.39c-.327,0-.653.011-.979.034a13.032,13.032,0,0,0-5.069,1.422,14.453,14.453,0,0,0-4.134,3.188,12.526,12.526,0,0,0-2.629,4.662,13.217,13.217,0,0,0-.545,5.455,13.831,13.831,0,0,0,1.56,5.149,15.556,15.556,0,0,0,3.282,4.239,12.829,12.829,0,0,0,4.772,2.753,13.462,13.462,0,0,0,4.172.677,12.514,12.514,0,0,0,1.262-.063,13.918,13.918,0,0,0,5.106-1.511,14.245,14.245,0,0,0,4.223-3.316,12.942,12.942,0,0,0,2.666-4.764" transform="translate(-401.9 -286.996)" fill="#fc9a57"/>
          </g>
        </g>
      </g>
      <g id="グループ_245" data-name="グループ 245" transform="translate(125.182 293.03)">
        <path id="パス_622" data-name="パス 622" d="M465.594,351.006l-250.64,58.676,1.153-69.611L466.649,287.3Z" transform="translate(-60.495 -248.557)" fill="#383873"/>
        <path id="パス_623" data-name="パス 623" d="M257.82,350.611,103.339,311.868,353.881,259.1l154.481,38.744Z" transform="translate(-102.209 -259.098)" fill="#45458c"/>
        <path id="パス_624" data-name="パス 624" d="M106.8,299.4l-1.081,65.234s147.5,37.924,150.1,38.284l1.111-67.126Z" transform="translate(-101.321 -244.036)" fill="url(#linear-gradient-7)"/>
        <path id="パス_625" data-name="パス 625" d="M253.57,335.112h0l-149.924-37.6-.037,2.221,149.9,38.958L252.477,401.1,102.553,363.5l-.037,2.221,154.458,40.142.06-3.62,1.033-62.371.06-3.62Z" transform="translate(-102.516 -244.741)" fill="#383873"/>
        <path id="パス_626" data-name="パス 626" d="M102.543,346.132l4.423-2.143-.054,3.239Z" transform="translate(-102.506 -227.371)" fill="#07225f"/>
      </g>
      <g id="グループ_246" data-name="グループ 246" transform="translate(154.114 215.777)">
        <path id="パス_627" data-name="パス 627" d="M124.155,234.449c-.174-1.121-.368-2.258-.578-3.379l233.8,50.853.507,33.254-.507-30.5Z" transform="translate(-123.577 -192.319)" fill="#0d4a59"/>
        <path id="パス_628" data-name="パス 628" d="M358.476,335.846l-234.9-50.678c.14-.945.264-1.908.386-2.853l234.46,50.221Z" transform="translate(-123.577 -173.168)" fill="#0d4a59"/>
        <path id="パス_629" data-name="パス 629" d="M237.5,271.587l232.728,54.195v-72.06l-233.783-50.86Z" transform="translate(-81.396 -202.861)" fill="#0d4a59"/>
        <path id="パス_630" data-name="パス 630" d="M357.364,292.465l154.482-38.743-233.783-50.86L123.581,241.605Z" transform="translate(-123.576 -202.861)" fill="#115f73"/>
        <path id="パス_631" data-name="パス 631" d="M443.9,243.627l1.08,65.143s-147.5,37.874-150.1,38.233l-1.111-67.032Z" transform="translate(-59.973 -187.626)" fill="url(#linear-gradient-8)"/>
        <path id="パス_632" data-name="パス 632" d="M126.612,301.042c3.117-23.326,3.625-45.811.192-67.017l229.434,49.542.507,30.5.544,36.511Z" transform="translate(-122.443 -191.215)" fill="url(#linear-gradient-9)"/>
        <path id="パス_633" data-name="パス 633" d="M294.733,328.824l-.053-.018-.543-36.511Z" transform="translate(-59.834 -169.438)" fill="url(#linear-gradient-10)"/>
        <path id="パス_634" data-name="パス 634" d="M293.763,278.628l154.482-38.743v72.06L294.88,351.7v-3.3l150.1-38.234V245.025L293.769,281.371Z" transform="translate(-59.974 -189.025)" fill="#0d4a59"/>
      </g>
      <g id="グループ_247" data-name="グループ 247" transform="translate(224.502 235.203)">
        <path id="パス_635" data-name="パス 635" d="M339.011,218.816h0a1.505,1.505,0,0,1,.247.4c.021.043.04.087.06.135a4.762,4.762,0,0,1,.223.687,6.64,6.64,0,0,1,.032,3.378.477.477,0,0,1-.229.276h0l7.154-2.724a.105.105,0,0,0,.049-.059,1.423,1.423,0,0,0-.007-.727.823.823,0,0,0-.077-.209c-.01-.016-.018-.016-.027-.027s-.033-.047-.049-.049l-7.562-1.191h0A.353.353,0,0,1,339.011,218.816Z" transform="translate(-113.523 -216.365)" fill="#575755"/>
        <path id="パス_636" data-name="パス 636" d="M328.8,226.26h0Z" transform="translate(-117.27 -213.542)" fill="#e4eeed"/>
        <path id="パス_637" data-name="パス 637" d="M328.028,217.037h0a1.036,1.036,0,0,1,.32.221c.03.027.06.06.091.093a2.653,2.653,0,0,1,.258.337c.023.037.048.067.071.107a5.426,5.426,0,0,1,.312.6c.023.052.047.113.069.168.081.192.161.4.238.628.027.08.054.159.081.245.095.3.185.613.271.96.76,3.113.8,6.966.08,8.609a1.742,1.742,0,0,1-.315.5.867.867,0,0,1-.114.081.787.787,0,0,1-.172.121h.018l14.208-5.382h0a.477.477,0,0,0,.229-.276,6.64,6.64,0,0,0-.032-3.378,4.762,4.762,0,0,0-.223-.687c-.021-.048-.04-.092-.06-.135a1.505,1.505,0,0,0-.247-.4h0a.353.353,0,0,0-.188-.11h0l-15.015-2.337a.386.386,0,0,0-.069.005A.485.485,0,0,1,328.028,217.037Z" transform="translate(-117.626 -217.001)" fill="url(#linear-gradient-11)"/>
        <path id="パス_638" data-name="パス 638" d="M328.8,226.295h.005c.021-.005.041,0,.062-.007a.787.787,0,0,0,.172-.121A.626.626,0,0,1,328.8,226.295Z" transform="translate(-117.269 -213.577)" fill="#0075f2"/>
        <path id="パス_639" data-name="パス 639" d="M328.815,218.187c-.022-.055-.045-.115-.069-.168C328.769,218.071,328.793,218.132,328.815,218.187Z" transform="translate(-117.289 -216.622)" fill="#0075f2"/>
        <path id="パス_640" data-name="パス 640" d="M329.05,218.843c-.027-.085-.054-.165-.081-.245C329,218.678,329.023,218.757,329.05,218.843Z" transform="translate(-117.205 -216.405)" fill="#0075f2"/>
        <path id="パス_641" data-name="パス 641" d="M329.369,225.742a1.742,1.742,0,0,1-.315.5A1.742,1.742,0,0,0,329.369,225.742Z" transform="translate(-117.173 -213.736)" fill="#0075f2"/>
        <path id="パス_642" data-name="パス 642" d="M327.981,217.028h0Z" transform="translate(-117.576 -216.992)" fill="#0075f2"/>
        <path id="パス_643" data-name="パス 643" d="M328.538,217.609c-.023-.04-.048-.07-.071-.107C328.49,217.539,328.515,217.569,328.538,217.609Z" transform="translate(-117.393 -216.815)" fill="#0075f2"/>
        <path id="パス_644" data-name="パス 644" d="M328.213,217.189c.03.027.06.06.091.093C328.273,217.249,328.243,217.216,328.213,217.189Z" transform="translate(-117.488 -216.932)" fill="#0075f2"/>
        <path id="パス_645" data-name="パス 645" d="M194.339,236.175a1.051,1.051,0,0,1,.32.221c.03.029.06.062.091.095a2.514,2.514,0,0,1,.257.335c.025.037.049.067.073.107a5.458,5.458,0,0,1,.312.6c.023.051.045.109.067.162.082.2.162.405.239.633.027.08.054.158.081.242.093.3.185.614.271.963.76,3.111.8,6.966.08,8.606a1.705,1.705,0,0,1-.315.5c-.007.008-.012.025-.018.032-.032.03-.066.027-.1.051a.59.59,0,0,1-.238.126c-.014,0-.027.022-.043.023l13.4-1.4,12.973-1.352c7.961-.828,16.132-1.68,24.458-2.548l14.489-1.508,3.944-.412,29.828-3.107,15.394-1.6,3.783-.393,14.645-1.526,24.375-2.54,13.045-1.359,13.35-1.392c.015,0,.027-.019.041-.022h0a.626.626,0,0,0,.239-.128.867.867,0,0,0,.114-.081,1.742,1.742,0,0,0,.315-.5c.716-1.643.68-5.5-.08-8.609-.085-.348-.176-.662-.271-.96-.027-.085-.055-.165-.081-.245-.077-.225-.157-.435-.238-.628-.022-.055-.045-.115-.069-.168a5.426,5.426,0,0,0-.312-.6c-.023-.04-.048-.07-.071-.107a2.653,2.653,0,0,0-.258-.337c-.03-.033-.06-.066-.091-.093a1.036,1.036,0,0,0-.32-.221h0a.485.485,0,0,0-.185-.026.476.476,0,0,0-.062-.01l-13.361,1.392L351.4,219.749l-24.426,2.546-14.541,1.514-3.915.409-15.332,1.6-29.844,3.11-3.917.408-14.541,1.515-24.426,2.546-13.006,1.354-13.362,1.392a.54.54,0,0,1,.247.036Z" transform="translate(-167.613 -217.002)" fill="url(#linear-gradient-12)"/>
        <path id="パス_646" data-name="パス 646" d="M194.5,231.12c.03.029.06.062.091.095C194.564,231.182,194.534,231.149,194.5,231.12Z" transform="translate(-167.458 -211.726)" fill="#e4eeed"/>
        <path id="パス_647" data-name="パス 647" d="M194.272,230.959h0Z" transform="translate(-167.546 -211.786)" fill="#e4eeed"/>
        <path id="パス_648" data-name="パス 648" d="M195.1,232.113c-.022-.054-.044-.111-.067-.162C195.06,232,195.082,232.061,195.1,232.113Z" transform="translate(-167.259 -211.415)" fill="#e4eeed"/>
        <path id="パス_649" data-name="パス 649" d="M195.326,240.1a.59.59,0,0,1-.238.126A.59.59,0,0,0,195.326,240.1Z" transform="translate(-167.24 -208.37)" fill="#e4eeed"/>
        <path id="パス_650" data-name="パス 650" d="M195.66,239.672a1.705,1.705,0,0,1-.315.5A1.705,1.705,0,0,0,195.66,239.672Z" transform="translate(-167.144 -208.53)" fill="#e4eeed"/>
        <path id="パス_651" data-name="パス 651" d="M194.83,231.54c-.023-.04-.048-.07-.073-.107C194.782,231.469,194.806,231.5,194.83,231.54Z" transform="translate(-167.363 -211.609)" fill="#e4eeed"/>
        <path id="パス_652" data-name="パス 652" d="M195.341,232.772c-.027-.084-.054-.162-.081-.242C195.287,232.61,195.314,232.688,195.341,232.772Z" transform="translate(-167.175 -211.199)" fill="#e4eeed"/>
        <path id="パス_653" data-name="パス 653" d="M189.985,231.522a.545.545,0,0,1,.249.034h0a.885.885,0,0,1,.257.155c.022.018.044.047.065.067s.06.06.091.093a2.634,2.634,0,0,1,.258.335c.023.037.048.067.071.107a5.59,5.59,0,0,1,.313.606c.022.051.044.109.066.162q.124.291.239.633c.027.08.054.158.08.242.095.3.187.614.272.962.76,3.113.8,6.966.08,8.608a1.724,1.724,0,0,1-.315.5.67.67,0,0,1-.114.081.591.591,0,0,1-.239.128c-.014,0-.027.021-.043.023l2.819-.294,2.819-.294c.015,0,.029-.019.043-.023a.59.59,0,0,0,.238-.126c.032-.023.066-.021.1-.051.005-.007.011-.023.018-.032a1.705,1.705,0,0,0,.315-.5c.716-1.64.68-5.495-.08-8.606-.085-.349-.177-.664-.271-.963-.027-.084-.054-.162-.081-.242-.077-.228-.157-.438-.239-.633-.022-.052-.044-.111-.067-.162a5.458,5.458,0,0,0-.312-.6c-.023-.04-.048-.071-.073-.107a2.514,2.514,0,0,0-.257-.335c-.03-.033-.06-.066-.091-.095a1.051,1.051,0,0,0-.32-.221h0a.54.54,0,0,0-.247-.036l-2.812.294H192.8Z" transform="translate(-169.147 -211.796)" fill="#e4eeed"/>
        <path id="パス_654" data-name="パス 654" d="M190.166,231.386Z" transform="translate(-169.079 -211.626)" fill="#ff7485"/>
        <path id="パス_655" data-name="パス 655" d="M190.4,231.548c.03.027.06.06.091.093C190.46,231.608,190.43,231.575,190.4,231.548Z" transform="translate(-168.992 -211.566)" fill="#ff7485"/>
        <path id="パス_656" data-name="パス 656" d="M190.934,232.379c.022.051.044.109.066.162C190.978,232.488,190.956,232.43,190.934,232.379Z" transform="translate(-168.792 -211.255)" fill="#ff7485"/>
        <path id="パス_657" data-name="パス 657" d="M190.654,231.86c.023.037.048.069.071.107C190.7,231.927,190.677,231.9,190.654,231.86Z" transform="translate(-168.897 -211.449)" fill="#ff7485"/>
        <path id="パス_658" data-name="パス 658" d="M191.556,240.1a1.753,1.753,0,0,1-.315.5A1.724,1.724,0,0,0,191.556,240.1Z" transform="translate(-168.677 -208.37)" fill="#ff7485"/>
        <path id="パス_659" data-name="パス 659" d="M191.223,240.525a.591.591,0,0,1-.239.128A.591.591,0,0,0,191.223,240.525Z" transform="translate(-168.774 -208.211)" fill="#ff7485"/>
        <path id="パス_660" data-name="パス 660" d="M191.156,232.958c.027.078.054.158.08.242C191.21,233.116,191.183,233.038,191.156,232.958Z" transform="translate(-168.709 -211.039)" fill="#ff7485"/>
        <path id="パス_661" data-name="パス 661" d="M197.265,243.951a.67.67,0,0,0,.114-.081,1.753,1.753,0,0,0,.315-.5c.716-1.642.68-5.495-.08-8.608-.085-.348-.177-.664-.272-.962-.026-.084-.052-.163-.08-.242q-.115-.342-.239-.633c-.022-.054-.044-.111-.066-.162a5.59,5.59,0,0,0-.313-.606c-.023-.038-.048-.07-.071-.107a2.634,2.634,0,0,0-.258-.335c-.03-.033-.06-.066-.091-.093s-.043-.049-.065-.067a.885.885,0,0,0-.257-.155h0a.545.545,0,0,0-.249-.034h0l-14.9,1.552-2.633.275a3.148,3.148,0,0,0-1.643.661,3.759,3.759,0,0,0-1.137,1.488,5.935,5.935,0,0,0-.3.949,8.059,8.059,0,0,0-.139.834c-.007.06-.022.117-.027.177-.036.348-.054.694-.056,1.034v.026c0,.365.011.721.036,1.058,0,.067.014.132.019.2.025.283.052.549.087.793.01.077.022.15.034.225.095.635.2,1.107.231,1.235.025.1.059.192.087.293.045.17.093.326.141.479.034.1.067.21.1.309.018.051.036.114.054.162.038.1.085.169.125.26.077.176.157.348.242.506.063.114.126.22.192.321a4.725,4.725,0,0,0,.3.422c.058.071.115.14.174.2a3.813,3.813,0,0,0,.36.342c.062.051.122.1.184.143a3.5,3.5,0,0,0,.346.22,3.255,3.255,0,0,0,.306.146c.076.03.15.066.228.091a3.387,3.387,0,0,0,1.381.163l5.239-.545,2.241-.235,4.823-.5,5.233-.545c.015,0,.029-.021.043-.023A.591.591,0,0,0,197.265,243.951Z" transform="translate(-174.816 -211.636)" fill="#ff7485"/>
      </g>
      <g id="グループ_251" data-name="グループ 251" transform="translate(320.153 237.994)">
        <g id="グループ_248" data-name="グループ 248" transform="translate(0 1.276)">
          <path id="パス_662" data-name="パス 662" d="M344.739,233.02a7.008,7.008,0,0,0-1.988-.2,5.418,5.418,0,0,0-1.243.194l-4.193,1.2c-.363-.276-.725-.552-1.109-.824q-.5-.379-1.032-.749c-.326-.224-.643-.441-.971-.655q-.824-.542-1.686-1.05c-.4-.236-.784-.466-1.176-.687-.978-.556-1.992-1.087-3.039-1.6q-.635-.317-1.3-.626-.433-.206-.9-.4c-.789-.367-1.629-.72-2.471-1.063-.449-.187-.918-.37-1.379-.547-1.2-.452-2.414-.89-3.661-1.294-.484-.162-.96-.317-1.458-.466q-1.914-.593-3.89-1.1c-.492-.135-1-.262-1.507-.385-1.349-.331-2.708-.626-4.08-.9-.511-.095-1.012-.192-1.526-.277-1.376-.256-2.779-.478-4.188-.673-.507-.069-1.032-.143-1.552-.2-.4-.045-.8-.1-1.2-.133-1.011-.115-2.033-.22-3.043-.3-.507-.037-1.022-.07-1.537-.1-1.412-.091-2.83-.155-4.228-.183-.508-.018-1.011-.022-1.514-.025-1.4-.01-2.779.008-4.165.062-.371.014-.76.026-1.133.049-.117,0-.234.007-.343.015a75.886,75.886,0,0,0-18.367,3.127c-.18.055-.37.114-.543.176-.4.124-.777.25-1.159.386-1.074.367-2.092.756-3.077,1.169-.365.146-.706.3-1.047.456-.408.184-.817.376-1.217.566-.527.254-1.037.51-1.532.778-.316.172-.615.346-.924.523-.845.482-1.632.986-2.379,1.51-.275.191-.549.382-.809.574-.713.537-1.376,1.091-1.989,1.651-.235.21-.451.413-.662.632a21.01,21.01,0,0,0-1.6,1.764c-.177.223-.353.446-.522.675a16.968,16.968,0,0,0-1.176,1.856c-.135.234-.262.473-.374.713a15.8,15.8,0,0,0-.767,1.92c-.08.254-.158.5-.22.749a13.446,13.446,0,0,0-.35,1.964c-.029.253-.049.512-.062.768a14.5,14.5,0,0,0,.049,1.981c.021.26.065.529.11.789a13.75,13.75,0,0,0,.43,1.966c.078.265.165.526.258.794a17.813,17.813,0,0,0,.819,1.931c.128.264.264.525.407.793q.517.925,1.155,1.859c.187.261.379.528.581.791.44.593.929,1.188,1.451,1.779.228.255.466.507.71.765l.5.506c.4.387.813.779,1.251,1.17.28.247.559.493.856.735.11.106.246.212.364.315l-3.676,1.051a1.758,1.758,0,0,0-1.177.82.912.912,0,0,0,.012.805,2.07,2.07,0,0,0,.632.746l8.459,6.583,97.71-27.1-.224-.86-8.465-6.344A4.938,4.938,0,0,0,344.739,233.02ZM270.11,253.393c-.14-.091-.261-.187-.383-.283-8.8-6.947-5.455-15.785,7.778-19.754a43.273,43.273,0,0,1,6.432-1.387,56.467,56.467,0,0,1,15.408.018c7.56,1.025,14.535,3.514,19.04,7.186a4.058,4.058,0,0,1,.35.308Z" transform="translate(-244.445 -219.963)" fill="url(#linear-gradient-13)"/>
        </g>
        <g id="グループ_249" data-name="グループ 249" transform="translate(0.304)">
          <path id="パス_663" data-name="パス 663" d="M344.96,232.091a7.01,7.01,0,0,0-1.988-.2,5.429,5.429,0,0,0-1.243.194l-4.193,1.2c-.363-.276-.725-.554-1.109-.824q-.5-.379-1.032-.749c-.326-.224-.643-.441-.971-.655q-.824-.542-1.686-1.05c-.4-.236-.784-.466-1.176-.687-.978-.556-1.992-1.087-3.039-1.6-.423-.212-.854-.42-1.3-.626q-.433-.206-.9-.4c-.789-.367-1.628-.72-2.471-1.063-.448-.188-.918-.37-1.379-.547-1.2-.452-2.414-.89-3.661-1.3-.484-.161-.96-.316-1.458-.464-1.276-.4-2.57-.761-3.89-1.1-.492-.135-1-.262-1.507-.383-1.349-.332-2.708-.628-4.08-.9-.511-.095-1.012-.192-1.526-.277-1.375-.255-2.779-.478-4.188-.673-.507-.07-1.032-.143-1.552-.2-.4-.045-.8-.1-1.2-.133-1.011-.115-2.033-.218-3.043-.3-.506-.037-1.022-.07-1.537-.1-1.412-.091-2.83-.155-4.228-.183-.508-.018-1.011-.022-1.514-.025-1.4-.01-2.779.008-4.165.062-.371.014-.76.026-1.133.049-.117,0-.234.007-.343.015a75.954,75.954,0,0,0-18.367,3.125c-.18.056-.37.115-.543.177-.4.124-.777.25-1.159.385-1.074.367-2.092.757-3.077,1.17-.365.146-.706.3-1.047.456-.408.184-.817.376-1.217.566-.528.253-1.037.51-1.532.777-.316.172-.615.346-.924.523-.845.482-1.632.985-2.379,1.51-.275.191-.549.381-.808.574-.713.537-1.378,1.091-1.991,1.651-.235.21-.451.413-.662.632a20.8,20.8,0,0,0-1.6,1.764c-.177.223-.353.446-.522.674A16.969,16.969,0,0,0,246.452,235c-.135.234-.262.471-.374.713a15.708,15.708,0,0,0-.767,1.92c-.08.254-.158.5-.22.749a13.454,13.454,0,0,0-.35,1.964c-.029.253-.049.512-.062.768a14.5,14.5,0,0,0,.049,1.981c.021.26.065.529.11.789a13.7,13.7,0,0,0,.43,1.964c.078.265.165.527.258.8a17.811,17.811,0,0,0,.819,1.931c.128.264.264.525.408.793q.515.925,1.154,1.859c.187.261.379.528.581.791.44.593.929,1.188,1.451,1.779.228.256.466.507.71.765l.5.506c.4.387.813.779,1.253,1.17.279.247.558.493.854.735.11.106.246.212.364.313l-3.676,1.052a1.758,1.758,0,0,0-1.177.82.912.912,0,0,0,.012.8,2.069,2.069,0,0,0,.632.746l8.459,6.583,97.71-27.1-8.687-7.2A4.944,4.944,0,0,0,344.96,232.091Zm-74.629,20.372c-.14-.091-.261-.187-.383-.283-8.8-6.947-5.455-15.785,7.778-19.754a43.267,43.267,0,0,1,6.432-1.387,56.414,56.414,0,0,1,15.408.018c7.56,1.025,14.535,3.514,19.04,7.186a4.29,4.29,0,0,1,.35.306Z" transform="translate(-244.666 -219.034)" fill="url(#linear-gradient-14)"/>
        </g>
        <g id="グループ_250" data-name="グループ 250" transform="translate(13.683 0.114)" style="mix-blend-mode: multiply;isolation: isolate">
          <path id="パス_664" data-name="パス 664" d="M280.158,219.117l.36,11.891a43.268,43.268,0,0,0-6.432,1.387c-13.233,3.969-16.574,12.807-7.778,19.754.122.1.243.192.383.283l14.369-4.112.352,11.406-24.529,6.8L254.4,225.012c.4-.19.809-.382,1.217-.566.341-.155.681-.31,1.047-.456.985-.413,2-.8,3.077-1.17.382-.135.762-.261,1.159-.385.173-.062.363-.121.543-.177a75.953,75.953,0,0,1,18.367-3.125C279.925,219.124,280.041,219.12,280.158,219.117Z" transform="translate(-254.405 -219.117)" fill="url(#linear-gradient-15)" style="mix-blend-mode: screen;isolation: isolate"/>
          <path id="パス_665" data-name="パス 665" d="M311.433,226.522l-.346,21.716-26.075,7.233-.158-11.593,19.206-5.5a4.3,4.3,0,0,0-.35-.306c-4.5-3.672-11.48-6.161-19.04-7.186l-.147-11.407c.4.036.8.088,1.2.133.521.058,1.045.13,1.552.2,1.409.2,2.813.418,4.188.673.514.085,1.015.183,1.526.277,1.372.273,2.731.569,4.08.9.5.121,1.015.249,1.507.383q1.98.511,3.89,1.1c.5.148.974.3,1.458.464,1.247.405,2.466.843,3.661,1.3.462.177.931.359,1.379.547C309.805,225.8,310.644,226.156,311.433,226.522Z" transform="translate(-243.149 -218.981)" fill="url(#linear-gradient-16)" style="mix-blend-mode: screen;isolation: isolate"/>
        </g>
      </g>
    </g>
  </g>
</svg>
