<svg xmlns="http://www.w3.org/2000/svg" xmlns:xlink="http://www.w3.org/1999/xlink" width="1096" height="285" viewBox="0 0 1096 285">
  <defs>
    <clipPath id="clip-visual_img_01">
      <rect width="1096" height="285"/>
    </clipPath>
  </defs>
  <g id="visual_img_01" clip-path="url(#clip-visual_img_01)">
    <g id="グループ_61" data-name="グループ 61" transform="translate(-795.394 -768.479)">
      <g id="グループ_9" data-name="グループ 9" transform="translate(805.394 727.031)">
        <g id="グループ_6" data-name="グループ 6" transform="translate(0 210.452)">
          <path id="パス_6" data-name="パス 6" d="M621.444,502.044c-12.053-3.444-23.821-6.891-27.243-8.163-7.728-2.871,5.34-27.107-31.72-34.795s-54.865-3.479-54.865-3.479,18.692-30.263-.445-51.587-40.219-21.039-40.219-21.039-9.064-28.4-57.372-24.032-37.668,39.448-46.165,53.206-30.507.161-51.182,12.1-6.918,20.433-23.142,31.318-26.7,6.312-37.831,8.942-10.6,4.855-20.673,11.935-16.225,10.884-40.7,16.67c-11.831,2.8-28.458,6.178-42.489,8.927Z" transform="translate(-147.394 -358.492)" fill="#f9f9f9"/>
          <path id="パス_7" data-name="パス 7" d="M543.456,493.3c-1.193-8.58-3.967-20.706-28.233-25.739-37.063-7.688-54.865-3.479-54.865-3.479s18.692-30.265-.445-51.587S419.7,391.455,419.7,391.455s-9.063-28.4-57.372-24.032a79.834,79.834,0,0,0-10.139,1.557c-8.1,12.352-6.344,28.207-11.427,36.435-4.333,7.015-12.183,6.917-21.574,6.72a27.486,27.486,0,0,1-3.026,8.492c-6.688,10.829-21.748,4.719-37.939,7.444-3.587,7.037-.736,13.345-11.787,20.759a42.7,42.7,0,0,1-16.865,7.033c-1.292,2.632-3.477,5.324-7.734,8.18-16.225,10.884-26.7,6.312-37.831,8.942-.5.12-.955.238-1.412.356a66.521,66.521,0,0,1-12.4,6.332c-1.727,1.4-3.8,3.1-6.861,5.249a81.989,81.989,0,0,1-13.981,8.379Z" transform="translate(-124.736 -349.747)" fill="#ececec"/>
          <path id="パス_8" data-name="パス 8" d="M292.863,417.327c4.566,6.172.25,18.586,3.656,19.852s18.639-4.406,22.921,4.942a37.809,37.809,0,0,1,2.788,11.825h17.015a12.475,12.475,0,0,1-2.483-8.669c.908-13.681-9.437-26.774-19.247-24.455s-11.38-8.7-20.852-13.715-25.685.892-25.685.892S288.3,411.156,292.863,417.327Z" transform="translate(-19.835 -310.395)" fill="#f9f9f9"/>
        </g>
        <g id="グループ_7" data-name="グループ 7" transform="translate(702.893 97.826)">
          <path id="パス_9" data-name="パス 9" d="M859.622,369.721c-9.313-2.662-18.407-5.326-21.051-6.308-5.973-2.221,4.127-20.95-24.514-26.892s-42.4-2.687-42.4-2.687,14.445-23.39-.346-39.867-31.08-16.259-31.08-16.259-7-21.95-44.338-18.572-29.109,30.487-35.675,41.117-23.575.126-39.554,9.35-5.347,15.79-17.885,24.2-20.637,4.877-29.235,6.911-8.192,3.751-15.977,9.222-12.538,8.411-31.456,12.884c-9.143,2.16-21.992,4.774-32.836,6.9Z" transform="translate(-493.277 -258.783)" fill="#f9f9f9"/>
          <path id="パス_10" data-name="パス 10" d="M799.355,362.962c-.923-6.631-3.067-16-21.819-19.893-28.641-5.94-42.4-2.689-42.4-2.689s14.445-23.388-.343-39.865-31.082-16.259-31.082-16.259-7-21.949-44.336-18.572a61.317,61.317,0,0,0-7.836,1.2c-6.259,9.545-4.9,21.8-8.83,28.156-3.349,5.422-9.415,5.347-16.672,5.194A21.286,21.286,0,0,1,623.7,306.8c-5.168,8.366-16.808,3.646-29.32,5.751-2.772,5.44-.567,10.313-9.108,16.042a32.962,32.962,0,0,1-13.034,5.436,16.259,16.259,0,0,1-5.977,6.322c-12.536,8.411-20.637,4.877-29.235,6.909-.388.091-.738.183-1.091.274a51.3,51.3,0,0,1-9.584,4.893c-1.335,1.085-2.939,2.4-5.3,4.056a63.455,63.455,0,0,1-10.805,6.476Z" transform="translate(-475.766 -252.024)" fill="#ececec"/>
          <path id="パス_11" data-name="パス 11" d="M605.7,304.252c3.53,4.77.193,14.363,2.827,15.341s14.4-3.4,17.712,3.818a29.268,29.268,0,0,1,2.154,9.141h13.15a9.654,9.654,0,0,1-1.92-6.7c.7-10.573-7.291-20.692-14.873-18.9s-8.793-6.727-16.113-10.6-19.85.689-19.85.689S602.168,299.483,605.7,304.252Z" transform="translate(-394.7 -221.614)" fill="#f9f9f9"/>
        </g>
        <g id="グループ_8" data-name="グループ 8" transform="translate(381.007 50)">
          <path id="パス_12" data-name="パス 12" d="M461.732,293.344c-3.225-.921-6.375-1.843-7.289-2.183-2.069-.77,1.429-7.255-8.488-9.311s-14.68-.931-14.68-.931,5-8.1-.12-13.8-10.762-5.629-10.762-5.629-2.424-7.6-15.353-6.432-10.08,10.557-12.352,14.237-8.163.043-13.7,3.237-1.851,5.466-6.192,8.381-7.145,1.689-10.122,2.392-2.837,1.3-5.534,3.195-4.341,2.912-10.89,4.461c-3.168.748-7.617,1.652-11.37,2.388Z" transform="translate(-334.882 -254.932)" fill="#f9f9f9"/>
          <path id="パス_13" data-name="パス 13" d="M440.863,291c-.319-2.3-1.061-5.54-7.554-6.887-9.919-2.056-14.682-.931-14.682-.931s5-8.1-.118-13.8-10.762-5.629-10.762-5.629-2.426-7.6-15.353-6.432a21.759,21.759,0,0,0-2.713.417c-2.166,3.306-1.7,7.548-3.056,9.75-1.16,1.878-3.26,1.851-5.773,1.8a7.321,7.321,0,0,1-.811,2.272c-1.788,2.9-5.818,1.262-10.151,1.991-.961,1.884-.2,3.573-3.154,5.556a11.438,11.438,0,0,1-4.513,1.882,5.629,5.629,0,0,1-2.069,2.189c-4.343,2.912-7.147,1.689-10.124,2.392-.134.033-.256.065-.378.1a17.7,17.7,0,0,1-3.319,1.695c-.461.376-1.016.829-1.835,1.4A22,22,0,0,1,340.756,291Z" transform="translate(-328.819 -252.592)" fill="#ececec"/>
          <path id="パス_14" data-name="パス 14" d="M373.808,270.677c1.221,1.65.067,4.973.979,5.312s4.987-1.181,6.133,1.321a10.214,10.214,0,0,1,.746,3.164h4.552a3.334,3.334,0,0,1-.664-2.319c.244-3.662-2.524-7.165-5.15-6.544s-3.046-2.329-5.58-3.67-6.873.238-6.873.238S372.586,269.024,373.808,270.677Z" transform="translate(-300.749 -242.061)" fill="#f9f9f9"/>
        </g>
      </g>
    </g>
    <g id="Title" transform="translate(-340 -83)">
      <g id="グループ_279" data-name="グループ 279">
        <g id="グループ_278" data-name="グループ 278" transform="translate(547.82 32.105)">
          <g id="グループ_268" data-name="グループ 268" transform="translate(197.744 91.678)">
            <path id="パス_666" data-name="パス 666" d="M291.905,192.52v95.417q-27.436-5.4-55.1-13.675V192.52Z" transform="translate(-67.035 42.06)" fill="#264c75"/>
            <rect id="長方形_244" data-name="長方形 244" width="55.107" height="20.776" transform="translate(169.764 234.58)" fill="#0a3540"/>
            <path id="長方形_245" data-name="長方形 245" d="M36.258,0h73.125a36.258,36.258,0,0,1,36.258,36.258V185a0,0,0,0,1,0,0H0a0,0,0,0,1,0,0V36.258A36.258,36.258,0,0,1,36.258,0Z" transform="translate(35.655 49.577)" fill="#0a3540"/>
            <g id="グループ_262" data-name="グループ 262" transform="translate(18.518 93.393)">
              <g id="グループ_261" data-name="グループ 261" transform="translate(0 0.001)">
                <path id="パス_667" data-name="パス 667" d="M357.556,122.222v94.049a11.977,11.977,0,0,1-11.946,11.946h-172.2a11.949,11.949,0,0,1-11.914-11.946V122.222l98.032,57.8Z" transform="translate(-161.493 -122.222)" fill="#f79831"/>
                <path id="パス_668" data-name="パス 668" d="M352.588,204.82l-63.1-63.1L257.87,160.368l-31.636-18.654-63.1,63.1a11.836,11.836,0,0,0,8.618,3.746h172.2A11.889,11.889,0,0,0,352.588,204.82Z" transform="translate(-159.838 -102.566)" fill="#f9b630"/>
                <g id="グループ_260" data-name="グループ 260" transform="translate(59.299 39.148)">
                  <path id="パス_669" data-name="パス 669" d="M229.751,168.98l38.783-20.1-7.161-7.161-31.622,18.645-31.635-18.653-7.1,7.1Z" transform="translate(-191.019 -141.714)" fill="#f79831"/>
                </g>
              </g>
              <path id="パス_670" data-name="パス 670" d="M161.493,122.222H357.557l-98.032,57.8Z" transform="translate(-161.493 -122.222)" fill="#f9b630"/>
            </g>
            <g id="グループ_267" data-name="グループ 267">
              <g id="グループ_266" data-name="グループ 266">
                <g id="グループ_263" data-name="グループ 263" transform="translate(0 49.577)">
                  <rect id="長方形_246" data-name="長方形 246" width="181.27" height="16.3" transform="translate(0 168.698)" fill="#15748c"/>
                  <path id="パス_671" data-name="パス 671" d="M391.279,100.4h-185A72.815,72.815,0,0,1,279.1,173.223V285.4H464.118V173.223A72.831,72.831,0,0,0,391.279,100.4Z" transform="translate(-97.81 -100.405)" fill="#15748c"/>
                </g>
                <g id="グループ_264" data-name="グループ 264" transform="translate(0 225.8)">
                  <rect id="長方形_247" data-name="長方形 247" width="181.27" height="8.774" fill="#115f73"/>
                  <rect id="長方形_248" data-name="長方形 248" width="185.018" height="8.774" transform="translate(181.29)" fill="#115f73"/>
                </g>
                <path id="パス_672" data-name="パス 672" d="M333.18,100.4H263.907a72.82,72.82,0,0,1,72.82,72.82V285.408H406V173.225A72.821,72.821,0,0,0,333.18,100.4Z" transform="translate(-39.701 -50.828)" fill="#115f73"/>
                <g id="グループ_265" data-name="グループ 265" transform="translate(200.686)">
                  <circle id="楕円形_13" data-name="楕円形 13" cx="21.732" cy="21.732" r="21.732" transform="translate(0 143.298)" fill="#fff"/>
                  <path id="パス_673" data-name="パス 673" d="M280.913,163.874A11.914,11.914,0,1,0,269,175.788,11.915,11.915,0,0,0,280.913,163.874Z" transform="translate(-247.267 1.158)" fill="#0a3540"/>
                  <rect id="長方形_249" data-name="長方形 249" width="6.791" height="165.031" transform="translate(17.997)" fill="#0a3540"/>
                  <path id="パス_674" data-name="パス 674" d="M264.474,134.25l65.757-28.66L264.474,76.93Z" transform="translate(-239.815 -74.5)" fill="#f43b51"/>
                </g>
              </g>
              <path id="パス_675" data-name="パス 675" d="M307.722,86.315l-43.248,14.843v23.628l65.757-28.66Z" transform="translate(-39.129 -65.036)" fill="#cc2340"/>
            </g>
            <path id="パス_676" data-name="パス 676" d="M283.772,173.214V285.405h-.022v-16.31H265.164V173.214a72.813,72.813,0,0,0-63.513-72.2,71.6,71.6,0,0,1,9.293-.611h.022A72.811,72.811,0,0,1,283.772,173.214Z" transform="translate(-102.48 -50.825)" fill="#264c75" opacity="0.29" style="mix-blend-mode: multiply;isolation: isolate"/>
          </g>
          <g id="グループ_277" data-name="グループ 277" transform="translate(107.18 59.895)">
            <g id="グループ_272" data-name="グループ 272" transform="translate(0 135)">
              <g id="グループ_271" data-name="グループ 271">
                <circle id="楕円形_17" data-name="楕円形 17" cx="62.247" cy="62.247" r="62.247" transform="translate(0 88.031) rotate(-45)" fill="#383873"/>
                <g id="グループ_270" data-name="グループ 270" transform="translate(54.805 60.728)">
                  <path id="パス_689" data-name="パス 689" d="M194.879,93.711a10.937,10.937,0,0,0-7.758-3.28l-41.431-.3a11.039,11.039,0,0,0-11.008,10.934l-.213,34.729A11.009,11.009,0,0,0,145.4,146.881l41.433.3a11.036,11.036,0,0,0,11.006-10.932l.213-34.727A10.945,10.945,0,0,0,194.879,93.711Zm-1.257,43.136a6.053,6.053,0,0,1-6.1,6.009l-42.843-.309a6.054,6.054,0,0,1-6.009-6.1l.221-35.984a6.053,6.053,0,0,1,6.1-6.009l42.843.309a6.053,6.053,0,0,1,6.009,6.1Z" transform="translate(-134.468 -90.132)" fill="#fff"/>
                  <path id="パス_690" data-name="パス 690" d="M147.859,121.775l19.359-9.381a1.833,1.833,0,0,0,.024-3.288L148.02,99.447a1.832,1.832,0,0,0-2.655,1.625l-.139,19.04A1.833,1.833,0,0,0,147.859,121.775Z" transform="translate(-123.62 -80.938)" fill="#fff"/>
                </g>
              </g>
            </g>
            <g id="グループ_274" data-name="グループ 274" transform="translate(296.848 223.165)">
              <circle id="楕円形_19" data-name="楕円形 19" cx="55.186" cy="55.186" r="55.186" fill="#fb6223"/>
              <g id="グループ_273" data-name="グループ 273" transform="translate(22.47 29.501)">
                <path id="パス_691" data-name="パス 691" d="M332.624,188.833a3.14,3.14,0,0,0-3.147-3.133l-60.173.149A3.14,3.14,0,0,0,266.172,189l.112,45.6a3.138,3.138,0,0,0,3.147,3.131l60.171-.149a3.139,3.139,0,0,0,3.133-3.147Zm-62.8,45.352-.11-44.793,59.366-.147.11,44.793Z" transform="translate(-266.172 -185.7)" fill="#fff"/>
                <path id="パス_692" data-name="パス 692" d="M321.9,200.5l-6.015-5.249L302.6,206.96l-7.047-5.475-6.736,6.607-11.47-11.835-7.578,7.015.011,4.713,7.567-7,11.47,11.835,6.736-6.607,4.375,3.4-3.206,3.189h4.734l1.129-1.107v-.018l.016.012,13.287-11.711,6.015,5.249Z" transform="translate(-262.549 -176.071)" fill="#fff"/>
                <path id="パス_693" data-name="パス 693" d="M282.366,190.711a6.621,6.621,0,1,0,6.622,6.62A6.621,6.621,0,0,0,282.366,190.711Zm0,10.118a3.5,3.5,0,1,1,3.5-3.5A3.5,3.5,0,0,1,282.366,200.829Z" transform="translate(-256.52 -180.647)" fill="#fff"/>
              </g>
            </g>
            <g id="グループ_276" data-name="グループ 276" transform="translate(396.768 45.331)">
              <g id="グループ_275" data-name="グループ 275">
                <circle id="楕円形_21" data-name="楕円形 21" cx="52.559" cy="52.559" r="52.559" fill="#24adbf"/>
                <path id="パス_694" data-name="パス 694" d="M333.732,101.087l0,.631-.032,4.292-.167,23.052a14.375,14.375,0,0,0-10.048.848c-6.1,2.683-9.53,8.3-7.664,12.538s8.323,5.507,14.42,2.826c4.987-2.193,8.184-6.344,8.168-10.1h0l.217-30.04,23.6-4.216-.169,23.526a14.38,14.38,0,0,0-10.05.848c-6.1,2.683-9.528,8.3-7.662,12.538s8.323,5.507,14.42,2.826c4.985-2.193,8.182-6.345,8.166-10.1h0l.221-30.514.02-2.9.016-2.02Z" transform="translate(-294.072 -69.715)" fill="#fff"/>
              </g>
            </g>
          </g>
        </g>
      </g>
    </g>
  </g>
</svg>
