<svg xmlns="http://www.w3.org/2000/svg" xmlns:xlink="http://www.w3.org/1999/xlink" width="1096" height="663" viewBox="0 0 1096 663">
  <defs>
    <clipPath id="clip-path">
      <path id="パス_48" data-name="パス 48" d="M0,764.656s243.356,42,444.436,42,357.614,8,572.6,8,429.966-18,429.966-18l-41.343-736H0Z" transform="translate(0 3.344)" fill="#d9e9e6"/>
    </clipPath>
    <clipPath id="clip-visual_img_01">
      <rect width="1096" height="663"/>
    </clipPath>
  </defs>
  <g id="visual_img_01" clip-path="url(#clip-visual_img_01)">
    <g id="top_visual_img_01" transform="translate(-340 -105)">
      <g id="illust" clip-path="url(#clip-path)">
        <g id="グループ_14" data-name="グループ 14" transform="translate(-455.394 -313.479)">
          <g id="グループ_9" data-name="グループ 9" transform="translate(805.394 727.031)">
            <g id="グループ_6" data-name="グループ 6" transform="translate(0 210.452)">
              <path id="パス_6" data-name="パス 6" d="M621.444,502.044c-12.053-3.444-23.821-6.891-27.243-8.163-7.728-2.871,5.34-27.107-31.72-34.795s-54.865-3.479-54.865-3.479,18.692-30.263-.445-51.587-40.219-21.039-40.219-21.039-9.064-28.4-57.372-24.032-37.668,39.448-46.165,53.206-30.507.161-51.182,12.1-6.918,20.433-23.142,31.318-26.7,6.312-37.831,8.942-10.6,4.855-20.673,11.935-16.225,10.884-40.7,16.67c-11.831,2.8-28.458,6.178-42.489,8.927Z" transform="translate(-147.394 -358.492)" fill="#f9f9f9"/>
              <path id="パス_7" data-name="パス 7" d="M543.456,493.3c-1.193-8.58-3.967-20.706-28.233-25.739-37.063-7.688-54.865-3.479-54.865-3.479s18.692-30.265-.445-51.587S419.7,391.455,419.7,391.455s-9.063-28.4-57.372-24.032a79.834,79.834,0,0,0-10.139,1.557c-8.1,12.352-6.344,28.207-11.427,36.435-4.333,7.015-12.183,6.917-21.574,6.72a27.486,27.486,0,0,1-3.026,8.492c-6.688,10.829-21.748,4.719-37.939,7.444-3.587,7.037-.736,13.345-11.787,20.759a42.7,42.7,0,0,1-16.865,7.033c-1.292,2.632-3.477,5.324-7.734,8.18-16.225,10.884-26.7,6.312-37.831,8.942-.5.12-.955.238-1.412.356a66.521,66.521,0,0,1-12.4,6.332c-1.727,1.4-3.8,3.1-6.861,5.249a81.989,81.989,0,0,1-13.981,8.379Z" transform="translate(-124.736 -349.747)" fill="#ececec"/>
              <path id="パス_8" data-name="パス 8" d="M292.863,417.327c4.566,6.172.25,18.586,3.656,19.852s18.639-4.406,22.921,4.942a37.809,37.809,0,0,1,2.788,11.825h17.015a12.475,12.475,0,0,1-2.483-8.669c.908-13.681-9.437-26.774-19.247-24.455s-11.38-8.7-20.852-13.715-25.685.892-25.685.892S288.3,411.156,292.863,417.327Z" transform="translate(-19.835 -310.395)" fill="#f9f9f9"/>
            </g>
            <g id="グループ_7" data-name="グループ 7" transform="translate(702.893 7.826)">
              <path id="パス_9" data-name="パス 9" d="M859.622,369.721c-9.313-2.662-18.407-5.326-21.051-6.308-5.973-2.221,4.127-20.95-24.514-26.892s-42.4-2.687-42.4-2.687,14.445-23.39-.346-39.867-31.08-16.259-31.08-16.259-7-21.95-44.338-18.572-29.109,30.487-35.675,41.117-23.575.126-39.554,9.35-5.347,15.79-17.885,24.2-20.637,4.877-29.235,6.911-8.192,3.751-15.977,9.222-12.538,8.411-31.456,12.884c-9.143,2.16-21.992,4.774-32.836,6.9Z" transform="translate(-493.277 -258.783)" fill="#f9f9f9"/>
              <path id="パス_10" data-name="パス 10" d="M799.355,362.962c-.923-6.631-3.067-16-21.819-19.893-28.641-5.94-42.4-2.689-42.4-2.689s14.445-23.388-.343-39.865-31.082-16.259-31.082-16.259-7-21.949-44.336-18.572a61.317,61.317,0,0,0-7.836,1.2c-6.259,9.545-4.9,21.8-8.83,28.156-3.349,5.422-9.415,5.347-16.672,5.194A21.286,21.286,0,0,1,623.7,306.8c-5.168,8.366-16.808,3.646-29.32,5.751-2.772,5.44-.567,10.313-9.108,16.042a32.962,32.962,0,0,1-13.034,5.436,16.259,16.259,0,0,1-5.977,6.322c-12.536,8.411-20.637,4.877-29.235,6.909-.388.091-.738.183-1.091.274a51.3,51.3,0,0,1-9.584,4.893c-1.335,1.085-2.939,2.4-5.3,4.056a63.455,63.455,0,0,1-10.805,6.476Z" transform="translate(-475.766 -252.024)" fill="#ececec"/>
              <path id="パス_11" data-name="パス 11" d="M605.7,304.252c3.53,4.77.193,14.363,2.827,15.341s14.4-3.4,17.712,3.818a29.268,29.268,0,0,1,2.154,9.141h13.15a9.654,9.654,0,0,1-1.92-6.7c.7-10.573-7.291-20.692-14.873-18.9s-8.793-6.727-16.113-10.6-19.85.689-19.85.689S602.168,299.483,605.7,304.252Z" transform="translate(-394.7 -221.614)" fill="#f9f9f9"/>
            </g>
            <g id="グループ_8" data-name="グループ 8" transform="translate(381.007 0)">
              <path id="パス_12" data-name="パス 12" d="M461.732,293.344c-3.225-.921-6.375-1.843-7.289-2.183-2.069-.77,1.429-7.255-8.488-9.311s-14.68-.931-14.68-.931,5-8.1-.12-13.8-10.762-5.629-10.762-5.629-2.424-7.6-15.353-6.432-10.08,10.557-12.352,14.237-8.163.043-13.7,3.237-1.851,5.466-6.192,8.381-7.145,1.689-10.122,2.392-2.837,1.3-5.534,3.195-4.341,2.912-10.89,4.461c-3.168.748-7.617,1.652-11.37,2.388Z" transform="translate(-334.882 -254.932)" fill="#f9f9f9"/>
              <path id="パス_13" data-name="パス 13" d="M440.863,291c-.319-2.3-1.061-5.54-7.554-6.887-9.919-2.056-14.682-.931-14.682-.931s5-8.1-.118-13.8-10.762-5.629-10.762-5.629-2.426-7.6-15.353-6.432a21.759,21.759,0,0,0-2.713.417c-2.166,3.306-1.7,7.548-3.056,9.75-1.16,1.878-3.26,1.851-5.773,1.8a7.321,7.321,0,0,1-.811,2.272c-1.788,2.9-5.818,1.262-10.151,1.991-.961,1.884-.2,3.573-3.154,5.556a11.438,11.438,0,0,1-4.513,1.882,5.629,5.629,0,0,1-2.069,2.189c-4.343,2.912-7.147,1.689-10.124,2.392-.134.033-.256.065-.378.1a17.7,17.7,0,0,1-3.319,1.695c-.461.376-1.016.829-1.835,1.4A22,22,0,0,1,340.756,291Z" transform="translate(-328.819 -252.592)" fill="#ececec"/>
              <path id="パス_14" data-name="パス 14" d="M373.808,270.677c1.221,1.65.067,4.973.979,5.312s4.987-1.181,6.133,1.321a10.214,10.214,0,0,1,.746,3.164h4.552a3.334,3.334,0,0,1-.664-2.319c.244-3.662-2.524-7.165-5.15-6.544s-3.046-2.329-5.58-3.67-6.873.238-6.873.238S372.586,269.024,373.808,270.677Z" transform="translate(-300.749 -242.061)" fill="#f9f9f9"/>
            </g>
          </g>
          <g id="グループ_13" data-name="グループ 13" transform="translate(1070.807 433.479)">
            <g id="グループ_10" data-name="グループ 10" transform="translate(225.831 0)">
              <g id="グループ_16" data-name="グループ 16" transform="translate(0 -9)">
                <path id="パス_15" data-name="パス 15" d="M591.244,233.6s8.261,8.261-3.541,17.7S571.18,269,571.18,278.444s8.261,15.342,8.261,15.342-17.7,1.181-18.885-23.6,11.8-41.307,9.442-59.01S591.244,233.6,591.244,233.6Z" transform="translate(-265.503 -41.087)" fill="#ececec"/>
                <path id="パス_16" data-name="パス 16" d="M519.39,275.732s4.72,7.08,18.883,3.539,23.6-14.163,40.127-16.523,42.489,10.621,42.489,10.621l-17.7-103.858s0-11.8-25.965-16.524-54.29,3.541-54.29,3.541Z" transform="translate(-295.148 -80.862)" fill="#fff"/>
                <path id="パス_17" data-name="パス 17" d="M549.615,204.5s-1.179,8.261-12.982,24.784-11.8,24.786-11.8,24.786l-12.982-70.814S541.353,172.634,549.615,204.5Z" transform="translate(-300.589 -59.2)" fill="#ececec"/>
                <path id="パス_18" data-name="パス 18" d="M389.128,128.315s102.679-11.8,166.411-16.523,60.191,4.72,66.092,5.9,16.523,138.086,16.523,138.086-43.667-12.983-83.794-8.261-143.987,22.424-143.987,22.424S430.436,186.146,389.128,128.315Z" transform="translate(-389.128 -110.479)" fill="#fff"/>
              </g>
              <g id="グループ_15" data-name="グループ 15" transform="matrix(0.995, -0.105, 0.105, 0.995, -12.745, -20.018)">
                <path id="パス_49" data-name="パス 49" d="M188.309,93.22v38.113H156.74Z" transform="translate(-53.209 -26.83)" fill="#03363d"/>
                <path id="パス_50" data-name="パス 50" d="M188.309,52.71a15.784,15.784,0,1,1-31.569,0Z" transform="translate(-53.209)" fill="#03363d"/>
                <path id="パス_51" data-name="パス 51" d="M265.62,175.124a15.784,15.784,0,1,1,31.569,0Z" transform="translate(-125.32 -70.621)" fill="#03363d"/>
                <path id="パス_52" data-name="パス 52" d="M265.62,90.823V52.71h31.572Z" transform="translate(-125.32)" fill="#03363d"/>
                <path id="パス_53" data-name="パス 53" d="M300.9,276.534a6.154,6.154,0,0,0,4.373-1.688l2.168,2.34a8.528,8.528,0,0,1-6.5,2.567c-5.292,0-8.709-3.509-8.709-8.26a8.1,8.1,0,0,1,7.943-8.263c.1,0,.191,0,.286,0,5.255,0,8.233,4,7.973,9.544H296.009c.439,2.3,2.057,3.772,4.887,3.772m3.786-6.416a3.973,3.973,0,0,0-4.191-3.735,4.255,4.255,0,0,0-4.481,3.735Z" transform="translate(-142.94 -139.425)" fill="#03363d"/>
                <path id="パス_54" data-name="パス 54" d="M76.4,277.1l9.56-9.712H76.626V264.34H90.391v3.11l-9.56,9.709h9.689v3.049H76.4Z" transform="translate(0 -140.162)" fill="#03363d"/>
                <path id="パス_55" data-name="パス 55" d="M132.989,276.534a6.154,6.154,0,0,0,4.373-1.688l2.168,2.34a8.528,8.528,0,0,1-6.5,2.567c-5.292,0-8.709-3.509-8.709-8.26a8.1,8.1,0,0,1,7.943-8.263c.1,0,.191,0,.286,0,5.255,0,8.233,4,7.973,9.544H128.1c.439,2.3,2.057,3.772,4.887,3.772m3.786-6.416a3.973,3.973,0,0,0-4.191-3.735,4.255,4.255,0,0,0-4.481,3.735Z" transform="translate(-31.734 -139.425)" fill="#03363d"/>
                <path id="パス_56" data-name="パス 56" d="M233.42,257.814a7.938,7.938,0,0,1,7.966-8.253,6.87,6.87,0,0,1,5.292,2.381V242.58h3.377v23.17h-3.377v-2.192a6.788,6.788,0,0,1-5.322,2.506,8,8,0,0,1-7.936-8.25m13.447-.03a5.038,5.038,0,1,0-5.035,5.174,5.039,5.039,0,0,0,5.035-5.174" transform="translate(-103.994 -125.75)" fill="#03363d"/>
                <path id="パス_57" data-name="パス 57" d="M346.72,276.012l3.06-1.587a4.538,4.538,0,0,0,4.079,2.317c1.911,0,2.9-.983,2.9-2.094,0-1.27-1.847-1.557-3.857-1.969-2.7-.571-5.515-1.462-5.515-4.728,0-2.509,2.388-4.826,6.15-4.792a7.306,7.306,0,0,1,6.416,3.076l-2.837,1.557a4.117,4.117,0,0,0-3.569-1.81c-1.817,0-2.742.888-2.742,1.9,0,1.141,1.466,1.459,3.762,1.969,2.614.571,5.576,1.429,5.576,4.728,0,2.188-1.911,5.14-6.437,5.109-3.313,0-5.64-1.334-6.98-3.681" transform="translate(-179.032 -139.38)" fill="#03363d"/>
                <path id="パス_58" data-name="パス 58" d="M401.745,258.7l-2.678,2.921v4.123H395.69V242.57h3.377v15.173l7.169-7.872h4.113l-6.217,6.791,6.376,9.077h-3.823Z" transform="translate(-211.465 -125.744)" fill="#03363d"/>
                <path id="パス_59" data-name="パス 59" d="M188.719,263.24c-4.015,0-7.379,2.6-7.379,6.92v9.27h3.441v-8.841c0-2.6,1.5-4.16,4.052-4.16s3.826,1.557,3.826,4.16v8.841h3.424v-9.27c0-4.316-3.377-6.92-7.379-6.92" transform="translate(-69.501 -139.433)" fill="#03363d"/>
              </g>
            </g>
            <path id="パス_21" data-name="パス 21" d="M440.478,208.5s4,4.67,7.34,8.673,7.338,12.008,7.338,12.008L479.175,208.5s-6.672-14.012-7.34-20.683Z" transform="translate(-110.295 -30.652)" fill="#ff9a57"/>
            <path id="パス_22" data-name="パス 22" d="M465.107,170.793s-13.168-.3-17.3,7.958a129.676,129.676,0,0,0-5.387,13.581l-8.45,6.44a3.032,3.032,0,0,0,.276,5.011l3.959,2.374c-2.134,8.242-3.215,15.623-1.412,18.025,4.129,5.507,24.181,4.07,28.312,1.317s12.99-16.461,12.99-16.461,12.39,2.754,13.766-11.014S483,169.415,465.107,170.793Z" transform="translate(-118.244 -48.317)" fill="#ff9a57"/>
            <path id="パス_23" data-name="パス 23" d="M457,302.944l20.342,81,55.881,77.116,16.679-1.334-47.875-86.456,11.079-102.205Z" transform="translate(-93.24 55.274)" fill="#264b72"/>
            <path id="パス_24" data-name="パス 24" d="M456.617,273.166l-3.335,26.686a34.181,34.181,0,0,1,7.338,9.34c2.668,5.337,36.026,6.672,46.7,2.668s15.345-20.015,11.342-32.023-8-26.686-8-26.686S468.627,274.5,456.617,273.166Z" transform="translate(-97.079 36.782)" fill="#002b59"/>
            <g id="グループ_12" data-name="グループ 12" transform="translate(223.471 2.535)">
              <path id="パス_25" data-name="パス 25" d="M454.714,611.81a3.046,3.046,0,0,1-3.018-2.658l-63.7-493.988a3.048,3.048,0,1,1,6.046-.778l63.7,493.988a3.048,3.048,0,0,1-2.634,3.412A2.858,2.858,0,0,1,454.714,611.81Z" transform="translate(-387.967 -111.727)" fill="#637f9a"/>
            </g>
            <path id="パス_26" data-name="パス 26" d="M425.8,242.952,414.054,241v10.869l13.708,3.66Z" transform="translate(-137.569 24.236)" fill="#f9f9f9"/>
            <path id="パス_27" data-name="パス 27" d="M481.2,235.3l-10.145,21.014-50.567-6.739L419.2,269.3l71.528,17.727,10.039-20.566L484.1,234.577" transform="translate(-132.258 17.611)" fill="#002b59"/>
            <path id="パス_28" data-name="パス 28" d="M442.793,234.829s-2.24,6.405,3.694,12.337,26.715-1.953,46-13.821,21.509-27.44,37.083-30.407,22.25,1.483,35.6,2.967a63.607,63.607,0,0,0,24.475-2.225l18.542,8.157L588.16,220s-8.9,4.45-25.959,0-22.992-10.384-34.116-5.192-11.484,12.9-29.621,26.17c-14.191,10.382-20.072,14.621-40.839,14.621S442.793,234.829,442.793,234.829Z" transform="translate(-108.716 -16.076)" fill="#115f73"/>
            <path id="パス_29" data-name="パス 29" d="M448.325,222.66s-4.67,30.023-2.668,38.028,12.675,33.358,12.675,36.695,6.005,34.025,6.005,34.025,18.68,5.339,34.693,1.335,20.681-20.683,20.681-20.683S507.7,238,504.366,226.663s-26.02-27.353-26.02-27.353Z" transform="translate(-105.465 -18.791)" fill="#f9f9f9"/>
            <path id="パス_30" data-name="パス 30" d="M446.844,211.555l-4.45,13.35,14.092-13.35Z" transform="translate(-108.317 -6.152)" fill="#115f73"/>
            <path id="パス_31" data-name="パス 31" d="M477.13,196.355,443.1,223.042l1.334,10.007L483.8,203.027Z" transform="translate(-107.584 -21.841)" fill="#f9f9f9"/>
            <path id="パス_32" data-name="パス 32" d="M600.117,331.18s-10.4-14.949-18.848-22.748-18.846-12.349-32.5-20.149a91.732,91.732,0,0,1-20.356-15.711c-15.323-28.806-34.888-59.681-55.037-75.28,0,0-23.49,25.6-24.7,54.594-.65,15.6,1.3,33.8,11.049,48.746,34.175,52.4,73.443,70.844,81.242,72.144S584.52,335.73,584.52,335.73l-.051-.047C591.165,331.294,600.117,331.18,600.117,331.18Z" transform="translate(-101.945 -20.873)" fill="#002b59"/>
            <path id="パス_33" data-name="パス 33" d="M466.7,264.03s20.8,11.049,34.447,13.648,43.545,1.951,43.545,1.951-11.049,5.2-16.247,11.7-5.2,14.949-5.2,14.949S483.912,288.944,466.7,264.03Z" transform="translate(-83.23 48.011)" fill="#264b72"/>
            <path id="パス_34" data-name="パス 34" d="M463.544,191.006l-10.006,7.34,6.672,5.336-5.306,6.6,4.314,1.9,13.668-3.825,4,9.34s11.384-4.28,13.343-8.673c5.154-11.547.667-25.158-2-29.828s-20.338-11.51-29.011-13.512-21.691,5.312-21.025,10.651a12.41,12.41,0,0,0,4.052,7.958S467.547,181,463.544,191.006Z" transform="translate(-112.68 -53.853)" fill="#002b59"/>
            <path id="パス_35" data-name="パス 35" d="M492.96,273.834,418.07,322.895a6.78,6.78,0,0,0-.9,8.356l21.545,7c2.006,3.184-2.317,11.779.853,9.75l9.482-3.386c8.836-2.737,22-7.991,37.935-14.225,25.5-9.978,50.217-33.716,58.6-39.847l.075-.037" transform="translate(-135.424 58.131)" fill="#002b59"/>
            <path id="パス_36" data-name="パス 36" d="M686.691,373.5l-29.058-34.646-29.058-8.941-196.7,101.7-39.117,44.7-40.234,19L278,563.987H929.586l-23-13L757.1,374.617Z" transform="translate(-278 116.013)" fill="#8298ae"/>
            <path id="パス_37" data-name="パス 37" d="M558.837,361.072l-16.717,8.358,9.75,13.931-47.366,6.966,25.077,18.111-48.719,7.385,76.582,51.127h-40.4l-2.786,34.827-37.615-27.861-4.178,26.469s-30.649-8.358-37.616-13.931-37.615-16.719-37.615-16.719L369.37,501.777l19.5,57.12,50.154-37.615L456.672,562.8H858.714l-44.437-12h0L662.791,373.428l-70.409-1.118-29.058-34.646-21.448-6.6Z" transform="translate(-183.691 117.203)" fill="#637f9a"/>
            <path id="パス_38" data-name="パス 38" d="M455.911,364.127l-30.182,15.79a2.784,2.784,0,0,0-1.5,2.469h0a2.788,2.788,0,0,0,2.672,2.786l49.67,2.069s1.634,0,1.089-6.542-5.743-17.239-5.743-17.239Z" transform="translate(-127.062 150.64)" fill="#333"/>
            <path id="パス_39" data-name="パス 39" d="M431.363,295s-12.41,6.538-15.745,10.539-2,11.342,0,15.345S466.9,434.789,466.9,434.789l26.1,2.463-38.5-128.2" transform="translate(-138.053 79.977)" fill="#002b59"/>
            <path id="パス_40" data-name="パス 40" d="M492.76,271.492l.919,15.559h13.043l.336-14.909Z" transform="translate(-56.331 55.714)" fill="#f9f9f9"/>
            <path id="パス_41" data-name="パス 41" d="M458.815,210.71a31.681,31.681,0,0,0-3.623,19.564c1.451,11.6,7.972,24.638,10.87,26.087s50,24.636,50,24.636l13.754,62.528,19.541-.648L534.3,263.252l-51.568-45.3a13.343,13.343,0,0,0-10.145-8.7" transform="translate(-95.377 -8.52)" fill="#264b72"/>
            <path id="パス_42" data-name="パス 42" d="M425.1,243.94l-7.246-5.8-14.492,1.449.725,15.941,21.014-.725Z" transform="translate(-148.611 21.291)" fill="#ff9a57"/>
            <path id="パス_43" data-name="パス 43" d="M403.357,236.717l.725,20.289H416.4l-.725-20.289Z" transform="translate(-148.611 19.819)" fill="#ff9a57"/>
            <path id="パス_44" data-name="パス 44" d="M495.992,279.149l-5.473,10.58,4.109,12.913,7.044.587,1.174-2.935,9.979-.587-3.789-20.558Z" transform="translate(-58.644 63.616)" fill="#ff9a57"/>
            <path id="パス_45" data-name="パス 45" d="M450.3,192.246s6.357-11.945,9.693-6.607,2.668,10.006-1.335,12.008-7.151,4.959-9.153.957" transform="translate(-100.979 -34.319)" fill="#ff9a57"/>
            <path id="パス_46" data-name="パス 46" d="M473.378,197.293s-23.49,25.6-24.7,54.594c-.465,11.191.425,23.713,4.552,35.419a36.732,36.732,0,0,1,0-4.871c.557-9.374,3.9-35.746,3.9-35.746l-5.2-5.2,7.8-1.951s5.2-20.8,16.249-30.546c2.024-1.786,3.76-3.394,5.251-4.837A94.757,94.757,0,0,0,473.378,197.293Z" transform="translate(-101.944 -20.873)" fill="#264b72"/>
            <path id="パス_47" data-name="パス 47" d="M553.062,459.364l-1.394,36.221-41.794-75.229,9.752,94.734H497.335s1.394,15.325-2.786,16.717c-2.193.732-19.726,5.3-35.9,9.474H766.563l-44.437-14-12-12.191L570.64,351.911l20.035,85.164Z" transform="translate(-91.54 138.719)" fill="#2f5478"/>
          </g>
        </g>
      </g>
    </g>
  </g>
</svg>
