<svg xmlns="http://www.w3.org/2000/svg" width="10" height="10.334" viewBox="0 0 10 10.334">
  <g id="cmn_ico_more" transform="translate(-372.263)">
    <path id="パス_415" data-name="パス 415" d="M404.2,139.453a.6.6,0,0,1-.069,0l-3.248-.393a.579.579,0,1,1,.139-1.149l2.531.306-.25-2.518a.579.579,0,0,1,1.152-.114l.321,3.236a.579.579,0,0,1-.576.636Z" transform="translate(-22.688 -135.06)" fill="#797a7a"/>
    <path id="パス_416" data-name="パス 416" d="M382.263,142.225a.964.964,0,0,0-1.913-.168l0,0a3.116,3.116,0,1,1-.521-2.517l1.686.357-.127-1.494a5.044,5.044,0,1,0,.85,4.051.021.021,0,0,0,0-.008A.957.957,0,0,0,382.263,142.225Z" transform="translate(0 -136.087)" fill="#797a7a"/>
  </g>
</svg>
