<svg xmlns="http://www.w3.org/2000/svg" xmlns:xlink="http://www.w3.org/1999/xlink" width="1096" height="285" viewBox="0 0 1096 285">
  <defs>
    <filter id="パス_61" x="-384" y="-61" width="1450" height="394" filterUnits="userSpaceOnUse">
      <feOffset dy="3" input="SourceAlpha"/>
      <feGaussianBlur stdDeviation="15" result="blur"/>
      <feFlood flood-opacity="0.078"/>
      <feComposite operator="in" in2="blur"/>
      <feComposite in="SourceGraphic"/>
    </filter>
    <clipPath id="clip-path">
      <path id="パス_48" data-name="パス 48" d="M0,764.656s243.356,42,444.436,42,357.614,8,572.6,8,429.966-18,429.966-18l-41.343-736H0Z" transform="translate(0 3.344)" fill="#d9e9e6"/>
    </clipPath>
    <clipPath id="clip-cmn_visual_img_01">
      <rect width="1096" height="285"/>
    </clipPath>
  </defs>
  <g id="cmn_visual_img_01" clip-path="url(#clip-cmn_visual_img_01)">
    <g id="top_visual_img_01" transform="translate(-340 -455)">
      <g id="illust" clip-path="url(#clip-path)">
        <g id="グループ_14" data-name="グループ 14" transform="translate(-455.394 -313.479)">
          <g id="グループ_9" data-name="グループ 9" transform="translate(805.394 727.031)">
            <g id="グループ_6" data-name="グループ 6" transform="translate(0 210.452)">
              <path id="パス_6" data-name="パス 6" d="M621.444,502.044c-12.053-3.444-23.821-6.891-27.243-8.163-7.728-2.871,5.34-27.107-31.72-34.795s-54.865-3.479-54.865-3.479,18.692-30.263-.445-51.587-40.219-21.039-40.219-21.039-9.064-28.4-57.372-24.032-37.668,39.448-46.165,53.206-30.507.161-51.182,12.1-6.918,20.433-23.142,31.318-26.7,6.312-37.831,8.942-10.6,4.855-20.673,11.935-16.225,10.884-40.7,16.67c-11.831,2.8-28.458,6.178-42.489,8.927Z" transform="translate(-147.394 -358.492)" fill="#f9f9f9"/>
              <path id="パス_7" data-name="パス 7" d="M543.456,493.3c-1.193-8.58-3.967-20.706-28.233-25.739-37.063-7.688-54.865-3.479-54.865-3.479s18.692-30.265-.445-51.587S419.7,391.455,419.7,391.455s-9.063-28.4-57.372-24.032a79.834,79.834,0,0,0-10.139,1.557c-8.1,12.352-6.344,28.207-11.427,36.435-4.333,7.015-12.183,6.917-21.574,6.72a27.486,27.486,0,0,1-3.026,8.492c-6.688,10.829-21.748,4.719-37.939,7.444-3.587,7.037-.736,13.345-11.787,20.759a42.7,42.7,0,0,1-16.865,7.033c-1.292,2.632-3.477,5.324-7.734,8.18-16.225,10.884-26.7,6.312-37.831,8.942-.5.12-.955.238-1.412.356a66.521,66.521,0,0,1-12.4,6.332c-1.727,1.4-3.8,3.1-6.861,5.249a81.989,81.989,0,0,1-13.981,8.379Z" transform="translate(-124.736 -349.747)" fill="#ececec"/>
              <path id="パス_8" data-name="パス 8" d="M292.863,417.327c4.566,6.172.25,18.586,3.656,19.852s18.639-4.406,22.921,4.942a37.809,37.809,0,0,1,2.788,11.825h17.015a12.475,12.475,0,0,1-2.483-8.669c.908-13.681-9.437-26.774-19.247-24.455s-11.38-8.7-20.852-13.715-25.685.892-25.685.892S288.3,411.156,292.863,417.327Z" transform="translate(-19.835 -310.395)" fill="#f9f9f9"/>
            </g>
            <g id="グループ_7" data-name="グループ 7" transform="translate(702.893 97.826)">
              <path id="パス_9" data-name="パス 9" d="M859.622,369.721c-9.313-2.662-18.407-5.326-21.051-6.308-5.973-2.221,4.127-20.95-24.514-26.892s-42.4-2.687-42.4-2.687,14.445-23.39-.346-39.867-31.08-16.259-31.08-16.259-7-21.95-44.338-18.572-29.109,30.487-35.675,41.117-23.575.126-39.554,9.35-5.347,15.79-17.885,24.2-20.637,4.877-29.235,6.911-8.192,3.751-15.977,9.222-12.538,8.411-31.456,12.884c-9.143,2.16-21.992,4.774-32.836,6.9Z" transform="translate(-493.277 -258.783)" fill="#f9f9f9"/>
              <path id="パス_10" data-name="パス 10" d="M799.355,362.962c-.923-6.631-3.067-16-21.819-19.893-28.641-5.94-42.4-2.689-42.4-2.689s14.445-23.388-.343-39.865-31.082-16.259-31.082-16.259-7-21.949-44.336-18.572a61.317,61.317,0,0,0-7.836,1.2c-6.259,9.545-4.9,21.8-8.83,28.156-3.349,5.422-9.415,5.347-16.672,5.194A21.286,21.286,0,0,1,623.7,306.8c-5.168,8.366-16.808,3.646-29.32,5.751-2.772,5.44-.567,10.313-9.108,16.042a32.962,32.962,0,0,1-13.034,5.436,16.259,16.259,0,0,1-5.977,6.322c-12.536,8.411-20.637,4.877-29.235,6.909-.388.091-.738.183-1.091.274a51.3,51.3,0,0,1-9.584,4.893c-1.335,1.085-2.939,2.4-5.3,4.056a63.455,63.455,0,0,1-10.805,6.476Z" transform="translate(-475.766 -252.024)" fill="#ececec"/>
              <path id="パス_11" data-name="パス 11" d="M605.7,304.252c3.53,4.77.193,14.363,2.827,15.341s14.4-3.4,17.712,3.818a29.268,29.268,0,0,1,2.154,9.141h13.15a9.654,9.654,0,0,1-1.92-6.7c.7-10.573-7.291-20.692-14.873-18.9s-8.793-6.727-16.113-10.6-19.85.689-19.85.689S602.168,299.483,605.7,304.252Z" transform="translate(-394.7 -221.614)" fill="#f9f9f9"/>
            </g>
            <g id="グループ_8" data-name="グループ 8" transform="translate(381.007 50)">
              <path id="パス_12" data-name="パス 12" d="M461.732,293.344c-3.225-.921-6.375-1.843-7.289-2.183-2.069-.77,1.429-7.255-8.488-9.311s-14.68-.931-14.68-.931,5-8.1-.12-13.8-10.762-5.629-10.762-5.629-2.424-7.6-15.353-6.432-10.08,10.557-12.352,14.237-8.163.043-13.7,3.237-1.851,5.466-6.192,8.381-7.145,1.689-10.122,2.392-2.837,1.3-5.534,3.195-4.341,2.912-10.89,4.461c-3.168.748-7.617,1.652-11.37,2.388Z" transform="translate(-334.882 -254.932)" fill="#f9f9f9"/>
              <path id="パス_13" data-name="パス 13" d="M440.863,291c-.319-2.3-1.061-5.54-7.554-6.887-9.919-2.056-14.682-.931-14.682-.931s5-8.1-.118-13.8-10.762-5.629-10.762-5.629-2.426-7.6-15.353-6.432a21.759,21.759,0,0,0-2.713.417c-2.166,3.306-1.7,7.548-3.056,9.75-1.16,1.878-3.26,1.851-5.773,1.8a7.321,7.321,0,0,1-.811,2.272c-1.788,2.9-5.818,1.262-10.151,1.991-.961,1.884-.2,3.573-3.154,5.556a11.438,11.438,0,0,1-4.513,1.882,5.629,5.629,0,0,1-2.069,2.189c-4.343,2.912-7.147,1.689-10.124,2.392-.134.033-.256.065-.378.1a17.7,17.7,0,0,1-3.319,1.695c-.461.376-1.016.829-1.835,1.4A22,22,0,0,1,340.756,291Z" transform="translate(-328.819 -252.592)" fill="#ececec"/>
              <path id="パス_14" data-name="パス 14" d="M373.808,270.677c1.221,1.65.067,4.973.979,5.312s4.987-1.181,6.133,1.321a10.214,10.214,0,0,1,.746,3.164h4.552a3.334,3.334,0,0,1-.664-2.319c.244-3.662-2.524-7.165-5.15-6.544s-3.046-2.329-5.58-3.67-6.873.238-6.873.238S372.586,269.024,373.808,270.677Z" transform="translate(-300.749 -242.061)" fill="#f9f9f9"/>
            </g>
          </g>
          <g id="グループ_13" data-name="グループ 13" transform="translate(1070.807 433.479)">
            <path id="パス_36" data-name="パス 36" d="M686.691,373.5l-29.058-34.646-29.058-8.941-196.7,101.7-39.117,44.7-40.234,19L278,563.987H929.586l-23-13L757.1,374.617Z" transform="translate(-278 116.013)" fill="#8298ae"/>
            <path id="パス_37" data-name="パス 37" d="M558.837,361.072l-16.717,8.358,9.75,13.931-47.366,6.966,25.077,18.111-48.719,7.385,76.582,51.127h-40.4l-2.786,34.827-37.615-27.861-4.178,26.469s-30.649-8.358-37.616-13.931-37.615-16.719-37.615-16.719L369.37,501.777l19.5,57.12,50.154-37.615L456.672,562.8H858.714l-44.437-12h0L662.791,373.428l-70.409-1.118-29.058-34.646-21.448-6.6Z" transform="translate(-183.691 117.203)" fill="#637f9a"/>
            <path id="パス_47" data-name="パス 47" d="M553.062,459.364l-1.394,36.221-41.794-75.229,9.752,94.734H497.335s1.394,15.325-2.786,16.717c-2.193.732-19.726,5.3-35.9,9.474H766.563l-44.437-14-12-12.191L570.64,351.911l20.035,85.164Z" transform="translate(-91.54 138.719)" fill="#2f5478"/>
          </g>
        </g>
      </g>
    </g>
  </g>
</svg>
