<svg xmlns="http://www.w3.org/2000/svg" width="16" height="16" viewBox="0 0 16 16">
  <g id="cmn_ico_arrow3" transform="translate(-288 -2038)">
    <rect id="black" width="16" height="16" transform="translate(304 2038) rotate(90)" fill="none"/>
    <path id="Arrow" d="M8.146,6.893,7.016,7.952a.554.554,0,0,1-.932-.4V1.107a1.107,1.107,0,1,0-2.213,0V7.531a.553.553,0,0,1-.935.4L1.857,6.9A1.1,1.1,0,1,0,.345,8.5L3.5,11.473a2.212,2.212,0,0,0,3.047-.007L9.659,8.494a1.1,1.1,0,0,0-1.514-1.6Z" transform="translate(291 2040)" fill="#fff"/>
  </g>
</svg>
