<svg xmlns="http://www.w3.org/2000/svg" width="16" height="14" viewBox="0 0 16 14">
  <g id="news_ico_win" transform="translate(-524 -222)">
    <path id="前面オブジェクトで型抜き_4" data-name="前面オブジェクトで型抜き 4" d="M1959-3746h-4v-2h3a1,1,0,0,0,1-1v-4a1,1,0,0,0-1-1h-4a1,1,0,0,0-1,1v1h-2v-2a2,2,0,0,1,2-2h6a2,2,0,0,1,2,2v6A2,2,0,0,1,1959-3746Z" transform="translate(-1421 3978)" fill="#115f73"/>
    <path id="前面オブジェクトで型抜き_2" data-name="前面オブジェクトで型抜き 2" d="M1952-3746h-6a2,2,0,0,1-2-2v-6a2,2,0,0,1,2-2h6a2,2,0,0,1,2,2v6A2,2,0,0,1,1952-3746Zm-6-5v2a1,1,0,0,0,1,1h4a1,1,0,0,0,1-1v-2Z" transform="translate(-1420 3982)" fill="#115f73"/>
  </g>
</svg>
